<?xml version="1.0" encoding="UTF-8"?>
<!DOCTYPE svg PUBLIC "-//W3C//DTD SVG 1.1//EN" "http://www.w3.org/Graphics/SVG/1.1/DTD/svg11.dtd">
<svg xmlns="http://www.w3.org/2000/svg" version="1.1" width="543px" height="360px" style="shape-rendering:geometricPrecision; text-rendering:geometricPrecision; image-rendering:optimizeQuality; fill-rule:evenodd; clip-rule:evenodd" xmlns:xlink="http://www.w3.org/1999/xlink">
<g><path style="opacity:1" fill="#000000" d="M -0.5,-0.5 C 0.5,-0.5 1.5,-0.5 2.5,-0.5C 13.1667,10.5 23.8333,21.5 34.5,32.5C 33.1667,32.5 32.5,33.1667 32.5,34.5C 21.5,23.8333 10.5,13.1667 -0.5,2.5C -0.5,1.5 -0.5,0.5 -0.5,-0.5 Z"/></g>
<g><path style="opacity:1" fill="#fefffe" d="M 2.5,-0.5 C 182.167,-0.5 361.833,-0.5 541.5,-0.5C 530.833,10.5 520.167,21.5 509.5,32.5C 351.167,32.5 192.833,32.5 34.5,32.5C 23.8333,21.5 13.1667,10.5 2.5,-0.5 Z"/></g>
<g><path style="opacity:1" fill="#2014a2" d="M 541.5,-0.5 C 541.833,-0.5 542.167,-0.5 542.5,-0.5C 542.5,119.5 542.5,239.5 542.5,359.5C 542.167,359.5 541.833,359.5 541.5,359.5C 530.833,348.5 520.167,337.5 509.5,326.5C 509.5,228.5 509.5,130.5 509.5,32.5C 520.167,21.5 530.833,10.5 541.5,-0.5 Z"/></g>
<g><path style="opacity:1" fill="#fdde00" d="M -0.5,2.5 C 10.5,13.1667 21.5,23.8333 32.5,34.5C 32.5,131.833 32.5,229.167 32.5,326.5C 21.8333,337.5 11.1667,348.5 0.5,359.5C 0.166667,359.5 -0.166667,359.5 -0.5,359.5C -0.5,240.5 -0.5,121.5 -0.5,2.5 Z"/></g>
<g><path style="opacity:1" fill="#c44417" d="M 34.5,32.5 C 192.833,32.5 351.167,32.5 509.5,32.5C 509.5,130.5 509.5,228.5 509.5,326.5C 350.5,326.5 191.5,326.5 32.5,326.5C 32.5,229.167 32.5,131.833 32.5,34.5C 32.5,33.1667 33.1667,32.5 34.5,32.5 Z"/></g>
<g><path style="opacity:1" fill="#fefffe" d="M 43.5,43.5 C 195.167,43.5 346.833,43.5 498.5,43.5C 498.5,134.167 498.5,224.833 498.5,315.5C 346.833,315.5 195.167,315.5 43.5,315.5C 43.5,224.833 43.5,134.167 43.5,43.5 Z"/></g>
<g><path style="opacity:1" fill="#c34317" d="M 315.5,114.5 C 321.119,116.646 326.119,119.812 330.5,124C 336.93,130.364 342.263,137.53 346.5,145.5C 350.662,142.086 355.328,139.753 360.5,138.5C 362.752,133.345 366.752,130.845 372.5,131C 375.037,128.147 375.87,124.98 375,121.5C 378.628,118.059 382.795,116.725 387.5,117.5C 388.966,113.394 391.3,109.894 394.5,107C 396.966,107.07 399.3,106.904 401.5,106.5C 403.334,107.754 405.334,108.421 407.5,108.5C 407.5,106.167 407.5,103.833 407.5,101.5C 411.374,102.761 415.374,103.428 419.5,103.5C 419.5,154.167 419.5,204.833 419.5,255.5C 415.513,255.716 411.68,255.049 408,253.5C 405.451,254.409 403.951,256.242 403.5,259C 400.97,258.204 398.304,257.871 395.5,258C 393.263,265.394 388.597,267.394 381.5,264C 377.538,258.715 372.205,255.548 365.5,254.5C 364.231,252.305 364.231,250.139 365.5,248C 360.153,247.857 357.653,245.024 358,239.5C 357.333,238.167 356.333,237.167 355,236.5C 351.525,238.818 347.692,239.818 343.5,239.5C 343.769,237.571 343.269,235.905 342,234.5C 340.274,235.576 338.441,235.743 336.5,235C 333.238,232.408 330.738,229.241 329,225.5C 321.596,232.036 313.263,237.036 304,240.5C 303.5,259.83 303.333,279.164 303.5,298.5C 298.457,299.569 294.623,297.903 292,293.5C 289.38,287.086 285.88,281.253 281.5,276C 279.913,275.138 278.246,274.471 276.5,274C 266.045,274.056 255.711,273.056 245.5,271C 243.877,268.92 242.377,266.754 241,264.5C 238.147,267.052 235.647,269.885 233.5,273C 229.998,273.694 226.664,273.194 223.5,271.5C 221.377,272.312 219.21,272.978 217,273.5C 215.159,272.875 213.326,272.708 211.5,273C 209.554,276.881 206.888,280.214 203.5,283C 196.368,285.477 189.034,287.143 181.5,288C 174.5,292.833 167.5,297.667 160.5,302.5C 159.334,284.509 159.167,266.509 160,248.5C 163.167,245.667 166.333,242.833 169.5,240C 171.112,239.28 172.612,239.446 174,240.5C 174.936,236.793 176.769,233.626 179.5,231C 182.838,229.794 184.671,230.96 185,234.5C 185.567,229.277 187.901,228.277 192,231.5C 194.48,229.834 197.313,229.001 200.5,229C 182.836,228.5 165.17,228.333 147.5,228.5C 152.116,202.139 156.949,175.806 162,149.5C 172.667,137.5 183.333,125.5 194,113.5C 194.5,96.8367 194.667,80.17 194.5,63.5C 198.576,63.6802 202.409,64.6802 206,66.5C 209.401,65.7266 212.734,65.3932 216,65.5C 217.261,65.7591 218.261,66.4258 219,67.5C 222.35,64.7926 224.017,65.7926 224,70.5C 225.389,68.7727 227.056,67.4394 229,66.5C 230.653,66.8198 231.653,67.8198 232,69.5C 232.49,68.2068 232.657,66.8734 232.5,65.5C 233.873,65.3433 235.207,65.51 236.5,66C 239.885,68.4894 243.052,71.3227 246,74.5C 246.483,73.552 246.649,72.552 246.5,71.5C 251.993,71.5864 253.66,74.2531 251.5,79.5C 251.808,80.3081 252.308,80.9747 253,81.5C 254.352,79.4062 254.852,77.0728 254.5,74.5C 258.375,73.8742 260.209,75.5408 260,79.5C 261.011,80.3366 262.178,80.67 263.5,80.5C 263.355,83.052 262.855,85.3854 262,87.5C 262.414,87.9574 262.914,88.2907 263.5,88.5C 268.406,83.9156 271.573,84.9156 273,91.5C 276.191,94.0306 279.358,96.5306 282.5,99C 284.874,101.039 286.874,103.372 288.5,106C 293.989,106.202 299.322,107.202 304.5,109C 308.787,109.81 312.454,111.643 315.5,114.5 Z"/></g>
<g><path style="opacity:1" fill="#fefffe" d="M 251.5,114.5 C 249.847,114.66 248.514,115.326 247.5,116.5C 230.916,126.616 220.416,141.283 216,160.5C 211.192,194.048 223.359,219.215 252.5,236C 268.177,243.521 284.344,245.021 301,240.5C 301.5,259.164 301.667,277.83 301.5,296.5C 298.215,296.731 295.715,295.397 294,292.5C 291.294,285.578 287.46,279.411 282.5,274C 280.913,273.138 279.246,272.471 277.5,272C 267.045,272.056 256.711,271.056 246.5,269C 244.998,266.456 243.164,264.29 241,262.5C 237.317,265.187 233.983,268.187 231,271.5C 226.303,268.935 221.636,268.935 217,271.5C 214.88,270.541 212.713,270.374 210.5,271C 208.554,274.881 205.888,278.214 202.5,281C 195.368,283.477 188.034,285.143 180.5,286C 174.247,290.043 168.08,294.21 162,298.5C 161.333,282.5 161.333,266.5 162,250.5C 164.833,247.667 167.667,244.833 170.5,242C 172.425,242.135 174.425,242.302 176.5,242.5C 176.578,238.344 178.245,235.011 181.5,232.5C 184.46,237.968 186.793,237.634 188.5,231.5C 189.548,232.383 190.715,233.05 192,233.5C 194.912,231.934 198.079,231.101 201.5,231C 202.833,229.667 202.833,228.333 201.5,227C 184.167,226.667 166.833,226.333 149.5,226C 154.489,200.905 159.322,175.738 164,150.5C 174.667,138.5 185.333,126.5 196,114.5C 196.333,98.1667 196.667,81.8333 197,65.5C 200.057,66.248 203.057,67.248 206,68.5C 211.339,68.4963 216.339,68.4963 221,68.5C 221.118,70.5733 222.118,71.9067 224,72.5C 226.053,71.6413 227.72,70.3079 229,68.5C 231.621,72.6326 233.621,72.2993 235,67.5C 238.053,70.3314 241.219,73.1647 244.5,76C 246.888,76.8651 248.388,76.0317 249,73.5C 249.87,74.1079 250.37,74.9412 250.5,76C 248.658,79.4855 249.492,81.9855 253,83.5C 255.892,82.1796 257.225,79.8463 257,76.5C 257.001,79.7868 258.501,81.9535 261.5,83C 259.637,84.4178 259.137,86.2511 260,88.5C 260.956,89.8941 262.289,90.5607 264,90.5C 266.117,89.8419 267.95,89.0085 269.5,88C 270.255,90.1748 271.088,92.3415 272,94.5C 276.034,98.1086 280.201,101.609 284.5,105C 277.049,105.753 269.715,107.086 262.5,109C 258.213,109.81 254.546,111.643 251.5,114.5 Z"/></g>
<g><path style="opacity:1" fill="#fefffe" d="M 409.5,103.5 C 411.913,105.051 414.579,105.717 417.5,105.5C 417.5,154.833 417.5,204.167 417.5,253.5C 413.238,252.242 408.904,251.742 404.5,252C 402.954,253.44 402.121,255.273 402,257.5C 399.503,255.522 396.669,255.022 393.5,256C 391.776,262.294 388.109,264.128 382.5,261.5C 380.394,260.103 378.727,258.27 377.5,256C 374.07,255.119 370.737,253.952 367.5,252.5C 367.162,250.345 367.162,248.011 367.5,245.5C 362.114,245.806 359.614,243.14 360,237.5C 359.5,236.333 358.667,235.5 357.5,235C 353.379,235.092 349.379,235.925 345.5,237.5C 345.762,236.022 345.429,234.689 344.5,233.5C 338.256,233.481 333.923,230.315 331.5,224C 351.847,202.443 357.181,177.61 347.5,149.5C 351.424,144.705 356.424,141.705 362.5,140.5C 364.448,135.523 368.115,133.023 373.5,133C 374.787,131.59 375.954,130.09 377,128.5C 377.208,126.141 377.374,123.974 377.5,122C 379.329,121.727 380.829,120.893 382,119.5C 384.774,120.523 387.607,120.523 390.5,119.5C 390.687,117.436 391.187,115.436 392,113.5C 393.959,112.252 395.459,110.585 396.5,108.5C 400.452,109.542 404.786,110.208 409.5,110.5C 409.5,108.167 409.5,105.833 409.5,103.5 Z"/></g>
<g><path style="opacity:1" fill="#331106" d="M 282.5,107.5 C 283.601,106.402 284.934,106.235 286.5,107C 285.033,108.098 284.199,109.598 284,111.5C 283.79,109.942 283.29,108.609 282.5,107.5 Z"/></g>
<g><path style="opacity:1" fill="#2f1307" d="M 279.5,106.5 C 281.104,107.287 281.771,108.62 281.5,110.5C 280.5,110.5 279.5,110.5 278.5,110.5C 278.433,109.041 278.766,107.708 279.5,106.5 Z"/></g>
<g><path style="opacity:1" fill="#291105" d="M 267.5,108.5 C 268.75,108.577 269.583,109.244 270,110.5C 270.556,108.405 271.056,108.238 271.5,110C 269.192,114.537 267.858,114.037 267.5,108.5 Z"/></g>
<g><path style="opacity:1" fill="#1e0b03" d="M 273.5,107.5 C 275.765,107.441 276.098,108.274 274.5,110C 277.39,111.892 277.056,112.725 273.5,112.5C 273.5,110.833 273.5,109.167 273.5,107.5 Z"/></g>
<g><path style="opacity:1" fill="#511e0e" d="M 291.5,107.5 C 294.598,107.413 294.932,107.913 292.5,109C 293.973,109.71 294.64,110.876 294.5,112.5C 293.022,112.762 291.689,112.429 290.5,111.5C 291.246,110.264 291.579,108.93 291.5,107.5 Z"/></g>
<g><path style="opacity:1" fill="#240f05" d="M 301.5,109.5 C 302.649,109.791 303.316,110.624 303.5,112C 303.333,112.833 303.167,113.667 303,114.5C 301.933,113.809 300.766,113.309 299.5,113C 300.823,112.184 301.489,111.017 301.5,109.5 Z"/></g>
<g><path style="opacity:1" fill="#4e1e0e" d="M 263.5,109.5 C 266.598,109.413 266.932,109.913 264.5,111C 266.886,111.284 267.552,112.284 266.5,114C 262.707,114.487 261.707,112.987 263.5,109.5 Z"/></g>
<g><path style="opacity:1" fill="#000000" d="M 256.5,118.5 C 256.833,118.5 257.167,118.5 257.5,118.5C 258.172,119.267 259.005,119.934 260,120.5C 260.829,115.66 262.496,115.327 265,119.5C 265.23,115.517 266.563,114.851 269,117.5C 270.261,114.18 271.928,113.846 274,116.5C 275,115.5 276,114.5 277,113.5C 279.475,117.292 281.642,116.958 283.5,112.5C 285.358,116.958 287.525,117.292 290,113.5C 291.577,116.675 293.41,117.009 295.5,114.5C 296.333,115.5 297.167,116.5 298,117.5C 300.437,114.851 301.77,115.517 302,119.5C 304.504,115.327 306.171,115.66 307,120.5C 309.837,117.629 311.504,118.295 312,122.5C 313.011,121.663 314.178,121.33 315.5,121.5C 315.008,125.29 315.841,125.956 318,123.5C 319.117,124.949 319.784,126.616 320,128.5C 321.011,127.663 322.178,127.33 323.5,127.5C 323.67,128.822 323.337,129.989 322.5,131C 323.899,131.595 325.232,131.428 326.5,130.5C 326.88,132.021 327.046,133.687 327,135.5C 328.011,134.663 329.178,134.33 330.5,134.5C 330.67,135.822 330.337,136.989 329.5,138C 331.384,138.216 333.051,138.883 334.5,140C 332.044,142.159 332.71,142.992 336.5,142.5C 336.67,143.822 336.337,144.989 335.5,146C 339.705,146.496 340.371,148.163 337.5,151C 342.34,151.829 342.673,153.496 338.5,156C 342.483,156.23 343.149,157.563 340.5,160C 343.82,161.261 344.154,162.928 341.5,165C 342.5,166 343.5,167 344.5,168C 340.708,170.475 341.042,172.642 345.5,174.5C 341.042,176.358 340.708,178.525 344.5,181C 341.325,182.577 340.991,184.41 343.5,186.5C 342.5,187.333 341.5,188.167 340.5,189C 343.149,191.437 342.483,192.77 338.5,193C 342.673,195.504 342.34,197.171 337.5,198C 340.371,200.837 339.705,202.504 335.5,203C 336.337,204.011 336.67,205.178 336.5,206.5C 332.71,206.008 332.044,206.841 334.5,209C 333.051,210.117 331.384,210.784 329.5,211C 330.337,212.011 330.67,213.178 330.5,214.5C 329.178,214.67 328.011,214.337 327,213.5C 326.405,214.899 326.572,216.232 327.5,217.5C 325.979,217.88 324.313,218.046 322.5,218C 323.337,219.011 323.67,220.178 323.5,221.5C 322.178,221.67 321.011,221.337 320,220.5C 319.784,222.384 319.117,224.051 318,225.5C 315.841,223.044 315.008,223.71 315.5,227.5C 314.178,227.67 313.011,227.337 312,226.5C 311.504,230.705 309.837,231.371 307,228.5C 306.171,233.34 304.504,233.673 302,229.5C 301.77,233.483 300.437,234.149 298,231.5C 296.739,234.82 295.072,235.154 293,232.5C 292,233.5 291,234.5 290,235.5C 287.525,231.708 285.358,232.042 283.5,236.5C 281.642,232.042 279.475,231.708 277,235.5C 275.423,232.325 273.59,231.991 271.5,234.5C 270.667,233.5 269.833,232.5 269,231.5C 266.563,234.149 265.23,233.483 265,229.5C 262.496,233.673 260.829,233.34 260,228.5C 257.163,231.371 255.496,230.705 255,226.5C 253.989,227.337 252.822,227.67 251.5,227.5C 251.992,223.71 251.159,223.044 249,225.5C 247.883,224.051 247.216,222.384 247,220.5C 245.989,221.337 244.822,221.67 243.5,221.5C 243.33,220.178 243.663,219.011 244.5,218C 243.101,217.405 241.768,217.572 240.5,218.5C 240.12,216.979 239.954,215.313 240,213.5C 238.989,214.337 237.822,214.67 236.5,214.5C 236.33,213.178 236.663,212.011 237.5,211C 235.616,210.784 233.949,210.117 232.5,209C 234.956,206.841 234.29,206.008 230.5,206.5C 230.33,205.178 230.663,204.011 231.5,203C 227.295,202.504 226.629,200.837 229.5,198C 224.66,197.171 224.327,195.504 228.5,193C 224.517,192.77 223.851,191.437 226.5,189C 223.18,187.739 222.846,186.072 225.5,184C 224.5,183 223.5,182 222.5,181C 226.292,178.525 225.958,176.358 221.5,174.5C 225.958,172.642 226.292,170.475 222.5,168C 225.675,166.423 226.009,164.59 223.5,162.5C 224.5,161.667 225.5,160.833 226.5,160C 223.851,157.563 224.517,156.23 228.5,156C 224.327,153.496 224.66,151.829 229.5,151C 226.629,148.163 227.295,146.496 231.5,146C 230.663,144.989 230.33,143.822 230.5,142.5C 234.29,142.992 234.956,142.159 232.5,140C 233.949,138.883 235.616,138.216 237.5,138C 236.663,136.989 236.33,135.822 236.5,134.5C 237.822,134.33 238.989,134.663 240,135.5C 240.595,134.101 240.428,132.768 239.5,131.5C 241.021,131.12 242.687,130.954 244.5,131C 243.663,129.989 243.33,128.822 243.5,127.5C 244.822,127.33 245.989,127.663 247,128.5C 247.216,126.616 247.883,124.949 249,123.5C 251.159,125.956 251.992,125.29 251.5,121.5C 252.822,121.33 253.989,121.663 255,122.5C 255.41,121.099 255.91,119.766 256.5,118.5 Z"/></g>
<g><path style="opacity:1" fill="#301206" d="M 295.5,108.5 C 296.873,108.343 298.207,108.51 299.5,109C 296.833,109.667 296.833,110.333 299.5,111C 296.456,111.359 296.122,112.026 298.5,113C 297.552,113.483 296.552,113.649 295.5,113.5C 295.5,111.833 295.5,110.167 295.5,108.5 Z"/></g>
<g><path style="opacity:1" fill="#692610" d="M 257.5,118.5 C 257.167,118.5 256.833,118.5 256.5,118.5C 255.175,117.047 254.342,117.381 254,119.5C 253.667,118.833 253.333,118.167 253,117.5C 251.796,118.471 251.296,119.471 251.5,120.5C 250.416,119.335 249.583,118.002 249,116.5C 248.576,118.615 247.409,119.448 245.5,119C 246.381,118.292 247.047,117.458 247.5,116.5C 248.514,115.326 249.847,114.66 251.5,114.5C 253.494,113.65 255.494,113.15 257.5,113C 256.366,114.016 256.699,114.683 258.5,115C 256.122,115.974 256.456,116.641 259.5,117C 258.584,117.278 257.918,117.778 257.5,118.5 Z"/></g>
<g><path style="opacity:1" fill="#f3f3f3" d="M 278.5,117.5 C 315.793,118.461 336.46,137.461 340.5,174.5C 337.167,209.167 318.167,228.167 283.5,231.5C 248.833,228.167 229.833,209.167 226.5,174.5C 229.294,142.046 246.627,123.046 278.5,117.5 Z"/></g>
<g><path style="opacity:1" fill="#61230f" d="M 315.5,114.5 C 316.504,115.683 317.338,117.016 318,118.5C 319.297,117.216 320.464,117.383 321.5,119C 319.699,119.317 319.366,119.984 320.5,121C 319.234,121.309 318.067,121.809 317,122.5C 316.009,121.061 314.676,120.061 313,119.5C 311.923,116.738 312.756,115.072 315.5,114.5 Z"/></g>
<g><path style="opacity:1" fill="#414141" d="M 281.5,119.5 C 283.924,119.192 286.257,119.526 288.5,120.5C 286.922,121.298 285.256,121.798 283.5,122C 284.938,122.219 286.271,122.719 287.5,123.5C 280.833,124.833 280.833,126.167 287.5,127.5C 285.604,128.466 283.604,128.799 281.5,128.5C 281.5,125.5 281.5,122.5 281.5,119.5 Z"/></g>
<g><path style="opacity:1" fill="#202020" d="M 271.5,120.5 C 273.048,120.821 273.715,121.821 273.5,123.5C 274.833,123.5 276.167,123.5 277.5,123.5C 277.351,122.448 277.517,121.448 278,120.5C 279.436,123.143 279.602,125.81 278.5,128.5C 277.571,127.311 277.238,125.978 277.5,124.5C 276.5,124.5 275.5,124.5 274.5,124.5C 274.762,125.978 274.429,127.311 273.5,128.5C 272.205,125.988 271.539,123.321 271.5,120.5 Z"/></g>
<g><path style="opacity:1" fill="#1a1a1a" d="M 264.5,122.5 C 266.288,122.215 267.955,122.548 269.5,123.5C 268.284,124.096 266.951,124.263 265.5,124C 263.863,129.367 265.363,130.534 270,127.5C 270.617,128.449 270.451,129.282 269.5,130C 262.745,130.756 261.078,128.256 264.5,122.5 Z"/></g>
<g><path style="opacity:1" fill="#2d2d2d" d="M 255.5,126.5 C 258.63,127.572 261.296,129.406 263.5,132C 261.866,132.494 260.199,132.66 258.5,132.5C 258.688,134.103 258.188,135.437 257,136.5C 255.684,133.312 255.184,129.978 255.5,126.5 Z"/></g>
<g><path style="opacity:1" fill="#1c1c1c" d="M 293.5,120.5 C 296.022,120.878 298.355,121.711 300.5,123C 299.234,123.309 298.067,123.809 297,124.5C 294.997,131.021 294.497,131.021 295.5,124.5C 294.775,123.133 294.108,121.8 293.5,120.5 Z"/></g>
<g><path style="opacity:1" fill="#1d1d1d" d="M 301.5,123.5 C 304.386,123.61 306.72,124.777 308.5,127C 306.704,128.753 305.538,130.92 305,133.5C 304.727,131.899 304.227,130.399 303.5,129C 302.258,128.689 301.258,129.189 300.5,130.5C 300.167,130.167 299.833,129.833 299.5,129.5C 300.372,127.55 301.039,125.55 301.5,123.5 Z"/></g>
<g><path style="opacity:1" fill="#f9f9f9" d="M 303.5,125.5 C 305.983,125.73 306.483,126.397 305,127.5C 303.97,127.164 303.47,126.497 303.5,125.5 Z"/></g>
<g><path style="opacity:1" fill="#000000" d="M 319.5,201.5 C 300.765,220.621 279.765,223.454 256.5,210C 241.932,197.296 236.766,181.463 241,162.5C 250.507,137.157 268.674,126.991 295.5,132C 320.843,141.507 331.009,159.674 326,186.5C 324.354,191.785 322.187,196.785 319.5,201.5 Z"/></g>
<g><path style="opacity:1" fill="#232323" d="M 249.5,130.5 C 250.833,130.5 252.167,130.5 253.5,130.5C 252.927,133.811 252.26,136.811 251.5,139.5C 249.5,138.167 247.833,136.5 246.5,134.5C 247.524,133.148 248.524,131.815 249.5,130.5 Z"/></g>
<g><path style="opacity:1" fill="#fefffe" d="M 278.5,131.5 C 307.124,131.793 323.124,146.126 326.5,174.5C 322.262,206.237 304.262,220.071 272.5,216C 247.773,207.055 237.606,189.555 242,163.5C 247.861,145.463 260.028,134.796 278.5,131.5 Z"/></g>
<g><path style="opacity:1" fill="#222222" d="M 310.5,127.5 C 311.376,127.369 312.043,127.702 312.5,128.5C 307.058,137.843 306.392,137.509 310.5,127.5 Z"/></g>
<g><path style="opacity:1" fill="#ebebeb" d="M 249.5,132.5 C 251.973,132.947 252.14,133.947 250,135.5C 248.272,134.648 248.105,133.648 249.5,132.5 Z"/></g>
<g><path style="opacity:1" fill="#262626" d="M 313.5,129.5 C 320.886,131.821 321.386,135.154 315,139.5C 313.099,138.464 311.265,137.298 309.5,136C 311.232,134.028 312.565,131.861 313.5,129.5 Z"/></g>
<g><path style="opacity:1" fill="#eaeaea" d="M 314.5,133.5 C 315.386,132.224 316.386,132.224 317.5,133.5C 316.575,134.562 315.575,134.562 314.5,133.5 Z"/></g>
<g><path style="opacity:1" fill="#eaeaea" d="M 312.5,134.5 C 313.995,134.415 314.995,135.081 315.5,136.5C 313.604,137.639 312.604,136.973 312.5,134.5 Z"/></g>
<g><path style="opacity:1" fill="#1d1d1d" d="M 320.5,136.5 C 323.859,136.698 325.692,138.365 326,141.5C 324.829,139.384 323.329,138.718 321.5,139.5C 324.153,144.189 323.653,144.523 320,140.5C 318.563,142.221 319.063,143.721 321.5,145C 319.248,144.95 317.582,143.784 316.5,141.5C 317.857,139.814 319.19,138.148 320.5,136.5 Z"/></g>
<g><path style="opacity:1" fill="#337349" d="M 306.5,152.5 C 305.477,154.846 304.477,157.179 303.5,159.5C 303.334,164.511 303.501,169.511 304,174.5C 304.333,171.833 304.667,169.167 305,166.5C 305.383,165.944 305.883,165.611 306.5,165.5C 307.5,164.833 308.5,164.167 309.5,163.5C 309.577,167.215 309.244,170.881 308.5,174.5C 303.976,176.197 302.309,179.531 303.5,184.5C 303.167,193.833 302.833,193.833 302.5,184.5C 302.432,180.112 301.432,176.112 299.5,172.5C 299.5,171.167 299.5,169.833 299.5,168.5C 299.703,166.61 299.037,165.11 297.5,164C 298.094,163.536 298.761,163.369 299.5,163.5C 301.018,166.534 301.851,169.867 302,173.5C 302.499,169.514 302.666,165.514 302.5,161.5C 302.649,160.448 302.483,159.448 302,158.5C 300.512,160.16 298.679,161.16 296.5,161.5C 295.883,161.389 295.383,161.056 295,160.5C 294.277,156.19 293.11,152.023 291.5,148C 291.989,146.862 292.322,145.695 292.5,144.5C 295.786,147.698 298.619,151.364 301,155.5C 302.283,150.343 302.95,145.01 303,139.5C 303.172,144.202 303.672,148.868 304.5,153.5C 305.183,153.137 305.85,152.804 306.5,152.5 Z"/></g>
<g><path style="opacity:1" fill="#161616" d="M 241.5,138.5 C 244.688,138.618 247.688,139.451 250.5,141C 246.977,141.662 245.31,143.495 245.5,146.5C 243.607,144.048 242.274,141.381 241.5,138.5 Z"/></g>
<g><path style="opacity:1" fill="#b9b9b9" d="M 243.5,139.5 C 246.15,139.958 246.65,140.958 245,142.5C 243.961,141.756 243.461,140.756 243.5,139.5 Z"/></g>
<g><path style="opacity:1" fill="#156d4b" d="M 265.5,153.5 C 264.557,155.001 264.891,156.335 266.5,157.5C 266.5,157.833 266.5,158.167 266.5,158.5C 267.953,159.825 267.619,160.658 265.5,161C 266.5,162 267.5,163 268.5,164C 267.833,164.333 267.167,164.667 266.5,165C 269.464,165.84 269.797,166.84 267.5,168C 270.706,168.927 271.039,170.093 268.5,171.5C 267.761,171.369 267.094,171.536 266.5,172C 268.904,172.508 269.571,173.675 268.5,175.5C 270.991,176.541 270.991,177.374 268.5,178C 269.672,178.419 270.672,179.085 271.5,180C 269.5,179.207 267.5,179.374 265.5,180.5C 263.891,180.094 262.557,180.094 261.5,180.5C 262.646,181.719 263.646,183.052 264.5,184.5C 265.386,183.675 265.719,182.675 265.5,181.5C 271.648,181.662 277.648,182.662 283.5,184.5C 283.611,185.117 283.944,185.617 284.5,186C 282.527,186.495 280.527,186.662 278.5,186.5C 276.162,184.989 275.496,185.323 276.5,187.5C 276.167,187.5 275.833,187.5 275.5,187.5C 270.778,186.806 266.112,186.806 261.5,187.5C 261.5,186.5 261.5,185.5 261.5,184.5C 258.482,184.665 255.482,184.498 252.5,184C 253.672,183.581 254.672,182.915 255.5,182C 250.645,182.078 247.311,179.911 245.5,175.5C 246.325,174.614 247.325,174.281 248.5,174.5C 252.514,174.666 256.514,174.499 260.5,174C 261.888,173.111 261.722,172.611 260,172.5C 255.231,173.953 254.731,173.453 258.5,171C 254.956,168.924 255.623,167.591 260.5,167C 259.207,166.51 257.873,166.343 256.5,166.5C 257.343,164.827 258.676,163.66 260.5,163C 259.833,162.667 259.167,162.333 258.5,162C 259.833,161.333 261.167,160.667 262.5,160C 261.328,159.581 260.328,158.915 259.5,158C 258.939,156.434 259.606,155.101 261.5,154C 259.009,153.374 259.009,152.541 261.5,151.5C 261.291,150.914 260.957,150.414 260.5,150C 261.714,147.649 262.548,145.149 263,142.5C 264.499,146.747 265.332,150.414 265.5,153.5 Z"/></g>
<g><path style="opacity:1" fill="#8d933b" d="M 292.5,144.5 C 292.322,145.695 291.989,146.862 291.5,148C 293.11,152.023 294.277,156.19 295,160.5C 295.383,161.056 295.883,161.389 296.5,161.5C 296.217,162.289 295.717,162.956 295,163.5C 291.567,159.558 287.734,156.224 283.5,153.5C 285.168,151.66 286.668,149.66 288,147.5C 289.129,145.859 290.629,144.859 292.5,144.5 Z"/></g>
<g><path style="opacity:1" fill="#8d933b" d="M 266.5,157.5 C 264.891,156.335 264.557,155.001 265.5,153.5C 267.451,152.284 268.951,150.618 270,148.5C 270.167,148.833 270.333,149.167 270.5,149.5C 268.974,152.191 267.64,154.857 266.5,157.5 Z"/></g>
<g><path style="opacity:1" fill="#939845" d="M 280.5,152.5 C 282.764,155.287 284.431,158.454 285.5,162C 283.495,165.492 280.829,168.326 277.5,170.5C 274.455,170.508 271.455,170.841 268.5,171.5C 271.039,170.093 270.706,168.927 267.5,168C 269.797,166.84 269.464,165.84 266.5,165C 267.167,164.667 267.833,164.333 268.5,164C 267.5,163 266.5,162 265.5,161C 267.619,160.658 267.953,159.825 266.5,158.5C 267.217,157.539 268.383,156.539 270,155.5C 270.511,153.122 271.178,150.788 272,148.5C 273.646,149.779 274.813,151.445 275.5,153.5C 277.07,151.621 278.736,151.288 280.5,152.5 Z"/></g>
<g><path style="opacity:1" fill="#8f913b" d="M 306.5,152.5 C 307.189,151.226 308.023,151.226 309,152.5C 311.109,156.926 312.609,161.593 313.5,166.5C 316.053,168.77 318.053,171.436 319.5,174.5C 315.833,174.5 312.167,174.5 308.5,174.5C 309.244,170.881 309.577,167.215 309.5,163.5C 310.128,159.509 308.795,158.176 305.5,159.5C 307.545,157.304 307.878,154.97 306.5,152.5 Z"/></g>
<g><path style="opacity:1" fill="#c44417" d="M 280.5,152.5 C 281.391,153.11 282.391,153.443 283.5,153.5C 287.734,156.224 291.567,159.558 295,163.5C 295.717,162.956 296.217,162.289 296.5,161.5C 298.679,161.16 300.512,160.16 302,158.5C 302.483,159.448 302.649,160.448 302.5,161.5C 301.29,161.932 300.29,162.599 299.5,163.5C 298.761,163.369 298.094,163.536 297.5,164C 299.037,165.11 299.703,166.61 299.5,168.5C 296.536,166.705 293.702,164.705 291,162.5C 290.5,162.667 290,162.833 289.5,163C 292.404,169.379 291.738,169.879 287.5,164.5C 285.122,166.552 282.789,168.552 280.5,170.5C 279.5,170.5 278.5,170.5 277.5,170.5C 280.829,168.326 283.495,165.492 285.5,162C 284.431,158.454 282.764,155.287 280.5,152.5 Z"/></g>
<g><path style="opacity:1" fill="#fefffe" d="M 288.5,152.5 C 289.766,153.09 291.099,153.59 292.5,154C 290.537,154.844 289.204,154.344 288.5,152.5 Z"/></g>
<g><path style="opacity:1" fill="#c44417" d="M 306.5,152.5 C 307.878,154.97 307.545,157.304 305.5,159.5C 304.833,159.5 304.167,159.5 303.5,159.5C 304.477,157.179 305.477,154.846 306.5,152.5 Z"/></g>
<g><path style="opacity:1" fill="#000000" d="M 234.5,154.5 C 235.401,156.757 237.068,158.257 239.5,159C 237.386,160.498 236.886,162.331 238,164.5C 236,161.833 234,161.833 232,164.5C 233.114,162.331 232.614,160.498 230.5,159C 233.072,158.568 234.406,157.068 234.5,154.5 Z"/></g>
<g><path style="opacity:1" fill="#000000" d="M 331.5,154.5 C 332.401,156.757 334.068,158.257 336.5,159C 334.386,160.498 333.886,162.331 335,164.5C 333,161.833 331,161.833 329,164.5C 330.114,162.331 329.614,160.498 327.5,159C 330.072,158.568 331.406,157.068 331.5,154.5 Z"/></g>
<g><path style="opacity:1" fill="#fefffe" d="M 309.5,163.5 C 308.5,164.167 307.5,164.833 306.5,165.5C 306.167,163.5 305.833,161.5 305.5,159.5C 308.795,158.176 310.128,159.509 309.5,163.5 Z"/></g>
<g><path style="opacity:1" fill="#fefffe" d="M 270.5,159.5 C 271.239,159.369 271.906,159.536 272.5,160C 269.834,166.139 269.167,165.972 270.5,159.5 Z"/></g>
<g><path style="opacity:1" fill="#938e39" d="M 303.5,159.5 C 304.167,159.5 304.833,159.5 305.5,159.5C 305.833,161.5 306.167,163.5 306.5,165.5C 305.883,165.611 305.383,165.944 305,166.5C 304.667,169.167 304.333,171.833 304,174.5C 303.501,169.511 303.334,164.511 303.5,159.5 Z"/></g>
<g><path style="opacity:1" fill="#988936" d="M 302.5,161.5 C 302.666,165.514 302.499,169.514 302,173.5C 301.851,169.867 301.018,166.534 299.5,163.5C 300.29,162.599 301.29,161.932 302.5,161.5 Z"/></g>
<g><path style="opacity:1" fill="#8d933b" d="M 299.5,168.5 C 299.5,169.833 299.5,171.167 299.5,172.5C 293.179,171.724 286.846,171.058 280.5,170.5C 282.789,168.552 285.122,166.552 287.5,164.5C 291.738,169.879 292.404,169.379 289.5,163C 290,162.833 290.5,162.667 291,162.5C 293.702,164.705 296.536,166.705 299.5,168.5 Z"/></g>
<g><path style="opacity:1" fill="#8d933b" d="M 256.5,166.5 C 257.873,166.343 259.207,166.51 260.5,167C 255.623,167.591 254.956,168.924 258.5,171C 254.731,173.453 255.231,173.953 260,172.5C 261.722,172.611 261.888,173.111 260.5,174C 256.514,174.499 252.514,174.666 248.5,174.5C 248.369,173.761 248.536,173.094 249,172.5C 251.688,170.636 254.188,168.636 256.5,166.5 Z"/></g>
<g><path style="opacity:1" fill="#6772b8" d="M 277.5,170.5 C 278.5,170.5 279.5,170.5 280.5,170.5C 286.846,171.058 293.179,171.724 299.5,172.5C 301.432,176.112 302.432,180.112 302.5,184.5C 300.275,185.924 297.775,186.591 295,186.5C 291.114,186.069 287.28,185.403 283.5,184.5C 277.648,182.662 271.648,181.662 265.5,181.5C 265.5,181.167 265.5,180.833 265.5,180.5C 267.5,179.374 269.5,179.207 271.5,180C 270.672,179.085 269.672,178.419 268.5,178C 270.991,177.374 270.991,176.541 268.5,175.5C 269.571,173.675 268.904,172.508 266.5,172C 267.094,171.536 267.761,171.369 268.5,171.5C 271.455,170.841 274.455,170.508 277.5,170.5 Z"/></g>
<g><path style="opacity:1" fill="#6772b8" d="M 308.5,174.5 C 312.167,174.5 315.833,174.5 319.5,174.5C 320.791,176.59 320.124,177.924 317.5,178.5C 312.129,179.169 307.462,181.169 303.5,184.5C 302.309,179.531 303.976,176.197 308.5,174.5 Z"/></g>
<g><path style="opacity:1" fill="#6772b8" d="M 254.5,175.5 C 256.854,175.838 259.187,176.338 261.5,177C 258.463,178.85 255.463,178.85 252.5,177C 253.416,176.722 254.082,176.222 254.5,175.5 Z"/></g>
<g><path style="opacity:1" fill="#1a1a1a" d="M 334.5,174.5 C 335.675,174.281 336.675,174.614 337.5,175.5C 334.833,177.833 334.833,180.167 337.5,182.5C 337.167,182.833 336.833,183.167 336.5,183.5C 332.858,182.233 330.524,179.9 329.5,176.5C 331.553,176.598 333.22,175.931 334.5,174.5 Z"/></g>
<g><path style="opacity:1" fill="#988d3a" d="M 317.5,178.5 C 315.402,179.935 313.069,181.102 310.5,182C 311.357,182.689 312.023,183.522 312.5,184.5C 310.454,185.871 308.621,187.538 307,189.5C 306.383,190.449 306.549,191.282 307.5,192C 304.571,192.777 301.737,192.61 299,191.5C 299.282,193.616 299.782,195.783 300.5,198C 300.472,199.07 300.139,199.903 299.5,200.5C 296.373,201.687 295.707,200.687 297.5,197.5C 297.253,196.287 296.586,195.62 295.5,195.5C 294.833,195.5 294.5,195.167 294.5,194.5C 293.232,192.953 291.565,191.953 289.5,191.5C 288.636,190.312 287.636,189.145 286.5,188C 283.854,187.503 281.187,187.336 278.5,187.5C 278.5,187.167 278.5,186.833 278.5,186.5C 280.527,186.662 282.527,186.495 284.5,186C 283.944,185.617 283.611,185.117 283.5,184.5C 287.28,185.403 291.114,186.069 295,186.5C 297.775,186.591 300.275,185.924 302.5,184.5C 302.833,193.833 303.167,193.833 303.5,184.5C 307.462,181.169 312.129,179.169 317.5,178.5 Z"/></g>
<g><path style="opacity:1" fill="#d9d9d9" d="M 332.5,177.5 C 334.337,177.639 334.67,178.306 333.5,179.5C 332.702,179.043 332.369,178.376 332.5,177.5 Z"/></g>
<g><path style="opacity:1" fill="#1f1f1f" d="M 229.5,174.5 C 230.376,174.369 231.043,174.702 231.5,175.5C 230.319,177.198 230.319,178.865 231.5,180.5C 232.298,178.922 232.798,177.256 233,175.5C 234.049,174.483 235.216,174.316 236.5,175C 237.908,177.292 237.741,179.459 236,181.5C 236.314,174.863 235.314,174.863 233,181.5C 230.228,182.428 228.728,181.261 228.5,178C 228.648,176.744 228.982,175.577 229.5,174.5 Z"/></g>
<g><path style="opacity:1" fill="#1b1c27" d="M 265.5,180.5 C 265.5,180.833 265.5,181.167 265.5,181.5C 265.719,182.675 265.386,183.675 264.5,184.5C 263.646,183.052 262.646,181.719 261.5,180.5C 262.557,180.094 263.891,180.094 265.5,180.5 Z"/></g>
<g><path style="opacity:1" fill="#fefffe" d="M 278.5,186.5 C 278.5,186.833 278.5,187.167 278.5,187.5C 277.833,187.5 277.167,187.5 276.5,187.5C 275.496,185.323 276.162,184.989 278.5,186.5 Z"/></g>
<g><path style="opacity:1" fill="#000000" d="M 255.5,187.5 C 256.558,188.6 257.392,189.934 258,191.5C 259,190.5 260,189.5 261,188.5C 261.09,190.768 259.923,192.268 257.5,193C 258.191,194.067 258.691,195.234 259,196.5C 259.92,196.93 260.753,197.264 261.5,197.5C 260.307,199.384 258.641,199.884 256.5,199C 258.421,197.969 258.421,196.469 256.5,194.5C 255.05,195.655 254.05,197.155 253.5,199C 252.552,199.483 251.552,199.649 250.5,199.5C 250.343,198.127 250.51,196.793 251,195.5C 255.813,194.549 257.313,191.882 255.5,187.5 Z"/></g>
<g><path style="opacity:1" fill="#f6efe6" d="M 278.5,187.5 C 281.187,187.336 283.854,187.503 286.5,188C 287.636,189.145 288.636,190.312 289.5,191.5C 289.396,193.703 288.73,195.703 287.5,197.5C 287.5,198.5 287.5,199.5 287.5,200.5C 287.5,201.5 287.5,202.5 287.5,203.5C 285.5,204.833 283.5,204.833 281.5,203.5C 281.068,202.29 280.401,201.29 279.5,200.5C 279.414,199.504 279.748,198.671 280.5,198C 279.584,197.722 278.918,197.222 278.5,196.5C 278.586,195.504 278.252,194.671 277.5,194C 280.07,192.651 280.07,191.484 277.5,190.5C 277.557,189.391 277.89,188.391 278.5,187.5 Z"/></g>
<g><path style="opacity:1" fill="#a58337" d="M 275.5,187.5 C 275.833,187.5 276.167,187.5 276.5,187.5C 277.167,187.5 277.833,187.5 278.5,187.5C 277.89,188.391 277.557,189.391 277.5,190.5C 275.77,191.026 274.436,192.026 273.5,193.5C 273.167,193.5 272.833,193.5 272.5,193.5C 271.5,195.167 270.167,196.5 268.5,197.5C 268.5,196.167 268.5,194.833 268.5,193.5C 268.511,191.983 269.177,190.816 270.5,190C 272.491,189.626 274.158,188.793 275.5,187.5 Z"/></g>
<g><path style="opacity:1" fill="#383838" d="M 229.5,183.5 C 232.821,184.496 236.155,185.496 239.5,186.5C 237.5,189.167 235.167,191.5 232.5,193.5C 231.834,192.169 231.834,190.669 232.5,189C 231.438,187.159 230.438,185.326 229.5,183.5 Z"/></g>
<g><path style="opacity:1" fill="#c44417" d="M 293.5,190.5 C 294.721,189.535 296.054,189.702 297.5,191C 296.072,191.579 294.738,191.412 293.5,190.5 Z"/></g>
<g><path style="opacity:1" fill="#171717" d="M 328.5,183.5 C 331.26,184.192 333.927,185.192 336.5,186.5C 334.725,187.957 332.725,189.124 330.5,190C 332.002,190.583 333.335,191.416 334.5,192.5C 334.167,192.833 333.833,193.167 333.5,193.5C 331.358,192.399 329.192,191.399 327,190.5C 326.409,189.517 326.743,188.85 328,188.5C 329.5,188 331,187.5 332.5,187C 330.681,186.26 329.348,185.093 328.5,183.5 Z"/></g>
<g><path style="opacity:1" fill="#fefffe" d="M 272.5,193.5 C 270.663,193.361 270.33,192.694 271.5,191.5C 272.298,191.957 272.631,192.624 272.5,193.5 Z"/></g>
<g><path style="opacity:1" fill="#c0501b" d="M 289.5,191.5 C 291.565,191.953 293.232,192.953 294.5,194.5C 293.596,195.209 293.263,196.209 293.5,197.5C 292.039,196.314 290.705,196.314 289.5,197.5C 288.833,197.5 288.167,197.5 287.5,197.5C 288.73,195.703 289.396,193.703 289.5,191.5 Z"/></g>
<g><path style="opacity:1" fill="#000000" d="M 294.5,194.5 C 294.5,195.167 294.833,195.5 295.5,195.5C 295.414,196.496 295.748,197.329 296.5,198C 295.906,198.464 295.239,198.631 294.5,198.5C 294.5,197.833 294.167,197.5 293.5,197.5C 293.263,196.209 293.596,195.209 294.5,194.5 Z"/></g>
<g><path style="opacity:1" fill="#c44417" d="M 295.5,195.5 C 296.586,195.62 297.253,196.287 297.5,197.5C 295.707,200.687 296.373,201.687 299.5,200.5C 299.516,202.484 298.516,203.484 296.5,203.5C 294.962,203.547 293.962,202.88 293.5,201.5C 294.239,201.631 294.906,201.464 295.5,201C 294.748,200.329 294.414,199.496 294.5,198.5C 295.239,198.631 295.906,198.464 296.5,198C 295.748,197.329 295.414,196.496 295.5,195.5 Z"/></g>
<g><path style="opacity:1" fill="#126d4a" d="M 309.5,195.5 C 308.89,196.391 308.557,197.391 308.5,198.5C 307.167,198.5 305.833,198.5 304.5,198.5C 305.401,196.273 307.067,195.273 309.5,195.5 Z"/></g>
<g><path style="opacity:1" fill="#c44417" d="M 309.5,195.5 C 310.552,195.351 311.552,195.517 312.5,196C 311.529,197.481 310.196,198.315 308.5,198.5C 308.557,197.391 308.89,196.391 309.5,195.5 Z"/></g>
<g><path style="opacity:1" fill="#5e612b" d="M 278.5,196.5 C 278.918,197.222 279.584,197.722 280.5,198C 279.748,198.671 279.414,199.504 279.5,200.5C 279.167,200.5 278.833,200.5 278.5,200.5C 278.027,199.094 277.027,198.427 275.5,198.5C 275.821,196.952 276.821,196.285 278.5,196.5 Z"/></g>
<g><path style="opacity:1" fill="#000000" d="M 293.5,197.5 C 293.737,198.791 293.404,199.791 292.5,200.5C 291.5,200.5 290.5,200.5 289.5,200.5C 289.918,199.778 290.584,199.278 291.5,199C 290.584,198.722 289.918,198.222 289.5,197.5C 290.705,196.314 292.039,196.314 293.5,197.5 Z"/></g>
<g><path style="opacity:1" fill="#93955b" d="M 287.5,197.5 C 288.167,197.5 288.833,197.5 289.5,197.5C 289.918,198.222 290.584,198.722 291.5,199C 290.584,199.278 289.918,199.778 289.5,200.5C 288.833,200.5 288.167,200.5 287.5,200.5C 287.5,199.5 287.5,198.5 287.5,197.5 Z"/></g>
<g><path style="opacity:1" fill="#8d933b" d="M 293.5,197.5 C 294.167,197.5 294.5,197.833 294.5,198.5C 294.414,199.496 294.748,200.329 295.5,201C 294.906,201.464 294.239,201.631 293.5,201.5C 293.167,201.5 292.833,201.5 292.5,201.5C 292.5,201.167 292.5,200.833 292.5,200.5C 293.404,199.791 293.737,198.791 293.5,197.5 Z"/></g>
<g><path style="opacity:1" fill="#1a1a1a" d="M 237.5,192.5 C 238.873,192.343 240.207,192.51 241.5,193C 240.5,194.667 239.5,196.333 238.5,198C 240.163,198.265 241.663,197.765 243,196.5C 243.167,196.833 243.333,197.167 243.5,197.5C 241.462,199.276 239.296,200.943 237,202.5C 235.421,200.542 235.588,198.542 237.5,196.5C 236.167,196.167 234.833,195.833 233.5,195.5C 234.624,194.141 235.958,193.141 237.5,192.5 Z"/></g>
<g><path style="opacity:1" fill="#fefffe" d="M 275.5,198.5 C 277.027,198.427 278.027,199.094 278.5,200.5C 276.973,200.573 275.973,199.906 275.5,198.5 Z"/></g>
<g><path style="opacity:1" fill="#c44417" d="M 304.5,198.5 C 305.833,198.5 307.167,198.5 308.5,198.5C 306.775,199.905 304.775,200.405 302.5,200C 303.044,199.283 303.711,198.783 304.5,198.5 Z"/></g>
<g><path style="opacity:1" fill="#1a1a1a" d="M 325.5,193.5 C 332.225,193.204 333.891,195.871 330.5,201.5C 323.409,202.531 321.742,199.864 325.5,193.5 Z"/></g>
<g><path style="opacity:1" fill="#f2f2f2" d="M 325.5,195.5 C 329.138,194.737 330.638,196.07 330,199.5C 325.777,200.989 324.277,199.655 325.5,195.5 Z"/></g>
<g><path style="opacity:1" fill="#ba4218" d="M 277.5,190.5 C 280.07,191.484 280.07,192.651 277.5,194C 278.252,194.671 278.586,195.504 278.5,196.5C 276.821,196.285 275.821,196.952 275.5,198.5C 275.973,199.906 276.973,200.573 278.5,200.5C 278.833,200.5 279.167,200.5 279.5,200.5C 280.401,201.29 281.068,202.29 281.5,203.5C 279.5,203.5 278.5,204.5 278.5,206.5C 278.5,207.833 278.5,209.167 278.5,210.5C 278.833,211.167 279.167,211.833 279.5,212.5C 277.851,208.793 276.351,204.793 275,200.5C 273.307,201.184 271.807,202.184 270.5,203.5C 267.508,200.525 266.841,197.191 268.5,193.5C 268.5,194.833 268.5,196.167 268.5,197.5C 268.415,198.995 269.081,199.995 270.5,200.5C 272.651,199.095 274.318,197.261 275.5,195C 274.956,194.283 274.289,193.783 273.5,193.5C 274.436,192.026 275.77,191.026 277.5,190.5 Z"/></g>
<g><path style="opacity:1" fill="#000000" d="M 272.5,193.5 C 272.833,193.5 273.167,193.5 273.5,193.5C 274.289,193.783 274.956,194.283 275.5,195C 274.318,197.261 272.651,199.095 270.5,200.5C 269.081,199.995 268.415,198.995 268.5,197.5C 270.167,196.5 271.5,195.167 272.5,193.5 Z"/></g>
<g><path style="opacity:1" fill="#c44417" d="M 287.5,200.5 C 288.167,200.5 288.833,200.5 289.5,200.5C 290.5,200.5 291.5,200.5 292.5,200.5C 292.5,200.833 292.5,201.167 292.5,201.5C 291.692,205.558 290.358,209.224 288.5,212.5C 288.833,211.833 289.167,211.167 289.5,210.5C 289.5,209.167 289.5,207.833 289.5,206.5C 289.068,205.29 288.401,204.29 287.5,203.5C 287.5,202.5 287.5,201.5 287.5,200.5 Z"/></g>
<g><path style="opacity:1" fill="#202020" d="M 319.5,201.5 C 320.824,200.15 321.824,200.317 322.5,202C 322.494,208.904 324.16,209.737 327.5,204.5C 327.833,204.667 328.167,204.833 328.5,205C 327.042,207.46 325.209,209.627 323,211.5C 321.784,209.038 321.118,206.371 321,203.5C 317.005,207.215 316.505,206.548 319.5,201.5 Z"/></g>
<g><path style="opacity:1" fill="#dbdbdb" d="M 281.5,203.5 C 283.5,204.833 285.5,204.833 287.5,203.5C 288.401,204.29 289.068,205.29 289.5,206.5C 287.824,207.183 287.157,208.517 287.5,210.5C 285.167,211.833 282.833,211.833 280.5,210.5C 280.843,208.517 280.176,207.183 278.5,206.5C 278.5,204.5 279.5,203.5 281.5,203.5 Z"/></g>
<g><path style="opacity:1" fill="#272727" d="M 244.5,203.5 C 249,203.164 250.833,205.164 250,209.5C 248.812,208.437 248.312,207.103 248.5,205.5C 244.828,205.183 243.162,206.849 243.5,210.5C 244.978,210.238 246.311,210.571 247.5,211.5C 243.046,212.883 241.213,211.217 242,206.5C 243.045,205.627 243.878,204.627 244.5,203.5 Z"/></g>
<g><path style="opacity:1" fill="#000000" d="M 278.5,206.5 C 280.176,207.183 280.843,208.517 280.5,210.5C 279.833,210.5 279.167,210.5 278.5,210.5C 278.5,209.167 278.5,207.833 278.5,206.5 Z"/></g>
<g><path style="opacity:1" fill="#000000" d="M 289.5,206.5 C 289.5,207.833 289.5,209.167 289.5,210.5C 288.833,210.5 288.167,210.5 287.5,210.5C 287.157,208.517 287.824,207.183 289.5,206.5 Z"/></g>
<g><path style="opacity:1" fill="#1d1d1d" d="M 315.5,206.5 C 317.463,207.96 319.296,209.627 321,211.5C 321.688,212.332 321.521,212.998 320.5,213.5C 317.61,211.957 315.943,209.624 315.5,206.5 Z"/></g>
<g><path style="opacity:1" fill="#f8c8b8" d="M 278.5,210.5 C 279.167,210.5 279.833,210.5 280.5,210.5C 282.833,211.833 285.167,211.833 287.5,210.5C 288.167,210.5 288.833,210.5 289.5,210.5C 289.167,211.167 288.833,211.833 288.5,212.5C 285.5,213.833 282.5,213.833 279.5,212.5C 279.167,211.833 278.833,211.167 278.5,210.5 Z"/></g>
<g><path style="opacity:1" fill="#1a1a1a" d="M 312.5,215.5 C 313.434,217.239 313.434,218.905 312.5,220.5C 310.444,218.07 309.277,215.403 309,212.5C 310.897,210.984 313.064,210.317 315.5,210.5C 315.5,211.833 315.5,213.167 315.5,214.5C 316.675,214.281 317.675,214.614 318.5,215.5C 318,215.833 317.5,216.167 317,216.5C 315.56,215.852 314.06,215.519 312.5,215.5 Z"/></g>
<g><path style="opacity:1" fill="#c9c9c9" d="M 312.5,215.5 C 309.982,214.241 310.148,212.907 313,211.5C 313.579,212.928 313.412,214.262 312.5,215.5 Z"/></g>
<g><path style="opacity:1" fill="#202020" d="M 254.5,210.5 C 255.478,210.811 256.145,211.478 256.5,212.5C 255.926,215.177 255.259,217.843 254.5,220.5C 253.111,217.009 250.778,215.342 247.5,215.5C 249.687,213.578 252.02,211.912 254.5,210.5 Z"/></g>
<g><path style="opacity:1" fill="#c7c7c7" d="M 252.5,213.5 C 254.337,213.639 254.67,214.306 253.5,215.5C 252.702,215.043 252.369,214.376 252.5,213.5 Z"/></g>
<g><path style="opacity:1" fill="#212121" d="M 260.5,214.5 C 263.103,215.291 265.103,216.791 266.5,219C 266.18,220.653 265.18,221.653 263.5,222C 264.731,223.183 264.731,224.349 263.5,225.5C 262.05,224.15 261.383,222.484 261.5,220.5C 259.857,220.48 258.524,221.147 257.5,222.5C 257.26,219.597 258.26,216.93 260.5,214.5 Z"/></g>
<g><path style="opacity:1" fill="#d4d4d4" d="M 260.5,216.5 C 262.09,216.628 263.423,217.295 264.5,218.5C 262.167,219.941 260.834,219.275 260.5,216.5 Z"/></g>
<g><path style="opacity:1" fill="#242424" d="M 268.5,218.5 C 269.258,220.981 269.258,223.648 268.5,226.5C 270.288,226.215 271.955,226.548 273.5,227.5C 271.262,228.383 269.095,228.05 267,226.5C 266.554,223.667 267.054,221.001 268.5,218.5 Z"/></g>
<g><path style="opacity:1" fill="#303030" d="M 302.5,215.5 C 305.436,217.098 308.103,219.098 310.5,221.5C 308.902,221.61 307.235,221.943 305.5,222.5C 304.833,223.5 304.167,224.5 303.5,225.5C 302.513,222.232 302.18,218.898 302.5,215.5 Z"/></g>
<g><path style="opacity:1" fill="#242424" d="M 276.5,220.5 C 283.232,219.482 285.232,222.148 282.5,228.5C 274.732,230.07 272.732,227.403 276.5,220.5 Z"/></g>
<g><path style="opacity:1" fill="#e3e3e3" d="M 278.5,221.5 C 281.966,222.109 282.966,223.942 281.5,227C 276.289,227.546 275.289,225.713 278.5,221.5 Z"/></g>
<g><path style="opacity:1" fill="#202020" d="M 286.5,220.5 C 288.75,220.181 290.75,220.681 292.5,222C 285.944,221.789 285.944,222.623 292.5,224.5C 293.606,227.699 292.273,229.365 288.5,229.5C 286.006,229.378 285.339,228.378 286.5,226.5C 293.169,227.142 293.169,226.476 286.5,224.5C 285.374,223.192 285.374,221.858 286.5,220.5 Z"/></g>
<g><path style="opacity:1" fill="#003300" d="M 32.5,326.5 C 191.5,326.5 350.5,326.5 509.5,326.5C 520.167,337.5 530.833,348.5 541.5,359.5C 361.167,359.5 180.833,359.5 0.5,359.5C 11.1667,348.5 21.8333,337.5 32.5,326.5 Z"/></g>
</svg>
