<?xml version="1.0" encoding="UTF-8"?>
<!DOCTYPE svg PUBLIC "-//W3C//DTD SVG 1.1//EN" "http://www.w3.org/Graphics/SVG/1.1/DTD/svg11.dtd">
<svg xmlns="http://www.w3.org/2000/svg" version="1.1" width="181px" height="180px" style="shape-rendering:geometricPrecision; text-rendering:geometricPrecision; image-rendering:optimizeQuality; fill-rule:evenodd; clip-rule:evenodd" xmlns:xlink="http://www.w3.org/1999/xlink">
<g><path style="opacity:1" fill="#fefefe" d="M -0.5,-0.5 C 59.8333,-0.5 120.167,-0.5 180.5,-0.5C 180.5,59.5 180.5,119.5 180.5,179.5C 120.167,179.5 59.8333,179.5 -0.5,179.5C -0.5,119.5 -0.5,59.5 -0.5,-0.5 Z"/></g>
<g><path style="opacity:1" fill="#2191ce" d="M 80.5,19.5 C 122.331,18.4842 148.498,38.1509 159,78.5C 161.827,117.04 145.327,143.207 109.5,157C 66.6833,165.138 37.5166,148.972 22,108.5C 14.7636,75.4862 24.9303,49.3196 52.5,30C 61.3307,24.7836 70.664,21.2836 80.5,19.5 Z"/></g>
<g><path style="opacity:1" fill="#f8f0f2" d="M 97.5,153.5 C 97.5,152.167 97.5,150.833 97.5,149.5C 96.325,149.281 95.325,149.614 94.5,150.5C 95.8069,151.865 95.8069,153.198 94.5,154.5C 83.1956,155.614 72.529,153.614 62.5,148.5C 63.5,146.833 64.8333,145.5 66.5,144.5C 67.1667,144.833 67.8333,145.167 68.5,145.5C 67.4376,146.575 67.4376,147.575 68.5,148.5C 70.3163,149.735 71.983,149.735 73.5,148.5C 74.1667,148.833 74.8333,149.167 75.5,149.5C 77.0106,151.441 79.0106,151.941 81.5,151C 82.8333,149.333 82.8333,147.667 81.5,146C 79.2884,145.211 77.2884,145.378 75.5,146.5C 74.8333,146.5 74.5,146.167 74.5,145.5C 74.0269,144.094 73.0269,143.427 71.5,143.5C 70.3285,142.655 68.9952,141.989 67.5,141.5C 65.9256,141.937 64.7589,142.937 64,144.5C 63.5078,143.451 63.6744,142.451 64.5,141.5C 63.9953,140.081 62.9953,139.415 61.5,139.5C 61.1667,139.5 60.8333,139.5 60.5,139.5C 60.5,138.167 59.8333,137.5 58.5,137.5C 56.6563,135.805 55.3229,133.805 54.5,131.5C 53.2073,129.704 51.7073,128.037 50,126.5C 48.6912,128.976 46.8579,130.976 44.5,132.5C 45.8287,135.695 47.4954,136.028 49.5,133.5C 50.8498,134.95 52.5165,135.617 54.5,135.5C 54.8333,136.167 55.1667,136.833 55.5,137.5C 54.5,137.5 53.5,137.5 52.5,137.5C 52.9168,140.659 54.7502,142.659 58,143.5C 59.0299,143.164 59.5299,142.497 59.5,141.5C 60.7199,143.05 60.7199,144.716 59.5,146.5C 38.7934,135.457 27.2934,118.123 25,94.5C 25.0615,57.2378 43.2282,34.0712 79.5,25C 118.572,23.0799 143.406,40.9132 154,78.5C 156.91,111.867 143.41,135.7 113.5,150C 108.341,151.998 103.008,153.165 97.5,153.5 Z"/></g>
<g><path style="opacity:1" fill="#e82639" d="M 73.5,28.5 C 76.4475,28.2229 79.2809,28.5562 82,29.5C 82.4416,32.7395 80.9416,34.5729 77.5,35C 78.3366,36.0113 78.67,37.1779 78.5,38.5C 75.6239,38.9272 72.7906,39.5938 70,40.5C 69.0497,39.9777 68.2164,39.311 67.5,38.5C 66.4104,39.3914 66.4104,40.3914 67.5,41.5C 66.6721,42.4147 65.6721,43.0814 64.5,43.5C 63.7518,40.5027 63.0851,37.5027 62.5,34.5C 63.9394,32.4469 65.9394,31.4469 68.5,31.5C 68.736,33.9732 70.0693,35.6399 72.5,36.5C 73.7801,34.2756 73.4468,32.2756 71.5,30.5C 72.2427,29.8182 72.9094,29.1515 73.5,28.5 Z"/></g>
<g><path style="opacity:1" fill="#e92a3a" d="M 91.5,33.5 C 92.1098,34.391 92.4431,35.391 92.5,36.5C 91.1667,36.5 89.8333,36.5 88.5,36.5C 88.5,35.5 88.5,34.5 88.5,33.5C 87.5,33.5 86.5,33.5 85.5,33.5C 85.5,34.8333 85.5,36.1667 85.5,37.5C 84.5,37.5 83.5,37.5 82.5,37.5C 82.7563,35.0628 83.4229,32.7294 84.5,30.5C 84.1667,29.8333 83.8333,29.1667 83.5,28.5C 85.7427,27.5258 88.076,27.1924 90.5,27.5C 90.5172,29.5648 90.8505,31.5648 91.5,33.5 Z"/></g>
<g><path style="opacity:1" fill="#fbd7dc" d="M 76.5,30.5 C 78.337,30.6395 78.6704,31.3061 77.5,32.5C 76.7025,32.0431 76.3691,31.3764 76.5,30.5 Z"/></g>
<g><path style="opacity:1" fill="#f27f90" d="M 93.5,30.5 C 93.3253,32.6208 93.6586,34.6208 94.5,36.5C 93.8333,36.5 93.1667,36.5 92.5,36.5C 92.4431,35.391 92.1098,34.391 91.5,33.5C 92.1667,32.5 92.8333,31.5 93.5,30.5 Z"/></g>
<g><path style="opacity:1" fill="#f593a1" d="M 92.5,36.5 C 91.0813,37.4511 89.4147,37.7845 87.5,37.5C 87.6495,36.448 87.4828,35.448 87,34.5C 86.7679,35.7375 86.2679,36.7375 85.5,37.5C 85.5,36.1667 85.5,34.8333 85.5,33.5C 86.5,33.5 87.5,33.5 88.5,33.5C 88.5,34.5 88.5,35.5 88.5,36.5C 89.8333,36.5 91.1667,36.5 92.5,36.5 Z"/></g>
<g><path style="opacity:1" fill="#e82237" d="M 102.5,36.5 C 99.728,37.7671 97.0613,37.7671 94.5,36.5C 93.6586,34.6208 93.3253,32.6208 93.5,30.5C 94.2495,28.7538 95.5828,27.7538 97.5,27.5C 99.4534,28.1556 101.453,28.4889 103.5,28.5C 103.5,29.5 103.5,30.5 103.5,31.5C 101.5,31.1667 99.5,30.8333 97.5,30.5C 97.2148,32.288 97.5481,33.9547 98.5,35.5C 100.488,33.8528 101.821,34.1861 102.5,36.5 Z"/></g>
<g><path style="opacity:1" fill="#e8273a" d="M 49.5,45.5 C 50.4067,38.4299 53.9067,36.7632 60,40.5C 60.9959,47.1664 58.1626,49.6664 51.5,48C 50.9341,47.0053 50.2674,46.172 49.5,45.5 Z"/></g>
<g><path style="opacity:1" fill="#e82338" d="M 102.5,36.5 C 104.834,34.8243 105.834,32.491 105.5,29.5C 109.956,29.3934 110.956,30.8934 108.5,34C 109.448,34.4828 110.448,34.6495 111.5,34.5C 111.281,33.325 111.614,32.325 112.5,31.5C 113.931,31.9766 115.264,32.6433 116.5,33.5C 114.28,35.5509 113.614,37.8843 114.5,40.5C 116.234,38.766 117.568,36.766 118.5,34.5C 120.167,35.3333 121.833,36.1667 123.5,37C 125.784,38.3629 125.951,39.8629 124,41.5C 123,40.5 122,39.5 121,38.5C 120.383,39.4491 120.549,40.2825 121.5,41C 120.376,41.2492 119.376,41.7492 118.5,42.5C 119.908,43.2432 121.241,44.0766 122.5,45C 121.892,45.8699 121.059,46.3699 120,46.5C 116.595,44.5467 113.095,42.7134 109.5,41C 109.056,39.4667 108.723,37.9667 108.5,36.5C 107.614,37.325 107.281,38.325 107.5,39.5C 104.715,40.0838 103.048,39.0838 102.5,36.5 Z"/></g>
<g><path style="opacity:1" fill="#fde0e4" d="M 53.5,41.5 C 55.3841,41.7118 56.7174,42.7118 57.5,44.5C 54.5812,45.9318 53.2479,44.9318 53.5,41.5 Z"/></g>
<g><path style="opacity:1" fill="#e92e3d" d="M 127.5,41.5 C 130.86,42.5197 133.527,44.5197 135.5,47.5C 133.793,51.1358 132.626,51.1358 132,47.5C 130.315,49.0175 128.815,50.6841 127.5,52.5C 126.167,51.5 124.833,50.5 123.5,49.5C 125.126,48.0095 126.792,46.5095 128.5,45C 126.273,44.296 125.94,43.1294 127.5,41.5 Z"/></g>
<g><path style="opacity:1" fill="#e92c3c" d="M 49.5,45.5 C 49.2786,46.7348 48.6119,47.7348 47.5,48.5C 49.3885,49.604 51.0552,50.9373 52.5,52.5C 51.485,55.1677 49.8183,55.8344 47.5,54.5C 46.5197,53.0186 45.353,51.6853 44,50.5C 43.6095,54.1658 42.4429,54.3324 40.5,51C 42.5435,49.292 44.2101,47.292 45.5,45C 46.9285,44.4209 48.2618,44.5876 49.5,45.5 Z"/></g>
<g><path style="opacity:1" fill="#171919" d="M 81.5,39.5 C 111.447,38.3067 130.613,51.9733 139,80.5C 141.345,108.994 129.178,128.161 102.5,138C 71.7848,142.937 51.2848,130.771 41,101.5C 36.7014,69.0768 50.2014,48.4101 81.5,39.5 Z"/></g>
<g><path style="opacity:1" fill="#008aca" d="M 80.5,43.5 C 107.763,41.2047 125.93,52.8714 135,78.5C 138.97,107.415 127.136,126.248 99.5,135C 73.124,138.566 54.9573,128.066 45,103.5C 39.2749,78.1245 47.7749,59.2911 70.5,47C 73.8502,45.5137 77.1835,44.347 80.5,43.5 Z"/></g>
<g><path style="opacity:1" fill="#030303" d="M 74.5,49.5 C 84.5,49.5 94.5,49.5 104.5,49.5C 104.5,56.8333 104.5,64.1667 104.5,71.5C 112.167,71.5 119.833,71.5 127.5,71.5C 127.5,81.1667 127.5,90.8333 127.5,100.5C 119.833,100.5 112.167,100.5 104.5,100.5C 104.5,110.167 104.5,119.833 104.5,129.5C 94.5,129.5 84.5,129.5 74.5,129.5C 74.5,119.833 74.5,110.167 74.5,100.5C 66.8333,100.5 59.1667,100.5 51.5,100.5C 51.5,90.8333 51.5,81.1667 51.5,71.5C 59.1667,71.5 66.8333,71.5 74.5,71.5C 74.5,64.1667 74.5,56.8333 74.5,49.5 Z"/></g>
<g><path style="opacity:1" fill="#e92e3e" d="M 38.5,52.5 C 41.4645,54.4483 44.4645,56.4483 47.5,58.5C 47.0233,59.4776 46.3567,60.3109 45.5,61C 43.5,61.3333 41.5,61.6667 39.5,62C 43.5084,62.4904 44.1751,63.9904 41.5,66.5C 39.1604,64.3291 36.4937,62.6625 33.5,61.5C 34.8568,58.5812 37.1901,57.0812 40.5,57C 39.376,56.7508 38.376,56.2508 37.5,55.5C 38.1272,54.5832 38.4606,53.5832 38.5,52.5 Z"/></g>
<g><path style="opacity:1" fill="#f8f7f7" d="M 104.5,95.5 C 105.974,94.5637 106.974,93.2303 107.5,91.5C 108.835,86.4646 110.001,86.4646 111,91.5C 111.974,89.1224 112.641,89.4557 113,92.5C 113.333,91.1667 113.667,89.8333 114,88.5C 114.628,91.9535 115.795,92.2869 117.5,89.5C 116.417,85.5433 114.417,82.21 111.5,79.5C 110.791,78.596 109.791,78.2627 108.5,78.5C 106.473,81.5313 104.807,84.8646 103.5,88.5C 103.167,89.1667 102.833,89.8333 102.5,90.5C 101.67,102.272 101.337,114.272 101.5,126.5C 93.5,126.5 85.5,126.5 77.5,126.5C 77.5,116.833 77.5,107.167 77.5,97.5C 69.6484,97.8254 61.9818,97.492 54.5,96.5C 55.552,96.6495 56.552,96.4828 57.5,96C 58.9771,94.1879 60.3104,92.3545 61.5,90.5C 62.1667,90.5 62.8333,90.5 63.5,90.5C 64.3408,88.8261 65.3408,86.4928 66.5,83.5C 66.0426,80.6481 64.7092,79.6481 62.5,80.5C 59.1698,82.4213 57.5032,85.4213 57.5,89.5C 56.1429,90.5903 55.1429,91.9236 54.5,93.5C 54.5,87.1667 54.5,80.8333 54.5,74.5C 63.0136,74.4263 71.3469,74.4263 79.5,74.5C 80.5207,73.0986 81.5207,71.7653 82.5,70.5C 83.8565,68.7065 85.0232,66.7065 86,64.5C 86.5423,69.7208 87.3756,69.7208 88.5,64.5C 89.8524,65.5175 90.8524,66.8508 91.5,68.5C 92.5223,68.1445 93.189,67.4778 93.5,66.5C 92.5023,62.4945 90.5023,59.1612 87.5,56.5C 87.44,55.9569 87.1067,55.6236 86.5,55.5C 82.6706,58.6848 80.3373,62.6848 79.5,67.5C 78.7321,68.2625 78.2321,69.2625 78,70.5C 77.5005,64.5092 77.3338,58.5092 77.5,52.5C 85.5,52.5 93.5,52.5 101.5,52.5C 101.5,59.8333 101.5,67.1667 101.5,74.5C 109.167,74.5 116.833,74.5 124.5,74.5C 124.5,82.1667 124.5,89.8333 124.5,97.5C 117.492,97.6663 110.492,97.4996 103.5,97C 104.056,96.6174 104.389,96.1174 104.5,95.5 Z"/></g>
<g><path style="opacity:1" fill="#c0bbc2" d="M 87.5,56.5 C 87.0618,56.4346 86.7284,56.6012 86.5,57C 88.9293,60.2126 91.2626,63.3792 93.5,66.5C 93.189,67.4778 92.5223,68.1445 91.5,68.5C 90.8524,66.8508 89.8524,65.5175 88.5,64.5C 87.3756,69.7208 86.5423,69.7208 86,64.5C 85.0232,66.7065 83.8565,68.7065 82.5,70.5C 82.1898,68.8564 81.1898,67.8564 79.5,67.5C 80.3373,62.6848 82.6706,58.6848 86.5,55.5C 87.1067,55.6236 87.44,55.9569 87.5,56.5 Z"/></g>
<g><path style="opacity:1" fill="#fbf248" d="M 91.5,53.5 C 94.1365,57.4155 96.8032,61.4155 99.5,65.5C 100.833,67.1667 100.833,68.8333 99.5,70.5C 97.9172,68.01 96.9172,65.3433 96.5,62.5C 95.5,62.5 94.5,62.5 93.5,62.5C 92.5942,59.5641 91.9275,56.5641 91.5,53.5 Z"/></g>
<g><path style="opacity:1" fill="#cb666b" d="M 87.5,56.5 C 90.5023,59.1612 92.5023,62.4945 93.5,66.5C 91.2626,63.3792 88.9293,60.2126 86.5,57C 86.7284,56.6012 87.0618,56.4346 87.5,56.5 Z"/></g>
<g><path style="opacity:1" fill="#e92a3b" d="M 135.5,49.5 C 140.026,51.2041 142.026,54.5375 141.5,59.5C 140.167,59.5 138.833,59.5 137.5,59.5C 137.281,60.675 137.614,61.675 138.5,62.5C 140.497,61.2526 142.497,60.4192 144.5,60C 145.38,61.3561 145.714,62.8561 145.5,64.5C 143.158,64.5041 141.158,65.3375 139.5,67C 142.035,67.6174 144.368,67.1174 146.5,65.5C 148.873,68.4528 149.707,71.7862 149,75.5C 148,76.8333 147,76.8333 146,75.5C 145.167,76.3333 144.333,77.1667 143.5,78C 146.192,78.4298 148.859,78.2631 151.5,77.5C 151.5,80.5 151.5,83.5 151.5,86.5C 150.325,86.719 149.325,86.3857 148.5,85.5C 149.538,82.2124 148.872,81.8791 146.5,84.5C 144.373,82.3828 144.04,83.0494 145.5,86.5C 144.311,87.4287 142.978,87.762 141.5,87.5C 141.661,77.6514 138.995,68.6514 133.5,60.5C 134.167,59.5 134.833,58.5 135.5,57.5C 135.167,57.1667 134.833,56.8333 134.5,56.5C 131.416,58.8216 129.749,57.8216 129.5,53.5C 132.337,53.3155 134.337,51.9822 135.5,49.5 Z"/></g>
<g><path style="opacity:1" fill="#fce5e8" d="M 136.5,55.5 C 137.077,54.2267 137.743,54.2267 138.5,55.5C 138.03,56.463 137.363,56.463 136.5,55.5 Z"/></g>
<g><path style="opacity:1" fill="#fcdde2" d="M 141.5,71.5 C 143.337,71.6395 143.67,72.3061 142.5,73.5C 141.702,73.0431 141.369,72.3764 141.5,71.5 Z"/></g>
<g><path style="opacity:1" fill="#e8293a" d="M 32.5,65.5 C 39.9315,64.7602 42.0981,67.7602 39,74.5C 37.2672,76.6015 35.2672,76.9348 33,75.5C 32.3551,76.646 31.5217,77.646 30.5,78.5C 32.7427,79.4742 35.076,79.8076 37.5,79.5C 38.1351,83.4618 36.8018,84.7952 33.5,83.5C 31.6663,84.7545 29.6663,85.4211 27.5,85.5C 27.4595,82.1194 27.7929,78.7861 28.5,75.5C 29.675,75.719 30.675,75.3857 31.5,74.5C 29.992,71.2313 30.3254,68.2313 32.5,65.5 Z"/></g>
<g><path style="opacity:1" fill="#fddce0" d="M 32.5,70.5 C 33.9187,69.5489 35.5853,69.2155 37.5,69.5C 37.5,70.5 37.5,71.5 37.5,72.5C 35.4862,72.6085 33.8195,71.9418 32.5,70.5 Z"/></g>
<g><path style="opacity:1" fill="#cac5cd" d="M 111.5,79.5 C 110.761,79.369 110.094,79.5357 109.5,80C 112.78,82.8526 115.447,86.0193 117.5,89.5C 115.795,92.2869 114.628,91.9535 114,88.5C 113.667,89.8333 113.333,91.1667 113,92.5C 112.641,89.4557 111.974,89.1224 111,91.5C 110.001,86.4646 108.835,86.4646 107.5,91.5C 107.607,89.6214 107.107,89.2881 106,90.5C 105.583,89.244 104.75,88.5774 103.5,88.5C 104.807,84.8646 106.473,81.5313 108.5,78.5C 109.791,78.2627 110.791,78.596 111.5,79.5 Z"/></g>
<g><path style="opacity:1" fill="#ca8f95" d="M 62.5,80.5 C 64.7092,79.6481 66.0426,80.6481 66.5,83.5C 65.3408,86.4928 64.3408,88.8261 63.5,90.5C 63.2739,87.7508 63.6072,85.0841 64.5,82.5C 64.1445,81.4777 63.4778,80.811 62.5,80.5 Z"/></g>
<g><path style="opacity:1" fill="#6ea2bc" d="M 115.5,75.5 C 118.018,79.5227 120.351,83.8561 122.5,88.5C 123.631,90.0745 123.798,91.7412 123,93.5C 121.86,90.8981 121.027,88.2314 120.5,85.5C 119.5,85.5 118.5,85.5 117.5,85.5C 116.424,82.2655 115.757,78.9322 115.5,75.5 Z"/></g>
<g><path style="opacity:1" fill="#bfbfc4" d="M 62.5,80.5 C 63.4778,80.811 64.1445,81.4777 64.5,82.5C 63.6072,85.0841 63.2739,87.7508 63.5,90.5C 62.8333,90.5 62.1667,90.5 61.5,90.5C 61.322,86.8979 60.322,86.8979 58.5,90.5C 57.8933,90.3764 57.56,90.0431 57.5,89.5C 57.5032,85.4213 59.1698,82.4213 62.5,80.5 Z"/></g>
<g><path style="opacity:1" fill="#ce676d" d="M 111.5,79.5 C 114.417,82.21 116.417,85.5433 117.5,89.5C 115.447,86.0193 112.78,82.8526 109.5,80C 110.094,79.5357 110.761,79.369 111.5,79.5 Z"/></g>
<g><path style="opacity:1" fill="#b9b8bf" d="M 89.5,85.5 C 88.5233,88.2869 88.19,91.2869 88.5,94.5C 88.44,95.0431 88.1067,95.3764 87.5,95.5C 86.7492,94.624 86.2492,93.624 86,92.5C 85.7996,94.3197 84.9663,95.653 83.5,96.5C 82.4863,95.3263 81.153,94.6596 79.5,94.5C 80.5466,88.8011 83.5466,84.9678 88.5,83C 89.2524,83.6708 89.5858,84.5041 89.5,85.5 Z"/></g>
<g><path style="opacity:1" fill="#3e3f40" d="M 103.5,88.5 C 104.75,88.5774 105.583,89.244 106,90.5C 107.107,89.2881 107.607,89.6214 107.5,91.5C 106.974,93.2303 105.974,94.5637 104.5,95.5C 103.761,95.631 103.094,95.4643 102.5,95C 103.801,93.3845 103.801,91.8845 102.5,90.5C 102.833,89.8333 103.167,89.1667 103.5,88.5 Z"/></g>
<g><path style="opacity:1" fill="#d55966" d="M 89.5,85.5 C 89.9462,88.6576 90.2796,91.8243 90.5,95C 90.3333,95.5 90.1667,96 90,96.5C 89.7216,95.5842 89.2216,94.9175 88.5,94.5C 88.19,91.2869 88.5233,88.2869 89.5,85.5 Z"/></g>
<g><path style="opacity:1" fill="#252526" d="M 92.5,80.5 C 94.0233,82.8958 95.0233,85.5625 95.5,88.5C 96.5,88.5 97.5,88.5 98.5,88.5C 100.746,94.6949 101.079,96.3616 99.5,93.5C 98.5,93.5 97.5,93.5 96.5,93.5C 94.8803,89.2591 93.547,84.9257 92.5,80.5 Z"/></g>
<g><path style="opacity:1" fill="#3b3c3c" d="M 61.5,90.5 C 60.3104,92.3545 58.9771,94.1879 57.5,96C 56.552,96.4828 55.552,96.6495 54.5,96.5C 54.5,95.5 54.5,94.5 54.5,93.5C 55.1429,91.9236 56.1429,90.5903 57.5,89.5C 57.56,90.0431 57.8933,90.3764 58.5,90.5C 60.322,86.8979 61.322,86.8979 61.5,90.5 Z"/></g>
<g><path style="opacity:1" fill="#1f2021" d="M 79.5,94.5 C 81.153,94.6596 82.4863,95.3263 83.5,96.5C 79.2758,103.178 77.9424,102.511 79.5,94.5 Z"/></g>
<g><path style="opacity:1" fill="#e8293a" d="M 36.5,115.5 C 40.8765,116.421 42.2098,118.921 40.5,123C 36.9447,124.123 34.9447,122.789 34.5,119C 34.9783,117.697 35.645,116.531 36.5,115.5 Z"/></g>
<g><path style="opacity:1" fill="#fcd4da" d="M 37.5,118.5 C 38.3764,118.369 39.0431,118.702 39.5,119.5C 37.1916,120.873 36.5249,120.54 37.5,118.5 Z"/></g>
<g><path style="opacity:1" fill="#e8293a" d="M 42.5,122.5 C 44.9775,122.051 46.9775,122.717 48.5,124.5C 46.5814,124.614 44.5814,125.28 42.5,126.5C 42.719,127.675 42.3857,128.675 41.5,129.5C 40.6184,128.24 39.6184,127.074 38.5,126C 40.0931,125.051 41.4264,123.885 42.5,122.5 Z"/></g>
<g><path style="opacity:1" fill="#e8273a" d="M 137.5,128.5 C 137.288,130.384 136.288,131.717 134.5,132.5C 133.636,130.803 132.303,129.637 130.5,129C 132.213,127.622 133.547,125.955 134.5,124C 135.899,123.405 137.232,123.572 138.5,124.5C 139.281,123.271 139.781,121.938 140,120.5C 143.346,121.089 143.346,120.422 140,118.5C 139.085,119.328 138.419,120.328 138,121.5C 137.487,118.173 138.987,116.507 142.5,116.5C 143.5,116.833 144.5,117.167 145.5,117.5C 143.879,122.093 141.212,125.76 137.5,128.5 Z"/></g>
<g><path style="opacity:1" fill="#fbccd2" d="M 137.5,128.5 C 136.325,128.719 135.325,128.386 134.5,127.5C 135.86,126.335 136.86,126.668 137.5,128.5 Z"/></g>
<g><path style="opacity:1" fill="#e71b33" d="M 54.5,131.5 C 53.0331,130.708 51.6998,130.708 50.5,131.5C 52.0792,132.667 53.4125,134 54.5,135.5C 52.5165,135.617 50.8498,134.95 49.5,133.5C 47.4954,136.028 45.8287,135.695 44.5,132.5C 46.8579,130.976 48.6912,128.976 50,126.5C 51.7073,128.037 53.2073,129.704 54.5,131.5 Z"/></g>
<g><path style="opacity:1" fill="#e82336" d="M 128.5,130.5 C 132.071,130.408 133.238,132.074 132,135.5C 129.161,138.409 126.994,138.075 125.5,134.5C 125.787,132.557 126.787,131.223 128.5,130.5 Z"/></g>
<g><path style="opacity:1" fill="#fabfc8" d="M 127.5,134.5 C 128.386,133.224 129.386,133.224 130.5,134.5C 129.575,135.562 128.575,135.562 127.5,134.5 Z"/></g>
<g><path style="opacity:1" fill="#f05561" d="M 54.5,131.5 C 55.3229,133.805 56.6563,135.805 58.5,137.5C 56.8073,140.962 55.8073,140.962 55.5,137.5C 55.1667,136.833 54.8333,136.167 54.5,135.5C 53.4125,134 52.0792,132.667 50.5,131.5C 51.6998,130.708 53.0331,130.708 54.5,131.5 Z"/></g>
<g><path style="opacity:1" fill="#e8253a" d="M 122.5,135.5 C 123.497,135.47 124.164,135.97 124.5,137C 122.999,140.545 123.499,141.045 126,138.5C 126.167,138.833 126.333,139.167 126.5,139.5C 125.055,141.063 123.389,142.396 121.5,143.5C 120.719,142.271 120.219,140.938 120,139.5C 119.346,140.696 118.846,140.696 118.5,139.5C 119.549,137.784 120.882,136.451 122.5,135.5 Z"/></g>
<g><path style="opacity:1" fill="#e8283c" d="M 55.5,137.5 C 55.8073,140.962 56.8073,140.962 58.5,137.5C 59.8333,137.5 60.5,138.167 60.5,139.5C 60.1667,140.167 59.8333,140.833 59.5,141.5C 59.5299,142.497 59.0299,143.164 58,143.5C 54.7502,142.659 52.9168,140.659 52.5,137.5C 53.5,137.5 54.5,137.5 55.5,137.5 Z"/></g>
<g><path style="opacity:1" fill="#f69fac" d="M 60.5,139.5 C 60.8333,139.5 61.1667,139.5 61.5,139.5C 62.0102,142.388 61.3435,144.721 59.5,146.5C 60.7199,144.716 60.7199,143.05 59.5,141.5C 59.8333,140.833 60.1667,140.167 60.5,139.5 Z"/></g>
<g><path style="opacity:1" fill="#f27988" d="M 67.5,141.5 C 68.9952,141.989 70.3285,142.655 71.5,143.5C 69.8212,143.285 68.8212,143.952 68.5,145.5C 67.8333,145.167 67.1667,144.833 66.5,144.5C 67.1098,143.609 67.4431,142.609 67.5,141.5 Z"/></g>
<g><path style="opacity:1" fill="#e71a33" d="M 61.5,139.5 C 62.9953,139.415 63.9953,140.081 64.5,141.5C 63.6744,142.451 63.5078,143.451 64,144.5C 64.7589,142.937 65.9256,141.937 67.5,141.5C 67.4431,142.609 67.1098,143.609 66.5,144.5C 64.8333,145.5 63.5,146.833 62.5,148.5C 60.9731,148.573 59.9731,147.906 59.5,146.5C 61.3435,144.721 62.0102,142.388 61.5,139.5 Z"/></g>
<g><path style="opacity:1" fill="#ea3040" d="M 113.5,137.5 C 114.675,137.281 115.675,137.614 116.5,138.5C 117.248,140.332 118.248,141.999 119.5,143.5C 118.68,145.111 117.346,145.778 115.5,145.5C 115.557,141.867 114.557,141.7 112.5,145C 113.833,146 113.833,147 112.5,148C 110.129,148.735 107.795,149.568 105.5,150.5C 104.749,149.624 104.249,148.624 104,147.5C 103.585,149.291 102.585,150.624 101,151.5C 100.73,148.776 100.23,146.109 99.5,143.5C 101.51,141.829 103.843,141.162 106.5,141.5C 106.247,143.827 106.914,145.827 108.5,147.5C 109.594,146.132 109.26,144.965 107.5,144C 110.295,142.964 112.962,141.631 115.5,140C 114.244,139.583 113.577,138.75 113.5,137.5 Z"/></g>
<g><path style="opacity:1" fill="#f8a2ac" d="M 74.5,145.5 C 74.5,146.167 74.8333,146.5 75.5,146.5C 75.5,147.5 75.5,148.5 75.5,149.5C 74.8333,149.167 74.1667,148.833 73.5,148.5C 73.0629,146.926 72.0629,145.759 70.5,145C 71.8193,144.805 73.1526,144.972 74.5,145.5 Z"/></g>
<g><path style="opacity:1" fill="#e71d33" d="M 75.5,149.5 C 75.5,148.5 75.5,147.5 75.5,146.5C 77.2884,145.378 79.2884,145.211 81.5,146C 82.8333,147.667 82.8333,149.333 81.5,151C 79.0106,151.941 77.0106,151.441 75.5,149.5 Z"/></g>
<g><path style="opacity:1" fill="#ea3142" d="M 71.5,143.5 C 73.0269,143.427 74.0269,144.094 74.5,145.5C 73.1526,144.972 71.8193,144.805 70.5,145C 72.0629,145.759 73.0629,146.926 73.5,148.5C 71.983,149.735 70.3163,149.735 68.5,148.5C 67.4376,147.575 67.4376,146.575 68.5,145.5C 68.8212,143.952 69.8212,143.285 71.5,143.5 Z"/></g>
<g><path style="opacity:1" fill="#f57f8b" d="M 78.5,146.5 C 80.0481,146.821 80.7148,147.821 80.5,149.5C 77.7524,149.598 77.0857,148.598 78.5,146.5 Z"/></g>
<g><path style="opacity:1" fill="#eb3b47" d="M 83.5,147.5 C 85.9664,146.366 88.633,146.199 91.5,147C 92.4061,148.699 92.7394,150.533 92.5,152.5C 89.4281,152.817 86.4281,152.484 83.5,151.5C 84.7053,150.005 84.7053,148.672 83.5,147.5 Z"/></g>
<g><path style="opacity:1" fill="#eb4959" d="M 97.5,153.5 C 96.609,154.11 95.609,154.443 94.5,154.5C 95.8069,153.198 95.8069,151.865 94.5,150.5C 95.325,149.614 96.325,149.281 97.5,149.5C 97.5,150.833 97.5,152.167 97.5,153.5 Z"/></g>
</svg>
