<?xml version="1.0" encoding="UTF-8"?>
<!DOCTYPE svg PUBLIC "-//W3C//DTD SVG 1.1//EN" "http://www.w3.org/Graphics/SVG/1.1/DTD/svg11.dtd">
<svg xmlns="http://www.w3.org/2000/svg" version="1.1" width="300px" height="180px" style="shape-rendering:geometricPrecision; text-rendering:geometricPrecision; image-rendering:optimizeQuality; fill-rule:evenodd; clip-rule:evenodd" xmlns:xlink="http://www.w3.org/1999/xlink">
<g><path style="opacity:1" fill="#fefefe" d="M -0.5,-0.5 C 99.5,-0.5 199.5,-0.5 299.5,-0.5C 299.5,59.5 299.5,119.5 299.5,179.5C 199.5,179.5 99.5,179.5 -0.5,179.5C -0.5,119.5 -0.5,59.5 -0.5,-0.5 Z"/></g>
<g><path style="opacity:1" fill="#2191ce" d="M 140.5,19.5 C 182.331,18.4842 208.498,38.1509 219,78.5C 221.827,117.04 205.327,143.207 169.5,157C 126.683,165.138 97.5166,148.972 82,108.5C 74.7636,75.4862 84.9303,49.3196 112.5,30C 121.331,24.7836 130.664,21.2836 140.5,19.5 Z"/></g>
<g><path style="opacity:1" fill="#f8f1f2" d="M 157.5,153.5 C 157.5,152.167 157.5,150.833 157.5,149.5C 156.325,149.281 155.325,149.614 154.5,150.5C 155.807,151.865 155.807,153.198 154.5,154.5C 143.196,155.614 132.529,153.614 122.5,148.5C 123.5,146.833 124.833,145.5 126.5,144.5C 127.167,144.833 127.833,145.167 128.5,145.5C 127.438,146.575 127.438,147.575 128.5,148.5C 130.316,149.735 131.983,149.735 133.5,148.5C 134.167,148.833 134.833,149.167 135.5,149.5C 137.011,151.441 139.011,151.941 141.5,151C 142.833,149.333 142.833,147.667 141.5,146C 139.288,145.211 137.288,145.378 135.5,146.5C 134.833,146.5 134.5,146.167 134.5,145.5C 134.027,144.094 133.027,143.427 131.5,143.5C 130.329,142.655 128.995,141.989 127.5,141.5C 125.926,141.937 124.759,142.937 124,144.5C 123.508,143.451 123.674,142.451 124.5,141.5C 123.995,140.081 122.995,139.415 121.5,139.5C 121.167,139.5 120.833,139.5 120.5,139.5C 117.128,135.208 113.628,130.874 110,126.5C 108.691,128.976 106.858,130.976 104.5,132.5C 105.829,135.695 107.495,136.028 109.5,133.5C 111.453,134.761 113.453,135.927 115.5,137C 114.552,137.483 113.552,137.649 112.5,137.5C 112.917,140.659 114.75,142.659 118,143.5C 119.03,143.164 119.53,142.497 119.5,141.5C 120.72,143.05 120.72,144.716 119.5,146.5C 98.7934,135.457 87.2934,118.123 85,94.5C 85.0615,57.2378 103.228,34.0712 139.5,25C 178.572,23.0799 203.406,40.9132 214,78.5C 216.91,111.867 203.41,135.7 173.5,150C 168.341,151.998 163.008,153.165 157.5,153.5 Z"/></g>
<g><path style="opacity:1" fill="#e92a3a" d="M 151.5,33.5 C 152.11,34.391 152.443,35.391 152.5,36.5C 151.167,36.5 149.833,36.5 148.5,36.5C 148.5,35.5 148.5,34.5 148.5,33.5C 147.5,33.5 146.5,33.5 145.5,33.5C 145.5,34.8333 145.5,36.1667 145.5,37.5C 144.5,37.5 143.5,37.5 142.5,37.5C 142.756,35.0628 143.423,32.7294 144.5,30.5C 144.167,29.8333 143.833,29.1667 143.5,28.5C 145.743,27.5258 148.076,27.1924 150.5,27.5C 150.517,29.5648 150.85,31.5648 151.5,33.5 Z"/></g>
<g><path style="opacity:1" fill="#f27f90" d="M 153.5,30.5 C 153.325,32.6208 153.659,34.6208 154.5,36.5C 153.833,36.5 153.167,36.5 152.5,36.5C 152.443,35.391 152.11,34.391 151.5,33.5C 152.167,32.5 152.833,31.5 153.5,30.5 Z"/></g>
<g><path style="opacity:1" fill="#f593a1" d="M 152.5,36.5 C 151.081,37.4511 149.415,37.7845 147.5,37.5C 147.649,36.448 147.483,35.448 147,34.5C 146.768,35.7375 146.268,36.7375 145.5,37.5C 145.5,36.1667 145.5,34.8333 145.5,33.5C 146.5,33.5 147.5,33.5 148.5,33.5C 148.5,34.5 148.5,35.5 148.5,36.5C 149.833,36.5 151.167,36.5 152.5,36.5 Z"/></g>
<g><path style="opacity:1" fill="#e9293a" d="M 133.5,28.5 C 136.448,28.2229 139.281,28.5562 142,29.5C 142.442,32.7395 140.942,34.5729 137.5,35C 138.337,36.0113 138.67,37.1779 138.5,38.5C 135.624,38.9272 132.791,39.5938 130,40.5C 129.05,39.9777 128.216,39.311 127.5,38.5C 126.41,39.3914 126.41,40.3914 127.5,41.5C 126.672,42.4147 125.672,43.0814 124.5,43.5C 123.752,40.5027 123.085,37.5027 122.5,34.5C 123.939,32.4469 125.939,31.4469 128.5,31.5C 128.736,33.9732 130.069,35.6399 132.5,36.5C 133.78,34.2756 133.447,32.2756 131.5,30.5C 132.243,29.8182 132.909,29.1515 133.5,28.5 Z"/></g>
<g><path style="opacity:1" fill="#fbd7dc" d="M 136.5,30.5 C 138.337,30.6395 138.67,31.3061 137.5,32.5C 136.702,32.0431 136.369,31.3764 136.5,30.5 Z"/></g>
<g><path style="opacity:1" fill="#e82237" d="M 162.5,36.5 C 159.728,37.7671 157.061,37.7671 154.5,36.5C 153.659,34.6208 153.325,32.6208 153.5,30.5C 154.249,28.7538 155.583,27.7538 157.5,27.5C 159.453,28.1556 161.453,28.4889 163.5,28.5C 163.5,29.5 163.5,30.5 163.5,31.5C 161.5,31.1667 159.5,30.8333 157.5,30.5C 157.215,32.288 157.548,33.9547 158.5,35.5C 160.488,33.8528 161.821,34.1861 162.5,36.5 Z"/></g>
<g><path style="opacity:1" fill="#e8273a" d="M 109.5,45.5 C 110.407,38.4299 113.907,36.7632 120,40.5C 120.996,47.1664 118.163,49.6664 111.5,48C 110.934,47.0053 110.267,46.172 109.5,45.5 Z"/></g>
<g><path style="opacity:1" fill="#e82338" d="M 162.5,36.5 C 164.834,34.8243 165.834,32.491 165.5,29.5C 169.956,29.3934 170.956,30.8934 168.5,34C 169.448,34.4828 170.448,34.6495 171.5,34.5C 171.281,33.325 171.614,32.325 172.5,31.5C 173.931,31.9766 175.264,32.6433 176.5,33.5C 174.28,35.5509 173.614,37.8843 174.5,40.5C 176.234,38.766 177.568,36.766 178.5,34.5C 180.167,35.3333 181.833,36.1667 183.5,37C 185.784,38.3629 185.951,39.8629 184,41.5C 183,40.5 182,39.5 181,38.5C 180.383,39.4491 180.549,40.2825 181.5,41C 180.376,41.2492 179.376,41.7492 178.5,42.5C 179.908,43.2432 181.241,44.0766 182.5,45C 181.892,45.8699 181.059,46.3699 180,46.5C 176.595,44.5467 173.095,42.7134 169.5,41C 169.056,39.4667 168.723,37.9667 168.5,36.5C 167.614,37.325 167.281,38.325 167.5,39.5C 164.715,40.0838 163.048,39.0838 162.5,36.5 Z"/></g>
<g><path style="opacity:1" fill="#fde0e4" d="M 113.5,41.5 C 115.384,41.7118 116.717,42.7118 117.5,44.5C 114.581,45.9318 113.248,44.9318 113.5,41.5 Z"/></g>
<g><path style="opacity:1" fill="#e92e3d" d="M 187.5,41.5 C 190.86,42.5197 193.527,44.5197 195.5,47.5C 193.793,51.1358 192.626,51.1358 192,47.5C 190.315,49.0175 188.815,50.6841 187.5,52.5C 186.167,51.5 184.833,50.5 183.5,49.5C 185.126,48.0095 186.792,46.5095 188.5,45C 186.273,44.296 185.94,43.1294 187.5,41.5 Z"/></g>
<g><path style="opacity:1" fill="#e92c3c" d="M 109.5,45.5 C 109.279,46.7348 108.612,47.7348 107.5,48.5C 109.389,49.604 111.055,50.9373 112.5,52.5C 111.485,55.1677 109.818,55.8344 107.5,54.5C 106.52,53.0186 105.353,51.6853 104,50.5C 103.61,54.1658 102.443,54.3324 100.5,51C 102.543,49.292 104.21,47.292 105.5,45C 106.928,44.4209 108.262,44.5876 109.5,45.5 Z"/></g>
<g><path style="opacity:1" fill="#e92e3e" d="M 98.5,52.5 C 101.464,54.4483 104.464,56.4483 107.5,58.5C 107.023,59.4776 106.357,60.3109 105.5,61C 103.5,61.3333 101.5,61.6667 99.5,62C 103.508,62.4904 104.175,63.9904 101.5,66.5C 99.1604,64.3291 96.4937,62.6625 93.5,61.5C 94.8568,58.5812 97.1901,57.0812 100.5,57C 99.376,56.7508 98.376,56.2508 97.5,55.5C 98.1272,54.5832 98.4606,53.5832 98.5,52.5 Z"/></g>
<g><path style="opacity:1" fill="#e92a3b" d="M 195.5,49.5 C 200.026,51.2041 202.026,54.5375 201.5,59.5C 200.167,59.5 198.833,59.5 197.5,59.5C 197.281,60.675 197.614,61.675 198.5,62.5C 200.497,61.2526 202.497,60.4192 204.5,60C 205.38,61.3561 205.714,62.8561 205.5,64.5C 203.158,64.5041 201.158,65.3375 199.5,67C 202.035,67.6174 204.368,67.1174 206.5,65.5C 208.873,68.4528 209.707,71.7862 209,75.5C 208,76.8333 207,76.8333 206,75.5C 205.167,76.3333 204.333,77.1667 203.5,78C 206.192,78.4298 208.859,78.2631 211.5,77.5C 211.5,80.5 211.5,83.5 211.5,86.5C 210.325,86.719 209.325,86.3857 208.5,85.5C 209.538,82.2124 208.872,81.8791 206.5,84.5C 204.373,82.3828 204.04,83.0494 205.5,86.5C 204.311,87.4287 202.978,87.762 201.5,87.5C 201.661,77.6514 198.995,68.6514 193.5,60.5C 194.167,59.5 194.833,58.5 195.5,57.5C 195.167,57.1667 194.833,56.8333 194.5,56.5C 191.416,58.8216 189.749,57.8216 189.5,53.5C 192.337,53.3155 194.337,51.9822 195.5,49.5 Z"/></g>
<g><path style="opacity:1" fill="#fce5e8" d="M 196.5,55.5 C 197.077,54.2267 197.743,54.2267 198.5,55.5C 198.03,56.463 197.363,56.463 196.5,55.5 Z"/></g>
<g><path style="opacity:1" fill="#fcdde2" d="M 201.5,71.5 C 203.337,71.6395 203.67,72.3061 202.5,73.5C 201.702,73.0431 201.369,72.3764 201.5,71.5 Z"/></g>
<g><path style="opacity:1" fill="#e8293a" d="M 92.5,65.5 C 99.9315,64.7602 102.098,67.7602 99,74.5C 97.2672,76.6015 95.2672,76.9348 93,75.5C 92.3551,76.646 91.5217,77.646 90.5,78.5C 92.7427,79.4742 95.076,79.8076 97.5,79.5C 98.1351,83.4618 96.8018,84.7952 93.5,83.5C 91.6663,84.7545 89.6663,85.4211 87.5,85.5C 87.4595,82.1194 87.7929,78.7861 88.5,75.5C 89.675,75.719 90.675,75.3857 91.5,74.5C 89.992,71.2313 90.3254,68.2313 92.5,65.5 Z"/></g>
<g><path style="opacity:1" fill="#fddce0" d="M 92.5,70.5 C 93.9187,69.5489 95.5853,69.2155 97.5,69.5C 97.5,70.5 97.5,71.5 97.5,72.5C 95.4862,72.6085 93.8195,71.9418 92.5,70.5 Z"/></g>
<g><path style="opacity:1" fill="#e8293a" d="M 96.5,115.5 C 100.877,116.421 102.21,118.921 100.5,123C 96.9447,124.123 94.9447,122.789 94.5,119C 94.9783,117.697 95.645,116.531 96.5,115.5 Z"/></g>
<g><path style="opacity:1" fill="#17191a" d="M 141.5,39.5 C 171.447,38.3067 190.613,51.9733 199,80.5C 201.345,108.994 189.178,128.161 162.5,138C 131.785,142.937 111.285,130.771 101,101.5C 96.7014,69.0768 110.201,48.4101 141.5,39.5 Z"/></g>
<g><path style="opacity:1" fill="#008aca" d="M 140.5,43.5 C 167.763,41.2047 185.93,52.8714 195,78.5C 198.97,107.415 187.136,126.248 159.5,135C 133.124,138.566 114.957,128.066 105,103.5C 99.2749,78.1245 107.775,59.2911 130.5,47C 133.85,45.5137 137.184,44.347 140.5,43.5 Z"/></g>
<g><path style="opacity:1" fill="#030303" d="M 134.5,49.5 C 144.5,49.5 154.5,49.5 164.5,49.5C 164.5,56.8333 164.5,64.1667 164.5,71.5C 172.167,71.5 179.833,71.5 187.5,71.5C 187.5,81.1667 187.5,90.8333 187.5,100.5C 179.833,100.5 172.167,100.5 164.5,100.5C 164.5,110.167 164.5,119.833 164.5,129.5C 154.5,129.5 144.5,129.5 134.5,129.5C 134.5,119.833 134.5,110.167 134.5,100.5C 126.833,100.5 119.167,100.5 111.5,100.5C 111.5,90.8333 111.5,81.1667 111.5,71.5C 119.167,71.5 126.833,71.5 134.5,71.5C 134.5,64.1667 134.5,56.8333 134.5,49.5 Z"/></g>
<g><path style="opacity:1" fill="#3b3c3c" d="M 121.5,90.5 C 120.31,92.3545 118.977,94.1879 117.5,96C 116.552,96.4828 115.552,96.6495 114.5,96.5C 114.5,95.5 114.5,94.5 114.5,93.5C 115.143,91.9236 116.143,90.5903 117.5,89.5C 117.56,90.0431 117.893,90.3764 118.5,90.5C 120.322,86.8979 121.322,86.8979 121.5,90.5 Z"/></g>
<g><path style="opacity:1" fill="#f8f7f7" d="M 164.5,95.5 C 165.974,94.5637 166.974,93.2303 167.5,91.5C 168.835,86.4646 170.001,86.4646 171,91.5C 171.974,89.1224 172.641,89.4557 173,92.5C 173.333,91.1667 173.667,89.8333 174,88.5C 174.628,91.9535 175.795,92.2869 177.5,89.5C 176.417,85.5433 174.417,82.21 171.5,79.5C 170.791,78.596 169.791,78.2627 168.5,78.5C 166.473,81.5313 164.807,84.8646 163.5,88.5C 163.167,89.1667 162.833,89.8333 162.5,90.5C 161.67,102.272 161.337,114.272 161.5,126.5C 153.5,126.5 145.5,126.5 137.5,126.5C 137.5,116.833 137.5,107.167 137.5,97.5C 129.648,97.8254 121.982,97.492 114.5,96.5C 115.552,96.6495 116.552,96.4828 117.5,96C 118.977,94.1879 120.31,92.3545 121.5,90.5C 122.167,90.5 122.833,90.5 123.5,90.5C 124.341,88.8261 125.341,86.4928 126.5,83.5C 126.043,80.6481 124.709,79.6481 122.5,80.5C 119.17,82.4213 117.503,85.4213 117.5,89.5C 116.143,90.5903 115.143,91.9236 114.5,93.5C 114.5,87.1667 114.5,80.8333 114.5,74.5C 123.014,74.4263 131.347,74.4263 139.5,74.5C 140.521,73.0986 141.521,71.7653 142.5,70.5C 143.857,68.7065 145.023,66.7065 146,64.5C 146.542,69.7208 147.376,69.7208 148.5,64.5C 149.852,65.5175 150.852,66.8508 151.5,68.5C 152.522,68.1445 153.189,67.4778 153.5,66.5C 152.502,62.4945 150.502,59.1612 147.5,56.5C 147.44,55.9569 147.107,55.6236 146.5,55.5C 142.671,58.6848 140.337,62.6848 139.5,67.5C 138.732,68.2625 138.232,69.2625 138,70.5C 137.501,64.5092 137.334,58.5092 137.5,52.5C 145.5,52.5 153.5,52.5 161.5,52.5C 161.5,59.8333 161.5,67.1667 161.5,74.5C 169.167,74.5 176.833,74.5 184.5,74.5C 184.5,82.1667 184.5,89.8333 184.5,97.5C 177.492,97.6663 170.492,97.4996 163.5,97C 164.056,96.6174 164.389,96.1174 164.5,95.5 Z"/></g>
<g><path style="opacity:1" fill="#1f2021" d="M 139.5,94.5 C 141.153,94.6596 142.486,95.3263 143.5,96.5C 139.276,103.178 137.942,102.511 139.5,94.5 Z"/></g>
<g><path style="opacity:1" fill="#252526" d="M 152.5,80.5 C 154.023,82.8958 155.023,85.5625 155.5,88.5C 156.5,88.5 157.5,88.5 158.5,88.5C 160.746,94.6949 161.079,96.3616 159.5,93.5C 158.5,93.5 157.5,93.5 156.5,93.5C 154.88,89.2591 153.547,84.9257 152.5,80.5 Z"/></g>
<g><path style="opacity:1" fill="#d55966" d="M 149.5,85.5 C 149.946,88.6576 150.28,91.8243 150.5,95C 150.333,95.5 150.167,96 150,96.5C 149.722,95.5842 149.222,94.9175 148.5,94.5C 148.19,91.2869 148.523,88.2869 149.5,85.5 Z"/></g>
<g><path style="opacity:1" fill="#3e3f40" d="M 163.5,88.5 C 164.75,88.5774 165.583,89.244 166,90.5C 167.107,89.2881 167.607,89.6214 167.5,91.5C 166.974,93.2303 165.974,94.5637 164.5,95.5C 163.761,95.631 163.094,95.4643 162.5,95C 163.801,93.3845 163.801,91.8845 162.5,90.5C 162.833,89.8333 163.167,89.1667 163.5,88.5 Z"/></g>
<g><path style="opacity:1" fill="#b9b8bf" d="M 149.5,85.5 C 148.523,88.2869 148.19,91.2869 148.5,94.5C 148.44,95.0431 148.107,95.3764 147.5,95.5C 146.749,94.624 146.249,93.624 146,92.5C 145.8,94.3197 144.966,95.653 143.5,96.5C 142.486,95.3263 141.153,94.6596 139.5,94.5C 140.547,88.8011 143.547,84.9678 148.5,83C 149.252,83.6708 149.586,84.5041 149.5,85.5 Z"/></g>
<g><path style="opacity:1" fill="#ce676d" d="M 171.5,79.5 C 174.417,82.21 176.417,85.5433 177.5,89.5C 175.447,86.0193 172.78,82.8526 169.5,80C 170.094,79.5357 170.761,79.369 171.5,79.5 Z"/></g>
<g><path style="opacity:1" fill="#bfbfc4" d="M 122.5,80.5 C 123.478,80.811 124.145,81.4777 124.5,82.5C 123.607,85.0841 123.274,87.7508 123.5,90.5C 122.833,90.5 122.167,90.5 121.5,90.5C 121.322,86.8979 120.322,86.8979 118.5,90.5C 117.893,90.3764 117.56,90.0431 117.5,89.5C 117.503,85.4213 119.17,82.4213 122.5,80.5 Z"/></g>
<g><path style="opacity:1" fill="#6ea2bc" d="M 175.5,75.5 C 178.018,79.5227 180.351,83.8561 182.5,88.5C 183.631,90.0745 183.798,91.7412 183,93.5C 181.86,90.8981 181.027,88.2314 180.5,85.5C 179.5,85.5 178.5,85.5 177.5,85.5C 176.424,82.2655 175.757,78.9322 175.5,75.5 Z"/></g>
<g><path style="opacity:1" fill="#ca8f95" d="M 122.5,80.5 C 124.709,79.6481 126.043,80.6481 126.5,83.5C 125.341,86.4928 124.341,88.8261 123.5,90.5C 123.274,87.7508 123.607,85.0841 124.5,82.5C 124.145,81.4777 123.478,80.811 122.5,80.5 Z"/></g>
<g><path style="opacity:1" fill="#cac5cd" d="M 171.5,79.5 C 170.761,79.369 170.094,79.5357 169.5,80C 172.78,82.8526 175.447,86.0193 177.5,89.5C 175.795,92.2869 174.628,91.9535 174,88.5C 173.667,89.8333 173.333,91.1667 173,92.5C 172.641,89.4557 171.974,89.1224 171,91.5C 170.001,86.4646 168.835,86.4646 167.5,91.5C 167.607,89.6214 167.107,89.2881 166,90.5C 165.583,89.244 164.75,88.5774 163.5,88.5C 164.807,84.8646 166.473,81.5313 168.5,78.5C 169.791,78.2627 170.791,78.596 171.5,79.5 Z"/></g>
<g><path style="opacity:1" fill="#cb666b" d="M 147.5,56.5 C 150.502,59.1612 152.502,62.4945 153.5,66.5C 152.542,66.0472 151.708,65.3805 151,64.5C 150.394,61.4522 148.894,58.9522 146.5,57C 146.728,56.6012 147.062,56.4346 147.5,56.5 Z"/></g>
<g><path style="opacity:1" fill="#c0bbc2" d="M 147.5,56.5 C 147.062,56.4346 146.728,56.6012 146.5,57C 148.894,58.9522 150.394,61.4522 151,64.5C 151.708,65.3805 152.542,66.0472 153.5,66.5C 153.189,67.4778 152.522,68.1445 151.5,68.5C 150.852,66.8508 149.852,65.5175 148.5,64.5C 147.376,69.7208 146.542,69.7208 146,64.5C 145.023,66.7065 143.857,68.7065 142.5,70.5C 142.19,68.8564 141.19,67.8564 139.5,67.5C 140.337,62.6848 142.671,58.6848 146.5,55.5C 147.107,55.6236 147.44,55.9569 147.5,56.5 Z"/></g>
<g><path style="opacity:1" fill="#fbf248" d="M 151.5,53.5 C 154.137,57.4155 156.803,61.4155 159.5,65.5C 160.833,67.1667 160.833,68.8333 159.5,70.5C 157.917,68.01 156.917,65.3433 156.5,62.5C 155.5,62.5 154.5,62.5 153.5,62.5C 152.594,59.5641 151.928,56.5641 151.5,53.5 Z"/></g>
<g><path style="opacity:1" fill="#fcd4da" d="M 97.5,118.5 C 98.3764,118.369 99.0431,118.702 99.5,119.5C 97.1916,120.873 96.5249,120.54 97.5,118.5 Z"/></g>
<g><path style="opacity:1" fill="#e8293a" d="M 102.5,122.5 C 104.977,122.051 106.977,122.717 108.5,124.5C 106.581,124.614 104.581,125.28 102.5,126.5C 102.719,127.675 102.386,128.675 101.5,129.5C 100.618,128.24 99.6184,127.074 98.5,126C 100.093,125.051 101.426,123.885 102.5,122.5 Z"/></g>
<g><path style="opacity:1" fill="#e8273a" d="M 197.5,128.5 C 197.288,130.384 196.288,131.717 194.5,132.5C 193.636,130.803 192.303,129.637 190.5,129C 192.213,127.622 193.547,125.955 194.5,124C 195.899,123.405 197.232,123.572 198.5,124.5C 199.281,123.271 199.781,121.938 200,120.5C 203.346,121.089 203.346,120.422 200,118.5C 199.085,119.328 198.419,120.328 198,121.5C 197.487,118.173 198.987,116.507 202.5,116.5C 203.5,116.833 204.5,117.167 205.5,117.5C 203.879,122.093 201.212,125.76 197.5,128.5 Z"/></g>
<g><path style="opacity:1" fill="#fbccd2" d="M 197.5,128.5 C 196.325,128.719 195.325,128.386 194.5,127.5C 195.86,126.335 196.86,126.668 197.5,128.5 Z"/></g>
<g><path style="opacity:1" fill="#e82336" d="M 188.5,130.5 C 192.071,130.408 193.238,132.074 192,135.5C 189.161,138.409 186.994,138.075 185.5,134.5C 185.787,132.557 186.787,131.223 188.5,130.5 Z"/></g>
<g><path style="opacity:1" fill="#fabfc8" d="M 187.5,134.5 C 188.386,133.224 189.386,133.224 190.5,134.5C 189.575,135.562 188.575,135.562 187.5,134.5 Z"/></g>
<g><path style="opacity:1" fill="#e8253a" d="M 182.5,135.5 C 183.497,135.47 184.164,135.97 184.5,137C 182.999,140.545 183.499,141.045 186,138.5C 186.167,138.833 186.333,139.167 186.5,139.5C 185.055,141.063 183.389,142.396 181.5,143.5C 180.719,142.271 180.219,140.938 180,139.5C 179.346,140.696 178.846,140.696 178.5,139.5C 179.549,137.784 180.882,136.451 182.5,135.5 Z"/></g>
<g><path style="opacity:1" fill="#ea3141" d="M 120.5,139.5 C 120.167,140.167 119.833,140.833 119.5,141.5C 119.53,142.497 119.03,143.164 118,143.5C 114.75,142.659 112.917,140.659 112.5,137.5C 113.552,137.649 114.552,137.483 115.5,137C 113.453,135.927 111.453,134.761 109.5,133.5C 107.495,136.028 105.829,135.695 104.5,132.5C 106.858,130.976 108.691,128.976 110,126.5C 113.628,130.874 117.128,135.208 120.5,139.5 Z"/></g>
<g><path style="opacity:1" fill="#f69fac" d="M 120.5,139.5 C 120.833,139.5 121.167,139.5 121.5,139.5C 122.01,142.388 121.344,144.721 119.5,146.5C 120.72,144.716 120.72,143.05 119.5,141.5C 119.833,140.833 120.167,140.167 120.5,139.5 Z"/></g>
<g><path style="opacity:1" fill="#f27988" d="M 127.5,141.5 C 128.995,141.989 130.329,142.655 131.5,143.5C 129.821,143.285 128.821,143.952 128.5,145.5C 127.833,145.167 127.167,144.833 126.5,144.5C 127.11,143.609 127.443,142.609 127.5,141.5 Z"/></g>
<g><path style="opacity:1" fill="#e71a33" d="M 121.5,139.5 C 122.995,139.415 123.995,140.081 124.5,141.5C 123.674,142.451 123.508,143.451 124,144.5C 124.759,142.937 125.926,141.937 127.5,141.5C 127.443,142.609 127.11,143.609 126.5,144.5C 124.833,145.5 123.5,146.833 122.5,148.5C 120.973,148.573 119.973,147.906 119.5,146.5C 121.344,144.721 122.01,142.388 121.5,139.5 Z"/></g>
<g><path style="opacity:1" fill="#ea3040" d="M 173.5,137.5 C 174.675,137.281 175.675,137.614 176.5,138.5C 177.248,140.332 178.248,141.999 179.5,143.5C 178.68,145.111 177.346,145.778 175.5,145.5C 175.557,141.867 174.557,141.7 172.5,145C 173.833,146 173.833,147 172.5,148C 170.129,148.735 167.795,149.568 165.5,150.5C 164.749,149.624 164.249,148.624 164,147.5C 163.585,149.291 162.585,150.624 161,151.5C 160.73,148.776 160.23,146.109 159.5,143.5C 161.51,141.829 163.843,141.162 166.5,141.5C 166.247,143.827 166.914,145.827 168.5,147.5C 169.594,146.132 169.26,144.965 167.5,144C 170.295,142.964 172.962,141.631 175.5,140C 174.244,139.583 173.577,138.75 173.5,137.5 Z"/></g>
<g><path style="opacity:1" fill="#f8a2ac" d="M 134.5,145.5 C 134.5,146.167 134.833,146.5 135.5,146.5C 135.5,147.5 135.5,148.5 135.5,149.5C 134.833,149.167 134.167,148.833 133.5,148.5C 133.063,146.926 132.063,145.759 130.5,145C 131.819,144.805 133.153,144.972 134.5,145.5 Z"/></g>
<g><path style="opacity:1" fill="#e71d33" d="M 135.5,149.5 C 135.5,148.5 135.5,147.5 135.5,146.5C 137.288,145.378 139.288,145.211 141.5,146C 142.833,147.667 142.833,149.333 141.5,151C 139.011,151.941 137.011,151.441 135.5,149.5 Z"/></g>
<g><path style="opacity:1" fill="#ea3142" d="M 131.5,143.5 C 133.027,143.427 134.027,144.094 134.5,145.5C 133.153,144.972 131.819,144.805 130.5,145C 132.063,145.759 133.063,146.926 133.5,148.5C 131.983,149.735 130.316,149.735 128.5,148.5C 127.438,147.575 127.438,146.575 128.5,145.5C 128.821,143.952 129.821,143.285 131.5,143.5 Z"/></g>
<g><path style="opacity:1" fill="#f57f8b" d="M 138.5,146.5 C 140.048,146.821 140.715,147.821 140.5,149.5C 137.752,149.598 137.086,148.598 138.5,146.5 Z"/></g>
<g><path style="opacity:1" fill="#eb3b47" d="M 143.5,147.5 C 145.966,146.366 148.633,146.199 151.5,147C 152.406,148.699 152.739,150.533 152.5,152.5C 149.428,152.817 146.428,152.484 143.5,151.5C 144.705,150.005 144.705,148.672 143.5,147.5 Z"/></g>
<g><path style="opacity:1" fill="#eb4959" d="M 157.5,153.5 C 156.609,154.11 155.609,154.443 154.5,154.5C 155.807,153.198 155.807,151.865 154.5,150.5C 155.325,149.614 156.325,149.281 157.5,149.5C 157.5,150.833 157.5,152.167 157.5,153.5 Z"/></g>
</svg>
