<?xml version="1.0" encoding="UTF-8"?>
<!DOCTYPE svg PUBLIC "-//W3C//DTD SVG 1.1//EN" "http://www.w3.org/Graphics/SVG/1.1/DTD/svg11.dtd">
<svg xmlns="http://www.w3.org/2000/svg" version="1.1" width="617px" height="371px" style="shape-rendering:geometricPrecision; text-rendering:geometricPrecision; image-rendering:optimizeQuality; fill-rule:evenodd; clip-rule:evenodd" xmlns:xlink="http://www.w3.org/1999/xlink">
<g><path style="opacity:1" fill="#fefffe" d="M -0.5,-0.5 C 205.167,-0.5 410.833,-0.5 616.5,-0.5C 616.5,123.167 616.5,246.833 616.5,370.5C 410.833,370.5 205.167,370.5 -0.5,370.5C -0.5,246.833 -0.5,123.167 -0.5,-0.5 Z"/></g>
<g><path style="opacity:1" fill="#000000" d="M 35.5,21.5 C 35.5,26.1667 35.5,30.8333 35.5,35.5C 35.5,135.167 35.5,234.833 35.5,334.5C 35.5,339.167 35.5,343.833 35.5,348.5C 30.8333,348.5 26.1667,348.5 21.5,348.5C 21.5,239.5 21.5,130.5 21.5,21.5C 26.1667,21.5 30.8333,21.5 35.5,21.5 Z"/></g>
<g><path style="opacity:1" fill="#c6002a" d="M 35.5,21.5 C 216.833,21.5 398.167,21.5 579.5,21.5C 579.5,26.1667 579.5,30.8333 579.5,35.5C 398.167,35.5 216.833,35.5 35.5,35.5C 35.5,30.8333 35.5,26.1667 35.5,21.5 Z"/></g>
<g><path style="opacity:1" fill="#02a833" d="M 579.5,21.5 C 584.5,21.5 589.5,21.5 594.5,21.5C 594.5,130.5 594.5,239.5 594.5,348.5C 589.5,348.5 584.5,348.5 579.5,348.5C 579.5,343.833 579.5,339.167 579.5,334.5C 579.5,234.833 579.5,135.167 579.5,35.5C 579.5,30.8333 579.5,26.1667 579.5,21.5 Z"/></g>
<g><path style="opacity:1" fill="#fefefe" d="M 35.5,35.5 C 216.833,35.5 398.167,35.5 579.5,35.5C 579.5,135.167 579.5,234.833 579.5,334.5C 398.167,334.5 216.833,334.5 35.5,334.5C 35.5,234.833 35.5,135.167 35.5,35.5 Z"/></g>
<g><path style="opacity:1" fill="#161616" d="M 293.5,65.5 C 352.912,63.2719 395.079,88.9385 420,142.5C 436.496,194 425.33,238.5 386.5,276C 342.691,310.472 296.025,314.805 246.5,289C 204.271,261.375 184.771,222.208 188,171.5C 195.95,123.546 222.45,90.3796 267.5,72C 276.123,69.1776 284.79,67.0109 293.5,65.5 Z"/></g>
<g><path style="opacity:1" fill="#181818" d="M 395.5,257.5 C 391.535,256.175 388.201,253.841 385.5,250.5C 387.766,249.686 390.1,249.186 392.5,249C 390.907,248.051 389.574,246.885 388.5,245.5C 389.423,244.697 390.423,244.53 391.5,245C 393.875,247.176 396.208,249.343 398.5,251.5C 396.234,252.314 393.9,252.814 391.5,253C 393.635,253.876 394.969,255.376 395.5,257.5 Z"/></g>
<g><path style="opacity:1" fill="#f5f5f5" d="M 386.5,101.5 C 413.37,126.94 425.537,158.273 423,195.5C 421.119,211.691 416.453,227.025 409,241.5C 405.209,248.105 400.709,254.105 395.5,259.5C 395.5,258.833 395.5,258.167 395.5,257.5C 394.969,255.376 393.635,253.876 391.5,253C 393.9,252.814 396.234,252.314 398.5,251.5C 396.208,249.343 393.875,247.176 391.5,245C 390.423,244.53 389.423,244.697 388.5,245.5C 387.766,244.292 387.433,242.959 387.5,241.5C 412.605,198.829 409.938,158.162 379.5,119.5C 379.842,118.662 380.508,118.328 381.5,118.5C 384.899,116.612 387.899,114.112 390.5,111C 388.76,109.173 387.093,109.34 385.5,111.5C 385.167,111.167 384.833,110.833 384.5,110.5C 385.95,109.15 386.617,107.484 386.5,105.5C 385.722,104.844 385.056,104.011 384.5,103C 384.836,101.97 385.503,101.47 386.5,101.5 Z"/></g>
<g><path style="opacity:1" fill="#828282" d="M 411.5,203.5 C 411.5,204.167 411.833,204.5 412.5,204.5C 411.779,208.934 410.612,213.268 409,217.5C 409.515,212.71 410.349,208.043 411.5,203.5 Z"/></g>
<g><path style="opacity:1" fill="#7e8115" d="M 413.5,194.5 C 413.409,196.698 414.075,197.031 415.5,195.5C 415.267,197.062 414.6,198.395 413.5,199.5C 412.167,197.833 412.167,196.167 413.5,194.5 Z"/></g>
<g><path style="opacity:1" fill="#837c23" d="M 413.5,191.5 C 415.167,190.167 416.833,190.167 418.5,191.5C 418.262,193.404 417.262,194.738 415.5,195.5C 415.511,193.983 416.177,192.816 417.5,192C 416.207,191.51 414.873,191.343 413.5,191.5 Z"/></g>
<g><path style="opacity:1" fill="#f6ee0b" d="M 413.5,191.5 C 414.873,191.343 416.207,191.51 417.5,192C 416.177,192.816 415.511,193.983 415.5,195.5C 414.075,197.031 413.409,196.698 413.5,194.5C 413.5,193.5 413.5,192.5 413.5,191.5 Z"/></g>
<g><path style="opacity:1" fill="#1e1412" d="M 418.5,191.5 C 416.833,190.167 415.167,190.167 413.5,191.5C 413.5,192.5 413.5,193.5 413.5,194.5C 412.167,196.167 412.167,197.833 413.5,199.5C 412.962,201.117 412.629,202.784 412.5,204.5C 411.833,204.5 411.5,204.167 411.5,203.5C 411.279,198.224 409.279,193.724 405.5,190C 406.044,189.283 406.711,188.783 407.5,188.5C 408.919,189.451 410.585,189.784 412.5,189.5C 413.551,186.344 413.551,183.344 412.5,180.5C 413.008,178.767 413.841,178.434 415,179.5C 416.833,183.167 418.667,186.833 420.5,190.5C 420.043,191.298 419.376,191.631 418.5,191.5 Z"/></g>
<g><path style="opacity:1" fill="#f4f4f4" d="M 219.5,110.5 C 220.791,110.263 221.791,110.596 222.5,111.5C 225.118,114.785 228.118,117.785 231.5,120.5C 232.492,120.328 233.158,120.662 233.5,121.5C 206.51,157.332 203.344,195.332 224,235.5C 229.79,244.081 236.29,252.081 243.5,259.5C 242.34,259.437 241.006,259.77 239.5,260.5C 237.049,261.411 234.715,262.244 232.5,263C 233.516,261.323 234.516,259.657 235.5,258C 235.37,256.941 234.87,256.108 234,255.5C 232.03,258.968 229.864,262.301 227.5,265.5C 227.855,266.522 228.522,267.189 229.5,267.5C 230.398,268.158 231.398,268.824 232.5,269.5C 231.675,270.386 230.675,270.719 229.5,270.5C 206.452,249.731 194.118,223.731 192.5,192.5C 192.263,191.209 192.596,190.209 193.5,189.5C 193.5,190.167 193.833,190.5 194.5,190.5C 195.167,191.833 196.167,192.833 197.5,193.5C 198.222,194.551 199.222,195.218 200.5,195.5C 200.5,196.833 200.5,198.167 200.5,199.5C 200.881,204.237 201.714,208.904 203,213.5C 203.478,208.709 202.978,204.042 201.5,199.5C 202.962,195.243 204.962,191.243 207.5,187.5C 207.145,186.478 206.478,185.811 205.5,185.5C 204.974,183.77 203.974,182.436 202.5,181.5C 201.952,179.606 200.952,177.94 199.5,176.5C 197.489,180.522 195.489,184.522 193.5,188.5C 192.515,184.366 192.182,180.032 192.5,175.5C 194.308,150.718 203.308,129.051 219.5,110.5 Z"/></g>
<g><path style="opacity:1" fill="#1c1c1c" d="M 228.5,250.5 C 230.252,250.418 231.252,251.251 231.5,253C 229.728,256.602 227.395,259.768 224.5,262.5C 223.269,261.349 223.269,260.183 224.5,259C 222.941,258.02 221.274,257.187 219.5,256.5C 222.357,254.242 225.357,252.242 228.5,250.5 Z"/></g>
<g><path style="opacity:1" fill="#d9d9d9" d="M 225.5,254.5 C 227.975,254.747 227.975,255.413 225.5,256.5C 224.537,256.03 224.537,255.363 225.5,254.5 Z"/></g>
<g><path style="opacity:1" fill="#1d1d1d" d="M 222.5,242.5 C 226.089,243.372 226.423,245.039 223.5,247.5C 225.256,247.36 226.922,247.86 228.5,249C 224.254,249.976 220.254,251.476 216.5,253.5C 219.237,250.37 221.237,246.703 222.5,242.5 Z"/></g>
<g><path style="opacity:1" fill="#848386" d="M 200.5,199.5 C 200.833,199.5 201.167,199.5 201.5,199.5C 202.978,204.042 203.478,208.709 203,213.5C 201.714,208.904 200.881,204.237 200.5,199.5 Z"/></g>
<g><path style="opacity:1" fill="#eae308" d="M 200.5,193.5 C 200.5,194.167 200.5,194.833 200.5,195.5C 199.222,195.218 198.222,194.551 197.5,193.5C 197.489,191.983 196.823,190.816 195.5,190C 196.793,189.51 198.127,189.343 199.5,189.5C 199.232,191.099 199.566,192.432 200.5,193.5 Z"/></g>
<g><path style="opacity:1" fill="#776e1d" d="M 200.5,193.5 C 199.566,192.432 199.232,191.099 199.5,189.5C 198.127,189.343 196.793,189.51 195.5,190C 196.823,190.816 197.489,191.983 197.5,193.5C 196.167,192.833 195.167,191.833 194.5,190.5C 195.918,188.692 197.918,188.025 200.5,188.5C 200.5,190.167 200.5,191.833 200.5,193.5 Z"/></g>
<g><path style="opacity:1" fill="#9f2730" d="M 412.5,180.5 C 413.551,183.344 413.551,186.344 412.5,189.5C 410.585,189.784 408.919,189.451 407.5,188.5C 408.669,185.489 410.336,182.822 412.5,180.5 Z"/></g>
<g><path style="opacity:1" fill="#b52434" d="M 202.5,181.5 C 203.974,182.436 204.974,183.77 205.5,185.5C 204.448,187.256 202.781,187.923 200.5,187.5C 200.337,185.143 200.503,182.81 201,180.5C 201.383,181.056 201.883,181.389 202.5,181.5 Z"/></g>
<g><path style="opacity:1" fill="#9a999b" d="M 192.5,175.5 C 192.182,180.032 192.515,184.366 193.5,188.5C 193.5,188.833 193.5,189.167 193.5,189.5C 192.596,190.209 192.263,191.209 192.5,192.5C 191.167,186.833 191.167,181.167 192.5,175.5 Z"/></g>
<g><path style="opacity:1" fill="#1d1313" d="M 202.5,181.5 C 201.883,181.389 201.383,181.056 201,180.5C 200.503,182.81 200.337,185.143 200.5,187.5C 202.781,187.923 204.448,187.256 205.5,185.5C 206.478,185.811 207.145,186.478 207.5,187.5C 204.962,191.243 202.962,195.243 201.5,199.5C 201.167,199.5 200.833,199.5 200.5,199.5C 200.5,198.167 200.5,196.833 200.5,195.5C 200.5,194.833 200.5,194.167 200.5,193.5C 200.5,191.833 200.5,190.167 200.5,188.5C 197.918,188.025 195.918,188.692 194.5,190.5C 193.833,190.5 193.5,190.167 193.5,189.5C 193.5,189.167 193.5,188.833 193.5,188.5C 195.489,184.522 197.489,180.522 199.5,176.5C 200.952,177.94 201.952,179.606 202.5,181.5 Z"/></g>
<g><path style="opacity:1" fill="#1b1b1b" d="M 379.5,119.5 C 409.938,158.162 412.605,198.829 387.5,241.5C 360.778,275.136 326.111,287.97 283.5,280C 268.861,275.515 255.528,268.682 243.5,259.5C 236.29,252.081 229.79,244.081 224,235.5C 203.344,195.332 206.51,157.332 233.5,121.5C 272.242,83.8249 315.242,78.3249 362.5,105C 368.57,109.367 374.236,114.2 379.5,119.5 Z"/></g>
<g><path style="opacity:1" fill="#1b1b1b" d="M 220.5,114.5 C 222.508,115.301 223.008,116.634 222,118.5C 223.667,120.167 225.333,121.833 227,123.5C 227.591,124.483 227.257,125.15 226,125.5C 223.677,123.848 221.344,122.181 219,120.5C 217.951,121.517 216.784,121.684 215.5,121C 217.054,118.713 218.721,116.546 220.5,114.5 Z"/></g>
<g><path style="opacity:1" fill="#191919" d="M 391.5,114.5 C 394.101,115.28 396.101,116.946 397.5,119.5C 397.167,119.833 396.833,120.167 396.5,120.5C 395.131,118.876 393.464,118.376 391.5,119C 392.731,120.183 392.731,121.349 391.5,122.5C 390.391,121.41 389.391,121.41 388.5,122.5C 389.645,123.891 389.645,125.224 388.5,126.5C 387.167,124.833 385.833,123.167 384.5,121.5C 387.06,119.388 389.394,117.055 391.5,114.5 Z"/></g>
<g><path style="opacity:1" fill="#151515" d="M 386.5,105.5 C 386.617,107.484 385.95,109.15 384.5,110.5C 384.833,110.833 385.167,111.167 385.5,111.5C 387.093,109.34 388.76,109.173 390.5,111C 387.899,114.112 384.899,116.612 381.5,118.5C 381.389,117.883 381.056,117.383 380.5,117C 384.604,112.779 384.104,111.946 379,114.5C 377.941,114.37 377.108,113.87 376.5,113C 379.164,109.489 382.498,106.989 386.5,105.5 Z"/></g>
<g><path style="opacity:1" fill="#e4e5e5" d="M 293.5,90.5 C 333.509,87.424 365.009,102.091 388,134.5C 405.049,163.78 407.049,194.114 394,225.5C 378.101,257.042 352.601,275.209 317.5,280C 281.894,282.943 253.06,270.443 231,242.5C 210.83,212.807 207.164,181.14 220,147.5C 235.076,116.248 259.576,97.248 293.5,90.5 Z"/></g>
<g><path style="opacity:1" fill="#231a19" d="M 217.5,201.5 C 211.47,152.074 231.47,117.574 277.5,98C 323.696,85.8675 360.196,99.3675 387,138.5C 401.841,165.665 403.508,193.665 392,222.5C 374.664,257.974 346.164,276.307 306.5,277.5C 265.448,275.267 236.948,255.267 221,217.5C 219.198,212.292 218.031,206.959 217.5,201.5 Z"/></g>
<g><path style="opacity:1" fill="#eceded" d="M 341.5,258.5 C 342.995,258.415 343.995,259.081 344.5,260.5C 342.016,262.483 339.683,264.65 337.5,267C 338.167,267.333 338.833,267.667 339.5,268C 338.619,268.708 337.953,269.542 337.5,270.5C 336.833,270.833 336.167,271.167 335.5,271.5C 335.477,270.253 334.811,268.92 333.5,267.5C 336.903,265.1 339.57,262.1 341.5,258.5 Z"/></g>
<g><path style="opacity:1" fill="#5b1e26" d="M 310.5,236.5 C 310.592,238.848 311.592,240.514 313.5,241.5C 314.338,241.842 314.672,242.508 314.5,243.5C 313.07,243.579 311.736,243.246 310.5,242.5C 309.335,249.811 309.169,257.144 310,264.5C 312.833,260.167 315.667,255.833 318.5,251.5C 316.914,249.827 316.247,247.827 316.5,245.5C 317.967,248.892 320.634,250.225 324.5,249.5C 324.629,251.216 324.962,252.883 325.5,254.5C 324.624,254.369 323.957,254.702 323.5,255.5C 320.918,260.333 318.085,265 315,269.5C 314.678,271.689 315.178,273.689 316.5,275.5C 311.833,275.5 307.167,275.5 302.5,275.5C 303.963,273.402 303.796,271.402 302,269.5C 299.167,265.167 296.333,260.833 293.5,256.5C 292.726,255.289 291.893,255.289 291,256.5C 290.536,255.906 290.369,255.239 290.5,254.5C 293.19,253.454 295.857,252.454 298.5,251.5C 300.888,256.582 304.055,261.249 308,265.5C 308.5,256.506 308.666,247.506 308.5,238.5C 308.833,237.5 309.5,236.833 310.5,236.5 Z"/></g>
<g><path style="opacity:1" fill="#adaaa8" d="M 361.5,249.5 C 361.313,251.564 360.813,253.564 360,255.5C 359.163,253.993 357.996,253.493 356.5,254C 358.07,255.397 359.404,256.897 360.5,258.5C 359.055,260.063 357.389,261.396 355.5,262.5C 356.084,260.28 355.417,258.28 353.5,256.5C 353.92,254.906 354.586,253.406 355.5,252C 354.685,250.357 353.685,248.857 352.5,247.5C 354.567,245.488 356.9,245.154 359.5,246.5C 359.023,247.478 358.357,248.311 357.5,249C 358.667,249.5 359.5,250.333 360,251.5C 360.278,250.584 360.778,249.918 361.5,249.5 Z"/></g>
<g><path style="opacity:1" fill="#939393" d="M 262.5,241.5 C 265.124,242.812 267.457,243.979 269.5,245C 266.721,245.149 266.221,245.983 268,247.5C 269.333,246.167 270.667,246.167 272,247.5C 273.11,249.397 273.276,251.23 272.5,253C 275.647,256.981 278.98,260.814 282.5,264.5C 282.154,265.696 281.654,265.696 281,264.5C 280.536,265.094 280.369,265.761 280.5,266.5C 277.22,263.957 274.387,260.957 272,257.5C 271.626,258.416 271.126,259.25 270.5,260C 274.37,263.702 278.037,267.536 281.5,271.5C 280.883,271.611 280.383,271.944 280,272.5C 278.124,271.391 276.291,270.391 274.5,269.5C 272.372,266.87 270.039,264.37 267.5,262C 266.167,262 264.833,262 263.5,262C 264.673,258.89 264.173,258.723 262,261.5C 261.805,260.181 261.972,258.847 262.5,257.5C 267.032,256.327 268.365,253.66 266.5,249.5C 265.526,247.915 264.026,246.915 262,246.5C 261.667,246.833 261.333,247.167 261,247.5C 260.869,244.629 259.703,242.295 257.5,240.5C 257.833,239.5 258.5,238.833 259.5,238.5C 260.735,239.34 261.735,240.34 262.5,241.5 Z"/></g>
<g><path style="opacity:1" fill="#868326" d="M 284.5,253.5 C 284.5,254.167 284.833,254.5 285.5,254.5C 284.438,256.099 284.438,257.766 285.5,259.5C 283.899,258.481 282.899,256.981 282.5,255C 282.836,253.97 283.503,253.47 284.5,253.5 Z"/></g>
<g><path style="opacity:1" fill="#492a2c" d="M 335.5,251.5 C 334.66,253.853 333.326,255.853 331.5,257.5C 329.844,255.94 327.844,254.94 325.5,254.5C 329.369,254.977 332.703,253.977 335.5,251.5 Z"/></g>
<g><path style="opacity:1" fill="#eca736" d="M 266.5,249.5 C 268.365,253.66 267.032,256.327 262.5,257.5C 260.861,256.527 259.527,255.194 258.5,253.5C 258.5,252.5 258.5,251.5 258.5,250.5C 261.012,248.533 263.679,248.2 266.5,249.5 Z"/></g>
<g><path style="opacity:1" fill="#ecaa39" d="M 352.5,247.5 C 353.685,248.857 354.685,250.357 355.5,252C 354.586,253.406 353.92,254.906 353.5,256.5C 347.973,256.976 345.64,254.643 346.5,249.5C 348.297,248.27 350.297,247.604 352.5,247.5 Z"/></g>
<g><path style="opacity:1" fill="#554d25" d="M 285.5,254.5 C 286.348,253.375 287.348,253.375 288.5,254.5C 287.652,255.625 286.652,255.625 285.5,254.5 Z"/></g>
<g><path style="opacity:1" fill="#f5f5f5" d="M 361.5,249.5 C 361.833,249.5 362.167,249.5 362.5,249.5C 363.752,251.001 364.752,252.668 365.5,254.5C 364.055,256.063 362.389,257.396 360.5,258.5C 359.404,256.897 358.07,255.397 356.5,254C 357.996,253.493 359.163,253.993 360,255.5C 360.813,253.564 361.313,251.564 361.5,249.5 Z"/></g>
<g><path style="opacity:1" fill="#f1e206" d="M 308.5,238.5 C 308.666,247.506 308.5,256.506 308,265.5C 304.055,261.249 300.888,256.582 298.5,251.5C 301.091,250.009 302.091,247.675 301.5,244.5C 302.728,243.694 303.728,242.694 304.5,241.5C 305.167,240.833 305.833,240.167 306.5,239.5C 307.167,239.167 307.833,238.833 308.5,238.5 Z"/></g>
<g><path style="opacity:1" fill="#f1f1f1" d="M 275.5,249.5 C 280.5,257.49 286,265.157 292,272.5C 292.692,273.437 292.525,274.103 291.5,274.5C 291.167,274.5 290.833,274.5 290.5,274.5C 289.263,271.755 287.43,269.422 285,267.5C 284.667,268.167 284.333,268.833 284,269.5C 282.961,268.29 281.794,267.29 280.5,266.5C 280.369,265.761 280.536,265.094 281,264.5C 281.654,265.696 282.154,265.696 282.5,264.5C 278.98,260.814 275.647,256.981 272.5,253C 273.276,251.23 273.11,249.397 272,247.5C 270.667,246.167 269.333,246.167 268,247.5C 266.221,245.983 266.721,245.149 269.5,245C 267.457,243.979 265.124,242.812 262.5,241.5C 262.557,240.391 262.89,239.391 263.5,238.5C 264.423,237.697 265.423,237.53 266.5,238C 269.158,242.175 272.158,246.008 275.5,249.5 Z"/></g>
<g><path style="opacity:1" fill="#777777" d="M 258.5,250.5 C 258.5,251.5 258.5,252.5 258.5,253.5C 257.833,253.167 257.167,252.833 256.5,252.5C 255.778,252.082 255.278,251.416 255,250.5C 254.667,250.833 254.333,251.167 254,251.5C 253.667,250.5 253.333,249.5 253,248.5C 251.293,250.037 249.793,251.704 248.5,253.5C 247.167,253.5 246.5,252.833 246.5,251.5C 248.893,249.264 250.727,246.597 252,243.5C 255.074,245.071 257.24,247.404 258.5,250.5 Z"/></g>
<g><path style="opacity:1" fill="#eff0ee" d="M 256.5,252.5 C 255.88,254.977 254.88,254.977 253.5,252.5C 253.167,252.833 252.833,253.167 252.5,253.5C 254.059,255.131 256.059,255.964 258.5,256C 257.24,257.113 256.073,257.28 255,256.5C 254.536,257.094 254.369,257.761 254.5,258.5C 252.091,257.299 250.091,255.633 248.5,253.5C 249.793,251.704 251.293,250.037 253,248.5C 253.333,249.5 253.667,250.5 254,251.5C 254.333,251.167 254.667,250.833 255,250.5C 255.278,251.416 255.778,252.082 256.5,252.5 Z"/></g>
<g><path style="opacity:1" fill="#b1b1b1" d="M 362.5,225.5 C 360.319,228.969 358.653,232.803 357.5,237C 361.264,237.411 364.264,236.078 366.5,233C 367.793,232.51 369.127,232.343 370.5,232.5C 370.5,233.5 370.5,234.5 370.5,235.5C 369.325,235.281 368.325,235.614 367.5,236.5C 366.04,239.029 365.54,241.696 366,244.5C 369.624,243.404 372.957,241.737 376,239.5C 376.765,239.57 377.265,239.903 377.5,240.5C 374.63,243.204 372.463,246.538 371,250.5C 369.226,251.965 367.392,253.298 365.5,254.5C 364.752,252.668 363.752,251.001 362.5,249.5C 365.125,248.559 365.125,247.393 362.5,246C 362.833,245.667 363.167,245.333 363.5,245C 360.977,244.482 358.977,243.148 357.5,241C 357.833,240.667 358.167,240.333 358.5,240C 356.004,238.92 353.67,237.586 351.5,236C 350.663,234.989 350.33,233.822 350.5,232.5C 352.05,231.559 353.716,230.893 355.5,230.5C 357.279,229.33 358.279,227.664 358.5,225.5C 359.833,225.5 361.167,225.5 362.5,225.5 Z"/></g>
<g><path style="opacity:1" fill="#0d0d0d" d="M 371.5,243.5 C 372.152,245.621 371.485,247.621 369.5,249.5C 368.618,248.24 367.618,247.074 366.5,246C 368.315,245.243 369.981,244.41 371.5,243.5 Z"/></g>
<g><path style="opacity:1" fill="#797f1e" d="M 237.5,242.5 C 239.062,242.733 240.395,243.4 241.5,244.5C 241.557,245.609 241.89,246.609 242.5,247.5C 240.184,246.578 238.517,244.911 237.5,242.5 Z"/></g>
<g><path style="opacity:1" fill="#b92033" d="M 314.5,243.5 C 315.167,243.833 315.833,244.167 316.5,244.5C 316.5,244.833 316.5,245.167 316.5,245.5C 316.247,247.827 316.914,249.827 318.5,251.5C 315.667,255.833 312.833,260.167 310,264.5C 309.169,257.144 309.335,249.811 310.5,242.5C 311.736,243.246 313.07,243.579 314.5,243.5 Z"/></g>
<g><path style="opacity:1" fill="#1a1c1c" d="M 246.5,244.5 C 247.376,244.369 248.043,244.702 248.5,245.5C 247.52,246.981 246.353,248.315 245,249.5C 244.153,247.807 243.32,246.14 242.5,244.5C 243.705,243.314 245.039,243.314 246.5,244.5 Z"/></g>
<g><path style="opacity:1" fill="#131112" d="M 364.5,236.5 C 365.229,238.543 364.729,240.543 363,242.5C 361.513,241.845 360.347,240.845 359.5,239.5C 361.36,238.675 363.026,237.675 364.5,236.5 Z"/></g>
<g><path style="opacity:1" fill="#8b8b8b" d="M 350.5,232.5 C 350.33,233.822 350.663,234.989 351.5,236C 353.67,237.586 356.004,238.92 358.5,240C 358.167,240.333 357.833,240.667 357.5,241C 358.977,243.148 360.977,244.482 363.5,245C 363.167,245.333 362.833,245.667 362.5,246C 365.125,247.393 365.125,248.559 362.5,249.5C 362.167,249.5 361.833,249.5 361.5,249.5C 360.778,249.918 360.278,250.584 360,251.5C 359.5,250.333 358.667,249.5 357.5,249C 358.357,248.311 359.023,247.478 359.5,246.5C 356.9,245.154 354.567,245.488 352.5,247.5C 350.297,247.604 348.297,248.27 346.5,249.5C 345.64,254.643 347.973,256.976 353.5,256.5C 353.66,258.199 353.494,259.866 353,261.5C 352.667,260.5 352.333,259.5 352,258.5C 347.804,261.837 343.971,265.503 340.5,269.5C 339.791,270.404 338.791,270.737 337.5,270.5C 337.953,269.542 338.619,268.708 339.5,268C 338.833,267.667 338.167,267.333 337.5,267C 339.683,264.65 342.016,262.483 344.5,260.5C 343.995,259.081 342.995,258.415 341.5,258.5C 341.225,256.158 340.392,256.158 339,258.5C 338.833,258.167 338.667,257.833 338.5,257.5C 339.833,255.833 341.167,254.167 342.5,252.5C 341.891,249.163 340.724,248.83 339,251.5C 334.694,257.972 330.194,264.306 325.5,270.5C 325.667,270.833 325.833,271.167 326,271.5C 327,270.5 328,269.5 329,268.5C 329.333,269.167 329.667,269.833 330,270.5C 331.039,269.29 332.206,268.29 333.5,267.5C 334.811,268.92 335.477,270.253 335.5,271.5C 332.731,271.99 329.731,272.99 326.5,274.5C 325.033,274.277 323.533,273.944 322,273.5C 320.608,275.842 319.775,275.842 319.5,273.5C 323.5,268.167 327.5,262.833 331.5,257.5C 333.326,255.853 334.66,253.853 335.5,251.5C 337.255,250.038 338.588,248.205 339.5,246C 339.167,245.667 338.833,245.333 338.5,245C 342.676,240.991 346.676,236.824 350.5,232.5 Z"/></g>
<g><path style="opacity:1" fill="#d4d5d5" d="M 346.5,249.5 C 343.756,248.928 342.923,247.262 344,244.5C 345.61,242.269 347.443,240.269 349.5,238.5C 351.002,239.083 352.335,239.916 353.5,241C 350.553,243.436 348.22,246.269 346.5,249.5 Z"/></g>
<g><path style="opacity:1" fill="#e1e5e2" d="M 310.5,236.5 C 311.978,236.238 313.311,236.571 314.5,237.5C 313.754,238.736 313.421,240.07 313.5,241.5C 311.592,240.514 310.592,238.848 310.5,236.5 Z"/></g>
<g><path style="opacity:1" fill="#766e2c" d="M 299.5,236.5 C 300.5,236.5 301.5,236.5 302.5,236.5C 303.167,238.167 303.833,239.833 304.5,241.5C 303.728,242.694 302.728,243.694 301.5,244.5C 300.587,242.914 300.587,241.414 301.5,240C 300.027,239.29 299.36,238.124 299.5,236.5 Z"/></g>
<g><path style="opacity:1" fill="#101313" d="M 254.5,237.5 C 254.167,239.833 252.833,241.167 250.5,241.5C 250.123,239.742 249.456,238.075 248.5,236.5C 248.833,236.167 249.167,235.833 249.5,235.5C 251.075,236.456 252.742,237.123 254.5,237.5 Z"/></g>
<g><path style="opacity:1" fill="#cfcbc8" d="M 237.5,238.5 C 240.292,239.392 241.625,241.392 241.5,244.5C 240.395,243.4 239.062,242.733 237.5,242.5C 236.694,241.272 235.694,240.272 234.5,239.5C 235.609,239.443 236.609,239.11 237.5,238.5 Z"/></g>
<g><path style="opacity:1" fill="#bdbbba" d="M 256.5,229.5 C 256.779,235.542 258.779,236.542 262.5,232.5C 262.435,232.062 262.601,231.728 263,231.5C 263.833,232.333 264.667,233.167 265.5,234C 262.034,235.106 261.368,236.606 263.5,238.5C 262.89,239.391 262.557,240.391 262.5,241.5C 261.735,240.34 260.735,239.34 259.5,238.5C 258.5,238.833 257.833,239.5 257.5,240.5C 259.703,242.295 260.869,244.629 261,247.5C 261.333,247.167 261.667,246.833 262,246.5C 264.026,246.915 265.526,247.915 266.5,249.5C 263.679,248.2 261.012,248.533 258.5,250.5C 257.24,247.404 255.074,245.071 252,243.5C 250.727,246.597 248.893,249.264 246.5,251.5C 244.5,250.833 243.167,249.5 242.5,247.5C 241.89,246.609 241.557,245.609 241.5,244.5C 241.833,244.5 242.167,244.5 242.5,244.5C 243.32,246.14 244.153,247.807 245,249.5C 246.353,248.315 247.52,246.981 248.5,245.5C 248.043,244.702 247.376,244.369 246.5,244.5C 248.219,243.978 249.552,242.978 250.5,241.5C 252.833,241.167 254.167,239.833 254.5,237.5C 255.675,237.719 256.675,237.386 257.5,236.5C 257.376,235.893 257.043,235.56 256.5,235.5C 256.443,234.391 256.11,233.391 255.5,232.5C 255.263,231.209 255.596,230.209 256.5,229.5 Z"/></g>
<g><path style="opacity:1" fill="#efeff0" d="M 302.5,236.5 C 304.199,236.34 305.866,236.506 307.5,237C 306.748,237.671 306.414,238.504 306.5,239.5C 305.833,240.167 305.167,240.833 304.5,241.5C 303.833,239.833 303.167,238.167 302.5,236.5 Z"/></g>
<g><path style="opacity:1" fill="#4f4948" d="M 315.5,235.5 C 315.539,236.583 315.873,237.583 316.5,238.5C 314.342,240.026 314.675,241.526 317.5,243C 316.944,243.383 316.611,243.883 316.5,244.5C 315.833,244.167 315.167,243.833 314.5,243.5C 314.672,242.508 314.338,241.842 313.5,241.5C 313.421,240.07 313.754,238.736 314.5,237.5C 313.311,236.571 311.978,236.238 310.5,236.5C 309.5,236.833 308.833,237.5 308.5,238.5C 307.833,238.833 307.167,239.167 306.5,239.5C 306.414,238.504 306.748,237.671 307.5,237C 305.866,236.506 304.199,236.34 302.5,236.5C 301.5,236.5 300.5,236.5 299.5,236.5C 298.761,236.631 298.094,236.464 297.5,236C 298.337,234.989 298.67,233.822 298.5,232.5C 298.369,231.761 298.536,231.094 299,230.5C 299.284,232.886 300.284,233.552 302,232.5C 302.456,233.744 301.956,234.577 300.5,235C 305.489,235.499 310.489,235.666 315.5,235.5 Z"/></g>
<g><path style="opacity:1" fill="#827f76" d="M 265.5,225.5 C 266.172,224.733 267.005,224.066 268,223.5C 268.188,226.591 267.021,229.091 264.5,231C 266.393,233.303 268.393,235.47 270.5,237.5C 269.256,239.133 269.756,240.133 272,240.5C 273.465,239.67 274.965,239.504 276.5,240C 275.106,240.956 274.439,242.289 274.5,244C 274.943,245.825 275.277,247.658 275.5,249.5C 272.158,246.008 269.158,242.175 266.5,238C 265.423,237.53 264.423,237.697 263.5,238.5C 261.368,236.606 262.034,235.106 265.5,234C 264.667,233.167 263.833,232.333 263,231.5C 262.601,231.728 262.435,232.062 262.5,232.5C 260.483,231.471 258.483,230.471 256.5,229.5C 255.596,230.209 255.263,231.209 255.5,232.5C 254.792,230.622 253.626,228.955 252,227.5C 251.167,224.333 252.333,223.167 255.5,224C 257.452,226.737 259.952,228.904 263,230.5C 264,229.5 265,228.5 266,227.5C 266.692,226.563 266.525,225.897 265.5,225.5 Z"/></g>
<g><path style="opacity:1" fill="#9f967b" d="M 256.5,235.5 C 257.043,235.56 257.376,235.893 257.5,236.5C 256.675,237.386 255.675,237.719 254.5,237.5C 252.742,237.123 251.075,236.456 249.5,235.5C 249.167,235.833 248.833,236.167 248.5,236.5C 249.456,238.075 250.123,239.742 250.5,241.5C 249.552,242.978 248.219,243.978 246.5,244.5C 245.039,243.314 243.705,243.314 242.5,244.5C 242.167,244.5 241.833,244.5 241.5,244.5C 241.625,241.392 240.292,239.392 237.5,238.5C 239.707,237.13 241.374,237.797 242.5,240.5C 248.098,243.857 249.598,242.524 247,236.5C 244.952,235.902 243.785,234.569 243.5,232.5C 243.434,230.734 244.268,229.734 246,229.5C 247.867,230.377 249.034,231.877 249.5,234C 251.274,234.97 253.107,235.804 255,236.5C 255.765,236.43 256.265,236.097 256.5,235.5 Z"/></g>
<g><path style="opacity:1" fill="#0f0f10" d="M 355.5,230.5 C 356.767,229.913 357.767,229.913 358.5,230.5C 357.82,236.667 355.82,237.501 352.5,233C 353.942,232.623 354.942,231.79 355.5,230.5 Z"/></g>
<g><path style="opacity:1" fill="#111314" d="M 256.5,229.5 C 258.483,230.471 260.483,231.471 262.5,232.5C 258.779,236.542 256.779,235.542 256.5,229.5 Z"/></g>
<g><path style="opacity:1" fill="#872932" d="M 357.5,219.5 C 356.589,221.951 355.756,224.285 355,226.5C 357.129,227.863 357.629,227.529 356.5,225.5C 357,224.5 357.5,223.5 358,222.5C 360.026,222.915 361.526,223.915 362.5,225.5C 361.167,225.5 359.833,225.5 358.5,225.5C 358.279,227.664 357.279,229.33 355.5,230.5C 353.716,230.893 352.05,231.559 350.5,232.5C 351.267,227.279 353.6,222.946 357.5,219.5 Z"/></g>
<g><path style="opacity:1" fill="#eaeaea" d="M 384.5,178.5 C 383.833,178.833 383.167,179.167 382.5,179.5C 380.66,181.168 378.66,182.668 376.5,184C 378.163,184.265 379.663,183.765 381,182.5C 381.464,183.094 381.631,183.761 381.5,184.5C 376.487,190.668 371.821,197.168 367.5,204C 364.326,205.725 360.993,207.058 357.5,208C 360.235,207.802 362.901,207.969 365.5,208.5C 362.809,212.185 360.142,215.852 357.5,219.5C 353.6,222.946 351.267,227.279 350.5,232.5C 346.676,236.824 342.676,240.991 338.5,245C 338.833,245.333 339.167,245.667 339.5,246C 338.588,248.205 337.255,250.038 335.5,251.5C 332.703,253.977 329.369,254.977 325.5,254.5C 324.962,252.883 324.629,251.216 324.5,249.5C 320.634,250.225 317.967,248.892 316.5,245.5C 316.5,245.167 316.5,244.833 316.5,244.5C 316.611,243.883 316.944,243.383 317.5,243C 314.675,241.526 314.342,240.026 316.5,238.5C 315.873,237.583 315.539,236.583 315.5,235.5C 318.259,235.067 319.592,233.4 319.5,230.5C 321.973,230.912 323.306,229.912 323.5,227.5C 325.149,226.351 326.649,225.018 328,223.5C 328.772,223.645 329.439,223.978 330,224.5C 330.497,221.854 330.664,219.187 330.5,216.5C 331.167,216.5 331.5,216.167 331.5,215.5C 332.315,216.429 333.148,217.429 334,218.5C 334.18,216.512 334.014,214.512 333.5,212.5C 334.712,213.23 335.712,214.23 336.5,215.5C 337.517,212.972 338.684,212.972 340,215.5C 340.492,214.451 340.326,213.451 339.5,212.5C 340.183,209.539 341.016,209.205 342,211.5C 342.148,209.095 341.648,206.761 340.5,204.5C 340.833,203.833 341.167,203.167 341.5,202.5C 342.149,204.624 342.983,206.624 344,208.5C 344.588,205.861 344.088,203.527 342.5,201.5C 343.308,198.55 344.642,195.883 346.5,193.5C 347.674,192.486 348.34,191.153 348.5,189.5C 349.649,189.791 350.316,190.624 350.5,192C 351,194.5 351.5,197 352,199.5C 352.333,194.833 352.667,190.167 353,185.5C 353.333,185.833 353.667,186.167 354,186.5C 355.128,184.655 355.628,182.655 355.5,180.5C 357.345,184.509 358.678,184.343 359.5,180C 358.852,178.56 358.519,177.06 358.5,175.5C 359.931,175.881 360.764,176.881 361,178.5C 361.574,175.679 362.908,173.346 365,171.5C 365.333,171.833 365.667,172.167 366,172.5C 366.47,171.423 366.303,170.423 365.5,169.5C 367.686,168.177 369.186,166.177 370,163.5C 371.271,162.117 372.771,161.117 374.5,160.5C 373.116,163.157 371.45,165.657 369.5,168C 370.544,169.174 371.544,170.341 372.5,171.5C 361.306,189.54 349.473,207.206 337,224.5C 336.751,223.376 336.251,222.376 335.5,221.5C 335.167,221.833 334.833,222.167 334.5,222.5C 335.485,224.098 335.651,225.765 335,227.5C 332.027,231.974 328.86,236.307 325.5,240.5C 324.914,240.291 324.414,239.957 324,239.5C 324.582,241.988 324.248,244.321 323,246.5C 324.133,248.211 325.633,248.711 327.5,248C 329.628,243.626 332.128,239.46 335,235.5C 336.734,234.751 338.567,234.251 340.5,234C 337.015,233.507 336.515,232.007 339,229.5C 342.286,224.043 345.786,218.71 349.5,213.5C 350.729,212.719 352.062,212.219 353.5,212C 352.692,211.692 352.025,211.192 351.5,210.5C 353.802,206.367 356.302,202.367 359,198.5C 360.399,197.773 361.899,197.273 363.5,197C 362.044,196.577 361.544,195.744 362,194.5C 363.734,193.751 365.567,193.251 367.5,193C 366.062,192.781 364.729,192.281 363.5,191.5C 365.059,189.869 367.059,189.036 369.5,189C 368.376,188.751 367.376,188.251 366.5,187.5C 367.912,186.194 369.579,185.36 371.5,185C 370.5,184.667 369.5,184.333 368.5,184C 369.938,183.781 371.271,183.281 372.5,182.5C 371.975,181.808 371.308,181.308 370.5,181C 372.058,178.948 373.392,176.781 374.5,174.5C 377.652,174.953 380.152,173.953 382,171.5C 384.736,166.124 386.57,160.458 387.5,154.5C 388.373,161.832 386.373,168.332 381.5,174C 382.938,174.219 384.271,174.719 385.5,175.5C 384.873,176.417 384.539,177.417 384.5,178.5 Z"/></g>
<g><path style="opacity:1" fill="#672b36" d="M 372.5,171.5 C 373.906,171.973 374.573,172.973 374.5,174.5C 373.392,176.781 372.058,178.948 370.5,181C 371.308,181.308 371.975,181.808 372.5,182.5C 371.271,183.281 369.938,183.781 368.5,184C 369.5,184.333 370.5,184.667 371.5,185C 369.579,185.36 367.912,186.194 366.5,187.5C 367.376,188.251 368.376,188.751 369.5,189C 367.059,189.036 365.059,189.869 363.5,191.5C 364.729,192.281 366.062,192.781 367.5,193C 365.567,193.251 363.734,193.751 362,194.5C 361.544,195.744 362.044,196.577 363.5,197C 361.899,197.273 360.399,197.773 359,198.5C 356.302,202.367 353.802,206.367 351.5,210.5C 352.025,211.192 352.692,211.692 353.5,212C 352.062,212.219 350.729,212.719 349.5,213.5C 345.786,218.71 342.286,224.043 339,229.5C 336.515,232.007 337.015,233.507 340.5,234C 338.567,234.251 336.734,234.751 335,235.5C 332.128,239.46 329.628,243.626 327.5,248C 325.633,248.711 324.133,248.211 323,246.5C 324.248,244.321 324.582,241.988 324,239.5C 324.414,239.957 324.914,240.291 325.5,240.5C 328.86,236.307 332.027,231.974 335,227.5C 335.651,225.765 335.485,224.098 334.5,222.5C 334.833,222.167 335.167,221.833 335.5,221.5C 336.251,222.376 336.751,223.376 337,224.5C 349.473,207.206 361.306,189.54 372.5,171.5 Z"/></g>
<g><path style="opacity:1" fill="#6d673f" d="M 264.5,221.5 C 263.645,222.531 262.978,223.697 262.5,225C 262.836,226.03 263.503,226.53 264.5,226.5C 261.335,227.712 259.668,226.379 259.5,222.5C 261.216,222.371 262.883,222.038 264.5,221.5 Z"/></g>
<g><path style="opacity:1" fill="#c3c1c1" d="M 316.5,215.5 C 316.913,217.89 317.579,220.223 318.5,222.5C 319.183,222.137 319.85,221.804 320.5,221.5C 321.335,222.943 322.668,223.943 324.5,224.5C 324.043,225.298 323.376,225.631 322.5,225.5C 321.178,225.67 320.011,225.337 319,224.5C 318.818,227.226 318.318,229.893 317.5,232.5C 316.583,233.127 315.583,233.461 314.5,233.5C 314.721,232.265 315.388,231.265 316.5,230.5C 315.388,229.735 314.721,228.735 314.5,227.5C 315.5,227.5 316.5,227.5 317.5,227.5C 317.5,226.5 317.5,225.5 317.5,224.5C 313.014,224.17 308.681,224.17 304.5,224.5C 303.5,224.167 302.5,223.833 301.5,223.5C 301.624,222.893 301.957,222.56 302.5,222.5C 304.199,222.66 305.866,222.494 307.5,222C 306.139,220.416 305.472,218.582 305.5,216.5C 305.833,216.5 306.167,216.5 306.5,216.5C 308.228,224.433 309.895,224.433 311.5,216.5C 312.167,216.167 312.833,215.833 313.5,215.5C 313.5,213.833 313.5,212.167 313.5,210.5C 314.675,210.281 315.675,210.614 316.5,211.5C 315.295,212.995 315.295,214.328 316.5,215.5 Z"/></g>
<g><path style="opacity:1" fill="#0a0b0c" d="M 295.5,223.5 C 294.167,223.167 292.833,222.833 291.5,222.5C 291.5,222.167 291.5,221.833 291.5,221.5C 293.117,220.411 293.95,218.744 294,216.5C 295.292,218.249 296.458,220.082 297.5,222C 296.584,222.278 295.918,222.778 295.5,223.5 Z"/></g>
<g><path style="opacity:1" fill="#6c4c29" d="M 291.5,213.5 C 292.497,216.005 292.497,218.672 291.5,221.5C 291.5,221.833 291.5,222.167 291.5,222.5C 290.947,225.632 289.947,225.966 288.5,223.5C 289.156,221.547 289.489,219.547 289.5,217.5C 291.176,216.817 291.843,215.483 291.5,213.5 Z"/></g>
<g><path style="opacity:1" fill="#ebeceb" d="M 241.5,150.5 C 243.719,152.575 245.719,154.909 247.5,157.5C 249.396,158.466 251.396,158.799 253.5,158.5C 253.755,160.967 254.755,162.967 256.5,164.5C 256.427,166.027 257.094,167.027 258.5,167.5C 257.025,170.949 255.692,174.449 254.5,178C 256.46,176.339 258.294,174.173 260,171.5C 260.708,172.381 261.542,173.047 262.5,173.5C 265.026,179.028 268.359,184.028 272.5,188.5C 272.5,189.167 272.5,189.833 272.5,190.5C 271.163,191.315 270.163,192.482 269.5,194C 271.9,194.186 274.234,194.686 276.5,195.5C 277.361,197.911 278.694,199.911 280.5,201.5C 281.786,204.117 283.453,206.45 285.5,208.5C 285.692,212.102 287.026,215.102 289.5,217.5C 289.489,219.547 289.156,221.547 288.5,223.5C 289.947,225.966 290.947,225.632 291.5,222.5C 292.833,222.833 294.167,223.167 295.5,223.5C 296.552,223.351 297.552,223.517 298.5,224C 295.208,226.543 294.708,229.71 297,233.5C 297.383,232.944 297.883,232.611 298.5,232.5C 298.67,233.822 298.337,234.989 297.5,236C 298.094,236.464 298.761,236.631 299.5,236.5C 299.36,238.124 300.027,239.29 301.5,240C 300.587,241.414 300.587,242.914 301.5,244.5C 302.091,247.675 301.091,250.009 298.5,251.5C 295.857,252.454 293.19,253.454 290.5,254.5C 289.833,254.5 289.167,254.5 288.5,254.5C 287.348,253.375 286.348,253.375 285.5,254.5C 284.833,254.5 284.5,254.167 284.5,253.5C 281.498,252.155 278.498,250.822 275.5,249.5C 275.277,247.658 274.943,245.825 274.5,244C 274.439,242.289 275.106,240.956 276.5,240C 274.965,239.504 273.465,239.67 272,240.5C 269.756,240.133 269.256,239.133 270.5,237.5C 268.393,235.47 266.393,233.303 264.5,231C 267.021,229.091 268.188,226.591 268,223.5C 267.005,224.066 266.172,224.733 265.5,225.5C 264.833,225.5 264.5,225.833 264.5,226.5C 263.503,226.53 262.836,226.03 262.5,225C 262.978,223.697 263.645,222.531 264.5,221.5C 262.883,222.038 261.216,222.371 259.5,222.5C 258.375,221.652 258.375,220.652 259.5,219.5C 262.486,217.515 265.82,216.348 269.5,216C 265.632,215.028 262.299,215.861 259.5,218.5C 258.348,219.625 257.348,219.625 256.5,218.5C 256.8,215.482 258.467,213.482 261.5,212.5C 262.521,211.998 262.688,211.332 262,210.5C 259.213,211.805 256.713,213.472 254.5,215.5C 253.833,215.5 253.5,215.167 253.5,214.5C 253.351,213.448 253.517,212.448 254,211.5C 256.124,210.378 257.957,208.878 259.5,207C 258.5,206.333 257.5,206.333 256.5,207C 255.211,208.802 253.544,209.969 251.5,210.5C 251.5,210.167 251.5,209.833 251.5,209.5C 252.091,206.386 253.758,203.886 256.5,202C 255.833,201.333 255.167,201.333 254.5,202C 253.033,204.728 251.033,205.561 248.5,204.5C 248.943,201.376 250.61,199.043 253.5,197.5C 253.333,197.167 253.167,196.833 253,196.5C 249.927,199.614 246.76,199.947 243.5,197.5C 244.716,195.549 246.382,194.049 248.5,193C 246.744,192.86 245.078,193.36 243.5,194.5C 242.537,194.03 242.537,193.363 243.5,192.5C 245.887,188.305 244.887,187.638 240.5,190.5C 239.113,188.79 237.779,187.123 236.5,185.5C 236.52,181.171 234.853,177.838 231.5,175.5C 231.5,175.167 231.5,174.833 231.5,174.5C 232.627,173.878 233.627,173.045 234.5,172C 232.256,171.95 230.589,171.117 229.5,169.5C 230.708,168.766 232.041,168.433 233.5,168.5C 237.167,168.5 240.833,168.5 244.5,168.5C 242.695,170.197 240.361,171.03 237.5,171C 240.426,171.218 243.26,171.718 246,172.5C 246.167,172.833 246.333,173.167 246.5,173.5C 244.892,174.318 243.225,174.985 241.5,175.5C 240.479,176.002 240.312,176.668 241,177.5C 243.401,176.398 245.901,176.231 248.5,177C 245.957,177.14 243.623,177.806 241.5,179C 244.484,178.371 247.484,178.537 250.5,179.5C 247.36,180.091 244.36,180.924 241.5,182C 245.18,181.253 248.847,181.42 252.5,182.5C 257.208,191.575 262.208,200.575 267.5,209.5C 266.624,210.251 265.624,210.751 264.5,211C 266.676,211.163 268.509,211.996 270,213.5C 274.428,221.376 278.928,229.043 283.5,236.5C 283.5,237.5 283.5,238.5 283.5,239.5C 281.304,239.565 279.304,240.232 277.5,241.5C 280.534,241.139 283.534,241.639 286.5,243C 284.579,243.36 282.912,244.194 281.5,245.5C 281.833,245.833 282.167,246.167 282.5,246.5C 283.869,244.876 285.536,244.376 287.5,245C 285.203,246.263 284.37,248.097 285,250.5C 287.705,245.348 291.538,243.848 296.5,246C 295.672,245.085 294.672,244.419 293.5,244C 294.5,243.667 295.5,243.333 296.5,243C 295.167,242.333 293.833,241.667 292.5,241C 293.5,240 294.5,239 295.5,238C 293.613,237.837 292.113,238.671 291,240.5C 290.884,238.345 291.217,236.345 292,234.5C 291,235.5 290,236.5 289,237.5C 289.052,235.089 289.385,232.756 290,230.5C 288.905,231.693 288.072,233.027 287.5,234.5C 283.653,229.651 280.653,224.317 278.5,218.5C 277.624,218.631 276.957,218.298 276.5,217.5C 269.677,205.122 262.344,193.122 254.5,181.5C 253.844,179.516 253.178,177.516 252.5,175.5C 253.882,170.898 253.382,170.565 251,174.5C 248.87,171.335 249.037,168.335 251.5,165.5C 249.868,165.238 248.701,166.238 248,168.5C 247.376,166.536 247.876,164.869 249.5,163.5C 248.645,162.707 247.811,163.04 247,164.5C 246.383,163.551 246.549,162.718 247.5,162C 246.906,161.536 246.239,161.369 245.5,161.5C 245.539,160.417 245.873,159.417 246.5,158.5C 245.609,157.41 244.609,157.41 243.5,158.5C 242.619,155.87 241.952,153.203 241.5,150.5 Z"/></g>
<g><path style="opacity:1" fill="#6c5155" d="M 283.5,236.5 C 284.721,237.028 285.887,237.695 287,238.5C 287.49,237.207 287.657,235.873 287.5,234.5C 288.072,233.027 288.905,231.693 290,230.5C 289.385,232.756 289.052,235.089 289,237.5C 290,236.5 291,235.5 292,234.5C 291.217,236.345 290.884,238.345 291,240.5C 292.113,238.671 293.613,237.837 295.5,238C 294.5,239 293.5,240 292.5,241C 293.833,241.667 295.167,242.333 296.5,243C 295.5,243.333 294.5,243.667 293.5,244C 294.672,244.419 295.672,245.085 296.5,246C 291.538,243.848 287.705,245.348 285,250.5C 284.37,248.097 285.203,246.263 287.5,245C 285.536,244.376 283.869,244.876 282.5,246.5C 282.167,246.167 281.833,245.833 281.5,245.5C 282.912,244.194 284.579,243.36 286.5,243C 283.534,241.639 280.534,241.139 277.5,241.5C 279.304,240.232 281.304,239.565 283.5,239.5C 283.5,238.5 283.5,237.5 283.5,236.5 Z"/></g>
<g><path style="opacity:1" fill="#4e4e4c" d="M 264.5,221.5 C 266.328,219.39 268.661,218.556 271.5,219C 269.257,220.136 266.924,220.97 264.5,221.5 Z"/></g>
<g><path style="opacity:1" fill="#493a31" d="M 333.5,212.5 C 334.014,214.512 334.18,216.512 334,218.5C 333.148,217.429 332.315,216.429 331.5,215.5C 331.932,214.29 332.599,213.29 333.5,212.5 Z"/></g>
<g><path style="opacity:1" fill="#292726" d="M 330.5,216.5 C 330.664,219.187 330.497,221.854 330,224.5C 329.439,223.978 328.772,223.645 328,223.5C 326.649,225.018 325.149,226.351 323.5,227.5C 322.662,227.158 322.328,226.492 322.5,225.5C 323.376,225.631 324.043,225.298 324.5,224.5C 322.668,223.943 321.335,222.943 320.5,221.5C 321.885,220.426 323.051,219.093 324,217.5C 324.374,219.491 325.207,221.158 326.5,222.5C 327.496,222.586 328.329,222.252 329,221.5C 329.198,219.618 329.698,217.952 330.5,216.5 Z"/></g>
<g><path style="opacity:1" fill="#4f4a3e" d="M 259.5,219.5 C 259.5,219.167 259.5,218.833 259.5,218.5C 262.299,215.861 265.632,215.028 269.5,216C 265.82,216.348 262.486,217.515 259.5,219.5 Z"/></g>
<g><path style="opacity:1" fill="#5e5c2c" d="M 256.5,218.5 C 255.599,217.71 254.932,216.71 254.5,215.5C 256.713,213.472 259.213,211.805 262,210.5C 262.688,211.332 262.521,211.998 261.5,212.5C 258.467,213.482 256.8,215.482 256.5,218.5 Z"/></g>
<g><path style="opacity:1" fill="#989694" d="M 306.5,216.5 C 306.167,216.5 305.833,216.5 305.5,216.5C 304.883,216.389 304.383,216.056 304,215.5C 303.338,217.813 302.838,220.146 302.5,222.5C 301.957,222.56 301.624,222.893 301.5,223.5C 302.5,223.833 303.5,224.167 304.5,224.5C 308.681,224.17 313.014,224.17 317.5,224.5C 317.5,225.5 317.5,226.5 317.5,227.5C 316.5,227.5 315.5,227.5 314.5,227.5C 310.5,229.5 310.5,231.5 314.5,233.5C 315.583,233.461 316.583,233.127 317.5,232.5C 318.318,229.893 318.818,227.226 319,224.5C 320.011,225.337 321.178,225.67 322.5,225.5C 322.328,226.492 322.662,227.158 323.5,227.5C 323.306,229.912 321.973,230.912 319.5,230.5C 319.592,233.4 318.259,235.067 315.5,235.5C 310.489,235.666 305.489,235.499 300.5,235C 301.956,234.577 302.456,233.744 302,232.5C 300.284,233.552 299.284,232.886 299,230.5C 298.536,231.094 298.369,231.761 298.5,232.5C 297.883,232.611 297.383,232.944 297,233.5C 294.708,229.71 295.208,226.543 298.5,224C 297.552,223.517 296.552,223.351 295.5,223.5C 295.918,222.778 296.584,222.278 297.5,222C 296.458,220.082 295.292,218.249 294,216.5C 293.95,218.744 293.117,220.411 291.5,221.5C 292.497,218.672 292.497,216.005 291.5,213.5C 291.684,210.827 292.851,210.16 295,211.5C 295.492,212.549 295.326,213.549 294.5,214.5C 296.425,217.117 298.258,219.784 300,222.5C 301.899,218.379 302.732,214.046 302.5,209.5C 303.833,209.5 305.167,209.5 306.5,209.5C 306.5,211.833 306.5,214.167 306.5,216.5 Z"/></g>
<g><path style="opacity:1" fill="#f1ad40" d="M 314.5,227.5 C 314.721,228.735 315.388,229.735 316.5,230.5C 315.388,231.265 314.721,232.265 314.5,233.5C 310.5,231.5 310.5,229.5 314.5,227.5 Z"/></g>
<g><path style="opacity:1" fill="#f4af3e" d="M 304.5,227.5 C 308.473,229.46 308.473,231.46 304.5,233.5C 301.86,231.465 301.86,229.465 304.5,227.5 Z"/></g>
<g><path style="opacity:1" fill="#707070" d="M 278.5,218.5 C 278.929,214.976 280.429,211.976 283,209.5C 282.07,212.694 280.57,215.694 278.5,218.5 Z"/></g>
<g><path style="opacity:1" fill="#685240" d="M 340.5,201.5 C 341.167,201.5 341.833,201.5 342.5,201.5C 344.088,203.527 344.588,205.861 344,208.5C 342.983,206.624 342.149,204.624 341.5,202.5C 341.167,203.167 340.833,203.833 340.5,204.5C 341.648,206.761 342.148,209.095 342,211.5C 341.016,209.205 340.183,209.539 339.5,212.5C 340.326,213.451 340.492,214.451 340,215.5C 338.684,212.972 337.517,212.972 336.5,215.5C 335.712,214.23 334.712,213.23 333.5,212.5C 336.167,210.5 336.167,208.5 333.5,206.5C 335.415,206.784 337.081,206.451 338.5,205.5C 339.167,204.167 339.833,202.833 340.5,201.5 Z"/></g>
<g><path style="opacity:1" fill="#676321" d="M 253.5,214.5 C 252.655,213.329 251.989,211.995 251.5,210.5C 253.544,209.969 255.211,208.802 256.5,207C 257.5,206.333 258.5,206.333 259.5,207C 257.957,208.878 256.124,210.378 254,211.5C 253.517,212.448 253.351,213.448 253.5,214.5 Z"/></g>
<g><path style="opacity:1" fill="#be6c0e" d="M 333.5,206.5 C 336.167,208.5 336.167,210.5 333.5,212.5C 332.599,213.29 331.932,214.29 331.5,215.5C 331.5,216.167 331.167,216.5 330.5,216.5C 329.698,217.952 329.198,219.618 329,221.5C 328.329,222.252 327.496,222.586 326.5,222.5C 325.582,218.788 325.582,215.122 326.5,211.5C 325.5,211.5 324.5,211.5 323.5,211.5C 323.5,215.154 322.5,218.487 320.5,221.5C 319.85,221.804 319.183,222.137 318.5,222.5C 317.579,220.223 316.913,217.89 316.5,215.5C 317.15,213.565 317.483,211.565 317.5,209.5C 315.533,209.261 313.699,209.594 312,210.5C 312.347,212.61 312.18,214.61 311.5,216.5C 309.895,224.433 308.228,224.433 306.5,216.5C 306.5,214.167 306.5,211.833 306.5,209.5C 305.167,209.5 303.833,209.5 302.5,209.5C 302.732,214.046 301.899,218.379 300,222.5C 298.258,219.784 296.425,217.117 294.5,214.5C 295.326,213.549 295.492,212.549 295,211.5C 292.851,210.16 291.684,210.827 291.5,213.5C 291.843,215.483 291.176,216.817 289.5,217.5C 287.026,215.102 285.692,212.102 285.5,208.5C 286.78,207.069 288.447,206.402 290.5,206.5C 304.855,205.792 319.188,205.792 333.5,206.5 Z"/></g>
<g><path style="opacity:1" fill="#0b090b" d="M 313.5,215.5 C 314.864,217.22 315.864,219.22 316.5,221.5C 314.833,222.833 313.167,222.833 311.5,221.5C 312.747,219.677 313.414,217.677 313.5,215.5 Z"/></g>
<g><path style="opacity:1" fill="#151619" d="M 305.5,216.5 C 305.472,218.582 306.139,220.416 307.5,222C 305.866,222.494 304.199,222.66 302.5,222.5C 302.838,220.146 303.338,217.813 304,215.5C 304.383,216.056 304.883,216.389 305.5,216.5 Z"/></g>
<g><path style="opacity:1" fill="#c3c5ca" d="M 326.5,222.5 C 325.207,221.158 324.374,219.491 324,217.5C 323.051,219.093 321.885,220.426 320.5,221.5C 322.5,218.487 323.5,215.154 323.5,211.5C 324.5,211.5 325.5,211.5 326.5,211.5C 325.582,215.122 325.582,218.788 326.5,222.5 Z"/></g>
<g><path style="opacity:1" fill="#6f5132" d="M 316.5,215.5 C 315.295,214.328 315.295,212.995 316.5,211.5C 315.675,210.614 314.675,210.281 313.5,210.5C 313.5,212.167 313.5,213.833 313.5,215.5C 312.833,215.833 312.167,216.167 311.5,216.5C 312.18,214.61 312.347,212.61 312,210.5C 313.699,209.594 315.533,209.261 317.5,209.5C 317.483,211.565 317.15,213.565 316.5,215.5 Z"/></g>
<g><path style="opacity:1" fill="#662432" d="M 254.5,181.5 C 262.344,193.122 269.677,205.122 276.5,217.5C 276.957,218.298 277.624,218.631 278.5,218.5C 280.653,224.317 283.653,229.651 287.5,234.5C 287.657,235.873 287.49,237.207 287,238.5C 285.887,237.695 284.721,237.028 283.5,236.5C 278.928,229.043 274.428,221.376 270,213.5C 268.509,211.996 266.676,211.163 264.5,211C 265.624,210.751 266.624,210.251 267.5,209.5C 262.208,200.575 257.208,191.575 252.5,182.5C 252.409,180.302 253.075,179.969 254.5,181.5 Z"/></g>
<g><path style="opacity:1" fill="#721b33" d="M 338.5,205.5 C 337.081,206.451 335.415,206.784 333.5,206.5C 319.188,205.792 304.855,205.792 290.5,206.5C 306.322,204.567 322.322,204.233 338.5,205.5 Z"/></g>
<g><path style="opacity:1" fill="#534c3e" d="M 251.5,209.5 C 250.11,208.101 249.11,206.434 248.5,204.5C 251.033,205.561 253.033,204.728 254.5,202C 255.167,201.333 255.833,201.333 256.5,202C 253.758,203.886 252.091,206.386 251.5,209.5 Z"/></g>
<g><path style="opacity:1" fill="#cb2185" d="M 340.5,201.5 C 339.833,202.833 339.167,204.167 338.5,205.5C 322.322,204.233 306.322,204.567 290.5,206.5C 288.447,206.402 286.78,207.069 285.5,208.5C 283.453,206.45 281.786,204.117 280.5,201.5C 281.589,199.883 283.256,199.05 285.5,199C 296.167,198.333 306.833,198.333 317.5,199C 318.43,199.991 319.596,200.491 321,200.5C 327.711,199.16 334.211,199.493 340.5,201.5 Z"/></g>
<g><path style="opacity:1" fill="#787138" d="M 248.5,204.5 C 246.453,202.45 244.786,200.117 243.5,197.5C 246.76,199.947 249.927,199.614 253,196.5C 253.167,196.833 253.333,197.167 253.5,197.5C 250.61,199.043 248.943,201.376 248.5,204.5 Z"/></g>
<g><path style="opacity:1" fill="#671f35" d="M 317.5,190.5 C 306.842,190.71 296.342,192.043 286,194.5C 284.393,194.769 283.226,195.603 282.5,197C 301.417,195.795 320.25,196.629 339,199.5C 340.971,199.719 342.138,198.885 342.5,197C 341.2,195.42 339.866,193.92 338.5,192.5C 341.096,193.265 343.763,193.599 346.5,193.5C 344.642,195.883 343.308,198.55 342.5,201.5C 341.833,201.5 341.167,201.5 340.5,201.5C 334.211,199.493 327.711,199.16 321,200.5C 319.596,200.491 318.43,199.991 317.5,199C 306.833,198.333 296.167,198.333 285.5,199C 283.256,199.05 281.589,199.883 280.5,201.5C 278.694,199.911 277.361,197.911 276.5,195.5C 274.234,194.686 271.9,194.186 269.5,194C 270.163,192.482 271.163,191.315 272.5,190.5C 271.913,191.767 271.913,192.767 272.5,193.5C 273.735,192.66 274.735,191.66 275.5,190.5C 275.369,191.376 275.702,192.043 276.5,192.5C 280.813,191.229 285.146,191.229 289.5,192.5C 298.807,189.486 308.14,188.82 317.5,190.5 Z"/></g>
<g><path style="opacity:1" fill="#7f263b" d="M 335.5,188.5 C 337.262,189.262 338.262,190.596 338.5,192.5C 339.866,193.92 341.2,195.42 342.5,197C 342.138,198.885 340.971,199.719 339,199.5C 320.25,196.629 301.417,195.795 282.5,197C 283.226,195.603 284.393,194.769 286,194.5C 296.342,192.043 306.842,190.71 317.5,190.5C 323.842,190.935 330.175,191.102 336.5,191C 335.944,190.617 335.611,190.117 335.5,189.5C 335.5,189.167 335.5,188.833 335.5,188.5 Z"/></g>
<g><path style="opacity:1" fill="#595339" d="M 243.5,192.5 C 242.537,193.363 242.537,194.03 243.5,194.5C 245.078,193.36 246.744,192.86 248.5,193C 246.382,194.049 244.716,195.549 243.5,197.5C 241.149,195.583 241.149,193.916 243.5,192.5 Z"/></g>
<g><path style="opacity:1" fill="#5f2d42" d="M 355.5,180.5 C 355.628,182.655 355.128,184.655 354,186.5C 353.667,186.167 353.333,185.833 353,185.5C 352.667,190.167 352.333,194.833 352,199.5C 351.5,197 351,194.5 350.5,192C 350.316,190.624 349.649,189.791 348.5,189.5C 348.821,187.952 349.821,187.285 351.5,187.5C 351.587,184.422 352.92,182.089 355.5,180.5 Z"/></g>
<g><path style="opacity:1" fill="#eb97b6" d="M 335.5,189.5 C 335.611,190.117 335.944,190.617 336.5,191C 330.175,191.102 323.842,190.935 317.5,190.5C 308.14,188.82 298.807,189.486 289.5,192.5C 285.146,191.229 280.813,191.229 276.5,192.5C 275.702,192.043 275.369,191.376 275.5,190.5C 276.5,190.167 277.167,189.5 277.5,188.5C 283.009,188.125 288.342,187.458 293.5,186.5C 307.719,185.094 321.719,186.094 335.5,189.5 Z"/></g>
<g><path style="opacity:1" fill="#60381a" d="M 325.5,174.5 C 326.167,175.833 326.833,177.167 327.5,178.5C 326.015,181.866 327.015,184.2 330.5,185.5C 332.22,186.308 333.887,187.308 335.5,188.5C 335.5,188.833 335.5,189.167 335.5,189.5C 321.719,186.094 307.719,185.094 293.5,186.5C 293.918,185.778 294.584,185.278 295.5,185C 298.833,184.833 302.167,184.667 305.5,184.5C 313.334,186.088 321.334,186.588 329.5,186C 326.761,184.85 324.761,183.683 323.5,182.5C 324.497,182.53 325.164,182.03 325.5,181C 324.944,179.989 324.278,179.156 323.5,178.5C 325.176,177.817 325.843,176.483 325.5,174.5 Z"/></g>
<g><path style="opacity:1" fill="#b82231" d="M 392.5,153.5 C 402.432,183.793 398.599,212.126 381,238.5C 380.184,239.823 379.017,240.489 377.5,240.5C 377.265,239.903 376.765,239.57 376,239.5C 372.957,241.737 369.624,243.404 366,244.5C 365.54,241.696 366.04,239.029 367.5,236.5C 368.325,235.614 369.325,235.281 370.5,235.5C 370.5,234.5 370.5,233.5 370.5,232.5C 369.127,232.343 367.793,232.51 366.5,233C 364.264,236.078 361.264,237.411 357.5,237C 358.653,232.803 360.319,228.969 362.5,225.5C 361.526,223.915 360.026,222.915 358,222.5C 357.5,223.5 357,224.5 356.5,225.5C 357.629,227.529 357.129,227.863 355,226.5C 355.756,224.285 356.589,221.951 357.5,219.5C 360.142,215.852 362.809,212.185 365.5,208.5C 362.901,207.969 360.235,207.802 357.5,208C 360.993,207.058 364.326,205.725 367.5,204C 371.821,197.168 376.487,190.668 381.5,184.5C 382.451,183.081 382.784,181.415 382.5,179.5C 383.167,179.167 383.833,178.833 384.5,178.5C 386.823,175.865 388.656,172.865 390,169.5C 390.52,163.975 391.353,158.642 392.5,153.5 Z"/></g>
<g><path style="opacity:1" fill="#9a5a07" d="M 323.5,182.5 C 324.761,183.683 326.761,184.85 329.5,186C 321.334,186.588 313.334,186.088 305.5,184.5C 302.167,184.667 298.833,184.833 295.5,185C 294.584,185.278 293.918,185.778 293.5,186.5C 287.886,186.073 282.553,186.74 277.5,188.5C 277.167,189.5 276.5,190.167 275.5,190.5C 274.735,191.66 273.735,192.66 272.5,193.5C 271.913,192.767 271.913,191.767 272.5,190.5C 272.5,189.833 272.5,189.167 272.5,188.5C 273.833,187.833 274.833,186.833 275.5,185.5C 277.5,185.5 278.5,184.5 278.5,182.5C 279.117,182.389 279.617,182.056 280,181.5C 280.674,182.578 281.674,183.245 283,183.5C 289.104,182.151 295.104,180.484 301,178.5C 305.82,179.12 310.653,179.62 315.5,180C 318.379,180.546 321.046,181.379 323.5,182.5 Z"/></g>
<g><path style="opacity:1" fill="#574342" d="M 382.5,179.5 C 382.784,181.415 382.451,183.081 381.5,184.5C 381.631,183.761 381.464,183.094 381,182.5C 379.663,183.765 378.163,184.265 376.5,184C 378.66,182.668 380.66,181.168 382.5,179.5 Z"/></g>
<g><path style="opacity:1" fill="#6b6668" d="M 358.5,175.5 C 358.519,177.06 358.852,178.56 359.5,180C 358.678,184.343 357.345,184.509 355.5,180.5C 356.11,178.566 357.11,176.899 358.5,175.5 Z"/></g>
<g><path style="opacity:1" fill="#a2987b" d="M 231.5,175.5 C 234.853,177.838 236.52,181.171 236.5,185.5C 234.838,182.262 233.171,178.929 231.5,175.5 Z"/></g>
<g><path style="opacity:1" fill="#593443" d="M 258.5,167.5 C 259.859,169.503 261.192,171.503 262.5,173.5C 261.542,173.047 260.708,172.381 260,171.5C 258.294,174.173 256.46,176.339 254.5,178C 255.692,174.449 257.025,170.949 258.5,167.5 Z"/></g>
<g><path style="opacity:1" fill="#f7e104" d="M 225.5,148.5 C 225.767,153.688 225.933,159.021 226,164.5C 226.697,166.584 227.864,168.251 229.5,169.5C 228.596,170.209 228.263,171.209 228.5,172.5C 230.179,172.285 231.179,172.952 231.5,174.5C 231.5,174.833 231.5,175.167 231.5,175.5C 233.171,178.929 234.838,182.262 236.5,185.5C 237.779,187.123 239.113,188.79 240.5,190.5C 244.887,187.638 245.887,188.305 243.5,192.5C 241.149,193.916 241.149,195.583 243.5,197.5C 244.786,200.117 246.453,202.45 248.5,204.5C 249.11,206.434 250.11,208.101 251.5,209.5C 251.5,209.833 251.5,210.167 251.5,210.5C 251.989,211.995 252.655,213.329 253.5,214.5C 253.5,215.167 253.833,215.5 254.5,215.5C 254.932,216.71 255.599,217.71 256.5,218.5C 257.348,219.625 258.348,219.625 259.5,218.5C 259.5,218.833 259.5,219.167 259.5,219.5C 258.375,220.652 258.375,221.652 259.5,222.5C 259.668,226.379 261.335,227.712 264.5,226.5C 264.5,225.833 264.833,225.5 265.5,225.5C 266.525,225.897 266.692,226.563 266,227.5C 265,228.5 264,229.5 263,230.5C 259.952,228.904 257.452,226.737 255.5,224C 252.333,223.167 251.167,224.333 252,227.5C 253.626,228.955 254.792,230.622 255.5,232.5C 256.11,233.391 256.443,234.391 256.5,235.5C 256.265,236.097 255.765,236.43 255,236.5C 253.107,235.804 251.274,234.97 249.5,234C 249.034,231.877 247.867,230.377 246,229.5C 244.268,229.734 243.434,230.734 243.5,232.5C 243.785,234.569 244.952,235.902 247,236.5C 249.598,242.524 248.098,243.857 242.5,240.5C 241.374,237.797 239.707,237.13 237.5,238.5C 236.609,239.11 235.609,239.443 234.5,239.5C 226.634,227.771 220.967,215.105 217.5,201.5C 217.333,190.828 217.5,180.161 218,169.5C 219.145,161.861 221.645,154.861 225.5,148.5 Z"/></g>
<g><path style="opacity:1" fill="#777377" d="M 363.5,169.5 C 364.167,169.5 364.833,169.5 365.5,169.5C 366.303,170.423 366.47,171.423 366,172.5C 365.667,172.167 365.333,171.833 365,171.5C 362.908,173.346 361.574,175.679 361,178.5C 360.764,176.881 359.931,175.881 358.5,175.5C 359.701,173.091 361.367,171.091 363.5,169.5 Z"/></g>
<g><path style="opacity:1" fill="#7b7055" d="M 229.5,169.5 C 230.589,171.117 232.256,171.95 234.5,172C 233.627,173.045 232.627,173.878 231.5,174.5C 231.179,172.952 230.179,172.285 228.5,172.5C 228.263,171.209 228.596,170.209 229.5,169.5 Z"/></g>
<g><path style="opacity:1" fill="#6c5054" d="M 245.5,161.5 C 246.239,161.369 246.906,161.536 247.5,162C 246.549,162.718 246.383,163.551 247,164.5C 247.811,163.04 248.645,162.707 249.5,163.5C 247.876,164.869 247.376,166.536 248,168.5C 248.701,166.238 249.868,165.238 251.5,165.5C 249.037,168.335 248.87,171.335 251,174.5C 253.382,170.565 253.882,170.898 252.5,175.5C 253.178,177.516 253.844,179.516 254.5,181.5C 253.075,179.969 252.409,180.302 252.5,182.5C 248.847,181.42 245.18,181.253 241.5,182C 244.36,180.924 247.36,180.091 250.5,179.5C 247.484,178.537 244.484,178.371 241.5,179C 243.623,177.806 245.957,177.14 248.5,177C 245.901,176.231 243.401,176.398 241,177.5C 240.312,176.668 240.479,176.002 241.5,175.5C 243.225,174.985 244.892,174.318 246.5,173.5C 246.333,173.167 246.167,172.833 246,172.5C 243.26,171.718 240.426,171.218 237.5,171C 240.361,171.03 242.695,170.197 244.5,168.5C 245.468,166.393 245.802,164.059 245.5,161.5 Z"/></g>
<g><path style="opacity:1" fill="#6e425d" d="M 253.5,158.5 C 255.245,160.033 256.245,162.033 256.5,164.5C 254.755,162.967 253.755,160.967 253.5,158.5 Z"/></g>
<g><path style="opacity:1" fill="#6b1f2f" d="M 389.5,147.5 C 389.586,148.496 389.252,149.329 388.5,150C 390.093,150.949 391.426,152.115 392.5,153.5C 391.353,158.642 390.52,163.975 390,169.5C 388.656,172.865 386.823,175.865 384.5,178.5C 384.539,177.417 384.873,176.417 385.5,175.5C 384.271,174.719 382.938,174.219 381.5,174C 386.373,168.332 388.373,161.832 387.5,154.5C 386.57,160.458 384.736,166.124 382,171.5C 380.152,173.953 377.652,174.953 374.5,174.5C 374.573,172.973 373.906,171.973 372.5,171.5C 371.544,170.341 370.544,169.174 369.5,168C 371.45,165.657 373.116,163.157 374.5,160.5C 372.771,161.117 371.271,162.117 370,163.5C 369.186,166.177 367.686,168.177 365.5,169.5C 364.833,169.5 364.167,169.5 363.5,169.5C 364.06,166.287 365.227,163.287 367,160.5C 369.04,158.63 370.873,156.63 372.5,154.5C 373.609,154.443 374.609,154.11 375.5,153.5C 376.872,152.488 378.205,151.488 379.5,150.5C 380.609,150.443 381.609,150.11 382.5,149.5C 383.391,148.89 384.391,148.557 385.5,148.5C 386.708,147.766 388.041,147.433 389.5,147.5 Z"/></g>
<g><path style="opacity:1" fill="#66202e" d="M 230.5,138.5 C 231.167,138.833 231.833,139.167 232.5,139.5C 233.605,140.6 234.938,141.267 236.5,141.5C 236.5,142.167 236.833,142.5 237.5,142.5C 238.899,143.89 240.566,144.89 242.5,145.5C 243.222,146.551 244.222,147.218 245.5,147.5C 249.375,150.234 252.041,153.9 253.5,158.5C 251.396,158.799 249.396,158.466 247.5,157.5C 245.719,154.909 243.719,152.575 241.5,150.5C 241.952,153.203 242.619,155.87 243.5,158.5C 244.609,157.41 245.609,157.41 246.5,158.5C 245.873,159.417 245.539,160.417 245.5,161.5C 245.802,164.059 245.468,166.393 244.5,168.5C 241.167,167.833 237.833,167.167 234.5,166.5C 236.924,166.808 239.257,166.474 241.5,165.5C 238.139,159.438 234.806,153.438 231.5,147.5C 231.719,146.325 231.386,145.325 230.5,144.5C 228.9,152.83 229.9,160.83 233.5,168.5C 232.041,168.433 230.708,168.766 229.5,169.5C 227.864,168.251 226.697,166.584 226,164.5C 225.933,159.021 225.767,153.688 225.5,148.5C 226.413,144.74 228.08,141.407 230.5,138.5 Z"/></g>
<g><path style="opacity:1" fill="#85273c" d="M 231.5,147.5 C 234.806,153.438 238.139,159.438 241.5,165.5C 239.257,166.474 236.924,166.808 234.5,166.5C 232.168,160.685 231.168,154.352 231.5,147.5 Z"/></g>
<g><path style="opacity:1" fill="#ccb5ba" d="M 231.5,147.5 C 231.168,154.352 232.168,160.685 234.5,166.5C 237.833,167.167 241.167,167.833 244.5,168.5C 240.833,168.5 237.167,168.5 233.5,168.5C 229.9,160.83 228.9,152.83 230.5,144.5C 231.386,145.325 231.719,146.325 231.5,147.5 Z"/></g>
<g><path style="opacity:1" fill="#d6b8bf" d="M 374.5,160.5 C 377.095,155.737 381.095,153.237 386.5,153C 382.104,154.902 378.104,157.402 374.5,160.5 Z"/></g>
<g><path style="opacity:1" fill="#ddb7bf" d="M 241.5,150.5 C 239.704,149.207 238.037,147.707 236.5,146C 239.186,146.177 240.852,147.677 241.5,150.5 Z"/></g>
<g><path style="opacity:1" fill="#1e8fcf" d="M 375.5,153.5 C 374.609,154.11 373.609,154.443 372.5,154.5C 354.348,123.427 327.348,110.593 291.5,116C 272.492,121.181 257.159,131.681 245.5,147.5C 244.222,147.218 243.222,146.551 242.5,145.5C 260.765,119.781 285.765,108.615 317.5,112C 337.393,114.694 353.893,123.527 367,138.5C 370.366,143.235 373.199,148.235 375.5,153.5 Z"/></g>
<g><path style="opacity:1" fill="#cd2182" d="M 372.5,154.5 C 370.873,156.63 369.04,158.63 367,160.5C 365.227,163.287 364.06,166.287 363.5,169.5C 361.367,171.091 359.701,173.091 358.5,175.5C 357.11,176.899 356.11,178.566 355.5,180.5C 352.92,182.089 351.587,184.422 351.5,187.5C 349.821,187.285 348.821,187.952 348.5,189.5C 348.34,191.153 347.674,192.486 346.5,193.5C 343.763,193.599 341.096,193.265 338.5,192.5C 338.262,190.596 337.262,189.262 335.5,188.5C 333.887,187.308 332.22,186.308 330.5,185.5C 331.239,185.631 331.906,185.464 332.5,185C 331.748,184.329 331.414,183.496 331.5,182.5C 332.833,181.167 332.833,179.833 331.5,178.5C 330.167,177.167 328.833,177.167 327.5,178.5C 326.833,177.167 326.167,175.833 325.5,174.5C 326.323,169.661 324.323,167.327 319.5,167.5C 319.768,169.099 319.434,170.432 318.5,171.5C 318.167,171.5 317.833,171.5 317.5,171.5C 317.5,171.167 317.5,170.833 317.5,170.5C 317.657,169.127 317.49,167.793 317,166.5C 314.667,161.5 312.333,156.5 310,151.5C 306.704,149.696 303.204,149.196 299.5,150C 293.171,155.813 289.837,162.98 289.5,171.5C 288.035,172.737 286.368,173.737 284.5,174.5C 282.239,175.409 280.072,175.742 278,175.5C 276.722,178.721 275.889,182.054 275.5,185.5C 274.833,186.833 273.833,187.833 272.5,188.5C 268.359,184.028 265.026,179.028 262.5,173.5C 261.192,171.503 259.859,169.503 258.5,167.5C 257.094,167.027 256.427,166.027 256.5,164.5C 256.245,162.033 255.245,160.033 253.5,158.5C 252.041,153.9 249.375,150.234 245.5,147.5C 257.159,131.681 272.492,121.181 291.5,116C 327.348,110.593 354.348,123.427 372.5,154.5 Z"/></g>
<g><path style="opacity:1" fill="#714133" d="M 293.5,186.5 C 288.342,187.458 283.009,188.125 277.5,188.5C 282.553,186.74 287.886,186.073 293.5,186.5 Z"/></g>
<g><path style="opacity:1" fill="#8a545c" d="M 284.5,174.5 C 281.828,176.823 282.161,177.49 285.5,176.5C 286.167,176.5 286.5,176.833 286.5,177.5C 285.21,178.058 284.377,179.058 284,180.5C 282.345,180.198 281.012,178.864 280,176.5C 278.872,178.345 278.372,180.345 278.5,182.5C 278.5,184.5 277.5,185.5 275.5,185.5C 275.889,182.054 276.722,178.721 278,175.5C 280.072,175.742 282.239,175.409 284.5,174.5 Z"/></g>
<g><path style="opacity:1" fill="#de91ac" d="M 331.5,178.5 C 330.167,179.833 330.167,181.167 331.5,182.5C 331.414,183.496 331.748,184.329 332.5,185C 331.906,185.464 331.239,185.631 330.5,185.5C 327.015,184.2 326.015,181.866 327.5,178.5C 328.833,177.167 330.167,177.167 331.5,178.5 Z"/></g>
<g><path style="opacity:1" fill="#886e14" d="M 331.5,178.5 C 332.833,179.833 332.833,181.167 331.5,182.5C 330.167,181.167 330.167,179.833 331.5,178.5 Z"/></g>
<g><path style="opacity:1" fill="#eaa930" d="M 322.5,178.5 C 322.833,178.5 323.167,178.5 323.5,178.5C 324.278,179.156 324.944,179.989 325.5,181C 325.164,182.03 324.497,182.53 323.5,182.5C 321.046,181.379 318.379,180.546 315.5,180C 310.653,179.62 305.82,179.12 301,178.5C 295.104,180.484 289.104,182.151 283,183.5C 281.674,183.245 280.674,182.578 280,181.5C 279.617,182.056 279.117,182.389 278.5,182.5C 278.372,180.345 278.872,178.345 280,176.5C 281.012,178.864 282.345,180.198 284,180.5C 284.377,179.058 285.21,178.058 286.5,177.5C 291.022,176.494 295.522,176.494 300,177.5C 302.51,176.342 305.177,175.675 308,175.5C 312.878,176.198 317.711,177.198 322.5,178.5 Z"/></g>
<g><path style="opacity:1" fill="#866c12" d="M 320.5,176.5 C 321.167,177.167 321.833,177.833 322.5,178.5C 317.711,177.198 312.878,176.198 308,175.5C 305.177,175.675 302.51,176.342 300,177.5C 295.522,176.494 291.022,176.494 286.5,177.5C 286.5,176.833 286.167,176.5 285.5,176.5C 289.32,173.677 293.653,172.844 298.5,174C 296.833,174.333 295.167,174.667 293.5,175C 297.084,175.846 300.417,175.346 303.5,173.5C 307.471,174.197 311.471,174.697 315.5,175C 317.033,176.808 318.7,177.308 320.5,176.5 Z"/></g>
<g><path style="opacity:1" fill="#d489a2" d="M 325.5,174.5 C 325.843,176.483 325.176,177.817 323.5,178.5C 323.167,178.5 322.833,178.5 322.5,178.5C 321.833,177.833 321.167,177.167 320.5,176.5C 320.402,174.447 321.069,172.78 322.5,171.5C 323.117,171.389 323.617,171.056 324,170.5C 324.21,172.058 324.71,173.391 325.5,174.5 Z"/></g>
<g><path style="opacity:1" fill="#e8da09" d="M 322.5,171.5 C 321.069,172.78 320.402,174.447 320.5,176.5C 318.7,177.308 317.033,176.808 315.5,175C 311.471,174.697 307.471,174.197 303.5,173.5C 300.417,175.346 297.084,175.846 293.5,175C 295.167,174.667 296.833,174.333 298.5,174C 293.653,172.844 289.32,173.677 285.5,176.5C 282.161,177.49 281.828,176.823 284.5,174.5C 286.368,173.737 288.035,172.737 289.5,171.5C 289.833,171.5 290.167,171.5 290.5,171.5C 299.478,171.504 308.478,171.504 317.5,171.5C 317.833,171.5 318.167,171.5 318.5,171.5C 318.56,172.043 318.893,172.376 319.5,172.5C 320.167,171.5 320.833,170.5 321.5,169.5C 322.298,169.957 322.631,170.624 322.5,171.5 Z"/></g>
<g><path style="opacity:1" fill="#743547" d="M 325.5,174.5 C 324.71,173.391 324.21,172.058 324,170.5C 323.617,171.056 323.117,171.389 322.5,171.5C 322.631,170.624 322.298,169.957 321.5,169.5C 320.833,170.5 320.167,171.5 319.5,172.5C 318.893,172.376 318.56,172.043 318.5,171.5C 319.434,170.432 319.768,169.099 319.5,167.5C 324.323,167.327 326.323,169.661 325.5,174.5 Z"/></g>
<g><path style="opacity:1" fill="#705e1c" d="M 290.5,171.5 C 290.5,170.833 290.833,170.5 291.5,170.5C 292.167,170.5 292.833,170.5 293.5,170.5C 293.833,170.5 294.167,170.5 294.5,170.5C 295.167,170.5 295.833,170.5 296.5,170.5C 296.833,170.5 297.167,170.5 297.5,170.5C 300.167,170.5 302.833,170.5 305.5,170.5C 305.833,170.5 306.167,170.5 306.5,170.5C 309.833,170.5 313.167,170.5 316.5,170.5C 316.833,170.5 317.167,170.5 317.5,170.5C 317.5,170.833 317.5,171.167 317.5,171.5C 308.478,171.504 299.478,171.504 290.5,171.5 Z"/></g>
<g><path style="opacity:1" fill="#6f3c53" d="M 317.5,170.5 C 317.167,170.5 316.833,170.5 316.5,170.5C 315.68,168.188 314.847,165.854 314,163.5C 313.667,165.5 313.333,167.5 313,169.5C 312.667,166.167 312.333,162.833 312,159.5C 311.585,161.291 310.585,162.624 309,163.5C 308.827,159.459 308.327,155.459 307.5,151.5C 306.504,157.798 306.17,164.132 306.5,170.5C 306.167,170.5 305.833,170.5 305.5,170.5C 305.666,164.824 305.499,159.157 305,153.5C 304.751,152.376 304.251,151.376 303.5,150.5C 302.671,155.802 302.171,161.136 302,166.5C 301.752,161.437 301.085,156.437 300,151.5C 299.667,154.833 299.333,158.167 299,161.5C 298.667,159.167 298.333,156.833 298,154.5C 297.501,159.823 297.334,165.156 297.5,170.5C 297.167,170.5 296.833,170.5 296.5,170.5C 295.833,153.167 295.167,153.167 294.5,170.5C 294.167,170.5 293.833,170.5 293.5,170.5C 293.3,158.697 292.633,158.697 291.5,170.5C 290.833,170.5 290.5,170.833 290.5,171.5C 290.167,171.5 289.833,171.5 289.5,171.5C 289.837,162.98 293.171,155.813 299.5,150C 303.204,149.196 306.704,149.696 310,151.5C 312.333,156.5 314.667,161.5 317,166.5C 317.49,167.793 317.657,169.127 317.5,170.5 Z"/></g>
<g><path style="opacity:1" fill="#e08faf" d="M 296.5,170.5 C 295.833,170.5 295.167,170.5 294.5,170.5C 295.167,153.167 295.833,153.167 296.5,170.5 Z"/></g>
<g><path style="opacity:1" fill="#e490ae" d="M 305.5,170.5 C 302.833,170.5 300.167,170.5 297.5,170.5C 297.334,165.156 297.501,159.823 298,154.5C 298.333,156.833 298.667,159.167 299,161.5C 299.333,158.167 299.667,154.833 300,151.5C 301.085,156.437 301.752,161.437 302,166.5C 302.171,161.136 302.671,155.802 303.5,150.5C 304.251,151.376 304.751,152.376 305,153.5C 305.499,159.157 305.666,164.824 305.5,170.5 Z"/></g>
<g><path style="opacity:1" fill="#ea96b4" d="M 316.5,170.5 C 313.167,170.5 309.833,170.5 306.5,170.5C 306.17,164.132 306.504,157.798 307.5,151.5C 308.327,155.459 308.827,159.459 309,163.5C 310.585,162.624 311.585,161.291 312,159.5C 312.333,162.833 312.667,166.167 313,169.5C 313.333,167.5 313.667,165.5 314,163.5C 314.847,165.854 315.68,168.188 316.5,170.5 Z"/></g>
<g><path style="opacity:1" fill="#e395ae" d="M 293.5,170.5 C 292.833,170.5 292.167,170.5 291.5,170.5C 292.633,158.697 293.3,158.697 293.5,170.5 Z"/></g>
<g><path style="opacity:1" fill="#179b3b" d="M 379.5,150.5 C 378.205,151.488 376.872,152.488 375.5,153.5C 373.199,148.235 370.366,143.235 367,138.5C 353.893,123.527 337.393,114.694 317.5,112C 285.765,108.615 260.765,119.781 242.5,145.5C 240.566,144.89 238.899,143.89 237.5,142.5C 243.557,136.946 249.557,131.112 255.5,125C 281.722,105.936 310.055,102.269 340.5,114C 357.847,121.648 370.847,133.814 379.5,150.5 Z"/></g>
<g><path style="opacity:1" fill="#1c1c1c" d="M 231.5,120.5 C 228.118,117.785 225.118,114.785 222.5,111.5C 224.829,110.251 226.662,110.918 228,113.5C 228.5,113 229,112.5 229.5,112C 228.313,110.981 227.313,109.814 226.5,108.5C 226.833,107.5 227.5,106.833 228.5,106.5C 230.356,109.19 232.689,111.356 235.5,113C 236.833,114 236.833,115 235.5,116C 233.953,116.333 232.62,115.833 231.5,114.5C 231.167,114.833 230.833,115.167 230.5,115.5C 232.424,116.965 232.757,118.632 231.5,120.5 Z"/></g>
<g><path style="opacity:1" fill="#f5e406" d="M 382.5,149.5 C 381.609,150.11 380.609,150.443 379.5,150.5C 370.847,133.814 357.847,121.648 340.5,114C 310.055,102.269 281.722,105.936 255.5,125C 249.557,131.112 243.557,136.946 237.5,142.5C 236.833,142.5 236.5,142.167 236.5,141.5C 256.003,113.47 283.003,101.303 317.5,105C 339.944,106.919 358.444,116.419 373,133.5C 376.393,138.72 379.56,144.053 382.5,149.5 Z"/></g>
<g><path style="opacity:1" fill="#f4a931" d="M 385.5,148.5 C 384.391,148.557 383.391,148.89 382.5,149.5C 379.56,144.053 376.393,138.72 373,133.5C 358.444,116.419 339.944,106.919 317.5,105C 283.003,101.303 256.003,113.47 236.5,141.5C 234.938,141.267 233.605,140.6 232.5,139.5C 260.391,101.931 296.725,90.7643 341.5,106C 361.621,114.623 376.288,128.79 385.5,148.5 Z"/></g>
<g><path style="opacity:1" fill="#bc2531" d="M 389.5,147.5 C 388.041,147.433 386.708,147.766 385.5,148.5C 376.288,128.79 361.621,114.623 341.5,106C 296.725,90.7643 260.391,101.931 232.5,139.5C 231.833,139.167 231.167,138.833 230.5,138.5C 251.402,105.889 281.402,91.7224 320.5,96C 352.381,101.575 375.381,118.742 389.5,147.5 Z"/></g>
<g><path style="opacity:1" fill="#ebecec" d="M 386.5,101.5 C 385.503,101.47 384.836,101.97 384.5,103C 385.056,104.011 385.722,104.844 386.5,105.5C 382.498,106.989 379.164,109.489 376.5,113C 377.108,113.87 377.941,114.37 379,114.5C 384.104,111.946 384.604,112.779 380.5,117C 381.056,117.383 381.389,117.883 381.5,118.5C 380.508,118.328 379.842,118.662 379.5,119.5C 374.236,114.2 368.57,109.367 362.5,105C 315.242,78.3249 272.242,83.8249 233.5,121.5C 233.158,120.662 232.492,120.328 231.5,120.5C 232.757,118.632 232.424,116.965 230.5,115.5C 230.833,115.167 231.167,114.833 231.5,114.5C 232.62,115.833 233.953,116.333 235.5,116C 236.833,115 236.833,114 235.5,113C 232.689,111.356 230.356,109.19 228.5,106.5C 227.5,106.833 226.833,107.5 226.5,108.5C 227.313,109.814 228.313,110.981 229.5,112C 229,112.5 228.5,113 228,113.5C 226.662,110.918 224.829,110.251 222.5,111.5C 221.791,110.596 220.791,110.263 219.5,110.5C 253.18,73.9905 294.18,62.1572 342.5,75C 359.291,80.5515 373.958,89.3848 386.5,101.5 Z"/></g>
<g><path style="opacity:1" fill="#1c1c1c" d="M 235.5,99.5 C 236.376,99.3691 237.043,99.7025 237.5,100.5C 235.34,102.093 235.173,103.76 237,105.5C 237.833,103 239,102.833 240.5,105C 238.74,105.965 238.406,107.132 239.5,108.5C 241.169,107.11 242.836,106.777 244.5,107.5C 243.167,109.5 241.5,111.167 239.5,112.5C 236.312,110.146 233.645,107.312 231.5,104C 233.041,102.629 234.375,101.129 235.5,99.5 Z"/></g>
<g><path style="opacity:1" fill="#1a1a1a" d="M 376.5,97.5 C 378.812,99.1455 380.812,101.146 382.5,103.5C 381.284,104.096 379.951,104.263 378.5,104C 377.321,106.513 375.487,108.346 373,109.5C 372.5,109.167 372,108.833 371.5,108.5C 372.921,105.991 374.588,103.657 376.5,101.5C 375.193,100.135 375.193,98.8016 376.5,97.5 Z"/></g>
<g><path style="opacity:1" fill="#1a1a1a" d="M 247.5,90.5 C 249.75,90.1814 251.75,90.6814 253.5,92C 252.351,93.7441 251.017,93.9108 249.5,92.5C 248.49,95.0257 249.157,97.1923 251.5,99C 252.332,99.6877 252.998,99.521 253.5,98.5C 250.839,96.82 251.006,95.4867 254,94.5C 255.52,95.697 256.687,97.197 257.5,99C 251.313,104.088 247.313,102.588 245.5,94.5C 245.752,92.9271 246.418,91.5938 247.5,90.5 Z"/></g>
<g><path style="opacity:1" fill="#1b1b1b" d="M 363.5,89.5 C 365.824,90.3298 367.824,91.6631 369.5,93.5C 369.167,93.8333 368.833,94.1667 368.5,94.5C 367.5,93.8333 366.5,93.1667 365.5,92.5C 364.378,94.0436 364.711,95.377 366.5,96.5C 365.349,97.731 364.183,97.731 363,96.5C 362.059,98.0614 360.892,99.3947 359.5,100.5C 358.692,100.192 358.025,99.6924 357.5,99C 359.636,95.8896 361.636,92.7229 363.5,89.5 Z"/></g>
<g><path style="opacity:1" fill="#171717" d="M 258.5,84.5 C 262.724,84.0525 264.391,85.7191 263.5,89.5C 264.648,91.1487 265.981,92.6487 267.5,94C 264.741,94.9774 262.741,94.144 261.5,91.5C 261.167,91.8333 260.833,92.1667 260.5,92.5C 262.957,94.3324 262.957,95.9991 260.5,97.5C 258.444,94.5546 256.777,91.3879 255.5,88C 256.071,86.4009 257.071,85.2342 258.5,84.5 Z"/></g>
<g><path style="opacity:1" fill="#c9c9c9" d="M 258.5,87.5 C 259.675,87.281 260.675,87.6143 261.5,88.5C 259.948,89.7979 258.948,89.4646 258.5,87.5 Z"/></g>
<g><path style="opacity:1" fill="#1c1c1c" d="M 352.5,84.5 C 356.513,83.832 358.513,85.4987 358.5,89.5C 358.348,94.8224 355.681,96.9891 350.5,96C 349.196,95.196 348.529,94.0293 348.5,92.5C 349.317,89.5328 350.65,86.8661 352.5,84.5 Z"/></g>
<g><path style="opacity:1" fill="#d6d6d6" d="M 354.5,86.5 C 355.478,86.811 356.145,87.4777 356.5,88.5C 355.649,90.8816 354.316,92.8816 352.5,94.5C 351.883,91.6668 352.55,89.0002 354.5,86.5 Z"/></g>
<g><path style="opacity:1" fill="#1e1e1e" d="M 270.5,79.5 C 271.675,79.281 272.675,79.6143 273.5,80.5C 272.167,81.5 270.833,82.5 269.5,83.5C 270.833,84.1667 272.167,84.8333 273.5,85.5C 271.711,86.623 271.378,87.9564 272.5,89.5C 273.891,88.3554 275.224,88.3554 276.5,89.5C 274.891,90.8883 273.058,91.8883 271,92.5C 268.519,89.5898 266.686,86.2565 265.5,82.5C 267.145,81.3037 268.811,80.3037 270.5,79.5 Z"/></g>
<g><path style="opacity:1" fill="#1c1c1c" d="M 336.5,78.5 C 337.5,78.5 338.5,78.5 339.5,78.5C 339.353,81.4431 338.687,84.2764 337.5,87C 338.232,88.7655 339.565,89.9322 341.5,90.5C 339.262,91.3832 337.095,91.0499 335,89.5C 335.159,85.8301 335.659,82.1634 336.5,78.5 Z"/></g>
<g><path style="opacity:1" fill="#222222" d="M 278.5,77.5 C 279.978,77.238 281.311,77.5713 282.5,78.5C 284.406,81.64 285.74,84.9734 286.5,88.5C 284.5,87.8333 282.5,87.1667 280.5,86.5C 280.719,87.675 280.386,88.675 279.5,89.5C 278.509,85.5546 278.176,81.5546 278.5,77.5 Z"/></g>
<g><path style="opacity:1" fill="#191919" d="M 327.5,76.5 C 328.833,76.5 330.167,76.5 331.5,76.5C 331.824,80.5546 331.491,84.5546 330.5,88.5C 328.895,85.1789 326.895,84.8456 324.5,87.5C 324.167,87 323.833,86.5 323.5,86C 324.986,82.8651 326.32,79.6984 327.5,76.5 Z"/></g>
<g><path style="opacity:1" fill="#232323" d="M 314.5,74.5 C 317.167,74.5 319.833,74.5 322.5,74.5C 322.5,75.5 322.5,76.5 322.5,77.5C 320.712,77.2148 319.045,77.5481 317.5,78.5C 318.325,79.3857 319.325,79.719 320.5,79.5C 320.5,80.5 320.5,81.5 320.5,82.5C 319.022,82.238 317.689,82.5713 316.5,83.5C 318.167,84.1667 319.833,84.8333 321.5,85.5C 318.914,86.48 316.247,86.8134 313.5,86.5C 314.272,82.5483 314.605,78.5483 314.5,74.5 Z"/></g>
<g><path style="opacity:1" fill="#191919" d="M 304.5,74.5 C 306.75,74.1814 308.75,74.6814 310.5,76C 308.922,77.1405 307.256,77.6405 305.5,77.5C 306.914,78.624 308.414,79.624 310,80.5C 310.833,85 309,86.8333 304.5,86C 303.643,85.3109 302.977,84.4776 302.5,83.5C 304.216,83.0028 305.883,82.6694 307.5,82.5C 306.086,81.376 304.586,80.376 303,79.5C 302.387,77.5048 302.887,75.8381 304.5,74.5 Z"/></g>
<g><path style="opacity:1" fill="#1a1a1a" d="M 286.5,75.5 C 289.187,75.3359 291.854,75.5026 294.5,76C 293.484,76.5194 292.818,77.3527 292.5,78.5C 293.302,81.4486 293.636,84.4486 293.5,87.5C 292.5,87.5 291.5,87.5 290.5,87.5C 290.384,84.1401 290.051,80.8067 289.5,77.5C 287.821,77.7148 286.821,77.0481 286.5,75.5 Z"/></g>
<g><path style="opacity:1" fill="#888988" d="M 341.5,258.5 C 339.57,262.1 336.903,265.1 333.5,267.5C 332.638,266.61 332.138,265.61 332,264.5C 333.333,263.167 334.667,261.833 336,260.5C 336.333,261.167 336.667,261.833 337,262.5C 338.371,260.959 339.871,259.625 341.5,258.5 Z"/></g>
<g><path style="opacity:1" fill="#e7e7e7" d="M 353.5,256.5 C 355.417,258.28 356.084,260.28 355.5,262.5C 350.703,265.305 345.703,267.639 340.5,269.5C 343.971,265.503 347.804,261.837 352,258.5C 352.333,259.5 352.667,260.5 353,261.5C 353.494,259.866 353.66,258.199 353.5,256.5 Z"/></g>
<g><path style="opacity:1" fill="#f8f9f9" d="M 280.5,266.5 C 281.203,268.716 282.536,270.549 284.5,272C 284.272,272.399 283.938,272.565 283.5,272.5C 282.833,272.167 282.167,271.833 281.5,271.5C 278.037,267.536 274.37,263.702 270.5,260C 271.126,259.25 271.626,258.416 272,257.5C 274.387,260.957 277.22,263.957 280.5,266.5 Z"/></g>
<g><path style="opacity:1" fill="#1c1c1c" d="M 239.5,260.5 C 236.943,263.792 233.609,266.126 229.5,267.5C 228.522,267.189 227.855,266.522 227.5,265.5C 229.864,262.301 232.03,258.968 234,255.5C 234.87,256.108 235.37,256.941 235.5,258C 234.516,259.657 233.516,261.323 232.5,263C 234.715,262.244 237.049,261.411 239.5,260.5 Z"/></g>
<g><path style="opacity:1" fill="#d7d6d6" d="M 256.5,252.5 C 257.167,252.833 257.833,253.167 258.5,253.5C 259.527,255.194 260.861,256.527 262.5,257.5C 261.972,258.847 261.805,260.181 262,261.5C 264.173,258.723 264.673,258.89 263.5,262C 264.833,262 266.167,262 267.5,262C 270.039,264.37 272.372,266.87 274.5,269.5C 267.215,266.859 260.548,263.193 254.5,258.5C 254.369,257.761 254.536,257.094 255,256.5C 256.073,257.28 257.24,257.113 258.5,256C 256.059,255.964 254.059,255.131 252.5,253.5C 252.833,253.167 253.167,252.833 253.5,252.5C 254.88,254.977 255.88,254.977 256.5,252.5 Z"/></g>
<g><path style="opacity:1" fill="#b42232" d="M 325.5,254.5 C 327.844,254.94 329.844,255.94 331.5,257.5C 327.5,262.833 323.5,268.167 319.5,273.5C 318.5,274.167 317.5,274.833 316.5,275.5C 315.178,273.689 314.678,271.689 315,269.5C 318.085,265 320.918,260.333 323.5,255.5C 323.957,254.702 324.624,254.369 325.5,254.5 Z"/></g>
<g><path style="opacity:1" fill="#e9e9e9" d="M 341.5,258.5 C 339.871,259.625 338.371,260.959 337,262.5C 336.667,261.833 336.333,261.167 336,260.5C 334.667,261.833 333.333,263.167 332,264.5C 332.138,265.61 332.638,266.61 333.5,267.5C 332.206,268.29 331.039,269.29 330,270.5C 329.667,269.833 329.333,269.167 329,268.5C 328,269.5 327,270.5 326,271.5C 325.833,271.167 325.667,270.833 325.5,270.5C 330.194,264.306 334.694,257.972 339,251.5C 340.724,248.83 341.891,249.163 342.5,252.5C 341.167,254.167 339.833,255.833 338.5,257.5C 338.667,257.833 338.833,258.167 339,258.5C 340.392,256.158 341.225,256.158 341.5,258.5 Z"/></g>
<g><path style="opacity:1" fill="#f3e207" d="M 285.5,254.5 C 286.652,255.625 287.652,255.625 288.5,254.5C 289.167,254.5 289.833,254.5 290.5,254.5C 290.369,255.239 290.536,255.906 291,256.5C 291.893,255.289 292.726,255.289 293.5,256.5C 296.333,260.833 299.167,265.167 302,269.5C 303.796,271.402 303.963,273.402 302.5,275.5C 300.833,275.5 299.167,275.5 297.5,275.5C 293.984,269.8 289.984,264.467 285.5,259.5C 284.438,257.766 284.438,256.099 285.5,254.5 Z"/></g>
<g><path style="opacity:1" fill="#eaeaea" d="M 387.5,241.5 C 387.433,242.959 387.766,244.292 388.5,245.5C 389.574,246.885 390.907,248.051 392.5,249C 390.1,249.186 387.766,249.686 385.5,250.5C 388.201,253.841 391.535,256.175 395.5,257.5C 395.5,258.167 395.5,258.833 395.5,259.5C 374.95,284.612 348.283,298.446 315.5,301C 282.426,302.747 253.76,292.581 229.5,270.5C 230.675,270.719 231.675,270.386 232.5,269.5C 231.398,268.824 230.398,268.158 229.5,267.5C 233.609,266.126 236.943,263.792 239.5,260.5C 241.006,259.77 242.34,259.437 243.5,259.5C 255.528,268.682 268.861,275.515 283.5,280C 326.111,287.97 360.778,275.136 387.5,241.5 Z"/></g>
<g><path style="opacity:1" fill="#1f1f1f" d="M 369.5,264.5 C 372.205,264.38 372.872,265.38 371.5,267.5C 372.921,270.009 374.588,272.343 376.5,274.5C 376.167,275.5 375.5,276.167 374.5,276.5C 371.947,272.716 368.947,270.216 365.5,269C 367.018,267.649 368.351,266.149 369.5,264.5 Z"/></g>
<g><path style="opacity:1" fill="#191919" d="M 241.5,263.5 C 243.384,263.712 244.717,264.712 245.5,266.5C 243.988,270.201 241.988,273.534 239.5,276.5C 238.548,274.955 238.215,273.288 238.5,271.5C 237.178,271.33 236.011,271.663 235,272.5C 234.5,272 234,271.5 233.5,271C 236.506,268.699 239.172,266.199 241.5,263.5 Z"/></g>
<g><path style="opacity:1" fill="#c8c8c8" d="M 240.5,267.5 C 241.688,269.496 241.021,270.329 238.5,270C 239.381,269.292 240.047,268.458 240.5,267.5 Z"/></g>
<g><path style="opacity:1" fill="#1e1e1e" d="M 374.5,260.5 C 377.5,262.668 380,265.334 382,268.5C 382.563,269.725 382.23,270.725 381,271.5C 377.935,268.938 375.435,265.938 373.5,262.5C 373.863,261.817 374.196,261.15 374.5,260.5 Z"/></g>
<g><path style="opacity:1" fill="#1b1b1b" d="M 380.5,254.5 C 385.671,253.915 389.004,256.082 390.5,261C 387.962,266.298 384.628,266.798 380.5,262.5C 377.987,259.713 377.987,257.047 380.5,254.5 Z"/></g>
<g><path style="opacity:1" fill="#dddddd" d="M 381.5,256.5 C 384.069,257.396 386.069,259.062 387.5,261.5C 383.853,262.21 381.853,260.543 381.5,256.5 Z"/></g>
<g><path style="opacity:1" fill="#1c1c1c" d="M 361.5,270.5 C 365.084,272.739 368.417,275.406 371.5,278.5C 369.994,279.747 368.494,279.747 367,278.5C 366,280.167 365,281.833 364,283.5C 362.598,279.793 361.098,276.126 359.5,272.5C 360.243,271.818 360.909,271.151 361.5,270.5 Z"/></g>
<g><path style="opacity:1" fill="#1b1b1b" d="M 247.5,268.5 C 251.847,269.001 253.68,271.334 253,275.5C 250.88,278.08 248.713,278.08 246.5,275.5C 245.5,276.833 244.5,278.167 243.5,279.5C 242.5,279.167 241.833,278.5 241.5,277.5C 243.526,274.482 245.526,271.482 247.5,268.5 Z"/></g>
<g><path style="opacity:1" fill="#d6d6d6" d="M 248.5,271.5 C 250.465,271.948 250.798,272.948 249.5,274.5C 248.614,273.675 248.281,272.675 248.5,271.5 Z"/></g>
<g><path style="opacity:1" fill="#939392" d="M 280.5,266.5 C 281.794,267.29 282.961,268.29 284,269.5C 284.333,268.833 284.667,268.167 285,267.5C 287.43,269.422 289.263,271.755 290.5,274.5C 287.961,273.413 285.628,272.746 283.5,272.5C 283.938,272.565 284.272,272.399 284.5,272C 282.536,270.549 281.203,268.716 280.5,266.5 Z"/></g>
<g><path style="opacity:1" fill="#97928a" d="M 275.5,249.5 C 278.498,250.822 281.498,252.155 284.5,253.5C 283.503,253.47 282.836,253.97 282.5,255C 282.899,256.981 283.899,258.481 285.5,259.5C 289.984,264.467 293.984,269.8 297.5,275.5C 295.279,274.708 293.279,274.374 291.5,274.5C 292.525,274.103 292.692,273.437 292,272.5C 286,265.157 280.5,257.49 275.5,249.5 Z"/></g>
<g><path style="opacity:1" fill="#191919" d="M 257.5,274.5 C 259.722,274.559 260.722,275.725 260.5,278C 259.438,281.139 258.438,284.306 257.5,287.5C 256.05,286.345 255.05,284.845 254.5,283C 253.258,282.689 252.258,283.189 251.5,284.5C 251.167,284 250.833,283.5 250.5,283C 252.654,280.013 254.987,277.18 257.5,274.5 Z"/></g>
<g><path style="opacity:1" fill="#171717" d="M 354.5,274.5 C 357.756,277.336 359.756,281.003 360.5,285.5C 358.071,285.415 356.071,284.415 354.5,282.5C 354.902,284.366 354.902,286.366 354.5,288.5C 352.102,285.429 350.102,282.095 348.5,278.5C 349.723,277.386 351.056,277.219 352.5,278C 353.667,279.167 354.833,280.333 356,281.5C 355.563,279.243 355.063,276.91 354.5,274.5 Z"/></g>
<g><path style="opacity:1" fill="#181818" d="M 264.5,278.5 C 265.675,278.281 266.675,278.614 267.5,279.5C 265.892,282.382 264.559,285.382 263.5,288.5C 262.675,289.386 261.675,289.719 260.5,289.5C 261.551,285.731 262.884,282.065 264.5,278.5 Z"/></g>
<g><path style="opacity:1" fill="#cbcbcb" d="M 256.5,278.5 C 257.713,279.497 257.546,280.497 256,281.5C 255.53,280.423 255.697,279.423 256.5,278.5 Z"/></g>
<g><path style="opacity:1" fill="#1a1a1a" d="M 334.5,282.5 C 335.978,282.238 337.311,282.571 338.5,283.5C 337.167,284.5 335.833,285.5 334.5,286.5C 335.833,287.167 337.167,287.833 338.5,288.5C 336.711,289.623 336.378,290.956 337.5,292.5C 338.891,291.355 340.224,291.355 341.5,292.5C 339.142,294.287 336.475,295.287 333.5,295.5C 333.152,291.443 332.486,287.443 331.5,283.5C 332.791,283.737 333.791,283.404 334.5,282.5 Z"/></g>
<g><path style="opacity:1" fill="#161616" d="M 320.5,285.5 C 321.5,285.5 322.5,285.5 323.5,285.5C 323.5,287.167 323.5,288.833 323.5,290.5C 324.5,290.5 325.5,290.5 326.5,290.5C 326.579,289.07 326.246,287.736 325.5,286.5C 327.007,285.261 328.174,285.595 329,287.5C 329.821,290.554 329.655,293.554 328.5,296.5C 325.792,290.915 324.459,291.248 324.5,297.5C 323.5,297.5 322.5,297.5 321.5,297.5C 321.495,293.466 321.162,289.466 320.5,285.5 Z"/></g>
<g><path style="opacity:1" fill="#1c1c1c" d="M 289.5,285.5 C 292.428,285.852 295.262,286.518 298,287.5C 298.668,292.329 296.501,294.329 291.5,293.5C 291.762,294.978 291.429,296.311 290.5,297.5C 289.509,293.555 289.176,289.555 289.5,285.5 Z"/></g>
<g><path style="opacity:1" fill="#1d1d1d" d="M 311.5,286.5 C 314.044,286.104 316.211,286.771 318,288.5C 317.813,290.801 316.646,291.135 314.5,289.5C 313.167,291.833 313.167,294.167 314.5,296.5C 315.623,294.711 316.956,294.378 318.5,295.5C 316.675,298.495 314.175,299.162 311,297.5C 308.868,293.686 309.035,290.019 311.5,286.5 Z"/></g>
<g><path style="opacity:1" fill="#5b5b5b" d="M 269.5,287.5 C 270.833,287.5 272.167,287.5 273.5,287.5C 273.719,288.675 273.386,289.675 272.5,290.5C 270.787,290.121 269.787,289.121 269.5,287.5 Z"/></g>
<g><path style="opacity:1" fill="#262626" d="M 281.5,284.5 C 282.833,284.5 284.167,284.5 285.5,284.5C 285.5,288.5 285.5,292.5 285.5,296.5C 284.5,296.5 283.5,296.5 282.5,296.5C 282.5,295.5 282.5,294.5 282.5,293.5C 280.8,293.626 279.3,294.293 278,295.5C 277.5,295.167 277,294.833 276.5,294.5C 278.18,291.14 279.847,287.807 281.5,284.5 Z"/></g>
<g><path style="opacity:1" fill="#a8a8a8" d="M 292.5,288.5 C 295.957,288.667 296.29,289.667 293.5,291.5C 292.614,290.675 292.281,289.675 292.5,288.5 Z"/></g>
<g><path style="opacity:1" fill="#212121" d="M 301.5,286.5 C 302.833,286.5 304.167,286.5 305.5,286.5C 306.167,290.5 306.833,294.5 307.5,298.5C 305.723,298.214 304.056,297.547 302.5,296.5C 301.328,296.919 300.328,297.585 299.5,298.5C 299.167,298 298.833,297.5 298.5,297C 299.429,293.447 300.429,289.947 301.5,286.5 Z"/></g>
<g><path style="opacity:1" fill="#fbe902" d="M 35.5,334.5 C 216.833,334.5 398.167,334.5 579.5,334.5C 579.5,339.167 579.5,343.833 579.5,348.5C 398.167,348.5 216.833,348.5 35.5,348.5C 35.5,343.833 35.5,339.167 35.5,334.5 Z"/></g>
</svg>
