<?xml version="1.0" encoding="utf-8"?>
<!-- Generator: Adobe Illustrator 26.0.3, SVG Export Plug-In . SVG Version: 6.00 Build 0)  -->
<svg version="1.1" id="Layer_1" xmlns="http://www.w3.org/2000/svg" xmlns:xlink="http://www.w3.org/1999/xlink" x="0px" y="0px"
	 viewBox="0 0 1280 768" style="enable-background:new 0 0 1280 768;" xml:space="preserve">
<style type="text/css">
	.st0{fill:#FFFFFF;}
	.st1{fill:#DF0D0D;}
</style>
<rect class="st0" width="1280" height="768"/>
<circle cx="642" cy="386.8" r="280.6"/>
<circle class="st0" cx="641.1" cy="385.6" r="187.6"/>
<g>
	<path class="st0" d="M500.2,589.4l-12.8-10l-3.9,1.9c-1.3,0.6-2.2,1.3-2.7,1.9c-0.7,0.9-0.8,1.8-0.3,2.9c0.3,0.6,1.3,1.7,3.1,3.3
		l-0.7,0.9l-12-9.4l0.7-0.9c1.4,0.8,2.9,1.2,4.3,1.1s3.7-0.9,6.8-2.3l32.5-14.8l0.5,0.4l-7.1,35.9c-0.7,3.4-0.8,5.7-0.5,7
		c0.2,1,0.9,1.9,1.9,2.8l-0.7,0.9l-17.5-13.7l0.7-0.9l0.7,0.6c1.4,1.1,2.5,1.7,3.4,1.8c0.6,0.1,1.1-0.1,1.4-0.6
		c0.2-0.3,0.4-0.6,0.5-1c0.1-0.2,0.3-1,0.6-2.4L500.2,589.4z M500.6,587l3.1-15l-14,6.4L500.6,587z"/>
	<path class="st0" d="M542.7,602.3l-3.2,10.7c-0.6,2.1-0.9,3.4-0.7,4c0.1,0.6,0.5,1.2,1.2,1.7c0.6,0.5,2,1.1,4,1.7l-0.3,1l-22.5-6.7
		l0.3-1c2,0.6,3.5,0.9,4.3,0.7c0.8-0.1,1.5-0.4,1.9-0.8c0.4-0.4,1-1.7,1.6-3.7l7.3-24.7c0.6-2.1,0.9-3.4,0.7-4
		c-0.1-0.6-0.5-1.2-1.2-1.7c-0.6-0.5-2-1.1-4-1.7l0.3-1l20.5,6.1c5.3,1.6,9.1,3.1,11.4,4.4c2.3,1.4,3.9,3.1,5,5.3
		c1.1,2.2,1.2,4.4,0.6,6.7c-0.8,2.8-2.7,4.8-5.6,5.9c-1.8,0.7-4.2,1-7,0.8l6.8,16c0.9,2.1,1.6,3.4,2,4c0.7,0.8,1.6,1.5,2.8,1.9
		l-0.3,1l-13.9-4.1l-9-21.6L542.7,602.3z M548.3,583.6l-5,16.7l1.9,0.5c3,0.9,5.3,1.3,7,1.3c1.6,0,3.1-0.5,4.3-1.5
		c1.2-1,2.1-2.5,2.7-4.5c0.9-2.9,0.7-5.3-0.4-7.1c-1.2-1.9-3.5-3.3-7-4.3L548.3,583.6z"/>
	<path class="st0" d="M597,631.2l-0.2,1.1l-23.8-3.5l0.2-1.1l1.5,0.2c1.3,0.2,2.4,0.2,3.3-0.1c0.6-0.2,1.1-0.6,1.5-1.2
		c0.3-0.4,0.6-1.6,0.9-3.6l3.8-25.8c0.3-2,0.4-3.3,0.2-3.8c-0.2-0.5-0.6-1.1-1.3-1.5c-0.7-0.5-1.7-0.8-2.9-1l-1.5-0.2l0.2-1.1
		l23.8,3.5l-0.2,1.1l-1.5-0.2c-1.3-0.2-2.4-0.2-3.3,0.1c-0.6,0.2-1.1,0.6-1.6,1.2c-0.3,0.4-0.6,1.6-0.9,3.6l-3.8,25.8
		c-0.3,2-0.4,3.3-0.2,3.8c0.2,0.5,0.6,1.1,1.3,1.5c0.7,0.5,1.7,0.8,2.9,1L597,631.2z"/>
	<path class="st0" d="M645,595.3l-28.5,36.4l8.7,0.4c4.1,0.2,7,0.1,8.7-0.3c2.7-0.6,5.1-1.8,7.1-3.6c2-1.8,3.5-4.3,4.3-7.4l1.3,0.1
		l-2.5,14.3l-42.1-1.7l28.6-36.4l-6.8-0.3c-2.6-0.1-4.4-0.1-5.2,0c-1.6,0.2-3.1,0.6-4.5,1.3c-1.4,0.7-2.6,1.6-3.6,2.9
		s-1.7,2.8-2.3,4.7l-1.3-0.1l1.7-11.6L645,595.3z"/>
	<path class="st0" d="M673.7,592.7c7.3-0.9,13.4,0.3,18.3,3.8c4.9,3.5,7.7,8.1,8.2,14c0.5,5-0.8,9.6-3.8,13.7
		c-4,5.5-10.1,8.6-18.3,9.4c-8.2,0.8-14.8-1-19.8-5.4c-3.9-3.5-6.1-7.8-6.6-13.1c-0.6-5.9,1.3-11,5.5-15.3
		C661.5,595.5,667,593.1,673.7,592.7z M674.3,594.5c-4.2,0.4-7.2,2.6-9,6.5c-1.5,3.2-2,7.6-1.4,13.3c0.6,6.7,2.5,11.6,5.5,14.6
		c2.1,2.1,4.9,2.9,8.4,2.6c2.3-0.2,4.2-0.9,5.7-2c1.9-1.4,3.2-3.6,4-6.4c0.8-2.8,1-6.5,0.6-10.8c-0.5-5.2-1.4-9.1-2.8-11.6
		c-1.4-2.5-3-4.2-4.8-5.1C678.6,594.6,676.6,594.3,674.3,594.5z"/>
	<path class="st0" d="M715.1,586.5l28.5,17.6l-4.6-16.5c-0.6-2.3-1.5-3.7-2.4-4.3c-1.3-0.8-3.2-0.8-5.7-0.1l-0.3-1l14.6-4.1l0.3,1
		c-1.8,0.7-3,1.3-3.5,1.9c-0.5,0.5-0.9,1.2-1.1,2s0,2.2,0.5,4l8.9,31.9l-1.1,0.3l-38.8-23.5l6.8,24.3c0.6,2.2,1.6,3.5,3,4
		c1.4,0.4,2.8,0.5,4.3,0l1-0.3l0.3,1l-15.7,4.4l-0.3-1c2.4-0.7,4-1.6,4.7-2.7c0.7-1.1,0.8-2.7,0.2-4.7l-7.5-27l-1.2-0.8
		c-1.2-0.8-2.2-1.2-3-1.3s-1.9,0-3.2,0.3l-0.3-1L715.1,586.5z"/>
	<path class="st0" d="M783.5,587.6l-13.3,9.3l0.6,4.3c0.2,1.4,0.6,2.5,1.1,3.2c0.6,0.9,1.5,1.3,2.7,1.1c0.7-0.1,2-0.8,4.1-2l0.6,0.9
		l-12.5,8.8l-0.6-0.9c1.2-1.1,2-2.4,2.3-3.8c0.3-1.4,0.2-3.8-0.2-7.2l-4.8-35.4l0.5-0.4l32.3,17.1c3.1,1.6,5.2,2.5,6.5,2.5
		c1,0.1,2.1-0.3,3.3-1l0.6,0.9l-18.2,12.8l-0.6-0.9l0.7-0.5c1.5-1,2.4-1.9,2.7-2.7c0.2-0.5,0.2-1.1-0.2-1.5
		c-0.2-0.3-0.5-0.5-0.8-0.8c-0.1-0.1-0.8-0.5-2.1-1.2L783.5,587.6z M781.3,586.5l-13.5-7.3l2.1,15.2L781.3,586.5z"/>
</g>
<polygon class="st0" points="470.9,552.2 458.5,561.3 463.2,546.6 450.6,537.4 466.2,537.4 470.9,522.8 475.7,537.4 491.2,537.4 
	478.6,546.6 483.4,561.3 "/>
<polygon class="st0" points="811.7,552.2 799.2,561.3 804,546.6 791.4,537.4 806.9,537.4 811.7,522.8 816.4,537.4 832,537.4 
	819.4,546.6 824.2,561.3 "/>
<g>
	<path d="M520.3,280.5l-18-11.8l8.5-13l2.1,1.4l-6.9,10.6l5.5,3.6l6.5-9.9l2.1,1.4l-6.5,9.9l6.1,4l7.2-11l2.1,1.4L520.3,280.5z"/>
	<path d="M542.4,254c1.6-0.1,3-0.3,4.1-0.6l0.5,2.1c-1.6,0.5-3.3,0.7-5.3,0.7c-0.7,1.7-1.9,3.1-3.4,4.2c-1.6,1.2-3.2,1.8-5.1,2
		c-1.8,0.2-3.6-0.1-5.3-1c-1.7-0.8-3.2-2.1-4.5-3.8c-1.3-1.7-2.1-3.5-2.4-5.4c-0.4-1.9-0.2-3.7,0.6-5.4c0.7-1.7,1.9-3.1,3.4-4.3
		c1.6-1.2,3.3-1.9,5.1-2.1s3.6,0.1,5.3,1c1.7,0.9,3.2,2.1,4.4,3.8c1.1,1.4,1.8,2.8,2.2,4.3C542.6,251.1,542.7,252.5,542.4,254z
		 M535.2,254.8c1.6-0.6,3.1-0.9,4.5-0.8c0.4-2.2-0.3-4.6-2.1-7c-1-1.4-2.2-2.4-3.4-3.1s-2.5-1-3.9-0.9c-1.3,0.1-2.6,0.6-3.7,1.4
		c-1.7,1.3-2.7,2.9-2.9,4.9c-0.2,2,0.5,4.1,2.2,6.5c1.7,2.2,3.5,3.5,5.5,3.9c2,0.4,3.9-0.1,5.6-1.4c0.8-0.6,1.5-1.3,2-2.2
		c-1.1,0.1-2.1,0.3-3,0.7L535.2,254.8z"/>
	<path d="M552.8,227.4l2.6-1.2l5.2,11.3c0.9,2,1.4,3.6,1.5,5c0.1,1.4-0.3,2.7-1.1,3.9s-2.2,2.3-4.1,3.2c-1.8,0.8-3.5,1.2-4.9,1.1
		c-1.5-0.1-2.7-0.6-3.7-1.6c-1-1-2-2.5-3-4.5l-5.2-11.3l2.6-1.2l5.2,11.2c0.8,1.7,1.5,2.9,2.2,3.5s1.5,1,2.5,1.1
		c1,0.1,2-0.1,3.1-0.6c1.9-0.9,3-1.9,3.5-3.2c0.4-1.2,0-3.1-1.1-5.5L552.8,227.4z"/>
	<path d="M565.9,245l1.5-23l2.9-0.9l14.8,17.9l-3.1,1l-4.3-5.5l-8.6,2.7l-0.3,6.9L565.9,245z M569.2,234.8l7-2.2l-3.9-5
		c-1.2-1.5-2.1-2.8-2.8-3.8c0.1,1.4,0.2,2.8,0.1,4.3L569.2,234.8z"/>
	<path d="M586.8,238.8l-4.5-21l2.8-0.6l3.9,18.5l10.3-2.2l0.5,2.5L586.8,238.8z"/>
	<path d="M603.5,235.6l-3.3-21.2l2.8-0.4l3.3,21.2L603.5,235.6z"/>
	<path d="M616.4,233.8l-1.9-18.8l-7,0.7l-0.3-2.5l16.9-1.7l0.3,2.5l-7.1,0.7l1.9,18.8L616.4,233.8z"/>
	<path d="M634.9,232.6l-0.2-9.1l-8.6-12.2l3.5-0.1l4.4,6.4c0.8,1.2,1.6,2.4,2.3,3.6c0.6-1.1,1.4-2.4,2.2-3.9l4-6.4l3.3-0.1
		l-8.2,12.6l0.2,9.1L634.9,232.6z"/>
	<path d="M657.4,232.7l1.7-21.4l14.4,1.1l-0.2,2.5l-11.6-0.9l-0.5,6.6l10,0.8l-0.2,2.5l-10-0.8l-0.8,9.7L657.4,232.7z"/>
	<path d="M676,223.7c0.6-3.5,2-6.1,4.2-7.8c2.2-1.7,4.8-2.3,7.8-1.8c2,0.3,3.6,1.1,5.1,2.3c1.4,1.2,2.4,2.7,3,4.5s0.7,3.8,0.3,5.9
		c-0.4,2.1-1.1,4-2.2,5.6c-1.1,1.6-2.6,2.6-4.3,3.2c-1.7,0.6-3.5,0.8-5.4,0.5c-2-0.3-3.7-1.1-5.1-2.3c-1.4-1.2-2.4-2.7-2.9-4.5
		C675.8,227.4,675.7,225.5,676,223.7z M678.8,224.2c-0.4,2.6-0.1,4.7,1.1,6.4c1.1,1.7,2.7,2.7,4.8,3.1c2.1,0.3,4-0.1,5.6-1.4
		c1.6-1.3,2.6-3.3,3.1-6c0.3-1.7,0.2-3.3-0.1-4.7c-0.4-1.4-1.1-2.5-2.1-3.4c-1-0.9-2.2-1.5-3.6-1.7c-2-0.3-3.8,0.1-5.5,1.2
		C680.5,218.8,679.4,221,678.8,224.2z"/>
	<path d="M697.6,238.1l5.7-20.7l9.2,2.5c1.8,0.5,3.2,1.1,4.1,1.7c0.9,0.6,1.4,1.5,1.8,2.6c0.3,1.1,0.3,2.2,0,3.4
		c-0.4,1.5-1.2,2.6-2.4,3.3c-1.2,0.7-2.9,1-4.9,0.7c0.6,0.5,1.1,1,1.4,1.5c0.6,1,1.1,2.1,1.5,3.4l2.1,6.6l-3.4-0.9l-1.6-5.1
		c-0.5-1.5-0.9-2.6-1.2-3.4c-0.3-0.8-0.7-1.4-1-1.8c-0.3-0.4-0.7-0.7-1.1-0.9c-0.3-0.2-0.8-0.3-1.5-0.5l-3.2-0.9l-2.5,9.2
		L697.6,238.1z M703.6,227.2l5.9,1.6c1.3,0.3,2.3,0.5,3,0.4c0.8-0.1,1.4-0.3,2-0.8c0.5-0.5,0.9-1,1.1-1.7c0.3-1,0.1-1.9-0.4-2.7
		c-0.5-0.8-1.6-1.4-3.1-1.9l-6.6-1.8L703.6,227.2z"/>
	<path d="M723.8,245.9l16.8-15.7l2.8,1.3l-1.5,23.2l-2.9-1.4l0.6-6.9l-8.1-3.9l-5,4.8L723.8,245.9z M733.3,240.6l6.5,3.2l0.6-6.3
		c0.2-1.9,0.4-3.5,0.6-4.7c-0.8,1.1-1.8,2.2-2.8,3.2L733.3,240.6z"/>
	<path d="M742.9,255.5l12.5-17.4l2.3,1.7l-11.1,15.4l8.6,6.2l-1.5,2.1L742.9,255.5z"/>
	<path d="M755.3,264.7l16.3-14l1.8,2.2l-14.4,12.3l6.9,8l-1.9,1.6L755.3,264.7z"/>
</g>
<g>
	<path class="st0" d="M450.9,501.5l8,12.9l4.5-0.7c1.5-0.2,2.6-0.6,3.4-1.1c1-0.6,1.5-1.5,1.5-2.6c0-0.7-0.5-2-1.6-4l1-0.6l7.5,12.2
		l-1,0.6c-1-1.2-2.2-1.9-3.6-2.2c-1.4-0.3-3.9-0.2-7.5,0.3l-37.3,4.9l-0.3-0.5l21.9-31.7c2.1-3,3.2-5.2,3.5-6.4c0.2-1,0-2-0.6-3.2
		l1-0.6l10.9,17.7l-1,0.6l-0.4-0.7c-0.9-1.4-1.7-2.3-2.4-2.6c-0.5-0.2-1.1-0.2-1.6,0.2c-0.3,0.2-0.6,0.5-0.9,0.8
		c-0.1,0.1-0.6,0.8-1.5,2.1L450.9,501.5z M449.5,503.6l-9.3,13.2l16.1-2.1L449.5,503.6z"/>
	<path class="st0" d="M417.7,463.3l13-20.5c1.8-2.9,2.9-5.2,3.3-7c0.3-1.3,0.2-2.5-0.2-3.7l1.1-0.4l7.3,21.2l-1.1,0.4
		c-0.6-1.3-1.1-2.1-1.5-2.4s-0.9-0.4-1.3-0.2c-0.8,0.3-2.1,1.8-3.8,4.4l-8.5,13.4l1.8,1.1l11.1-3.8c2.1-0.7,3.4-1.3,3.8-1.7
		c0.4-0.4,0.7-1,0.9-1.8c0.1-0.8-0.1-2-0.6-3.5l1.1-0.4l7.1,20.5l-1.1,0.4l-0.5-1.4c-0.4-1.2-0.9-2.1-1.6-2.6
		c-0.5-0.4-1.1-0.7-1.9-0.7c-0.6-0.1-1.9,0.3-3.9,1l-26.8,9.2c-2.1,0.7-3.3,1.3-3.8,1.7c-0.4,0.4-0.7,1-0.9,1.8
		c-0.2,0.8,0,1.8,0.4,2.9l0.5,1.4l-1.1,0.4l-7-20.3l1.1-0.4c0.5,1.4,1,2.4,1.7,2.9c0.5,0.4,1.1,0.7,1.8,0.7c0.6,0.1,1.9-0.3,4-1
		l12.7-4.4l-17.4-10.9c-2.4-1.5-4.1-2.1-5.2-1.7c-0.8,0.3-1.2,0.9-1.4,1.9c-0.1,0.5,0.2,1.7,0.7,3.4l-1.1,0.4l-5.5-15.9l1.1-0.4
		c0.6,1.4,1.2,2.4,1.9,3.1c0.7,0.7,2.7,2.1,6.1,4.2L417.7,463.3z"/>
	<path class="st0" d="M421.8,415.9l3.1,18.2l-6.5,1.1l-3.1-18.2L421.8,415.9z"/>
	<path class="st0" d="M387.5,371.4l14.9-0.2l0,1.2c-3.9,1-6.8,2.8-8.9,5.4c-2,2.6-3,5.5-3,8.7c0,2.7,0.9,5.1,2.4,7.4
		c1.6,2.2,3.6,3.8,6.1,4.8c3.2,1.3,6.8,1.9,10.7,1.8c3.9-0.1,7.3-0.6,10.5-1.6c3.1-1,5.5-2.6,7.1-4.7s2.3-4.8,2.3-8.1
		c0-2.7-0.7-5.2-1.9-7.4c-1.2-2.2-3.3-4.6-6.2-7l3.7-0.1c2.6,2.4,4.4,4.9,5.6,7.4c1.2,2.6,1.8,5.6,1.9,9.1c0.1,4.6-0.8,8.7-2.6,12.3
		s-4.4,6.4-7.8,8.4c-3.4,2-7.1,3-11,3.1c-4.1,0.1-8-0.9-11.7-3s-6.6-4.9-8.7-8.6s-3.2-7.5-3.2-11.6c-0.1-3,0.6-6.2,1.8-9.6
		c0.7-2,1.1-3.2,1.1-3.7c0-0.7-0.3-1.3-0.8-1.7c-0.5-0.5-1.3-0.8-2.4-0.9L387.5,371.4z"/>
	<path class="st0" d="M414.3,347.7l13.1,2.7c2.2,0.4,3.5,0.6,4.1,0.5c0.6-0.1,1.2-0.5,1.7-1.1c0.5-0.6,0.9-1.5,1.2-2.7l0.3-1.4
		l1.2,0.2l-4.5,22.1l-1.2-0.2l0.3-1.4c0.2-1.2,0.2-2.3-0.1-3.1c-0.2-0.6-0.6-1.1-1.2-1.5c-0.5-0.3-1.7-0.7-3.8-1.1l-27.7-5.6
		c-2.2-0.4-3.5-0.6-4.1-0.5c-0.6,0.1-1.2,0.5-1.7,1.1c-0.5,0.6-0.9,1.5-1.2,2.7l-0.3,1.4l-1.2-0.2l4.5-22.1l1.2,0.2l-0.3,1.4
		c-0.2,1.2-0.2,2.3,0.1,3.1c0.2,0.6,0.6,1.1,1.2,1.6c0.5,0.3,1.7,0.7,3.8,1.1l11.9,2.4l3-14.9l-11.9-2.4c-2.2-0.4-3.5-0.6-4.1-0.5
		c-0.6,0.1-1.2,0.5-1.7,1.1c-0.5,0.6-0.9,1.5-1.2,2.7l-0.3,1.4l-1.2-0.2l4.5-22l1.2,0.2l-0.3,1.4c-0.3,1.2-0.2,2.3,0.1,3.1
		c0.2,0.6,0.6,1.1,1.2,1.6c0.5,0.3,1.7,0.7,3.8,1.1l27.7,5.6c2.2,0.4,3.5,0.6,4.1,0.5c0.6-0.1,1.2-0.5,1.7-1.1
		c0.5-0.6,0.9-1.5,1.2-2.7l0.3-1.4l1.2,0.2l-4.5,22l-1.2-0.2l0.3-1.4c0.3-1.2,0.2-2.3-0.1-3.1c-0.2-0.6-0.6-1.1-1.2-1.6
		c-0.5-0.3-1.7-0.7-3.8-1.1l-13.1-2.7L414.3,347.7z"/>
	<path class="st0" d="M449.2,299l1.1,0.4l-8.2,21L441,320l0.5-1.3c0.5-1.2,0.6-2.2,0.5-3.1c-0.1-0.6-0.4-1.2-1-1.7
		c-0.4-0.4-1.6-1-3.6-1.8l-26.4-10.3c-2.1-0.8-3.4-1.2-4-1.2c-0.6,0-1.2,0.3-1.9,0.8s-1.2,1.3-1.6,2.5l-0.5,1.3l-1.1-0.4l8.2-21
		l1.1,0.4l-0.5,1.3c-0.5,1.2-0.6,2.2-0.5,3.1c0.1,0.6,0.4,1.2,0.9,1.8c0.4,0.4,1.6,1,3.6,1.8l26.4,10.3c2.1,0.8,3.4,1.2,4,1.2
		c0.6,0,1.2-0.3,1.9-0.8c0.6-0.5,1.2-1.3,1.6-2.5L449.2,299z"/>
	<path class="st0" d="M420.5,263.4l33.8-4.7l-15.9-9.4c-2.2-1.3-3.9-1.9-5.1-1.7c-1.6,0.2-3,1.4-4.1,3.5l-1-0.6l7.2-12.2l1,0.6
		c-0.7,1.7-1.1,2.9-1.1,3.6c0,0.7,0.3,1.5,0.8,2.2s1.7,1.6,3.4,2.6l30.8,18.2l-0.5,0.9l-45.7,6.8l23.5,13.9c2.1,1.3,3.9,1.6,5.2,1.1
		c1.3-0.5,2.4-1.4,3.1-2.7l0.5-0.9l1,0.6l-7.8,13.1l-1-0.6c1.2-2,1.6-3.7,1.3-5c-0.3-1.3-1.5-2.5-3.5-3.7l-26.1-15.5l-1.5,0.2
		c-1.4,0.2-2.5,0.5-3.2,0.9c-0.7,0.4-1.3,1.2-2.1,2.3l-1-0.6L420.5,263.4z"/>
	<path class="st0" d="M498.3,230.7l0.8,0.8l-15.6,16.2l-0.8-0.8l1-1c0.9-0.9,1.4-1.8,1.6-2.6c0.2-0.6,0.1-1.3-0.2-2
		c-0.2-0.5-1.1-1.5-2.6-3l-20.3-19.7c-1.6-1.5-2.7-2.4-3.2-2.6c-0.6-0.2-1.2-0.2-2,0c-0.8,0.2-1.6,0.8-2.4,1.6l-1,1l-0.8-0.8
		l15.6-16.2l0.8,0.8l-1,1c-0.9,0.9-1.4,1.8-1.6,2.6c-0.2,0.6-0.1,1.3,0.2,2c0.2,0.5,1.1,1.5,2.6,3l20.3,19.7
		c1.6,1.5,2.7,2.4,3.2,2.6c0.6,0.2,1.2,0.2,2,0c0.8-0.2,1.6-0.8,2.4-1.6L498.3,230.7z"/>
	<path class="st0" d="M485.7,186.6l33,8.7l-11-14.8c-1.5-2.1-2.9-3.2-4-3.5c-1.5-0.4-3.3,0.2-5.2,1.6l-0.7-0.9l11.4-8.5l0.7,0.9
		c-1.3,1.3-2.1,2.2-2.4,2.9c-0.3,0.7-0.3,1.4-0.1,2.3s0.9,2.1,2.1,3.8l21.4,28.7l-0.9,0.6l-44.7-11.4l16.3,21.9c1.5,2,2.9,3,4.4,3
		c1.4,0,2.7-0.4,3.9-1.3l0.8-0.6l0.7,0.9l-12.2,9.1l-0.7-0.9c1.9-1.4,2.9-2.8,3.1-4.1c0.2-1.3-0.4-2.9-1.8-4.7l-18.1-24.4l-1.4-0.4
		c-1.4-0.4-2.5-0.5-3.3-0.4c-0.8,0.1-1.7,0.6-2.8,1.3l-0.7-0.9L485.7,186.6z"/>
	<path class="st0" d="M535,203.5l-0.5-1.1l1.3-0.6c1.1-0.5,1.9-1.1,2.4-1.7s0.7-1.3,0.7-2.1c0-0.5-0.5-1.7-1.4-3.8l-11.7-25.8
		c-0.9-2-1.6-3.2-2-3.6c-0.4-0.4-1.1-0.6-1.9-0.7c-0.8-0.1-1.8,0.1-2.9,0.6l-1.3,0.6l-0.5-1.1l17.5-8c4.7-2.1,8.7-3.2,12.2-3.2
		c4.2,0,7.9,1.1,11.2,3.5c3.2,2.3,5.8,5.5,7.6,9.5c1.3,2.8,2,5.5,2.1,8.2c0.2,2.7-0.1,5.2-0.8,7.3c-0.7,2.2-1.8,4.1-3.2,5.9
		c-1.4,1.8-3.3,3.5-5.8,5.2c-1.1,0.8-2.9,1.7-5.4,2.9L535,203.5z M533.1,159.8l13.9,30.6c0.7,1.6,1.3,2.6,1.6,2.9
		c0.3,0.3,0.7,0.5,1.2,0.5c0.7,0.1,1.5-0.1,2.5-0.6c3.2-1.5,5.2-3.7,5.9-6.6c1-4,0-9.1-2.8-15.4c-2.3-5-4.9-8.7-7.9-11
		c-2.3-1.8-4.7-2.6-7-2.6C538.7,157.5,536.3,158.3,533.1,159.8z"/>
	<path class="st0" d="M598.3,178.5l0.3,1.1l-21.7,5.8l-0.3-1.1l1.4-0.4c1.2-0.3,2.1-0.8,2.7-1.4c0.5-0.4,0.7-1,0.8-1.8
		c0.1-0.6-0.1-1.9-0.7-4l-7.4-27.3c-0.6-2.1-1-3.4-1.4-3.9c-0.4-0.5-0.9-0.8-1.7-1c-0.8-0.2-1.8-0.2-2.9,0.1l-1.4,0.4l-0.3-1.1
		l21.7-5.8l0.3,1.1l-1.4,0.4c-1.2,0.3-2.1,0.8-2.7,1.4c-0.5,0.4-0.7,1-0.9,1.8c-0.1,0.6,0.1,1.9,0.7,4l7.4,27.3
		c0.6,2.1,1,3.4,1.4,3.9c0.4,0.5,1,0.8,1.8,1c0.8,0.2,1.8,0.2,2.9-0.1L598.3,178.5z"/>
	<path class="st0" d="M624,163.8l-15.1,1.5l-1.4,4.3c-0.5,1.4-0.6,2.6-0.5,3.5c0.1,1.2,0.7,2,1.7,2.5c0.6,0.3,2,0.4,4.3,0.3l0.1,1.2
		l-14.2,1.4l-0.1-1.2c1.5-0.4,2.7-1.1,3.6-2.3c0.9-1.1,1.9-3.4,3-6.8l11.9-35.7l0.6-0.1l18.9,33.6c1.8,3.2,3.2,5.2,4.3,5.9
		c0.8,0.6,1.8,0.9,3.1,0.8l0.1,1.2l-20.7,2l-0.1-1.2l0.9-0.1c1.7-0.2,2.8-0.5,3.4-1c0.4-0.4,0.6-0.9,0.6-1.5c0-0.4-0.1-0.8-0.3-1.1
		c-0.1-0.2-0.5-0.9-1.2-2.3L624,163.8z M622.7,161.6l-7.8-14.1l-5.1,15.4L622.7,161.6z"/>
	<path class="st0" d="M663.8,133.1l18.1,28.9l2.1-18.4c0.3-2.6,0.1-4.3-0.5-5.3c-0.9-1.3-2.5-2.1-4.9-2.3l0.1-1.2l14.1,1.6l-0.1,1.2
		c-1.8,0-3.1,0.2-3.7,0.5c-0.7,0.3-1.2,0.8-1.7,1.6s-0.8,2.2-1,4.2l-4,35.6l-1.1-0.1l-24.9-38.9l-3.1,27.2c-0.3,2.5,0.1,4.2,1.1,5.2
		c1,1,2.3,1.6,3.7,1.7l1,0.1l-0.1,1.2l-15.2-1.7l0.1-1.2c2.4,0.2,4.1-0.1,5.1-0.9s1.7-2.4,1.9-4.7l3.4-30.2l-0.8-1.2
		c-0.8-1.2-1.5-2.1-2.1-2.5c-0.7-0.4-1.6-0.7-2.9-0.9l0.1-1.2L663.8,133.1z"/>
	<path class="st0" d="M759.6,159.1l-5.8,13.7l-1.1-0.5c0.7-3.9,0.2-7.4-1.3-10.3c-1.5-2.9-3.8-5-6.7-6.2c-2.5-1-5-1.3-7.7-0.7
		c-2.7,0.5-5,1.8-6.9,3.7c-2.5,2.4-4.5,5.4-6,9c-1.5,3.5-2.4,7-2.8,10.3s0.1,6.1,1.4,8.4c1.3,2.3,3.4,4.1,6.5,5.4
		c2.5,1.1,5,1.5,7.5,1.3c2.5-0.2,5.5-1.2,8.9-2.9l-1.4,3.4c-3.2,1.4-6.2,2.1-9.1,2.1s-5.9-0.6-9.1-2c-4.2-1.8-7.6-4.2-10.2-7.3
		c-2.6-3.1-4.1-6.6-4.5-10.5c-0.4-3.9,0.1-7.7,1.6-11.3c1.6-3.8,4.1-6.9,7.5-9.5c3.4-2.6,7.2-4.1,11.3-4.5c4.2-0.4,8.1,0.1,11.9,1.7
		c2.8,1.2,5.5,3,8.1,5.5c1.5,1.5,2.5,2.3,3,2.5c0.6,0.3,1.3,0.3,1.9,0c0.7-0.3,1.3-0.9,1.8-1.8L759.6,159.1z"/>
	<path class="st0" d="M789.7,178.9c5.7,3.8,9.1,8.6,10.1,14.6c1,6-0.3,11.5-4.1,16.7c-3.2,4.4-7.3,7.4-12.3,8.9
		c-6.6,2-13.1,0.8-19.4-3.7c-6.3-4.5-9.6-10.1-10-16.9c-0.3-5.3,1.2-10.3,4.5-14.9c3.7-5.2,8.6-8.3,14.6-9.2
		C779.2,173.5,784.7,175,789.7,178.9z M788.9,180.7c-3.2-2.3-6.8-2.4-10.8-0.3c-3.3,1.7-6.7,5.1-10.3,10.1c-4.3,6-6.4,11.1-6.3,15.5
		c0,3,1.4,5.5,4,7.4c1.8,1.3,3.6,1.9,5.4,1.9c2.3,0,4.7-0.9,7.3-2.7c2.6-1.8,5.2-4.7,8-8.6c3.3-4.6,5.4-8.4,6.1-11.3
		s0.8-5.3,0.2-7.2S790.6,182,788.9,180.7z"/>
	<path class="st0" d="M814.9,241.3l29.2-9.3l11.3,13.4l-0.9,0.8l-0.9-1.1c-0.8-1-1.6-1.6-2.5-1.9c-0.6-0.2-1.2-0.2-2,0
		c-0.5,0.1-1.6,0.9-3.3,2.3l-21.7,18.3c-1.7,1.4-2.7,2.4-2.9,2.9s-0.3,1.2-0.2,2c0.1,0.8,0.6,1.7,1.4,2.6l0.9,1.1l-0.9,0.8
		L808,255.9l0.9-0.8l0.9,1.1c0.8,1,1.6,1.6,2.5,1.9c0.6,0.2,1.2,0.2,2,0c0.5-0.1,1.6-0.9,3.3-2.3l24.4-20.5l-40.7,12.6l-0.5-0.6
		l19.1-37.9l-23.2,19.5c-1.6,1.4-2.6,2.2-2.9,2.6c-0.6,0.9-0.9,1.9-0.8,3s0.8,2.5,2,4l-0.9,0.8l-9.5-11.3l0.9-0.8l0.3,0.3
		c0.6,0.7,1.3,1.3,2.1,1.7c0.8,0.4,1.5,0.6,2.2,0.6c0.7,0,1.5-0.3,2.4-0.7c0.2-0.1,1-0.8,2.5-2l20.8-17.5c1.7-1.4,2.6-2.4,2.9-2.9
		c0.3-0.5,0.3-1.2,0.2-2c-0.1-0.8-0.6-1.7-1.4-2.6l-0.9-1l0.9-0.8l11.3,13.5L814.9,241.3z"/>
	<path class="st0" d="M847.9,294.1l30.7-1l7.2,16l-1.1,0.5l-0.6-1.3c-0.5-1.2-1.1-2-1.9-2.5c-0.5-0.4-1.1-0.5-1.9-0.5
		c-0.6,0-1.8,0.4-3.8,1.3l-25.9,11.7c-2,0.9-3.2,1.6-3.6,2c-0.4,0.4-0.6,1.1-0.7,1.9c-0.1,0.8,0.1,1.8,0.6,2.9l0.6,1.3l-1.1,0.5
		l-9.2-20.5l1.1-0.5l0.6,1.3c0.5,1.2,1.1,2,1.9,2.5c0.5,0.4,1.1,0.5,1.9,0.5c0.6,0,1.8-0.4,3.8-1.3l29.1-13.1l-42.6,1.1l-0.3-0.7
		l28.7-31.3l-27.6,12.4c-1.9,0.9-3.1,1.5-3.5,1.7c-0.9,0.7-1.4,1.6-1.6,2.7c-0.2,1.1,0.1,2.6,0.9,4.4l-1.1,0.5l-6-13.4l1.1-0.5
		l0.2,0.4c0.4,0.9,0.9,1.6,1.5,2.2c0.6,0.6,1.3,1,2,1.2c0.7,0.2,1.5,0.1,2.5-0.1c0.2-0.1,1.2-0.5,3-1.3l24.8-11.2
		c2-0.9,3.2-1.6,3.6-2c0.4-0.4,0.6-1.1,0.7-1.9c0.1-0.8-0.1-1.8-0.6-2.9l-0.6-1.2l1.1-0.5l7.2,16L847.9,294.1z"/>
	<path class="st0" d="M888.1,319.6l4,21.9l-1.2,0.2l-0.2-1.1c-0.3-1.6-0.7-2.7-1.1-3.3c-0.5-0.6-1-0.9-1.7-1.1
		c-0.7-0.2-2.2,0-4.6,0.4l-20.7,3.8c-3.8,0.7-6.2,1.4-7.4,2.2c-1.1,0.8-2,1.9-2.5,3.4c-0.6,1.5-0.7,3.2-0.3,5.2
		c0.4,2.3,1.3,4.1,2.6,5.6c1.3,1.4,3,2.4,4.9,2.9c2,0.5,5.2,0.3,9.7-0.5l17.3-3.1c1.9-0.3,3.2-0.8,4-1.3s1.2-1.1,1.4-1.8
		c0.3-1,0.3-2.4,0-4.1l1.2-0.2l2.7,14.6l-1.2,0.2l-0.2-0.9c-0.2-1.2-0.6-2.1-1.3-2.8c-0.6-0.7-1.4-1.1-2.5-1.3
		c-0.7-0.1-1.9-0.1-3.7,0.2l-16.1,2.9c-5,0.9-8.6,1.2-11,1c-2.3-0.3-4.6-1.5-7-3.7c-2.3-2.2-3.9-5.5-4.7-9.9
		c-0.7-3.7-0.7-6.6-0.1-8.8c0.8-3,2.2-5.2,4.1-6.7c1.9-1.5,4.6-2.6,8.1-3.2l20.7-3.8c2.4-0.4,3.9-0.9,4.5-1.2
		c0.5-0.4,0.9-0.9,1.2-1.7c0.2-0.7,0.2-2-0.2-3.8L888.1,319.6z"/>
	<path class="st0" d="M896.2,387.4l-27.3,20.4l18.5,0.5c2.6,0.1,4.3-0.2,5.3-1c1.3-1,1.9-2.7,1.9-5.1l1.2,0l-0.4,14.2l-1.2,0
		c-0.2-1.8-0.4-3.1-0.8-3.7c-0.4-0.6-0.9-1.1-1.8-1.5c-0.8-0.4-2.3-0.6-4.3-0.7l-35.8-1.1l0-1.1l36.7-28l-27.3-0.8
		c-2.5-0.1-4.2,0.4-5.1,1.5c-0.9,1.1-1.4,2.4-1.4,3.8l0,1l-1.2,0l0.5-15.3l1.2,0c0,2.4,0.4,4,1.3,5c0.9,1,2.5,1.5,4.8,1.5l30.4,0.9
		l1.2-0.9c1.2-0.9,1.9-1.7,2.3-2.3c0.4-0.7,0.6-1.7,0.7-3l1.2,0L896.2,387.4z"/>
	<path class="st0" d="M848.3,438.7l-1.2-0.2l4.3-22.1l1.2,0.2l-0.3,1.4c-0.2,1.2-0.2,2.3,0.1,3.1c0.2,0.6,0.6,1.1,1.3,1.5
		c0.5,0.3,1.7,0.7,3.9,1.1l27.8,5.4c2.2,0.4,3.5,0.6,4.1,0.4c0.6-0.1,1.1-0.5,1.7-1.1c0.5-0.6,0.9-1.5,1.2-2.7l0.3-1.4l1.2,0.2
		l-4.3,22.1l-1.2-0.2l0.3-1.4c0.2-1.2,0.2-2.3-0.1-3.1c-0.2-0.6-0.6-1.1-1.2-1.6c-0.5-0.3-1.7-0.7-3.9-1.1l-27.8-5.4
		c-2.2-0.4-3.5-0.6-4.1-0.4c-0.6,0.1-1.1,0.5-1.7,1.1c-0.5,0.6-0.9,1.5-1.2,2.7L848.3,438.7z"/>
	<path class="st0" d="M874.5,491.7l-11-3.9l0.4-1.1c2.8,0.3,4.8,0.2,6.2-0.2c1.4-0.4,2.6-1.1,3.8-2.2c0.6-0.6,1.3-1.9,2-3.8l1.1-3
		l-31.2-11.2c-2.1-0.7-3.4-1.1-4-1.1c-0.6,0-1.2,0.3-1.8,0.9s-1.2,1.4-1.6,2.5l-0.5,1.3l-1.1-0.4l7.6-21.2l1.1,0.4l-0.5,1.3
		c-0.4,1.2-0.6,2.2-0.4,3.1c0.1,0.6,0.4,1.2,1,1.7c0.4,0.4,1.6,1,3.6,1.7l31.2,11.2l1.1-2.9c1-2.7,1.1-4.9,0.4-6.6
		c-1-2.3-2.9-4.2-5.7-5.8l0.4-1.1l11,3.9L874.5,491.7z"/>
	<path class="st0" d="M846.9,539.5l-1-0.6c0.6-1.3,0.8-2.5,0.6-3.4c-0.2-1.4-1.4-4.1-3.6-8.1l-8.4-16.1l-8.9-5.4
		c-1.9-1.2-3.1-1.8-3.7-1.9c-0.6-0.1-1.2,0.1-1.9,0.4c-0.7,0.4-1.4,1-2,2l-1.3,2.1l-1-0.6l12.6-20.6l1,0.6l-1.2,1.9
		c-0.7,1.1-1,2.1-1,2.9c0,0.6,0.2,1.3,0.6,1.9c0.3,0.5,1.4,1.3,3.2,2.4l7.4,4.5l21,1c4.2,0.2,6.7,0.1,7.7-0.3c1-0.4,1.8-1.1,2.6-2.3
		l1,0.6l-10.8,17.6l-1-0.6l0.5-0.8c0.7-1.1,1-1.9,0.9-2.5c0-0.6-0.2-1-0.6-1.2c-0.6-0.4-2.7-0.7-6.2-0.8l-16.2-0.8l7,13.4
		c1.7,3.3,3,5.2,3.9,5.8c0.5,0.3,1,0.3,1.6,0c0.8-0.3,1.8-1.3,2.9-2.9l1,0.6L846.9,539.5z"/>
</g>
<g>
	<path d="M464.7,409.3l20.2-4.9l3.7,15.1l-3.4,0.8l-2.6-10.7l-4.8,1.2l2.2,9.2l-3.4,0.8l-2.2-9.2l-8.6,2.1L464.7,409.3z"/>
	<path d="M479.1,425c2-0.7,3.8-1,5.4-0.9c1.2,0.1,2.3,0.5,3.4,1s2,1.2,2.8,2.1c1,1.1,1.8,2.6,2.5,4.3c1.2,3.1,1.2,6,0.1,8.5
		c-1.1,2.5-3.2,4.4-6.4,5.6c-3.1,1.2-5.9,1.1-8.4-0.1c-2.5-1.2-4.3-3.4-5.4-6.5c-1.2-3.2-1.2-6-0.1-8.5S476,426.2,479.1,425z
		 M480.9,429.4c-2.2,0.8-3.7,2-4.4,3.5c-0.7,1.5-0.8,3.2-0.1,4.9c0.6,1.7,1.7,2.9,3.3,3.6c1.5,0.7,3.4,0.6,5.7-0.2
		c2.2-0.8,3.7-2,4.4-3.5c0.7-1.5,0.7-3.1,0.1-4.9s-1.7-3-3.2-3.7S483.1,428.6,480.9,429.4z"/>
	<path d="M479.3,454l18.4-9.6l4.5,8.6c1.1,2.2,1.8,3.8,2,4.9s0,2.2-0.5,3.3c-0.5,1-1.4,1.8-2.4,2.4c-1.4,0.7-2.8,0.9-4.1,0.5
		c-1.4-0.4-2.6-1.4-3.8-3.1c0,1.1-0.1,2.1-0.4,3c-0.3,0.9-0.9,2.2-1.8,3.9l-2.3,4.3l-2.5-4.9l2.5-5c0.9-1.8,1.4-3,1.6-3.6
		c0.2-0.6,0.2-1.1,0.1-1.6c-0.1-0.5-0.4-1.2-0.9-2.2l-0.4-0.8l-7.7,4L479.3,454z M492.1,452.5l1.6,3c1,1.9,1.7,3.1,2.1,3.5
		c0.4,0.4,0.9,0.7,1.4,0.7c0.5,0.1,1,0,1.6-0.3c0.6-0.3,1-0.8,1.2-1.3c0.2-0.6,0.2-1.2-0.1-1.9c-0.1-0.4-0.6-1.4-1.5-3l-1.7-3.2
		L492.1,452.5z"/>
	<path d="M507.9,498.7l-3-4l2.6-4.4l-5.5-7.2l-4.9,1.4l-2.9-3.9L516,475l2.9,3.9L507.9,498.7z M509.3,487l4.2-7.1l-8,2.2L509.3,487z
		"/>
	<path d="M530.4,492.5l6.6,6.2c1.3,1.2,2.2,2.2,2.8,2.9c0.6,0.7,0.9,1.4,1.2,2.2c0.2,0.8,0.2,1.6,0.1,2.5c-0.2,0.8-0.5,1.6-1.1,2.3
		c-0.7,0.7-1.5,1.2-2.5,1.4c-1,0.2-2,0.1-3-0.3c0.8,1.2,1.1,2.4,1.1,3.6c-0.1,1.2-0.5,2.2-1.3,3c-0.6,0.7-1.4,1.2-2.4,1.5
		c-1,0.3-1.9,0.4-2.9,0.2s-1.9-0.6-2.9-1.4c-0.6-0.5-2-1.7-4.1-3.7l-5.7-5.3L530.4,492.5z M525.8,504.2l-3.8,4.1l3.1,2.9
		c1.2,1.1,2,1.8,2.4,2c0.6,0.4,1.2,0.6,1.8,0.5c0.6,0,1.2-0.3,1.7-0.9c0.4-0.5,0.7-1,0.7-1.5c0.1-0.5-0.1-1.1-0.4-1.7
		c-0.3-0.6-1.2-1.6-2.8-3L525.8,504.2z M531.4,498.1l-3.3,3.5l2.2,2c1.3,1.2,2.1,2,2.5,2.2c0.6,0.5,1.3,0.7,1.9,0.7
		c0.6,0,1.1-0.2,1.6-0.7c0.4-0.5,0.7-1,0.6-1.5c0-0.6-0.3-1.1-0.8-1.7c-0.3-0.3-1.2-1.3-2.8-2.7L531.4,498.1z"/>
	<path d="M534.5,524.1l12-17l7.9,5.6c2,1.4,3.3,2.6,4,3.5c0.7,0.9,1,2,1,3.1s-0.4,2.2-1.1,3.2c-0.9,1.3-2.1,2-3.5,2.3
		c-1.4,0.3-3-0.1-4.8-1c0.5,1,0.8,2,1,2.8c0.2,0.9,0.2,2.3,0.2,4.3l-0.1,4.9l-4.5-3.2l-0.1-5.6c0-2-0.1-3.3-0.2-3.9
		c-0.1-0.6-0.3-1.1-0.6-1.5c-0.3-0.4-0.9-0.9-1.7-1.5l-0.8-0.5l-5,7.1L534.5,524.1z M545.2,517l2.8,2c1.8,1.3,3,2,3.5,2.2
		c0.5,0.2,1.1,0.2,1.6,0s0.9-0.5,1.3-1c0.4-0.6,0.6-1.1,0.5-1.7s-0.4-1.1-0.9-1.7c-0.3-0.3-1.2-0.9-2.7-2l-2.9-2.1L545.2,517z"/>
	<path d="M554.4,537.5l10.3-18l4,2.3l-10.3,18L554.4,537.5z"/>
	<path d="M576.1,540l1.4-3.2l9,4l-3.3,7.6c-1.2,0.4-2.8,0.5-4.7,0.4c-1.9-0.1-3.7-0.6-5.5-1.4c-2.2-1-3.9-2.2-5.1-3.8
		s-1.9-3.3-2.1-5.2c-0.1-1.9,0.2-3.8,1-5.6c0.9-2,2.1-3.5,3.7-4.7c1.6-1.1,3.4-1.7,5.5-1.8c1.6,0,3.4,0.4,5.4,1.3
		c2.6,1.1,4.4,2.5,5.4,4.2c1,1.6,1.3,3.4,1,5.3l-4.5-1.1c0.1-1.1-0.1-2-0.7-2.9c-0.6-0.9-1.5-1.6-2.7-2.1c-1.8-0.8-3.5-0.9-5.1-0.3
		c-1.6,0.6-2.8,1.9-3.7,4c-1,2.3-1.2,4.2-0.6,5.8s1.8,2.8,3.6,3.6c0.9,0.4,1.8,0.6,2.9,0.7s1.9,0,2.8-0.1l1.1-2.4L576.1,540z"/>
	<path d="M587.9,552.9l5.5-20l4.4,1.2l-2.2,7.9l8.7,2.4l2.2-7.9l4.4,1.2l-5.5,20l-4.4-1.2l2.4-8.8l-8.7-2.4l-2.4,8.8L587.9,552.9z"
		/>
	<path d="M616.8,559.6l2.3-17.1l-6.7-0.9l0.5-3.5l17.9,2.4l-0.5,3.5l-6.7-0.9l-2.3,17.1L616.8,559.6z"/>
	<path d="M632.8,561.2l0.4-20.8l16.8,0.3l-0.1,3.5l-12.2-0.2l-0.1,4.6l11.4,0.2l-0.1,3.5l-11.4-0.2l-0.1,5.6l12.7,0.2l-0.1,3.5
		L632.8,561.2z"/>
	<path d="M655.5,561l-2.8-20.6l9.6-1.3c2.4-0.3,4.2-0.4,5.3-0.2c1.1,0.2,2.1,0.8,2.9,1.6c0.8,0.9,1.3,1.9,1.4,3.1
		c0.2,1.5-0.1,2.9-1,4s-2.3,2-4.2,2.5c1.1,0.4,1.9,0.9,2.7,1.4c0.7,0.5,1.7,1.5,3,3l3.3,3.6l-5.4,0.7l-3.9-4
		c-1.4-1.4-2.3-2.3-2.8-2.7s-1-0.6-1.5-0.7c-0.5-0.1-1.3-0.1-2.3,0.1l-0.9,0.1l1.2,8.6L655.5,561z M658.5,548.5l3.4-0.5
		c2.2-0.3,3.5-0.6,4-0.8c0.5-0.2,0.9-0.6,1.2-1c0.3-0.5,0.3-1,0.2-1.6c-0.1-0.7-0.4-1.2-0.8-1.6c-0.5-0.4-1.1-0.6-1.8-0.6
		c-0.4,0-1.5,0.1-3.3,0.4l-3.5,0.5L658.5,548.5z"/>
	<path d="M693.9,553.1l-5.5-16.3l-6.4,2.2l-1.1-3.3l17.1-5.8l1.1,3.3l-6.4,2.2l5.5,16.3L693.9,553.1z"/>
	<path d="M703,539.2c-0.9-1.9-1.4-3.6-1.4-5.2c0-1.2,0.2-2.3,0.6-3.5c0.4-1.1,1-2.1,1.8-3c1-1.1,2.4-2.1,4-2.9c3-1.5,5.8-1.8,8.5-1
		c2.6,0.8,4.7,2.7,6.2,5.8c1.5,3,1.8,5.8,0.8,8.4c-0.9,2.6-2.9,4.6-5.9,6.1c-3,1.5-5.8,1.8-8.5,1C706.6,544,704.5,542.2,703,539.2z
		 M707.2,537c1,2.1,2.4,3.4,4,4c1.6,0.6,3.2,0.4,4.9-0.4s2.7-2,3.2-3.6s0.2-3.5-0.8-5.6c-1.1-2.1-2.4-3.5-3.9-4
		c-1.5-0.5-3.2-0.4-4.9,0.4c-1.7,0.8-2.8,2-3.3,3.6C705.9,533,706.2,534.8,707.2,537z"/>
	<path d="M732.1,535.8l-12-17l5.6-4l11.5,9.2l-4.8-13.9l5.6-4l12,17l-3.5,2.5l-9.4-13.3l5.8,15.9l-3.6,2.5l-13.1-10.8l9.4,13.3
		L732.1,535.8z"/>
	<path d="M747.2,512.2c-1.5-1.5-2.4-3-2.9-4.6c-0.4-1.1-0.5-2.3-0.4-3.5c0.1-1.2,0.3-2.4,0.8-3.4c0.6-1.4,1.6-2.7,3-4
		c2.4-2.3,5-3.5,7.8-3.5c2.8,0,5.3,1.2,7.7,3.6c2.3,2.4,3.4,5,3.3,7.7c-0.1,2.7-1.4,5.3-3.8,7.6c-2.4,2.3-5,3.5-7.8,3.5
		C752,515.7,749.4,514.5,747.2,512.2z M750.5,508.8c1.6,1.7,3.3,2.6,5,2.6c1.7,0.1,3.2-0.6,4.5-1.8c1.3-1.3,2-2.7,2-4.4
		c0-1.7-0.8-3.4-2.5-5.1c-1.6-1.7-3.3-2.6-4.9-2.7c-1.6-0.1-3.1,0.6-4.5,1.9c-1.4,1.3-2.1,2.8-2.1,4.4
		C748,505.4,748.8,507.1,750.5,508.8z"/>
	<path d="M773.6,500.3l-16.2-12.9l6-7.6c1.5-1.9,2.8-3.2,3.7-3.8c1-0.6,2-0.9,3.2-0.8c1.2,0.1,2.2,0.5,3.2,1.3
		c1.2,1,1.9,2.2,2.1,3.6c0.2,1.4-0.3,3-1.3,4.7c1-0.4,2-0.7,2.9-0.8s2.3-0.1,4.3,0.1l4.9,0.3l-3.4,4.3l-5.6-0.2
		c-2-0.1-3.3-0.1-3.9,0c-0.6,0.1-1.1,0.3-1.5,0.5c-0.4,0.3-1,0.8-1.6,1.7l-0.6,0.7l6.8,5.4L773.6,500.3z M767.1,489.2l2.1-2.7
		c1.4-1.7,2.2-2.8,2.4-3.4c0.2-0.5,0.2-1.1,0.1-1.6c-0.1-0.5-0.4-0.9-0.9-1.3c-0.5-0.4-1.1-0.6-1.7-0.6c-0.6,0.1-1.2,0.3-1.7,0.8
		c-0.3,0.3-1,1.1-2.1,2.6L763,486L767.1,489.2z"/>
	<path d="M788.6,480.8l-17.7-10.8l5-8.2c1.3-2.1,2.3-3.5,3.2-4.2c0.9-0.7,1.9-1.2,3.1-1.2c1.2-0.1,2.3,0.2,3.3,0.8
		c1.3,0.8,2.2,1.9,2.5,3.3c0.3,1.4,0.1,3-0.7,4.8c1-0.6,1.9-1,2.8-1.2c0.9-0.2,2.3-0.4,4.2-0.5l4.9-0.3l-2.8,4.7l-5.6,0.5
		c-2,0.2-3.3,0.3-3.9,0.5c-0.6,0.2-1.1,0.4-1.5,0.7c-0.4,0.3-0.9,1-1.4,1.9l-0.5,0.8l7.4,4.5L788.6,480.8z M780.7,470.7l1.8-2.9
		c1.1-1.9,1.8-3.1,1.9-3.7c0.1-0.6,0.1-1.1-0.1-1.6c-0.2-0.5-0.6-0.9-1.1-1.2c-0.6-0.4-1.2-0.5-1.8-0.4c-0.6,0.1-1.1,0.5-1.6,1.1
		c-0.2,0.3-0.8,1.2-1.8,2.8l-1.9,3.1L780.7,470.7z"/>
	<path d="M791.2,456.4c-1.9-0.9-3.4-1.9-4.4-3.1c-0.8-0.9-1.3-1.9-1.7-3.1c-0.4-1.2-0.6-2.3-0.5-3.4c0.1-1.5,0.5-3.1,1.2-4.8
		c1.4-3.1,3.3-5.1,5.9-6.2c2.5-1.1,5.4-0.9,8.5,0.4c3.1,1.4,5.1,3.3,6,5.9c0.9,2.6,0.7,5.4-0.6,8.5c-1.4,3.1-3.3,5.2-5.8,6.2
		C797,457.9,794.3,457.7,791.2,456.4z M793,452c2.1,1,4,1.1,5.6,0.5c1.6-0.6,2.8-1.7,3.5-3.4c0.7-1.7,0.8-3.3,0.2-4.8
		c-0.6-1.6-2-2.8-4.2-3.8c-2.2-1-4-1.2-5.6-0.6c-1.5,0.6-2.7,1.7-3.4,3.4c-0.8,1.7-0.8,3.4-0.2,4.9C789.4,449.8,790.8,451,793,452z"
		/>
	<path d="M812.3,432.2l-21.5-0.3l1.3-4.5l14.7,0.5l-12.6-7.8l1.5-5.3l15,0.1l-13-7.2l1.2-4.4l18.5,10.9l-1.3,4.7l-16.2,0.2l13.7,8.5
		L812.3,432.2z"/>
</g>
<path d="M548.5,330.9c13.8,0,24.9-12.1,24.9-27.1h-49.8C523.5,318.8,534.7,330.9,548.5,330.9z"/>
<g>
	<g>
		<polygon class="st1" points="585.9,408.4 510.2,383.7 583.5,413.9 		"/>
		<polygon class="st1" points="595.8,388.6 549.8,346.9 605.4,383.4 		"/>
		<polygon class="st1" points="619.8,376.5 593,301.1 627.3,375.3 		"/>
		<polygon class="st1" points="656.9,374.2 688.4,301.1 663,377.3 		"/>
		<polygon class="st1" points="675.9,385.6 731.3,345.7 682.6,394.8 		"/>
		<polygon class="st1" points="694,408.1 773.7,382.6 695.9,419.9 		"/>
	</g>
	<path class="st1" d="M640.6,369.5c-33.7,0-61,25.2-61,56.3h122C701.6,394.7,674.3,369.5,640.6,369.5z"/>
</g>
<polygon points="523.5,303.8 546.5,280.9 552.7,280.9 573.4,303.8 566.7,303.8 550.7,285.3 546.3,285.3 530.4,303.8 "/>
<path d="M733.6,330.9c13.8,0,24.9-12.1,24.9-27.1h-49.8C708.7,318.8,719.9,330.9,733.6,330.9z"/>
<polygon points="708.7,303.8 731.6,280.9 737.9,280.9 758.5,303.8 751.8,303.8 735.9,285.3 731.5,285.3 715.5,303.8 "/>
<rect x="546.5" y="278.8" width="191.4" height="2.1"/>
<polyline points="643.3,439.6 643.3,303.5 650.1,303.5 643.4,289.8 643.4,280.9 638.5,280.9 638.5,290.1 631.8,303.3 638.9,303.3 
	638.9,439.3 627.3,446.8 627.3,457.7 635.1,451 638.9,451 638.9,457.7 634.3,457.7 627.6,464.7 627.6,473.5 634.9,466.7 
	638.9,466.7 638.9,471.1 627.3,478.4 627.3,491.8 641.1,484.8 654.9,491.8 654.9,478 647.8,471.2 643.3,471.2 643.3,466.6 
	647.8,466.6 654.9,473.6 654.9,464.5 647.6,457.5 643.4,457.5 643.4,450.7 648,450.7 654.6,457.4 654.6,446.3 "/>
<polygon points="628.2,349.6 573.4,374.2 609,352.4 609,350.9 593,350.9 626,337.1 626,335 593.6,321.6 607.3,321.6 607.3,319.2 
	580.2,299.4 621.1,319.3 625.7,322.3 625.7,324.1 618.5,324.1 618.5,326.4 638.9,330.9 638.9,339.8 626.3,344.4 618.5,344.4 
	618.5,346.6 625.3,346.6 "/>
<polygon points="652.8,349.6 707.6,374.2 671.9,352.4 671.9,350.9 687.9,350.9 654.9,337.1 654.9,335 687.4,321.6 673.6,321.6 
	673.6,319.2 700.7,299.4 659.9,319.3 655.3,322.3 655.3,324.1 662.5,324.1 662.5,326.4 642,330.9 642,339.8 654.7,344.4 
	662.4,344.4 662.4,346.6 655.7,346.6 "/>
<g>
	<path d="M619.4,521.7h-4.1v-15.5c-1.5,1.4-3.3,2.4-5.3,3.1v-3.7c1.1-0.4,2.2-1,3.5-2c1.3-1,2.1-2.1,2.6-3.4h3.3V521.7z"/>
	<path d="M625.6,516.7l4-0.4c0.1,0.8,0.4,1.4,0.8,1.8s1,0.6,1.6,0.6c0.8,0,1.6-0.4,2.2-1.2s1-2.4,1.1-4.9c-1,1.2-2.3,1.8-3.9,1.8
		c-1.7,0-3.1-0.7-4.4-2c-1.2-1.3-1.8-3-1.8-5.1c0-2.2,0.6-3.9,1.9-5.3c1.3-1.3,2.9-2,4.9-2c2.2,0,4,0.8,5.4,2.5
		c1.4,1.7,2.1,4.5,2.1,8.3c0,3.9-0.7,6.8-2.2,8.5s-3.3,2.6-5.7,2.6c-1.7,0-3-0.4-4.1-1.3C626.6,519.8,625.9,518.5,625.6,516.7z
		 M635,507.7c0-1.3-0.3-2.4-0.9-3.1s-1.3-1.1-2.1-1.1c-0.8,0-1.4,0.3-1.9,0.9c-0.5,0.6-0.8,1.6-0.8,3c0,1.4,0.3,2.4,0.8,3.1
		s1.2,1,2.1,1c0.8,0,1.5-0.3,2-0.9S635,508.9,635,507.7z"/>
	<path d="M656.2,505.5l-4,0.4c-0.1-0.8-0.4-1.4-0.8-1.8s-0.9-0.6-1.6-0.6c-0.9,0-1.6,0.4-2.2,1.2s-1,2.4-1.1,4.9
		c1-1.2,2.3-1.8,3.8-1.8c1.7,0,3.2,0.7,4.4,2s1.8,3,1.8,5.1c0,2.2-0.6,4-1.9,5.3s-2.9,2-5,2c-2.2,0-4-0.8-5.3-2.5
		c-1.4-1.7-2.1-4.4-2.1-8.3c0-3.9,0.7-6.8,2.2-8.5s3.3-2.6,5.7-2.6c1.6,0,3,0.5,4.1,1.4C655.2,502.4,655.9,503.7,656.2,505.5z
		 M646.8,514.4c0,1.3,0.3,2.4,0.9,3.1c0.6,0.7,1.3,1.1,2.1,1.1c0.8,0,1.4-0.3,1.9-0.9s0.8-1.6,0.8-2.9c0-1.4-0.3-2.4-0.8-3.1
		c-0.5-0.6-1.2-1-2.1-1c-0.8,0-1.5,0.3-2,0.9S646.8,513.2,646.8,514.4z"/>
	<path d="M669.5,521.7h-4.1v-15.5c-1.5,1.4-3.3,2.4-5.3,3.1v-3.7c1.1-0.4,2.2-1,3.5-2c1.3-1,2.1-2.1,2.6-3.4h3.3V521.7z"/>
</g>
</svg>
