<?xml version="1.0" encoding="UTF-8"?>
<!DOCTYPE svg PUBLIC "-//W3C//DTD SVG 1.1//EN" "http://www.w3.org/Graphics/SVG/1.1/DTD/svg11.dtd">
<svg xmlns="http://www.w3.org/2000/svg" version="1.1" width="150px" height="148px" style="shape-rendering:geometricPrecision; text-rendering:geometricPrecision; image-rendering:optimizeQuality; fill-rule:evenodd; clip-rule:evenodd" xmlns:xlink="http://www.w3.org/1999/xlink">
<g><path style="opacity:1" fill="#fcfcfc" d="M -0.5,-0.5 C 49.5,-0.5 99.5,-0.5 149.5,-0.5C 149.5,48.8333 149.5,98.1667 149.5,147.5C 99.5,147.5 49.5,147.5 -0.5,147.5C -0.5,98.1667 -0.5,48.8333 -0.5,-0.5 Z"/></g>
<g><path style="opacity:1" fill="#52534d" d="M 136.5,39.5 C 118.224,11.6987 92.5578,0.198684 59.5,5C 42.8944,9.39209 29.0611,18.2254 18,31.5C 14.6359,36.1082 12.1359,41.1082 10.5,46.5C 7.45647,51.303 5.62314,56.6363 5,62.5C 3.94486,72.9599 4.61152,83.2932 7,93.5C 9.35827,100.086 12.1916,106.42 15.5,112.5C 14.2058,111.71 13.0391,110.71 12,109.5C 3.37804,94.6114 0.378042,78.6114 3,61.5C 8.72885,35.8635 23.5622,17.6969 47.5,7C 83.3544,-4.4904 112.521,4.67626 135,34.5C 136.009,36.0249 136.509,37.6916 136.5,39.5 Z"/></g>
<g><path style="opacity:1" fill="#eeedea" d="M 136.5,39.5 C 139.995,47.1576 142.328,55.1576 143.5,63.5C 143.5,65.1667 143.5,66.8333 143.5,68.5C 142.849,67.9094 142.182,67.2427 141.5,66.5C 140.784,67.311 139.95,67.9777 139,68.5C 136.02,67.659 133.187,67.3256 130.5,67.5C 130.768,65.901 130.434,64.5676 129.5,63.5C 128.964,55.4303 125.964,48.4303 120.5,42.5C 117.887,36.887 113.887,32.5537 108.5,29.5C 108.027,28.0937 107.027,27.427 105.5,27.5C 105.092,26.3569 104.425,25.3569 103.5,24.5C 85.41,15.7501 67.0767,15.2501 48.5,23C 47.6195,23.7083 46.9528,24.5416 46.5,25.5C 36.0718,30.9267 28.4051,38.9267 23.5,49.5C 21.3875,52.8337 20.0541,56.5003 19.5,60.5C 17.3703,61.9641 16.037,63.9641 15.5,66.5C 14.1667,66.5 12.8333,66.5 11.5,66.5C 11.719,65.325 11.3857,64.325 10.5,63.5C 9.66667,64.5 8.83333,65.5 8,66.5C 7.83333,66 7.66667,65.5 7.5,65C 7.85584,61.5642 8.02251,58.0642 8,54.5C 9.01127,55.3366 10.1779,55.67 11.5,55.5C 11.5111,53.4534 11.8444,51.4534 12.5,49.5C 12.0576,48.2613 11.3909,47.2613 10.5,46.5C 12.1359,41.1082 14.6359,36.1082 18,31.5C 29.0611,18.2254 42.8944,9.39209 59.5,5C 92.5578,0.198684 118.224,11.6987 136.5,39.5 Z"/></g>
<g><path style="opacity:1" fill="#393b35" d="M 106.5,15.5 C 107.497,15.4701 108.164,15.9701 108.5,17C 108.05,18.2853 107.383,19.452 106.5,20.5C 107.263,21.7193 108.263,22.7193 109.5,23.5C 107.288,24.0469 105.621,23.0469 104.5,20.5C 105.456,18.9246 106.123,17.258 106.5,15.5 Z"/></g>
<g><path style="opacity:1" fill="#34352f" d="M 99.5,13.5 C 100.5,13.5 101.5,13.5 102.5,13.5C 102.662,15.5273 102.495,17.5273 102,19.5C 100.352,18.283 98.519,17.4497 96.5,17C 97.7101,15.9609 98.7101,14.7942 99.5,13.5 Z"/></g>
<g><path style="opacity:1" fill="#2f332c" d="M 89.5,9.5 C 91.9267,9.52304 94.26,10.023 96.5,11C 95.1667,11.3333 93.8333,11.6667 92.5,12C 93.1667,12.3333 93.8333,12.6667 94.5,13C 89.222,12.6206 89.222,13.6206 94.5,16C 92.5116,16.1805 90.5116,16.0138 88.5,15.5C 88.8333,13.5 89.1667,11.5 89.5,9.5 Z"/></g>
<g><path style="opacity:1" fill="#37342a" d="M 81.5,7.5 C 83.4672,7.26057 85.3005,7.59391 87,8.5C 87.6667,9.16667 87.6667,9.83333 87,10.5C 85.561,8.98607 84.061,8.65273 82.5,9.5C 84.2873,10.316 85.9539,11.316 87.5,12.5C 85.0501,14.9585 82.3835,15.1252 79.5,13C 81.3126,13.0464 82.9793,12.8797 84.5,12.5C 81.2049,11.9216 80.2049,10.2549 81.5,7.5 Z"/></g>
<g><path style="opacity:1" fill="#46453d" d="M 62.5,8.5 C 65.9146,9.36379 67.248,11.3638 66.5,14.5C 64.5041,13.3904 62.6708,13.7237 61,15.5C 60.3911,12.9348 60.8911,10.6015 62.5,8.5 Z"/></g>
<g><path style="opacity:1" fill="#30342a" d="M 52.5,10.5 C 57.5917,10.4968 57.5917,11.3301 52.5,13C 53.8989,13.5946 55.2322,13.4279 56.5,12.5C 56.8333,12.6667 57.1667,12.8333 57.5,13C 56.6721,13.9147 55.6721,14.5814 54.5,15C 56.0846,15.0848 57.4179,15.2514 58.5,15.5C 52.2752,18.9427 50.2752,17.276 52.5,10.5 Z"/></g>
<g><path style="opacity:1" fill="#26221f" d="M 45.5,14.5 C 46.5676,13.5655 47.901,13.2322 49.5,13.5C 49.2865,15.1439 49.6198,16.6439 50.5,18C 48.8034,18.3845 47.1368,18.2178 45.5,17.5C 46.0906,16.8485 46.7573,16.1818 47.5,15.5C 47.0431,14.7025 46.3764,14.3691 45.5,14.5 Z"/></g>
<g><path style="opacity:1" fill="#464743" d="M 71.5,6.5 C 72.675,6.28099 73.675,6.61432 74.5,7.5C 73.1735,9.31132 72.1735,11.3113 71.5,13.5C 70.7515,11.6675 69.7515,10.0009 68.5,8.5C 69.6016,7.82434 70.6016,7.15767 71.5,6.5 Z"/></g>
<g><path style="opacity:1" fill="#4a4b43" d="M 45.5,14.5 C 46.3764,14.3691 47.0431,14.7025 47.5,15.5C 46.7573,16.1818 46.0906,16.8485 45.5,17.5C 44.6955,21.3169 42.3621,23.9836 38.5,25.5C 33.2264,22.7494 33.393,20.0827 39,17.5C 40.584,17.9884 41.7506,18.9884 42.5,20.5C 43.3473,18.939 43.0139,17.439 41.5,16C 42.5634,14.8118 43.8967,14.3118 45.5,14.5 Z"/></g>
<g><path style="opacity:1" fill="#d8d3cd" d="M 37.5,19.5 C 38.9311,20.0819 40.2644,20.9152 41.5,22C 37.8341,24.2997 36.5008,23.4663 37.5,19.5 Z"/></g>
<g><path style="opacity:1" fill="#696b64" d="M 105.5,27.5 C 85.922,17.3202 66.2554,16.9869 46.5,26.5C 46.5,26.1667 46.5,25.8333 46.5,25.5C 46.9528,24.5416 47.6195,23.7083 48.5,23C 67.0767,15.2501 85.41,15.7501 103.5,24.5C 104.425,25.3569 105.092,26.3569 105.5,27.5 Z"/></g>
<g><path style="opacity:1" fill="#2f2f2b" d="M 105.5,27.5 C 107.027,27.427 108.027,28.0937 108.5,29.5C 106.973,29.573 105.973,28.9063 105.5,27.5 Z"/></g>
<g><path style="opacity:1" fill="#efeeeb" d="M 105.5,27.5 C 105.973,28.9063 106.973,29.573 108.5,29.5C 112.528,33.8593 116.528,38.1927 120.5,42.5C 122.701,46.2403 124.368,50.2403 125.5,54.5C 122.994,53.2504 120.327,52.5838 117.5,52.5C 112.964,52.2189 108.297,51.5522 103.5,50.5C 103.5,49.5 103.5,48.5 103.5,47.5C 104.873,47.6567 106.207,47.49 107.5,47C 106.663,45.9887 106.33,44.8221 106.5,43.5C 107.767,44.087 108.767,44.087 109.5,43.5C 108.975,42.8076 108.308,42.3076 107.5,42C 107.833,41.6667 108.167,41.3333 108.5,41C 106.963,39.8904 106.297,38.3904 106.5,36.5C 105.82,32.1533 103.32,29.4867 99,28.5C 93.6486,28.3908 90.1486,30.7241 88.5,35.5C 87.1526,34.9717 85.8193,34.805 84.5,35C 85.5762,36.7261 85.7429,38.5594 85,40.5C 83.6439,39.6198 82.1439,39.2865 80.5,39.5C 78.901,39.7678 77.5676,39.4345 76.5,38.5C 73.7067,38.254 70.7067,38.0873 67.5,38C 66.9341,37.0053 66.2674,36.172 65.5,35.5C 64.8333,35.5 64.5,35.1667 64.5,34.5C 66.5859,31.5059 66.2526,28.5059 63.5,25.5C 60.2303,28.2873 57.2303,31.2873 54.5,34.5C 52.1862,36.4773 49.8528,38.4773 47.5,40.5C 46.394,38.7156 46.394,36.8822 47.5,35C 47.1639,33.9701 46.4972,33.4701 45.5,33.5C 45.189,32.5222 44.5223,31.8555 43.5,31.5C 40.5268,32.8103 38.1935,34.8103 36.5,37.5C 37.3947,41.1921 39.5613,42.1921 43,40.5C 45.698,44.0247 48.5314,47.3581 51.5,50.5C 47.8333,51.1667 44.1667,51.8333 40.5,52.5C 34.9921,52.1506 29.6587,52.8173 24.5,54.5C 23.9035,53.0646 23.9035,51.398 24.5,49.5C 29.7839,39.8826 37.1172,32.2159 46.5,26.5C 66.2554,16.9869 85.922,17.3202 105.5,27.5 Z"/></g>
<g><path style="opacity:1" fill="#4d4c4b" d="M 108.5,29.5 C 113.887,32.5537 117.887,36.887 120.5,42.5C 116.528,38.1927 112.528,33.8593 108.5,29.5 Z"/></g>
<g><path style="opacity:1" fill="#24291c" d="M 64.5,34.5 C 63.4168,34.5394 62.4168,34.8728 61.5,35.5C 60.3006,32.4903 58.9673,32.1569 57.5,34.5C 56.3478,35.625 55.3478,35.625 54.5,34.5C 57.2303,31.2873 60.2303,28.2873 63.5,25.5C 66.2526,28.5059 66.5859,31.5059 64.5,34.5 Z"/></g>
<g><path style="opacity:1" fill="#6b715a" d="M 64.5,34.5 C 64.5,35.1667 64.8333,35.5 65.5,35.5C 65.4606,36.5832 65.1272,37.5832 64.5,38.5C 64.8457,39.6956 65.3457,39.6956 66,38.5C 66.4643,39.0944 66.631,39.7611 66.5,40.5C 66.1667,40.5 65.8333,40.5 65.5,40.5C 62.8518,38.5244 60.1851,36.5244 57.5,34.5C 58.9673,32.1569 60.3006,32.4903 61.5,35.5C 62.4168,34.8728 63.4168,34.5394 64.5,34.5 Z"/></g>
<g><path style="opacity:1" fill="#514f4b" d="M 46.5,25.5 C 46.5,25.8333 46.5,26.1667 46.5,26.5C 37.1172,32.2159 29.7839,39.8826 24.5,49.5C 24.1667,49.5 23.8333,49.5 23.5,49.5C 28.4051,38.9267 36.0718,30.9267 46.5,25.5 Z"/></g>
<g><path style="opacity:1" fill="#67655b" d="M 45.5,33.5 C 46.4972,33.4701 47.1639,33.9701 47.5,35C 46.394,36.8822 46.394,38.7156 47.5,40.5C 49.8528,38.4773 52.1862,36.4773 54.5,34.5C 55.3478,35.625 56.3478,35.625 57.5,34.5C 57.5106,36.0174 58.1772,37.1841 59.5,38C 58.9558,38.7172 58.2891,39.2172 57.5,39.5C 56.8423,38.6016 56.1757,37.6016 55.5,36.5C 47.4305,39.3915 46.7638,43.2248 53.5,48C 52.944,48.3826 52.6107,48.8826 52.5,49.5C 51.8333,49.5 51.5,49.8333 51.5,50.5C 48.5314,47.3581 45.698,44.0247 43,40.5C 39.5613,42.1921 37.3947,41.1921 36.5,37.5C 38.1935,34.8103 40.5268,32.8103 43.5,31.5C 44.5223,31.8555 45.189,32.5222 45.5,33.5 Z"/></g>
<g><path style="opacity:1" fill="#e7e9de" d="M 45.5,33.5 C 45.4048,36.2723 44.0715,38.2723 41.5,39.5C 40.5853,38.6721 39.9186,37.6721 39.5,36.5C 41.0712,34.585 43.0712,33.585 45.5,33.5 Z"/></g>
<g><path style="opacity:1" fill="#aca095" d="M 65.5,35.5 C 66.2674,36.172 66.9341,37.0053 67.5,38C 70.7067,38.0873 73.7067,38.254 76.5,38.5C 73.9039,39.2653 71.2372,39.5987 68.5,39.5C 69.1463,43.2805 68.4796,46.9472 66.5,50.5C 65.6322,47.0645 65.6322,43.7312 66.5,40.5C 66.631,39.7611 66.4643,39.0944 66,38.5C 65.3457,39.6956 64.8457,39.6956 64.5,38.5C 65.1272,37.5832 65.4606,36.5832 65.5,35.5 Z"/></g>
<g><path style="opacity:1" fill="#9b9c84" d="M 57.5,34.5 C 60.1851,36.5244 62.8518,38.5244 65.5,40.5C 64.1579,43.1658 62.3245,45.4992 60,47.5C 58.2687,45.1382 57.4354,42.4715 57.5,39.5C 58.2891,39.2172 58.9558,38.7172 59.5,38C 58.1772,37.1841 57.5106,36.0174 57.5,34.5 Z"/></g>
<g><path style="opacity:1" fill="#eeeee5" d="M 57.5,39.5 C 57.4354,42.4715 58.2687,45.1382 60,47.5C 62.3245,45.4992 64.1579,43.1658 65.5,40.5C 65.8333,40.5 66.1667,40.5 66.5,40.5C 65.6322,43.7312 65.6322,47.0645 66.5,50.5C 63.7131,51.4767 60.7131,51.81 57.5,51.5C 56.4324,50.5655 55.099,50.2322 53.5,50.5C 52.8333,50.5 52.5,50.1667 52.5,49.5C 52.6107,48.8826 52.944,48.3826 53.5,48C 46.7638,43.2248 47.4305,39.3915 55.5,36.5C 56.1757,37.6016 56.8423,38.6016 57.5,39.5 Z"/></g>
<g><path style="opacity:1" fill="#6d6a60" d="M 106.5,36.5 C 104.525,33.6945 102.025,31.3612 99,29.5C 96.4331,30.27 93.9331,31.27 91.5,32.5C 89.9158,35.5158 89.2492,38.5158 89.5,41.5C 91.421,43.8374 93.7543,45.6707 96.5,47C 93.083,47.8756 90.583,46.709 89,43.5C 88.0584,40.7288 87.8917,38.0621 88.5,35.5C 90.1486,30.7241 93.6486,28.3908 99,28.5C 103.32,29.4867 105.82,32.1533 106.5,36.5 Z"/></g>
<g><path style="opacity:1" fill="#eae4de" d="M 106.5,36.5 C 106.297,38.3904 106.963,39.8904 108.5,41C 108.167,41.3333 107.833,41.6667 107.5,42C 108.308,42.3076 108.975,42.8076 109.5,43.5C 108.767,44.087 107.767,44.087 106.5,43.5C 106.33,44.8221 106.663,45.9887 107.5,47C 106.207,47.49 104.873,47.6567 103.5,47.5C 103.5,48.5 103.5,49.5 103.5,50.5C 108.297,51.5522 112.964,52.2189 117.5,52.5C 117.189,53.4778 116.522,54.1445 115.5,54.5C 110.167,53.1667 104.833,53.1667 99.5,54.5C 97.0554,52.722 94.3888,51.3887 91.5,50.5C 89.6195,50.9252 88.1195,51.9252 87,53.5C 85.7498,51.2942 83.9165,49.9609 81.5,49.5C 81.7471,46.0613 81.4137,42.728 80.5,39.5C 82.1439,39.2865 83.6439,39.6198 85,40.5C 85.7429,38.5594 85.5762,36.7261 84.5,35C 85.8193,34.805 87.1526,34.9717 88.5,35.5C 87.8917,38.0621 88.0584,40.7288 89,43.5C 90.583,46.709 93.083,47.8756 96.5,47C 93.7543,45.6707 91.421,43.8374 89.5,41.5C 89.2492,38.5158 89.9158,35.5158 91.5,32.5C 93.9331,31.27 96.4331,30.27 99,29.5C 102.025,31.3612 104.525,33.6945 106.5,36.5 Z"/></g>
<g><path style="opacity:1" fill="#6c6a63" d="M 106.5,43.5 C 105.038,44.4577 103.705,45.6244 102.5,47C 101.167,47.6667 99.8333,47.6667 98.5,47C 101.562,45.9392 104.062,44.1059 106,41.5C 106.464,42.0944 106.631,42.7611 106.5,43.5 Z"/></g>
<g><path style="opacity:1" fill="#6e3024" d="M 94.5,32.5 C 102.549,31.3724 105.216,34.5391 102.5,42C 97.0708,44.8412 93.4041,43.5079 91.5,38C 91.6132,35.6013 92.6132,33.7679 94.5,32.5 Z"/></g>
<g><path style="opacity:1" fill="#6b6c61" d="M 41.5,46.5 C 42.2389,46.369 42.9056,46.5357 43.5,47C 42.6433,47.6891 41.9767,48.5224 41.5,49.5C 40.635,50.5827 39.635,50.7494 38.5,50C 39.7101,48.9609 40.7101,47.7942 41.5,46.5 Z"/></g>
<g><path style="opacity:1" fill="#4f453a" d="M 136.5,39.5 C 138.223,41.2528 139.723,43.2528 141,45.5C 146.222,57.7207 147.722,70.3874 145.5,83.5C 144.833,76.8333 144.167,70.1667 143.5,63.5C 142.328,55.1576 139.995,47.1576 136.5,39.5 Z"/></g>
<g><path style="opacity:1" fill="#9fa598" d="M 52.5,49.5 C 52.5,50.1667 52.8333,50.5 53.5,50.5C 53.3893,51.1174 53.056,51.6174 52.5,52C 48.5138,52.4988 44.5138,52.6655 40.5,52.5C 44.1667,51.8333 47.8333,51.1667 51.5,50.5C 51.5,49.8333 51.8333,49.5 52.5,49.5 Z"/></g>
<g><path style="opacity:1" fill="#1c0f08" d="M 53.5,50.5 C 55.099,50.2322 56.4324,50.5655 57.5,51.5C 54.6114,52.5143 51.778,53.8477 49,55.5C 48.6667,55.1667 48.3333,54.8333 48,54.5C 46,55.1667 44,55.8333 42,56.5C 37.6459,54.2814 33.1459,53.9481 28.5,55.5C 27.1667,55.1667 25.8333,54.8333 24.5,54.5C 29.6587,52.8173 34.9921,52.1506 40.5,52.5C 44.5138,52.6655 48.5138,52.4988 52.5,52C 53.056,51.6174 53.3893,51.1174 53.5,50.5 Z"/></g>
<g><path style="opacity:1" fill="#571515" d="M 68.5,39.5 C 69.96,41.4224 71.6267,42.0891 73.5,41.5C 75.3911,40.4639 77.2245,40.4639 79,41.5C 79.935,47.3885 81.435,53.0552 83.5,58.5C 81.6583,58.2767 79.825,57.9434 78,57.5C 76.5962,57.5093 75.4296,58.0093 74.5,59C 77.5755,59.3457 80.5755,60.0124 83.5,61C 82.8333,61.3333 82.1667,61.6667 81.5,62C 82.694,64.6578 81.694,65.8244 78.5,65.5C 78.7135,67.1439 78.3802,68.6439 77.5,70C 74.6928,71.575 72.1928,71.4083 70,69.5C 67.9017,70.8776 66.0683,70.5442 64.5,68.5C 65.3052,66.0846 66.3052,63.7513 67.5,61.5C 66.5,59.8333 65.1667,58.5 63.5,57.5C 61.2347,58.9793 58.9013,60.3126 56.5,61.5C 54.1667,60.1667 51.8333,60.1667 49.5,61.5C 47.2906,60.8938 45.124,60.2272 43,59.5C 41.8118,60.5634 41.3118,61.8967 41.5,63.5C 48.797,62.7694 49.297,64.1027 43,67.5C 38.3922,66.3787 37.5588,67.712 40.5,71.5C 33.8333,71.5 27.1667,71.5 20.5,71.5C 19.5238,65.6841 21.0238,60.6841 25,56.5C 26.5788,57.7996 27.7455,57.4663 28.5,55.5C 33.1459,53.9481 37.6459,54.2814 42,56.5C 44,55.8333 46,55.1667 48,54.5C 48.3333,54.8333 48.6667,55.1667 49,55.5C 51.778,53.8477 54.6114,52.5143 57.5,51.5C 60.7131,51.81 63.7131,51.4767 66.5,50.5C 68.4796,46.9472 69.1463,43.2805 68.5,39.5 Z"/></g>
<g><path style="opacity:1" fill="#6d1e16" d="M 73.5,41.5 C 73.238,42.9778 73.5713,44.3112 74.5,45.5C 76.2248,43.2523 77.5581,43.7523 78.5,47C 76.8333,47.3333 75.1667,47.6667 73.5,48C 74.5,48.3333 75.5,48.6667 76.5,49C 77.0611,50.676 78.0611,52.0094 79.5,53C 76.7236,54.0367 73.8902,54.87 71,55.5C 69.3925,55.2308 68.2259,54.3974 67.5,53C 69.2687,50.731 69.9353,48.3977 69.5,46C 70.3081,45.6924 70.9747,45.1924 71.5,44.5C 70.8333,44.1667 70.1667,43.8333 69.5,43.5C 70.7658,42.6376 72.0992,41.9709 73.5,41.5 Z"/></g>
<g><path style="opacity:1" fill="#4b1514" d="M 76.5,38.5 C 77.5676,39.4345 78.901,39.7678 80.5,39.5C 81.4137,42.728 81.7471,46.0613 81.5,49.5C 83.9165,49.9609 85.7498,51.2942 87,53.5C 88.1195,51.9252 89.6195,50.9252 91.5,50.5C 94.3888,51.3887 97.0554,52.722 99.5,54.5C 104.833,53.1667 110.167,53.1667 115.5,54.5C 116.522,54.1445 117.189,53.4778 117.5,52.5C 120.327,52.5838 122.994,53.2504 125.5,54.5C 127.176,55.1834 127.843,56.5168 127.5,58.5C 125.341,56.7099 122.841,55.3765 120,54.5C 119.055,54.9054 118.388,55.572 118,56.5C 116.667,55.1667 115.333,55.1667 114,56.5C 107.581,55.6871 101.081,55.1871 94.5,55C 93.3474,53.117 91.6807,52.2837 89.5,52.5C 89.4802,54.143 90.1468,55.4763 91.5,56.5C 90.5585,56.4895 89.8919,56.9895 89.5,58C 90.6479,59.726 91.8145,59.5593 93,57.5C 93.0654,60.307 94.0654,62.307 96,63.5C 99.6097,62.7604 103.11,61.0938 106.5,58.5C 107.167,59.1667 107.833,59.8333 108.5,60.5C 111.693,60.6285 114.859,60.6285 118,60.5C 119.365,60.8443 120.532,61.5109 121.5,62.5C 123.409,61.6518 125.409,61.3184 127.5,61.5C 127.5,62.1667 127.5,62.8333 127.5,63.5C 124.428,63.1826 121.428,63.5159 118.5,64.5C 109.326,68.2589 99.9925,71.2589 90.5,73.5C 90.1667,73.5 89.8333,73.5 89.5,73.5C 89.3893,72.8826 89.056,72.3826 88.5,72C 85.964,71.6608 83.464,71.1608 81,70.5C 78.3547,71.916 75.5214,72.5827 72.5,72.5C 66.5218,72.3251 60.5218,71.9918 54.5,71.5C 52.9623,71.4534 51.9623,72.1201 51.5,73.5C 49.9582,72.6993 48.2915,72.366 46.5,72.5C 44.5879,72.5123 42.5879,72.179 40.5,71.5C 37.5588,67.712 38.3922,66.3787 43,67.5C 49.297,64.1027 48.797,62.7694 41.5,63.5C 41.3118,61.8967 41.8118,60.5634 43,59.5C 45.124,60.2272 47.2906,60.8938 49.5,61.5C 51.8333,60.1667 54.1667,60.1667 56.5,61.5C 58.9013,60.3126 61.2347,58.9793 63.5,57.5C 65.1667,58.5 66.5,59.8333 67.5,61.5C 66.3052,63.7513 65.3052,66.0846 64.5,68.5C 66.0683,70.5442 67.9017,70.8776 70,69.5C 72.1928,71.4083 74.6928,71.575 77.5,70C 78.3802,68.6439 78.7135,67.1439 78.5,65.5C 81.694,65.8244 82.694,64.6578 81.5,62C 82.1667,61.6667 82.8333,61.3333 83.5,61C 80.5755,60.0124 77.5755,59.3457 74.5,59C 75.4296,58.0093 76.5962,57.5093 78,57.5C 79.825,57.9434 81.6583,58.2767 83.5,58.5C 81.435,53.0552 79.935,47.3885 79,41.5C 77.2245,40.4639 75.3911,40.4639 73.5,41.5C 71.6267,42.0891 69.96,41.4224 68.5,39.5C 71.2372,39.5987 73.9039,39.2653 76.5,38.5 Z"/></g>
<g><path style="opacity:1" fill="#631b15" d="M 127.5,58.5 C 127.5,59.5 127.5,60.5 127.5,61.5C 125.409,61.3184 123.409,61.6518 121.5,62.5C 120.532,61.5109 119.365,60.8443 118,60.5C 114.859,60.6285 111.693,60.6285 108.5,60.5C 107.833,59.8333 107.167,59.1667 106.5,58.5C 103.11,61.0938 99.6097,62.7604 96,63.5C 94.0654,62.307 93.0654,60.307 93,57.5C 91.8145,59.5593 90.6479,59.726 89.5,58C 89.8919,56.9895 90.5585,56.4895 91.5,56.5C 90.1468,55.4763 89.4802,54.143 89.5,52.5C 91.6807,52.2837 93.3474,53.117 94.5,55C 101.081,55.1871 107.581,55.6871 114,56.5C 115.333,55.1667 116.667,55.1667 118,56.5C 118.388,55.572 119.055,54.9054 120,54.5C 122.841,55.3765 125.341,56.7099 127.5,58.5 Z"/></g>
<g><path style="opacity:1" fill="#43433e" d="M 120.5,42.5 C 125.964,48.4303 128.964,55.4303 129.5,63.5C 128.833,63.5 128.167,63.5 127.5,63.5C 127.5,62.8333 127.5,62.1667 127.5,61.5C 127.5,60.5 127.5,59.5 127.5,58.5C 127.843,56.5168 127.176,55.1834 125.5,54.5C 124.368,50.2403 122.701,46.2403 120.5,42.5 Z"/></g>
<g><path style="opacity:1" fill="#1a0e0a" d="M 127.5,63.5 C 128.167,63.5 128.833,63.5 129.5,63.5C 129.5,66.8333 129.5,70.1667 129.5,73.5C 123.167,73.5 116.833,73.5 110.5,73.5C 108.833,73.5 107.167,73.5 105.5,73.5C 104.5,73.5 103.5,73.5 102.5,73.5C 98.5,73.5 94.5,73.5 90.5,73.5C 99.9925,71.2589 109.326,68.2589 118.5,64.5C 121.428,63.5159 124.428,63.1826 127.5,63.5 Z"/></g>
<g><path style="opacity:1" fill="#3d2319" d="M 23.5,49.5 C 23.8333,49.5 24.1667,49.5 24.5,49.5C 23.9035,51.398 23.9035,53.0646 24.5,54.5C 25.8333,54.8333 27.1667,55.1667 28.5,55.5C 27.7455,57.4663 26.5788,57.7996 25,56.5C 21.0238,60.6841 19.5238,65.6841 20.5,71.5C 27.1667,71.5 33.8333,71.5 40.5,71.5C 42.5879,72.179 44.5879,72.5123 46.5,72.5C 45.828,73.2674 44.9947,73.9341 44,74.5C 35.7813,73.1163 27.6147,72.783 19.5,73.5C 18.5655,72.4324 18.2322,71.099 18.5,69.5C 18.5079,66.4552 18.8413,63.4552 19.5,60.5C 20.0541,56.5003 21.3875,52.8337 23.5,49.5 Z"/></g>
<g><path style="opacity:1" fill="#546459" d="M 129.5,63.5 C 130.434,64.5676 130.768,65.901 130.5,67.5C 130.5,72.1667 130.5,76.8333 130.5,81.5C 128.811,80.0693 126.811,79.2359 124.5,79C 128.708,79.1436 129.875,77.6436 128,74.5C 127.517,75.448 127.351,76.448 127.5,77.5C 122.65,75.3017 116.983,73.9683 110.5,73.5C 116.833,73.5 123.167,73.5 129.5,73.5C 129.5,70.1667 129.5,66.8333 129.5,63.5 Z"/></g>
<g><path style="opacity:1" fill="#1c1916" d="M 141.5,74.5 C 140.833,75.5 140.167,76.5 139.5,77.5C 133.145,77.8317 131.145,75.165 133.5,69.5C 135.833,69.5 138.167,69.5 140.5,69.5C 140.216,71.4147 140.549,73.0813 141.5,74.5 Z"/></g>
<g><path style="opacity:1" fill="#9f8580" d="M 143.5,63.5 C 144.167,70.1667 144.833,76.8333 145.5,83.5C 145.737,84.791 145.404,85.791 144.5,86.5C 144.672,85.5084 144.338,84.8417 143.5,84.5C 143.5,84.1667 143.5,83.8333 143.5,83.5C 143.5,78.8333 143.5,74.1667 143.5,69.5C 143.5,69.1667 143.5,68.8333 143.5,68.5C 143.5,66.8333 143.5,65.1667 143.5,63.5 Z"/></g>
<g><path style="opacity:1" fill="#f3f2ef" d="M 143.5,69.5 C 143.5,74.1667 143.5,78.8333 143.5,83.5C 142.363,84.7888 141.03,85.7888 139.5,86.5C 139.5,86.1667 139.5,85.8333 139.5,85.5C 136.946,85.516 134.28,84.8493 131.5,83.5C 131.33,82.1779 131.663,81.0113 132.5,80C 135.104,79.6097 137.438,78.7763 139.5,77.5C 140.167,76.5 140.833,75.5 141.5,74.5C 141.077,72.2188 141.744,70.5521 143.5,69.5 Z"/></g>
<g><path style="opacity:1" fill="#e4e4de" d="M 10.5,46.5 C 11.3909,47.2613 12.0576,48.2613 12.5,49.5C 11.8444,51.4534 11.5111,53.4534 11.5,55.5C 10.1779,55.67 9.01127,55.3366 8,54.5C 8.02251,58.0642 7.85584,61.5642 7.5,65C 7.66667,65.5 7.83333,66 8,66.5C 8.83333,65.5 9.66667,64.5 10.5,63.5C 11.3857,64.325 11.719,65.325 11.5,66.5C 12.8333,66.5 14.1667,66.5 15.5,66.5C 16.037,63.9641 17.3703,61.9641 19.5,60.5C 18.8413,63.4552 18.5079,66.4552 18.5,69.5C 17.3043,75.223 17.6376,80.8897 19.5,86.5C 22.5263,98.8716 29.1929,108.872 39.5,116.5C 45.5566,121.86 52.5566,125.527 60.5,127.5C 60.8333,127.5 61.1667,127.5 61.5,127.5C 71.257,130.289 80.9237,129.955 90.5,126.5C 95.2157,125.265 99.549,123.265 103.5,120.5C 108.113,118.544 111.78,115.544 114.5,111.5C 116.417,110.091 118.25,108.424 120,106.5C 123.005,102.161 125.172,97.494 126.5,92.5C 127.167,92.5 127.5,92.1667 127.5,91.5C 128.768,89.0948 129.435,86.4282 129.5,83.5C 130.338,83.1583 130.672,82.4916 130.5,81.5C 130.5,76.8333 130.5,72.1667 130.5,67.5C 133.187,67.3256 136.02,67.659 139,68.5C 139.95,67.9777 140.784,67.311 141.5,66.5C 142.182,67.2427 142.849,67.9094 143.5,68.5C 143.5,68.8333 143.5,69.1667 143.5,69.5C 141.744,70.5521 141.077,72.2188 141.5,74.5C 140.549,73.0813 140.216,71.4147 140.5,69.5C 138.167,69.5 135.833,69.5 133.5,69.5C 131.145,75.165 133.145,77.8317 139.5,77.5C 137.438,78.7763 135.104,79.6097 132.5,80C 131.663,81.0113 131.33,82.1779 131.5,83.5C 134.28,84.8493 136.946,85.516 139.5,85.5C 137.393,85.7221 135.726,86.7221 134.5,88.5C 133.904,87.2839 133.737,85.9506 134,84.5C 132.681,86.2495 132.181,88.2495 132.5,90.5C 134.912,90.756 136.579,89.756 137.5,87.5C 138.944,88.981 139.611,88.6477 139.5,86.5C 141.03,85.7888 142.363,84.7888 143.5,83.5C 143.5,83.8333 143.5,84.1667 143.5,84.5C 139.749,104.728 129.416,120.562 112.5,132C 107.261,134.787 101.928,137.287 96.5,139.5C 76.7505,144.484 57.7505,142.817 39.5,134.5C 30.6276,128.302 22.6276,120.969 15.5,112.5C 12.1916,106.42 9.35827,100.086 7,93.5C 4.61152,83.2932 3.94486,72.9599 5,62.5C 5.62314,56.6363 7.45647,51.303 10.5,46.5 Z"/></g>
<g><path style="opacity:1" fill="#3b3c34" d="M 18.5,100.5 C 20.6516,101.077 20.985,102.244 19.5,104C 20.938,104.219 22.2713,104.719 23.5,105.5C 20.8938,106.652 18.2272,106.818 15.5,106C 17.16,104.512 18.16,102.679 18.5,100.5 Z"/></g>
<g><path style="opacity:1" fill="#3b2c1b" d="M 84.5,95.5 C 84.9724,97.5313 85.9724,99.1979 87.5,100.5C 88.2341,101.708 88.5674,103.041 88.5,104.5C 88.5,105.5 88.5,106.5 88.5,107.5C 86.7211,109.344 84.3878,110.01 81.5,109.5C 83.2184,108.776 85.0517,108.109 87,107.5C 87.4935,105.866 87.6602,104.199 87.5,102.5C 86.5,102.5 85.5,102.5 84.5,102.5C 84.5,100.167 84.5,97.8333 84.5,95.5 Z"/></g>
<g><path style="opacity:1" fill="#2b2925" d="M 126.5,102.5 C 128.857,102.337 131.19,102.503 133.5,103C 131.062,110.146 128.729,109.98 126.5,102.5 Z"/></g>
<g><path style="opacity:1" fill="#a8a8a1" d="M 128.5,103.5 C 130.337,103.639 130.67,104.306 129.5,105.5C 128.702,105.043 128.369,104.376 128.5,103.5 Z"/></g>
<g><path style="opacity:1" fill="#49271c" d="M 115.5,99.5 C 114.766,100.708 114.433,102.041 114.5,103.5C 113.07,103.579 111.736,103.246 110.5,102.5C 109.607,106.963 106.94,109.629 102.5,110.5C 100.644,113.19 98.3106,115.356 95.5,117C 86.5136,119.795 77.5136,122.462 68.5,125C 68.8333,125.333 69.1667,125.667 69.5,126C 66.5184,126.498 63.5184,126.665 60.5,126.5C 62.3052,124.803 64.6385,123.97 67.5,124C 65.9419,123.79 64.6085,123.29 63.5,122.5C 71.7545,121.844 79.7545,120.344 87.5,118C 89.5252,116.323 91.8585,115.323 94.5,115C 96.8418,109.821 100.842,107.321 106.5,107.5C 106.357,105.738 106.691,104.071 107.5,102.5C 110.183,101.49 112.849,100.49 115.5,99.5 Z"/></g>
<g><path style="opacity:1" fill="#3c2019" d="M 24.5,84.5 C 25.9516,85.3019 27.6183,85.8019 29.5,86C 30.3805,86.7083 31.0472,87.5416 31.5,88.5C 32.9187,89.4511 34.5853,89.7845 36.5,89.5C 36.5774,90.7498 37.244,91.5831 38.5,92C 35.1395,93.9477 31.8061,93.7811 28.5,91.5C 30.0224,89.8437 29.689,88.677 27.5,88C 20.9519,85.7335 20.1186,86.9001 25,91.5C 25.3599,93.6079 26.0266,95.6079 27,97.5C 27.2784,96.5842 27.7784,95.9175 28.5,95.5C 28.9175,96.2216 29.5842,96.7216 30.5,97C 30.0426,97.414 29.7093,97.914 29.5,98.5C 31.2744,99.1867 32.9411,100.02 34.5,101C 31.8532,101.315 31.1865,102.482 32.5,104.5C 35.4703,104.995 37.8037,106.495 39.5,109C 42.2263,109.182 44.8929,109.682 47.5,110.5C 46.624,111.251 45.624,111.751 44.5,112C 47.562,112.741 50.562,112.575 53.5,111.5C 55.0935,113.66 56.7601,113.827 58.5,112C 56.0772,111.303 54.4105,109.803 53.5,107.5C 56.8784,108.109 58.8784,106.776 59.5,103.5C 60.1667,103.5 60.8333,103.5 61.5,103.5C 60.4808,105.54 60.4808,107.54 61.5,109.5C 63.3361,110.028 65.0028,110.694 66.5,111.5C 61.8553,110.669 60.8553,111.836 63.5,115C 56.9936,115.396 50.6603,115.563 44.5,115.5C 42.3338,112.977 40.6671,113.31 39.5,116.5C 29.1929,108.872 22.5263,98.8716 19.5,86.5C 20.5521,84.744 22.2188,84.0773 24.5,84.5 Z"/></g>
<g><path style="opacity:1" fill="#1e6a25" d="M 95.5,91.5 C 97.8853,92.2925 99.8853,93.6258 101.5,95.5C 103.104,96.287 103.771,97.6203 103.5,99.5C 102.402,100.397 102.402,101.23 103.5,102C 100.816,102.778 98.4828,104.111 96.5,106C 93.8323,106.567 91.1656,107.067 88.5,107.5C 88.5,106.5 88.5,105.5 88.5,104.5C 90.7638,105.219 93.0971,105.552 95.5,105.5C 96.4369,103.162 97.7703,100.995 99.5,99C 98.6235,96.1586 97.2901,93.6586 95.5,91.5 Z"/></g>
<g><path style="opacity:1" fill="#168220" d="M 59.5,87.5 C 60.9008,87.9709 62.2342,88.6376 63.5,89.5C 61.3204,93.8851 59.9871,98.5518 59.5,103.5C 58.8784,106.776 56.8784,108.109 53.5,107.5C 52.1835,105.047 51.3502,102.38 51,99.5C 49.437,98.2748 48.2703,96.7748 47.5,95C 47.6387,93.699 48.3054,92.8656 49.5,92.5C 50.1667,91.8333 50.8333,91.1667 51.5,90.5C 54.2545,89.6562 56.9212,88.6562 59.5,87.5 Z"/></g>
<g><path style="opacity:1" fill="#591717" d="M 45.5,85.5 C 47.1765,86.1834 47.8432,87.5168 47.5,89.5C 47.719,90.675 47.3857,91.675 46.5,92.5C 45.2638,91.7542 43.9305,91.4208 42.5,91.5C 42.238,92.9778 42.5713,94.3112 43.5,95.5C 47.7847,97.1036 50.118,100.104 50.5,104.5C 49.5,104.5 48.5,104.5 47.5,104.5C 47.67,103.178 47.3366,102.011 46.5,101C 40.4551,99.2624 34.4551,97.4291 28.5,95.5C 27.7784,95.9175 27.2784,96.5842 27,97.5C 26.0266,95.6079 25.3599,93.6079 25,91.5C 20.1186,86.9001 20.9519,85.7335 27.5,88C 29.689,88.677 30.0224,89.8437 28.5,91.5C 31.8061,93.7811 35.1395,93.9477 38.5,92C 37.244,91.5831 36.5774,90.7498 36.5,89.5C 39.7012,88.547 42.7012,87.2137 45.5,85.5 Z"/></g>
<g><path style="opacity:1" fill="#34352e" d="M 131.5,93.5 C 131.735,92.9033 132.235,92.5699 133,92.5C 138.7,94.4057 138.533,96.4057 132.5,98.5C 133.5,99.1667 134.5,99.8333 135.5,100.5C 135.167,100.833 134.833,101.167 134.5,101.5C 128.359,100.075 128.026,97.9082 133.5,95C 132.956,94.2828 132.289,93.7828 131.5,93.5 Z"/></g>
<g><path style="opacity:1" fill="#46281e" d="M 126.5,92.5 C 125.172,97.494 123.005,102.161 120,106.5C 118.25,108.424 116.417,110.091 114.5,111.5C 117.312,107.209 119.646,102.542 121.5,97.5C 121.167,97.1667 120.833,96.8333 120.5,96.5C 119.358,97.8262 118.024,98.8262 116.5,99.5C 116.511,97.9826 117.177,96.8159 118.5,96C 121.051,95.9977 123.051,95.1644 124.5,93.5C 124.842,92.6618 125.508,92.3284 126.5,92.5 Z"/></g>
<g><path style="opacity:1" fill="#168622" d="M 92.5,87.5 C 94.1898,87.8564 95.1898,88.8564 95.5,90.5C 95.5,90.8333 95.5,91.1667 95.5,91.5C 97.2901,93.6586 98.6235,96.1586 99.5,99C 97.7703,100.995 96.4369,103.162 95.5,105.5C 93.0971,105.552 90.7638,105.219 88.5,104.5C 88.5674,103.041 88.2341,101.708 87.5,100.5C 85.8323,98.0091 86.1656,95.8425 88.5,94C 87.4045,92.3247 85.9045,91.158 84,90.5C 83.5045,88.5273 83.3379,86.5273 83.5,84.5C 84.5,84.5 85.5,84.5 86.5,84.5C 86.5,85.5 86.5,86.5 86.5,87.5C 88.7033,87.9349 90.7033,87.9349 92.5,87.5 Z"/></g>
<g><path style="opacity:1" fill="#561414" d="M 76.5,77.5 C 76.3284,78.4916 76.6618,79.1583 77.5,79.5C 77.0773,81.7812 77.744,83.4479 79.5,84.5C 79.5,85.1667 79.8333,85.5 80.5,85.5C 81.2276,88.0795 81.7276,90.7462 82,93.5C 82.4169,94.756 83.2502,95.4226 84.5,95.5C 84.5,97.8333 84.5,100.167 84.5,102.5C 85.5,102.5 86.5,102.5 87.5,102.5C 87.6602,104.199 87.4935,105.866 87,107.5C 85.0517,108.109 83.2184,108.776 81.5,109.5C 80.8333,110.167 80.1667,110.833 79.5,111.5C 75.1667,111.5 70.8333,111.5 66.5,111.5C 65.0028,110.694 63.3361,110.028 61.5,109.5C 60.4808,107.54 60.4808,105.54 61.5,103.5C 61.7036,101.315 62.3702,99.3146 63.5,97.5C 65.8333,97.5 68.1667,97.5 70.5,97.5C 70.1365,94.4373 69.4698,91.4373 68.5,88.5C 69.4698,85.5627 70.1365,82.5627 70.5,79.5C 72.8881,78.7813 74.3881,77.1146 75,74.5C 75.2321,75.7375 75.7321,76.7375 76.5,77.5 Z"/></g>
<g><path style="opacity:1" fill="#505542" d="M 111.5,91.5 C 112.833,91.8333 114.167,92.1667 115.5,92.5C 116.919,93.4511 118.585,93.7845 120.5,93.5C 117.347,95.8846 113.68,97.2179 109.5,97.5C 112.442,96.279 113.109,94.279 111.5,91.5 Z"/></g>
<g><path style="opacity:1" fill="#5a1919" d="M 102.5,88.5 C 105.327,89.9583 108.327,90.9583 111.5,91.5C 113.109,94.279 112.442,96.279 109.5,97.5C 107.858,99.0808 105.858,99.7475 103.5,99.5C 103.771,97.6203 103.104,96.287 101.5,95.5C 101.298,93.0504 101.631,90.717 102.5,88.5 Z"/></g>
<g><path style="opacity:1" fill="#3e3015" d="M 80.5,85.5 C 82.115,88.5672 83.4484,91.9005 84.5,95.5C 83.2502,95.4226 82.4169,94.756 82,93.5C 81.7276,90.7462 81.2276,88.0795 80.5,85.5 Z"/></g>
<g><path style="opacity:1" fill="#165d1a" d="M 60.5,84.5 C 62.698,85.0671 65.0314,85.0671 67.5,84.5C 66.3422,88.8074 65.0089,93.1407 63.5,97.5C 62.3702,99.3146 61.7036,101.315 61.5,103.5C 60.8333,103.5 60.1667,103.5 59.5,103.5C 59.9871,98.5518 61.3204,93.8851 63.5,89.5C 62.2342,88.6376 60.9008,87.9709 59.5,87.5C 59.2627,86.209 59.596,85.209 60.5,84.5 Z"/></g>
<g><path style="opacity:1" fill="#3c1c0f" d="M 69.5,79.5 C 69.8333,79.5 70.1667,79.5 70.5,79.5C 70.1365,82.5627 69.4698,85.5627 68.5,88.5C 69.4698,91.4373 70.1365,94.4373 70.5,97.5C 68.1667,97.5 65.8333,97.5 63.5,97.5C 65.0089,93.1407 66.3422,88.8074 67.5,84.5C 68.4408,82.9505 69.1075,81.2838 69.5,79.5 Z"/></g>
<g><path style="opacity:1" fill="#2c2b27" d="M 15.5,89.5 C 16.905,91.2251 17.405,93.2251 17,95.5C 16.6121,94.572 15.9454,93.9054 15,93.5C 13.4223,94.5472 11.9223,94.5472 10.5,93.5C 12.0453,92.5481 13.712,92.2148 15.5,92.5C 15.5,91.5 15.5,90.5 15.5,89.5 Z"/></g>
<g><path style="opacity:1" fill="#2f2e28" d="M 139.5,85.5 C 139.5,85.8333 139.5,86.1667 139.5,86.5C 139.611,88.6477 138.944,88.981 137.5,87.5C 136.579,89.756 134.912,90.756 132.5,90.5C 132.181,88.2495 132.681,86.2495 134,84.5C 133.737,85.9506 133.904,87.2839 134.5,88.5C 135.726,86.7221 137.393,85.7221 139.5,85.5 Z"/></g>
<g><path style="opacity:1" fill="#178c21" d="M 115.5,92.5 C 114.167,92.1667 112.833,91.8333 111.5,91.5C 111.5,91.1667 111.5,90.8333 111.5,90.5C 110.253,88.822 108.586,87.4887 106.5,86.5C 105.572,85.2322 105.405,83.8989 106,82.5C 111.349,83.1414 116.849,84.3081 122.5,86C 124.439,86.9078 125.439,88.4078 125.5,90.5C 122.306,91.7576 118.973,92.4242 115.5,92.5 Z"/></g>
<g><path style="opacity:1" fill="#250f04" d="M 98.5,87.5 C 100.099,87.2322 101.432,87.5655 102.5,88.5C 101.631,90.717 101.298,93.0504 101.5,95.5C 99.8853,93.6258 97.8853,92.2925 95.5,91.5C 95.5,91.1667 95.5,90.8333 95.5,90.5C 96.5,90.5 97.5,90.5 98.5,90.5C 98.5,89.5 98.5,88.5 98.5,87.5 Z"/></g>
<g><path style="opacity:1" fill="#54783f" d="M 63.5,80.5 C 62.5,81.8333 61.5,83.1667 60.5,84.5C 59.596,85.209 59.2627,86.209 59.5,87.5C 56.9212,88.6562 54.2545,89.6562 51.5,90.5C 51.8333,89.8333 52.1667,89.1667 52.5,88.5C 56.4887,86.1635 60.1554,83.4968 63.5,80.5 Z"/></g>
<g><path style="opacity:1" fill="#521c13" d="M 64.5,79.5 C 63.8333,79.5 63.5,79.8333 63.5,80.5C 60.1554,83.4968 56.4887,86.1635 52.5,88.5C 51.6236,88.6309 50.9569,88.2975 50.5,87.5C 51.1286,85.2592 52.1286,83.2592 53.5,81.5C 55.0269,81.573 56.0269,80.9063 56.5,79.5C 57.1667,79.5 57.8333,79.5 58.5,79.5C 60.6112,78.2584 62.6112,78.2584 64.5,79.5 Z"/></g>
<g><path style="opacity:1" fill="#247127" d="M 41.5,79.5 C 42.8333,79.5 44.1667,79.5 45.5,79.5C 45.7678,81.099 45.4345,82.4324 44.5,83.5C 40.97,86.9048 36.6367,88.5714 31.5,88.5C 31.0472,87.5416 30.3805,86.7083 29.5,86C 27.6183,85.8019 25.9516,85.3019 24.5,84.5C 24.5,83.8333 24.1667,83.5 23.5,83.5C 29.3033,81.7113 35.3033,80.378 41.5,79.5 Z"/></g>
<g><path style="opacity:1" fill="#1c7028" d="M 103.5,81.5 C 106.167,81.5 108.833,81.5 111.5,81.5C 111.833,81.5 112.167,81.5 112.5,81.5C 117.259,83.3253 122.259,84.6587 127.5,85.5C 127.5,87.5 127.5,89.5 127.5,91.5C 127.5,92.1667 127.167,92.5 126.5,92.5C 125.508,92.3284 124.842,92.6618 124.5,93.5C 123.167,93.5 121.833,93.5 120.5,93.5C 118.585,93.7845 116.919,93.4511 115.5,92.5C 118.973,92.4242 122.306,91.7576 125.5,90.5C 125.439,88.4078 124.439,86.9078 122.5,86C 116.849,84.3081 111.349,83.1414 106,82.5C 105.405,83.8989 105.572,85.2322 106.5,86.5C 108.586,87.4887 110.253,88.822 111.5,90.5C 107.997,89.4982 104.83,87.8315 102,85.5C 101.7,83.9343 102.2,82.601 103.5,81.5 Z"/></g>
<g><path style="opacity:1" fill="#394e3c" d="M 124.5,81.5 C 126.553,81.4021 128.22,82.0687 129.5,83.5C 129.435,86.4282 128.768,89.0948 127.5,91.5C 127.5,89.5 127.5,87.5 127.5,85.5C 126.5,84.1667 125.5,82.8333 124.5,81.5 Z"/></g>
<g><path style="opacity:1" fill="#5c1c19" d="M 87.5,78.5 C 88.209,79.404 89.209,79.7373 90.5,79.5C 91.7261,81.8764 93.7261,83.3764 96.5,84C 97.8228,84.8159 98.4894,85.9826 98.5,87.5C 98.5,88.5 98.5,89.5 98.5,90.5C 97.5,90.5 96.5,90.5 95.5,90.5C 95.1898,88.8564 94.1898,87.8564 92.5,87.5C 92.5,87.1667 92.5,86.8333 92.5,86.5C 90.4504,84.4525 88.117,82.7859 85.5,81.5C 85.5858,80.5041 85.2524,79.6708 84.5,79C 85.448,78.5172 86.448,78.3505 87.5,78.5 Z"/></g>
<g><path style="opacity:1" fill="#323b1e" d="M 85.5,81.5 C 88.117,82.7859 90.4504,84.4525 92.5,86.5C 88.7981,86.7742 86.4648,85.1075 85.5,81.5 Z"/></g>
<g><path style="opacity:1" fill="#1d1008" d="M 53.5,81.5 C 52.1286,83.2592 51.1286,85.2592 50.5,87.5C 50.9569,88.2975 51.6236,88.6309 52.5,88.5C 52.1667,89.1667 51.8333,89.8333 51.5,90.5C 50.8333,91.1667 50.1667,91.8333 49.5,92.5C 49.7148,90.8212 49.0481,89.8212 47.5,89.5C 47.8432,87.5168 47.1765,86.1834 45.5,85.5C 46.999,83.5102 47.8324,81.1768 48,78.5C 48.3173,80.3008 48.984,80.6341 50,79.5C 50.7096,80.9733 51.8762,81.6399 53.5,81.5 Z"/></g>
<g><path style="opacity:1" fill="#181e0d" d="M 99.5,75.5 C 101.379,75.3932 101.712,75.8932 100.5,77C 101.044,77.7172 101.711,78.2172 102.5,78.5C 102.557,79.609 102.89,80.609 103.5,81.5C 102.2,82.601 101.7,83.9343 102,85.5C 104.83,87.8315 107.997,89.4982 111.5,90.5C 111.5,90.8333 111.5,91.1667 111.5,91.5C 108.327,90.9583 105.327,89.9583 102.5,88.5C 101.432,87.5655 100.099,87.2322 98.5,87.5C 98.4894,85.9826 97.8228,84.8159 96.5,84C 93.7261,83.3764 91.7261,81.8764 90.5,79.5C 92.4214,80.3627 94.4214,81.0293 96.5,81.5C 97.9708,79.7844 98.9708,77.7844 99.5,75.5 Z"/></g>
<g><path style="opacity:1" fill="#206923" d="M 85.5,81.5 C 86.4648,85.1075 88.7981,86.7742 92.5,86.5C 92.5,86.8333 92.5,87.1667 92.5,87.5C 90.7033,87.9349 88.7033,87.9349 86.5,87.5C 86.5,86.5 86.5,85.5 86.5,84.5C 85.5,84.5 84.5,84.5 83.5,84.5C 83.3379,86.5273 83.5045,88.5273 84,90.5C 85.9045,91.158 87.4045,92.3247 88.5,94C 86.1656,95.8425 85.8323,98.0091 87.5,100.5C 85.9724,99.1979 84.9724,97.5313 84.5,95.5C 83.4484,91.9005 82.115,88.5672 80.5,85.5C 79.8333,85.5 79.5,85.1667 79.5,84.5C 79.5979,82.4471 78.9313,80.7804 77.5,79.5C 76.6618,79.1583 76.3284,78.4916 76.5,77.5C 76.5,76.5 76.5,75.5 76.5,74.5C 77.675,74.281 78.675,74.6143 79.5,75.5C 81.1878,77.8545 83.1878,79.8545 85.5,81.5 Z"/></g>
<g><path style="opacity:1" fill="#218027" d="M 69.5,79.5 C 69.1075,81.2838 68.4408,82.9505 67.5,84.5C 65.0314,85.0671 62.698,85.0671 60.5,84.5C 61.5,83.1667 62.5,81.8333 63.5,80.5C 63.5,79.8333 63.8333,79.5 64.5,79.5C 64.8333,79.5 65.1667,79.5 65.5,79.5C 66.1556,78.7222 66.9889,78.0556 68,77.5C 69.0299,77.8361 69.5299,78.5028 69.5,79.5 Z"/></g>
<g><path style="opacity:1" fill="#128921" d="M 44.5,83.5 C 41.0302,84.1987 37.6969,85.1987 34.5,86.5C 31.488,86.8213 30.1547,85.488 30.5,82.5C 35.1831,81.9262 39.8498,81.2596 44.5,80.5C 44.5,81.5 44.5,82.5 44.5,83.5 Z"/></g>
<g><path style="opacity:1" fill="#363615" d="M 77.5,79.5 C 78.9313,80.7804 79.5979,82.4471 79.5,84.5C 77.744,83.4479 77.0773,81.7812 77.5,79.5 Z"/></g>
<g><path style="opacity:1" fill="#312e29" d="M 8.5,82.5 C 10.8333,82.5 13.1667,82.5 15.5,82.5C 15.6602,84.1992 15.4935,85.8659 15,87.5C 13.5768,82.3793 12.5768,82.3793 12,87.5C 11.5172,86.552 11.3505,85.552 11.5,84.5C 9.82124,84.7148 8.82124,84.0481 8.5,82.5 Z"/></g>
<g><path style="opacity:1" fill="#182812" d="M 49.5,76.5 C 51.0361,79.0922 53.3695,80.0922 56.5,79.5C 56.0269,80.9063 55.0269,81.573 53.5,81.5C 51.8762,81.6399 50.7096,80.9733 50,79.5C 48.984,80.6341 48.3173,80.3008 48,78.5C 47.8324,81.1768 46.999,83.5102 45.5,85.5C 42.7012,87.2137 39.7012,88.547 36.5,89.5C 34.5853,89.7845 32.9187,89.4511 31.5,88.5C 36.6367,88.5714 40.97,86.9048 44.5,83.5C 45.4345,82.4324 45.7678,81.099 45.5,79.5C 44.1667,79.5 42.8333,79.5 41.5,79.5C 43.2143,78.2616 45.2143,77.595 47.5,77.5C 47.238,76.0222 47.5713,74.6888 48.5,73.5C 49.3857,74.325 49.719,75.325 49.5,76.5 Z"/></g>
<g><path style="opacity:1" fill="#466e49" d="M 92.5,76.5 C 94.7707,75.971 97.104,75.6377 99.5,75.5C 98.9708,77.7844 97.9708,79.7844 96.5,81.5C 96.2687,78.9368 94.9354,77.2702 92.5,76.5 Z"/></g>
<g><path style="opacity:1" fill="#267d36" d="M 82.5,73.5 C 85.7263,74.4887 89.0596,75.4887 92.5,76.5C 94.9354,77.2702 96.2687,78.9368 96.5,81.5C 94.4214,81.0293 92.4214,80.3627 90.5,79.5C 89.209,79.7373 88.209,79.404 87.5,78.5C 86.063,77.2745 84.3964,76.2745 82.5,75.5C 81.2267,74.7435 81.2267,74.0768 82.5,73.5 Z"/></g>
<g><path style="opacity:1" fill="#5f7d61" d="M 102.5,73.5 C 103.5,73.5 104.5,73.5 105.5,73.5C 111.128,75.0324 116.795,76.6991 122.5,78.5C 122.285,80.1788 122.952,81.1788 124.5,81.5C 125.5,82.8333 126.5,84.1667 127.5,85.5C 122.259,84.6587 117.259,83.3253 112.5,81.5C 115.518,81.6646 118.518,81.498 121.5,81C 116.465,80.1511 111.465,79.4844 106.5,79C 108.175,79.9853 109.842,80.8186 111.5,81.5C 108.833,81.5 106.167,81.5 103.5,81.5C 102.89,80.609 102.557,79.609 102.5,78.5C 103.071,76.64 103.071,74.9733 102.5,73.5 Z"/></g>
<g><path style="opacity:1" fill="#c1d6b9" d="M 112.5,81.5 C 112.167,81.5 111.833,81.5 111.5,81.5C 109.842,80.8186 108.175,79.9853 106.5,79C 111.465,79.4844 116.465,80.1511 121.5,81C 118.518,81.498 115.518,81.6646 112.5,81.5 Z"/></g>
<g><path style="opacity:1" fill="#2e642f" d="M 57.5,73.5 C 60.3198,73.2475 62.9865,73.7475 65.5,75C 62.9071,76.3732 60.5738,77.8732 58.5,79.5C 57.8333,79.5 57.1667,79.5 56.5,79.5C 53.3695,80.0922 51.0361,79.0922 49.5,76.5C 52.5219,76.196 55.5219,75.696 58.5,75C 57.944,74.6174 57.6107,74.1174 57.5,73.5 Z"/></g>
<g><path style="opacity:1" fill="#a7bda5" d="M 46.5,72.5 C 48.2915,72.366 49.9582,72.6993 51.5,73.5C 53.4513,74.6414 55.4513,74.6414 57.5,73.5C 57.6107,74.1174 57.944,74.6174 58.5,75C 55.5219,75.696 52.5219,76.196 49.5,76.5C 49.719,75.325 49.3857,74.325 48.5,73.5C 47.5713,74.6888 47.238,76.0222 47.5,77.5C 45.2143,77.595 43.2143,78.2616 41.5,79.5C 35.3033,80.378 29.3033,81.7113 23.5,83.5C 21.8762,83.6399 20.7096,82.9733 20,81.5C 19.5026,78.854 19.3359,76.1873 19.5,73.5C 27.6147,72.783 35.7813,73.1163 44,74.5C 44.9947,73.9341 45.828,73.2674 46.5,72.5 Z"/></g>
<g><path style="opacity:1" fill="#4f5445" d="M 18.5,69.5 C 18.2322,71.099 18.5655,72.4324 19.5,73.5C 19.3359,76.1873 19.5026,78.854 20,81.5C 20.7096,82.9733 21.8762,83.6399 23.5,83.5C 24.1667,83.5 24.5,83.8333 24.5,84.5C 22.2188,84.0773 20.5521,84.744 19.5,86.5C 17.6376,80.8897 17.3043,75.223 18.5,69.5 Z"/></g>
<g><path style="opacity:1" fill="#adc7b5" d="M 105.5,73.5 C 107.167,73.5 108.833,73.5 110.5,73.5C 116.983,73.9683 122.65,75.3017 127.5,77.5C 127.351,76.448 127.517,75.448 128,74.5C 129.875,77.6436 128.708,79.1436 124.5,79C 126.811,79.2359 128.811,80.0693 130.5,81.5C 130.672,82.4916 130.338,83.1583 129.5,83.5C 128.22,82.0687 126.553,81.4021 124.5,81.5C 122.952,81.1788 122.285,80.1788 122.5,78.5C 116.795,76.6991 111.128,75.0324 105.5,73.5 Z"/></g>
<g><path style="opacity:1" fill="#2e3125" d="M 8.5,69.5 C 14.8555,69.1683 16.8555,71.835 14.5,77.5C 11.8333,77.5 9.16667,77.5 6.5,77.5C 6.1072,74.4867 6.77386,71.8201 8.5,69.5 Z"/></g>
<g><path style="opacity:1" fill="#a8b9a7" d="M 82.5,73.5 C 84.8333,73.5 87.1667,73.5 89.5,73.5C 89.8333,73.5 90.1667,73.5 90.5,73.5C 94.5,73.5 98.5,73.5 102.5,73.5C 103.071,74.9733 103.071,76.64 102.5,78.5C 101.711,78.2172 101.044,77.7172 100.5,77C 101.712,75.8932 101.379,75.3932 99.5,75.5C 97.104,75.6377 94.7707,75.971 92.5,76.5C 89.0596,75.4887 85.7263,74.4887 82.5,73.5 Z"/></g>
<g><path style="opacity:1" fill="#241a0c" d="M 89.5,73.5 C 87.1667,73.5 84.8333,73.5 82.5,73.5C 81.2267,74.0768 81.2267,74.7435 82.5,75.5C 84.3964,76.2745 86.063,77.2745 87.5,78.5C 86.448,78.3505 85.448,78.5172 84.5,79C 85.2524,79.6708 85.5858,80.5041 85.5,81.5C 83.1878,79.8545 81.1878,77.8545 79.5,75.5C 78.675,74.6143 77.675,74.281 76.5,74.5C 76.5,75.5 76.5,76.5 76.5,77.5C 75.7321,76.7375 75.2321,75.7375 75,74.5C 74.3881,77.1146 72.8881,78.7813 70.5,79.5C 73.8776,72.6088 72.5443,71.6088 66.5,76.5C 65.6143,77.325 65.281,78.325 65.5,79.5C 65.1667,79.5 64.8333,79.5 64.5,79.5C 62.6112,78.2584 60.6112,78.2584 58.5,79.5C 60.5738,77.8732 62.9071,76.3732 65.5,75C 62.9865,73.7475 60.3198,73.2475 57.5,73.5C 55.4513,74.6414 53.4513,74.6414 51.5,73.5C 51.9623,72.1201 52.9623,71.4534 54.5,71.5C 60.5218,71.9918 66.5218,72.3251 72.5,72.5C 75.5214,72.5827 78.3547,71.916 81,70.5C 83.464,71.1608 85.964,71.6608 88.5,72C 89.056,72.3826 89.3893,72.8826 89.5,73.5 Z"/></g>
<g><path style="opacity:1" fill="#416938" d="M 70.5,79.5 C 70.1667,79.5 69.8333,79.5 69.5,79.5C 69.5299,78.5028 69.0299,77.8361 68,77.5C 66.9889,78.0556 66.1556,78.7222 65.5,79.5C 65.281,78.325 65.6143,77.325 66.5,76.5C 72.5443,71.6088 73.8776,72.6088 70.5,79.5 Z"/></g>
<g><path style="opacity:1" fill="#411411" d="M 47.5,89.5 C 49.0481,89.8212 49.7148,90.8212 49.5,92.5C 48.3054,92.8656 47.6387,93.699 47.5,95C 48.2703,96.7748 49.437,98.2748 51,99.5C 51.3502,102.38 52.1835,105.047 53.5,107.5C 54.4105,109.803 56.0772,111.303 58.5,112C 56.7601,113.827 55.0935,113.66 53.5,111.5C 50.562,112.575 47.562,112.741 44.5,112C 45.624,111.751 46.624,111.251 47.5,110.5C 44.8929,109.682 42.2263,109.182 39.5,109C 37.8037,106.495 35.4703,104.995 32.5,104.5C 31.1865,102.482 31.8532,101.315 34.5,101C 32.9411,100.02 31.2744,99.1867 29.5,98.5C 29.7093,97.914 30.0426,97.414 30.5,97C 29.5842,96.7216 28.9175,96.2216 28.5,95.5C 34.4551,97.4291 40.4551,99.2624 46.5,101C 47.3366,102.011 47.67,103.178 47.5,104.5C 48.5,104.5 49.5,104.5 50.5,104.5C 50.118,100.104 47.7847,97.1036 43.5,95.5C 42.5713,94.3112 42.238,92.9778 42.5,91.5C 43.9305,91.4208 45.2638,91.7542 46.5,92.5C 47.3857,91.675 47.719,90.675 47.5,89.5 Z"/></g>
<g><path style="opacity:1" fill="#40403e" d="M 123.5,107.5 C 125.824,108.33 127.824,109.663 129.5,111.5C 128.998,112.521 128.332,112.688 127.5,112C 125.808,110.693 124.475,109.193 123.5,107.5 Z"/></g>
<g><path style="opacity:1" fill="#44453e" d="M 22.5,108.5 C 23.2389,108.369 23.9056,108.536 24.5,109C 22.8446,110.444 22.178,112.278 22.5,114.5C 24.4835,114.617 26.1502,113.95 27.5,112.5C 27.8333,112.833 28.1667,113.167 28.5,113.5C 24.8319,117.884 22.1653,117.384 20.5,112C 20.9783,110.697 21.645,109.531 22.5,108.5 Z"/></g>
<g><path style="opacity:1" fill="#3f332e" d="M 121.5,111.5 C 123.714,111.291 125.381,112.124 126.5,114C 124.396,120.541 121.396,121.041 117.5,115.5C 118.549,113.784 119.882,112.451 121.5,111.5 Z"/></g>
<g><path style="opacity:1" fill="#e5e2db" d="M 120.5,113.5 C 124.795,113.279 125.462,114.612 122.5,117.5C 120.204,116.632 119.537,115.298 120.5,113.5 Z"/></g>
<g><path style="opacity:1" fill="#b4cdb4" d="M 120.5,93.5 C 121.833,93.5 123.167,93.5 124.5,93.5C 123.051,95.1644 121.051,95.9977 118.5,96C 117.177,96.8159 116.511,97.9826 116.5,99.5C 116.167,99.5 115.833,99.5 115.5,99.5C 112.849,100.49 110.183,101.49 107.5,102.5C 106.691,104.071 106.357,105.738 106.5,107.5C 100.842,107.321 96.8418,109.821 94.5,115C 91.8585,115.323 89.5252,116.323 87.5,118C 79.7545,120.344 71.7545,121.844 63.5,122.5C 60.7286,124.086 57.7286,124.586 54.5,124C 49.3369,121.631 44.3369,119.131 39.5,116.5C 40.6671,113.31 42.3338,112.977 44.5,115.5C 50.6603,115.563 56.9936,115.396 63.5,115C 60.8553,111.836 61.8553,110.669 66.5,111.5C 69.8458,112.271 73.3458,112.938 77,113.5C 78.301,113.361 79.1344,112.695 79.5,111.5C 80.1667,110.833 80.8333,110.167 81.5,109.5C 84.3878,110.01 86.7211,109.344 88.5,107.5C 91.1656,107.067 93.8323,106.567 96.5,106C 98.4828,104.111 100.816,102.778 103.5,102C 102.402,101.23 102.402,100.397 103.5,99.5C 105.858,99.7475 107.858,99.0808 109.5,97.5C 113.68,97.2179 117.347,95.8846 120.5,93.5 Z"/></g>
<g><path style="opacity:1" fill="#474639" d="M 66.5,111.5 C 70.8333,111.5 75.1667,111.5 79.5,111.5C 79.1344,112.695 78.301,113.361 77,113.5C 73.3458,112.938 69.8458,112.271 66.5,111.5 Z"/></g>
<g><path style="opacity:1" fill="#292d27" d="M 29.5,114.5 C 30.9348,115.79 31.9348,117.456 32.5,119.5C 34.2633,118.046 35.5967,118.38 36.5,120.5C 35.4182,122.784 33.7516,123.95 31.5,124C 32.5,123 33.5,122 34.5,121C 32.5568,121.305 30.5568,121.305 28.5,121C 28.9574,120.586 29.2907,120.086 29.5,119.5C 28.3966,119.002 27.3966,118.669 26.5,118.5C 27.5244,117.148 28.5244,115.815 29.5,114.5 Z"/></g>
<g><path style="opacity:1" fill="#682119" d="M 114.5,111.5 C 111.78,115.544 108.113,118.544 103.5,120.5C 99.0232,120.881 94.6898,121.881 90.5,123.5C 89.2284,123.43 88.0617,123.097 87,122.5C 85.3015,123.741 83.8015,125.074 82.5,126.5C 75.557,127.427 68.557,127.76 61.5,127.5C 61.1667,127.5 60.8333,127.5 60.5,127.5C 60.5,127.167 60.5,126.833 60.5,126.5C 63.5184,126.665 66.5184,126.498 69.5,126C 69.1667,125.667 68.8333,125.333 68.5,125C 77.5136,122.462 86.5136,119.795 95.5,117C 98.3106,115.356 100.644,113.19 102.5,110.5C 106.94,109.629 109.607,106.963 110.5,102.5C 111.736,103.246 113.07,103.579 114.5,103.5C 114.433,102.041 114.766,100.708 115.5,99.5C 115.833,99.5 116.167,99.5 116.5,99.5C 118.024,98.8262 119.358,97.8262 120.5,96.5C 120.833,96.8333 121.167,97.1667 121.5,97.5C 119.646,102.542 117.312,107.209 114.5,111.5 Z"/></g>
<g><path style="opacity:1" fill="#333929" d="M 39.5,116.5 C 44.3369,119.131 49.3369,121.631 54.5,124C 57.7286,124.586 60.7286,124.086 63.5,122.5C 64.6085,123.29 65.9419,123.79 67.5,124C 64.6385,123.97 62.3052,124.803 60.5,126.5C 60.5,126.833 60.5,127.167 60.5,127.5C 52.5566,125.527 45.5566,121.86 39.5,116.5 Z"/></g>
<g><path style="opacity:1" fill="#33332b" d="M 115.5,118.5 C 118.183,117.834 119.516,119.168 119.5,122.5C 117.473,122.338 115.473,122.505 113.5,123C 115.975,124.743 115.975,125.743 113.5,126C 112.624,124.414 111.624,122.914 110.5,121.5C 112.826,120.61 115.159,120.443 117.5,121C 116.934,120.005 116.267,119.172 115.5,118.5 Z"/></g>
<g><path style="opacity:1" fill="#433c34" d="M 143.5,84.5 C 144.338,84.8417 144.672,85.5084 144.5,86.5C 139.007,112.675 123.674,130.675 98.5,140.5C 97.5084,140.672 96.8417,140.338 96.5,139.5C 101.928,137.287 107.261,134.787 112.5,132C 129.416,120.562 139.749,104.728 143.5,84.5 Z"/></g>
<g><path style="opacity:1" fill="#63322c" d="M 103.5,120.5 C 99.549,123.265 95.2157,125.265 90.5,126.5C 88.0483,126.014 85.3817,126.014 82.5,126.5C 83.8015,125.074 85.3015,123.741 87,122.5C 88.0617,123.097 89.2284,123.43 90.5,123.5C 94.6898,121.881 99.0232,120.881 103.5,120.5 Z"/></g>
<g><path style="opacity:1" fill="#4b4e4b" d="M 37.5,122.5 C 38.8333,122.5 40.1667,122.5 41.5,122.5C 41.4613,125.321 40.7946,127.988 39.5,130.5C 38.7967,127.316 36.7967,125.816 33.5,126C 35.0931,125.051 36.4264,123.885 37.5,122.5 Z"/></g>
<g><path style="opacity:1" fill="#272d24" d="M 108.5,123.5 C 110.416,124.665 111.249,126.332 111,128.5C 109.628,127.09 108.795,125.423 108.5,123.5 Z"/></g>
<g><path style="opacity:1" fill="#4b4b45" d="M 15.5,112.5 C 22.6276,120.969 30.6276,128.302 39.5,134.5C 34.9432,133.218 30.9432,130.885 27.5,127.5C 25.478,124.644 22.978,122.311 20,120.5C 19.0467,118.545 17.7134,116.878 16,115.5C 15.5172,114.552 15.3505,113.552 15.5,112.5 Z"/></g>
<g><path style="opacity:1" fill="#41302b" d="M 90.5,126.5 C 80.9237,129.955 71.257,130.289 61.5,127.5C 68.557,127.76 75.557,127.427 82.5,126.5C 85.3817,126.014 88.0483,126.014 90.5,126.5 Z"/></g>
<g><path style="opacity:1" fill="#32302c" d="M 101.5,127.5 C 103.741,128.3 104.741,129.966 104.5,132.5C 102.425,132.302 100.425,132.135 98.5,132C 99.9277,135.474 99.4277,135.974 97,133.5C 96.51,132.207 96.3433,130.873 96.5,129.5C 98.5116,130.014 100.512,130.18 102.5,130C 101.748,129.329 101.414,128.496 101.5,127.5 Z"/></g>
<g><path style="opacity:1" fill="#2e302b" d="M 56.5,136.5 C 55.0689,136.119 54.2355,135.119 54,133.5C 53.1667,134.5 52.3333,135.5 51.5,136.5C 50.4096,135.273 49.0762,134.44 47.5,134C 45.7888,132.867 45.2888,131.367 46,129.5C 50.0348,127.556 53.0348,128.556 55,132.5C 55.3076,131.692 55.8076,131.025 56.5,130.5C 56.9202,132.326 56.9202,134.326 56.5,136.5 Z"/></g>
<g><path style="opacity:1" fill="#c8d1ca" d="M 48.5,129.5 C 53.4221,130.334 53.5888,131.668 49,133.5C 47.2317,132.318 47.0651,130.985 48.5,129.5 Z"/></g>
<g><path style="opacity:1" fill="#414339" d="M 56.5,136.5 C 57.8333,136.5 59.1667,136.5 60.5,136.5C 60.33,135.178 60.6634,134.011 61.5,133C 64.1667,132.333 66.8333,132.333 69.5,133C 65.7279,133.611 65.7279,134.611 69.5,136C 68.1667,136.333 66.8333,136.667 65.5,137C 67.087,137.862 68.7536,138.529 70.5,139C 69.9747,139.692 69.3081,140.192 68.5,140.5C 66.9291,139.691 65.2624,139.357 63.5,139.5C 63.6621,137.473 63.4955,135.473 63,133.5C 62.135,138.287 59.9683,139.287 56.5,136.5 Z"/></g>
<g><path style="opacity:1" fill="#84857a" d="M 96.5,135.5 C 95.7079,136.518 94.0412,136.851 91.5,136.5C 91.281,135.325 91.6143,134.325 92.5,133.5C 93.5237,134.853 94.857,135.52 96.5,135.5 Z"/></g>
<g><path style="opacity:1" fill="#39352c" d="M 75.5,132.5 C 76.6431,132.908 77.6431,133.575 78.5,134.5C 77.4179,134.749 76.0846,134.915 74.5,135C 73.1587,136.826 73.6587,137.993 76,138.5C 76.8732,138.265 77.7065,137.931 78.5,137.5C 79.7112,138.274 79.7112,139.107 78.5,140C 73.5023,141.33 71.3357,139.496 72,134.5C 73.3024,133.915 74.469,133.249 75.5,132.5 Z"/></g>
<g><path style="opacity:1" fill="#38382d" d="M 86.5,132.5 C 87.6935,132.97 88.3601,133.97 88.5,135.5C 87.8985,139.378 87.0652,139.378 86,135.5C 84.9887,136.337 83.8221,136.67 82.5,136.5C 82.719,137.675 82.3857,138.675 81.5,139.5C 80.1667,137.5 80.1667,135.5 81.5,133.5C 82.1924,134.025 82.6924,134.692 83,135.5C 84.7286,135.026 85.8953,134.026 86.5,132.5 Z"/></g>
<g><path style="opacity:1" fill="#2b211c" d="M 96.5,135.5 C 94.857,135.52 93.5237,134.853 92.5,133.5C 91.6143,134.325 91.281,135.325 91.5,136.5C 90.9924,138.909 90.3257,138.742 89.5,136C 90.1476,134.56 90.4809,133.06 90.5,131.5C 93.2921,131.622 95.2921,132.956 96.5,135.5 Z"/></g>
<g><path style="opacity:1" fill="#58564c" d="M 39.5,134.5 C 57.7505,142.817 76.7505,144.484 96.5,139.5C 96.8417,140.338 97.5084,140.672 98.5,140.5C 81.5927,145.856 64.5927,145.689 47.5,140C 44.3793,138.694 41.7126,136.86 39.5,134.5 Z"/></g>
</svg>
