<?xml version="1.0" encoding="UTF-8"?>
<!DOCTYPE svg PUBLIC "-//W3C//DTD SVG 1.1//EN" "http://www.w3.org/Graphics/SVG/1.1/DTD/svg11.dtd">
<svg xmlns="http://www.w3.org/2000/svg" version="1.1" width="133px" height="134px" style="shape-rendering:geometricPrecision; text-rendering:geometricPrecision; image-rendering:optimizeQuality; fill-rule:evenodd; clip-rule:evenodd" xmlns:xlink="http://www.w3.org/1999/xlink">
<g><path style="opacity:1" fill="#fdfdfd" d="M -0.5,-0.5 C 43.8333,-0.5 88.1667,-0.5 132.5,-0.5C 132.5,44.1667 132.5,88.8333 132.5,133.5C 88.1667,133.5 43.8333,133.5 -0.5,133.5C -0.5,88.8333 -0.5,44.1667 -0.5,-0.5 Z"/></g>
<g><path style="opacity:1" fill="#6d6d6d" d="M 81.5,4.5 C 77.1074,4.45685 76.7741,4.95685 80.5,6C 79.9056,6.46434 79.2389,6.63101 78.5,6.5C 76.901,6.76781 75.5676,6.43448 74.5,5.5C 74.5,5.16667 74.5,4.83333 74.5,4.5C 76.9787,3.37734 79.312,3.37734 81.5,4.5 Z"/></g>
<g><path style="opacity:1" fill="#2c2c2e" d="M 58.5,4.5 C 63.8333,4.5 69.1667,4.5 74.5,4.5C 74.5,4.83333 74.5,5.16667 74.5,5.5C 68.773,5.25978 63.1064,5.59311 57.5,6.5C 56.1667,6.5 54.8333,6.5 53.5,6.5C 55.1667,5.83333 56.8333,5.16667 58.5,4.5 Z"/></g>
<g><path style="opacity:1" fill="#b0b0b0" d="M 81.5,4.5 C 107.552,10.8861 123.552,27.2195 129.5,53.5C 129.48,54.7261 129.147,55.7261 128.5,56.5C 127.417,50.8429 125.417,45.5095 122.5,40.5C 119.586,36.342 116.919,32.0086 114.5,27.5C 112.5,23.5 109.5,20.5 105.5,18.5C 99.9759,12.8977 93.3092,9.06435 85.5,7C 83.9343,6.23502 82.6009,6.40168 81.5,7.5C 80.209,7.73731 79.209,7.40397 78.5,6.5C 79.2389,6.63101 79.9056,6.46434 80.5,6C 76.7741,4.95685 77.1074,4.45685 81.5,4.5 Z"/></g>
<g><path style="opacity:1" fill="#d4d5d6" d="M 53.5,6.5 C 54.8333,6.5 56.1667,6.5 57.5,6.5C 57.5,8.5 57.5,10.5 57.5,12.5C 56.448,12.6495 55.448,12.4828 54.5,12C 55.9561,11.5774 56.4561,10.7441 56,9.5C 54.7949,10.0712 53.6283,10.7379 52.5,11.5C 53.3094,13.0709 53.6427,14.7376 53.5,16.5C 55.5648,16.4828 57.5648,16.1495 59.5,15.5C 64.1667,16.8333 68.8333,16.8333 73.5,15.5C 74.5,15.5 75.5,15.5 76.5,15.5C 76.5,14.5 76.5,13.5 76.5,12.5C 77.1667,12.5 77.8333,12.5 78.5,12.5C 77.031,15.5393 78.031,16.706 81.5,16C 80.6919,15.6924 80.0253,15.1924 79.5,14.5C 80.1716,12.8405 81.1716,11.5072 82.5,10.5C 83.4674,11.8062 84.8007,12.4729 86.5,12.5C 85.3747,14.1288 84.0414,15.6288 82.5,17C 85.5995,18.2576 88.5995,19.7576 91.5,21.5C 92.463,21.0302 92.463,20.3635 91.5,19.5C 94.4441,20.6287 94.7774,21.962 92.5,23.5C 89.8069,22.4485 87.1402,21.4485 84.5,20.5C 82.4375,19.2237 80.1042,18.3903 77.5,18C 70.1667,17.3333 62.8333,17.3333 55.5,18C 53.5087,18.3736 51.842,19.207 50.5,20.5C 48.2972,20.6036 46.2972,21.2702 44.5,22.5C 43.5,21.8333 42.5,21.1667 41.5,20.5C 45.7049,21.1546 46.8715,19.8212 45,16.5C 43.1865,20.3629 42.0198,20.0296 41.5,15.5C 42.6053,13.7769 44.2719,12.7769 46.5,12.5C 46.5652,14.6957 47.2319,16.6957 48.5,18.5C 49.1973,16.6155 50.1973,16.2822 51.5,17.5C 51.8333,17.1667 52.1667,16.8333 52.5,16.5C 51.9017,15.2054 51.4017,13.8721 51,12.5C 50.3292,11.7476 49.4959,11.4142 48.5,11.5C 50.0311,10.0755 49.6977,9.40879 47.5,9.5C 49.5,8.5 51.5,7.5 53.5,6.5 Z"/></g>
<g><path style="opacity:1" fill="#4b4b4b" d="M 53.5,6.5 C 51.5,7.5 49.5,8.5 47.5,9.5C 39.1687,12.1689 31.8354,16.5022 25.5,22.5C 25.0618,22.5654 24.7284,22.3988 24.5,22C 32.4678,13.6824 42.1344,8.51574 53.5,6.5 Z"/></g>
<g><path style="opacity:1" fill="#4e4e4f" d="M 81.5,7.5 C 82.6009,6.40168 83.9343,6.23502 85.5,7C 93.3092,9.06435 99.9759,12.8977 105.5,18.5C 98.0391,13.7713 90.0391,10.1047 81.5,7.5 Z"/></g>
<g><path style="opacity:1" fill="#a4a4a5" d="M 58.5,4.5 C 56.8333,5.16667 55.1667,5.83333 53.5,6.5C 42.1344,8.51574 32.4678,13.6824 24.5,22C 24.7284,22.3988 25.0618,22.5654 25.5,22.5C 25.1667,23.5 24.5,24.1667 23.5,24.5C 23.5654,24.0618 23.3988,23.7284 23,23.5C 20.8733,25.1137 19.3733,27.1137 18.5,29.5C 16.1782,30.8021 14.8449,32.8021 14.5,35.5C 13.6365,36.463 12.9698,36.463 12.5,35.5C 13.1272,34.5832 13.4606,33.5832 13.5,32.5C 27.7565,10.3732 48.0898,0.539833 74.5,3C 68.9842,3.17331 63.6509,3.67331 58.5,4.5 Z"/></g>
<g><path style="opacity:1" fill="#3d3d3d" d="M 105.5,18.5 C 109.5,20.5 112.5,23.5 114.5,27.5C 111.167,24.8333 108.167,21.8333 105.5,18.5 Z"/></g>
<g><path style="opacity:1" fill="#424242" d="M 23.5,24.5 C 22.1667,26.5 20.5,28.1667 18.5,29.5C 19.3733,27.1137 20.8733,25.1137 23,23.5C 23.3988,23.7284 23.5654,24.0618 23.5,24.5 Z"/></g>
<g><path style="opacity:1" fill="#424343" d="M 18.5,29.5 C 17.6597,31.8525 16.3264,33.8525 14.5,35.5C 14.8449,32.8021 16.1782,30.8021 18.5,29.5 Z"/></g>
<g><path style="opacity:1" fill="#737376" d="M 13.5,32.5 C 13.4606,33.5832 13.1272,34.5832 12.5,35.5C 12.9698,36.463 13.6365,36.463 14.5,35.5C 14.2451,37.9674 13.2451,39.9674 11.5,41.5C 11.6495,40.448 11.4828,39.448 11,38.5C 8.73884,42.9499 7.07217,47.6165 6,52.5C 5.53566,51.9056 5.36899,51.2389 5.5,50.5C 6.56879,43.7033 9.23546,37.7033 13.5,32.5 Z"/></g>
<g><path style="opacity:1" fill="#e9eaea" d="M 74.5,5.5 C 75.5676,6.43448 76.901,6.76781 78.5,6.5C 79.209,7.40397 80.209,7.73731 81.5,7.5C 90.0391,10.1047 98.0391,13.7713 105.5,18.5C 108.167,21.8333 111.167,24.8333 114.5,27.5C 116.919,32.0086 119.586,36.342 122.5,40.5C 130.572,61.83 128.572,82.1633 116.5,101.5C 114.413,102.585 113.08,104.251 112.5,106.5C 110.5,107.833 108.833,109.5 107.5,111.5C 105.251,112.08 103.585,113.413 102.5,115.5C 96.5266,118.938 90.1933,121.605 83.5,123.5C 82.5084,123.328 81.8417,123.662 81.5,124.5C 62.5578,127.979 45.2245,124.313 29.5,113.5C 19.9755,104.44 12.9755,93.7737 8.5,81.5C 6.42615,67.8795 7.42615,54.5462 11.5,41.5C 13.2451,39.9674 14.2451,37.9674 14.5,35.5C 16.3264,33.8525 17.6597,31.8525 18.5,29.5C 20.5,28.1667 22.1667,26.5 23.5,24.5C 24.5,24.1667 25.1667,23.5 25.5,22.5C 31.8354,16.5022 39.1687,12.1689 47.5,9.5C 49.6977,9.40879 50.0311,10.0755 48.5,11.5C 47.8333,11.8333 47.1667,12.1667 46.5,12.5C 44.2719,12.7769 42.6053,13.7769 41.5,15.5C 39.0428,17.0009 39.0428,18.6676 41.5,20.5C 42.5,21.1667 43.5,21.8333 44.5,22.5C 42.246,23.1237 40.5794,24.457 39.5,26.5C 31.2949,31.3789 25.6282,38.3789 22.5,47.5C 14.3359,69.3455 19.0026,88.1788 36.5,104C 52.5461,115.775 69.5461,117.609 87.5,109.5C 101.259,104.021 109.926,94.0214 113.5,79.5C 114.776,77.4375 115.61,75.1042 116,72.5C 116.815,67.6478 116.648,62.9811 115.5,58.5C 115.345,53.1687 113.679,48.502 110.5,44.5C 108.009,37.012 103.342,31.3453 96.5,27.5C 95.4726,25.8058 94.1392,24.4725 92.5,23.5C 94.7774,21.962 94.4441,20.6287 91.5,19.5C 90.9569,19.44 90.6236,19.1067 90.5,18.5C 91.1667,17.5 91.8333,16.5 92.5,15.5C 92.1667,15.1667 91.8333,14.8333 91.5,14.5C 90.4164,15.6651 89.5831,16.9984 89,18.5C 88.9977,15.9488 88.1644,13.9488 86.5,12.5C 84.8007,12.4729 83.4674,11.8062 82.5,10.5C 80.5168,10.1568 79.1834,10.8235 78.5,12.5C 77.8333,12.5 77.1667,12.5 76.5,12.5C 76.8039,11.8501 77.1373,11.1835 77.5,10.5C 71.9639,9.13201 71.2972,10.2987 75.5,14C 74.5509,14.6172 73.7175,14.4506 73,13.5C 72.3083,14.4368 72.475,15.1034 73.5,15.5C 68.8333,16.8333 64.1667,16.8333 59.5,15.5C 61.3218,14.6751 62.9885,14.3418 64.5,14.5C 63.9132,11.5943 62.2465,9.9276 59.5,9.5C 60.2634,13.1378 58.9301,14.6378 55.5,14C 56.4158,13.7216 57.0825,13.2216 57.5,12.5C 57.5,10.5 57.5,8.5 57.5,6.5C 63.1064,5.59311 68.773,5.25978 74.5,5.5 Z"/></g>
<g><path style="opacity:1" fill="#4f5050" d="M 12.5,50.5 C 14.3936,51.0476 16.0603,52.0476 17.5,53.5C 15.7244,55.4468 13.7244,55.7801 11.5,54.5C 12.2458,53.2638 12.5792,51.9305 12.5,50.5 Z"/></g>
<g><path style="opacity:1" fill="#f59a28" d="M 81.5,20.5 C 81.6107,21.1174 81.944,21.6174 82.5,22C 75.2667,22.5243 68.1,22.0243 61,20.5C 59.1886,21.0779 57.3553,21.5779 55.5,22C 56.7932,22.49 58.1266,22.6567 59.5,22.5C 59.8333,26.5 60.1667,26.5 60.5,22.5C 61.552,22.3505 62.552,22.5172 63.5,23C 62.2721,24.4902 62.2721,25.9902 63.5,27.5C 62.4138,27.62 61.7472,28.2867 61.5,29.5C 61.8333,30.1667 62.1667,30.8333 62.5,31.5C 63.1818,30.7573 63.8485,30.0906 64.5,29.5C 64.9789,33.4344 64.3122,37.1011 62.5,40.5C 63.6888,41.4287 65.0222,41.762 66.5,41.5C 66.5,39.8333 66.5,38.1667 66.5,36.5C 67.3629,37.2172 68.0296,38.7172 68.5,41C 69.635,41.7494 70.635,41.5827 71.5,40.5C 71.3764,39.8933 71.0431,39.56 70.5,39.5C 70.3367,37.1432 70.5034,34.8098 71,32.5C 71.414,32.9574 71.914,33.2907 72.5,33.5C 73.9406,30.2752 73.6073,27.2752 71.5,24.5C 72,24.1667 72.5,23.8333 73,23.5C 74.4768,24.444 75.4768,25.7774 76,27.5C 76.2189,26.062 76.7189,24.7287 77.5,23.5C 78.4656,25.396 78.7989,27.396 78.5,29.5C 75.5346,39.0608 72.2012,48.3942 68.5,57.5C 67.2502,57.5774 66.4169,58.244 66,59.5C 64.908,56.9556 64.2414,54.2889 64,51.5C 63.5831,50.244 62.7498,49.5774 61.5,49.5C 58.4939,41.137 55.1606,32.8037 51.5,24.5C 50.5,23.8333 49.5,23.1667 48.5,22.5C 49.1667,21.8333 49.8333,21.1667 50.5,20.5C 60.8551,17.9092 71.1884,17.9092 81.5,20.5 Z"/></g>
<g><path style="opacity:1" fill="#4e3c2a" d="M 110.5,44.5 C 113.679,48.502 115.345,53.1687 115.5,58.5C 115.818,63.0323 115.485,67.3656 114.5,71.5C 114.666,66.1563 114.499,60.8229 114,55.5C 112.675,51.8611 111.508,48.1944 110.5,44.5 Z"/></g>
<g><path style="opacity:1" fill="#4a4d49" d="M 13.5,44.5 C 14.2389,44.369 14.9056,44.5357 15.5,45C 14.5494,45.7175 14.3828,46.5509 15,47.5C 16.1096,45.9632 17.6096,45.2965 19.5,45.5C 19.7692,47.4286 19.2692,49.0953 18,50.5C 18.6126,46.9047 17.4459,46.5713 14.5,49.5C 12.2957,48.218 11.9624,46.5514 13.5,44.5 Z"/></g>
<g><path style="opacity:1" fill="#1b1b1b" d="M 23.5,33.5 C 22.9617,36.6529 21.9617,39.6529 20.5,42.5C 19.4096,41.273 18.0762,40.4396 16.5,40C 17.8975,36.7943 20.2308,34.6276 23.5,33.5 Z"/></g>
<g><path style="opacity:1" fill="#472e20" d="M 39.5,26.5 C 32.7264,32.6066 27.0598,39.6066 22.5,47.5C 25.6282,38.3789 31.2949,31.3789 39.5,26.5 Z"/></g>
<g><path style="opacity:1" fill="#1e1e1e" d="M 110.5,31.5 C 113.542,32.6417 115.875,34.6417 117.5,37.5C 116.066,38.2298 114.9,39.2298 114,40.5C 112.076,37.8107 110.909,34.8107 110.5,31.5 Z"/></g>
<g><path style="opacity:1" fill="#46302b" d="M 96.5,27.5 C 103.342,31.3453 108.009,37.012 110.5,44.5C 106.619,38.276 101.952,32.6094 96.5,27.5 Z"/></g>
<g><path style="opacity:1" fill="#474847" d="M 23.5,33.5 C 26.4104,29.2465 29.7437,25.2465 33.5,21.5C 34.5,20.1667 35.5,20.1667 36.5,21.5C 32.1725,25.4937 27.8392,29.4937 23.5,33.5 Z"/></g>
<g><path style="opacity:1" fill="#4a3227" d="M 84.5,20.5 C 87.1402,21.4485 89.8069,22.4485 92.5,23.5C 94.1392,24.4725 95.4726,25.8058 96.5,27.5C 92.1638,25.668 88.1638,23.3346 84.5,20.5 Z"/></g>
<g><path style="opacity:1" fill="#4b3323" d="M 50.5,20.5 C 49.8333,21.1667 49.1667,21.8333 48.5,22.5C 45.3516,23.5758 42.3516,24.9091 39.5,26.5C 40.5794,24.457 42.246,23.1237 44.5,22.5C 46.2972,21.2702 48.2972,20.6036 50.5,20.5 Z"/></g>
<g><path style="opacity:1" fill="#434242" d="M 110.5,31.5 C 106.38,27.0357 101.713,23.3691 96.5,20.5C 102.712,21.6587 107.378,25.3253 110.5,31.5 Z"/></g>
<g><path style="opacity:1" fill="#4f3a22" d="M 84.5,20.5 C 83.5,20.5 82.5,20.5 81.5,20.5C 71.1884,17.9092 60.8551,17.9092 50.5,20.5C 51.842,19.207 53.5087,18.3736 55.5,18C 62.8333,17.3333 70.1667,17.3333 77.5,18C 80.1042,18.3903 82.4375,19.2237 84.5,20.5 Z"/></g>
<g><path style="opacity:1" fill="#494847" d="M 86.5,12.5 C 88.1644,13.9488 88.9977,15.9488 89,18.5C 89.5831,16.9984 90.4164,15.6651 91.5,14.5C 91.8333,14.8333 92.1667,15.1667 92.5,15.5C 91.8333,16.5 91.1667,17.5 90.5,18.5C 90.6236,19.1067 90.9569,19.44 91.5,19.5C 92.463,20.3635 92.463,21.0302 91.5,21.5C 88.5995,19.7576 85.5995,18.2576 82.5,17C 84.0414,15.6288 85.3747,14.1288 86.5,12.5 Z"/></g>
<g><path style="opacity:1" fill="#383837" d="M 41.5,15.5 C 42.0198,20.0296 43.1865,20.3629 45,16.5C 46.8715,19.8212 45.7049,21.1546 41.5,20.5C 39.0428,18.6676 39.0428,17.0009 41.5,15.5 Z"/></g>
<g><path style="opacity:1" fill="#514f50" d="M 57.5,12.5 C 57.0825,13.2216 56.4158,13.7216 55.5,14C 58.9301,14.6378 60.2634,13.1378 59.5,9.5C 62.2465,9.9276 63.9132,11.5943 64.5,14.5C 62.9885,14.3418 61.3218,14.6751 59.5,15.5C 57.5648,16.1495 55.5648,16.4828 53.5,16.5C 53.6427,14.7376 53.3094,13.0709 52.5,11.5C 53.6283,10.7379 54.7949,10.0712 56,9.5C 56.4561,10.7441 55.9561,11.5774 54.5,12C 55.448,12.4828 56.448,12.6495 57.5,12.5 Z"/></g>
<g><path style="opacity:1" fill="#343434" d="M 82.5,10.5 C 81.1716,11.5072 80.1716,12.8405 79.5,14.5C 80.0253,15.1924 80.6919,15.6924 81.5,16C 78.031,16.706 77.031,15.5393 78.5,12.5C 79.1834,10.8235 80.5168,10.1568 82.5,10.5 Z"/></g>
<g><path style="opacity:1" fill="#555554" d="M 48.5,11.5 C 49.4959,11.4142 50.3292,11.7476 51,12.5C 51.4017,13.8721 51.9017,15.2054 52.5,16.5C 52.1667,16.8333 51.8333,17.1667 51.5,17.5C 50.1973,16.2822 49.1973,16.6155 48.5,18.5C 47.2319,16.6957 46.5652,14.6957 46.5,12.5C 47.1667,12.1667 47.8333,11.8333 48.5,11.5 Z"/></g>
<g><path style="opacity:1" fill="#505050" d="M 64.5,8.5 C 65.9778,8.23798 67.3112,8.57131 68.5,9.5C 66.7745,15.8886 65.4412,15.5553 64.5,8.5 Z"/></g>
<g><path style="opacity:1" fill="#474747" d="M 76.5,12.5 C 76.5,13.5 76.5,14.5 76.5,15.5C 75.5,15.5 74.5,15.5 73.5,15.5C 72.475,15.1034 72.3083,14.4368 73,13.5C 73.7175,14.4506 74.5509,14.6172 75.5,14C 71.2972,10.2987 71.9639,9.13201 77.5,10.5C 77.1373,11.1835 76.8039,11.8501 76.5,12.5 Z"/></g>
<g><path style="opacity:1" fill="#535254" d="M 114.5,45.5 C 116.288,44.3775 118.288,44.2109 120.5,45C 118.5,45.6667 117.167,47 116.5,49C 117.99,50.772 119.657,50.9387 121.5,49.5C 121.833,49.8333 122.167,50.1667 122.5,50.5C 117.326,52.27 117.659,53.4367 123.5,54C 118.165,56.9717 115.498,55.305 115.5,49C 117.105,47.078 116.772,45.9114 114.5,45.5 Z"/></g>
<g><path style="opacity:1" fill="#4f4f51" d="M 10.5,56.5 C 12.604,56.2011 14.604,56.5344 16.5,57.5C 14.3633,58.0798 12.53,59.0798 11,60.5C 10.51,59.2068 10.3433,57.8734 10.5,56.5 Z"/></g>
<g><path style="opacity:1" fill="#ababaf" d="M 11.5,41.5 C 9.33803,45.1402 7.83803,49.1402 7,53.5C 6.20147,59.4853 5.53481,65.4853 5,71.5C 4.82382,67.3123 4.32382,63.3123 3.5,59.5C 3.67615,56.2727 4.34281,53.2727 5.5,50.5C 5.36899,51.2389 5.53566,51.9056 6,52.5C 7.07217,47.6165 8.73884,42.9499 11,38.5C 11.4828,39.448 11.6495,40.448 11.5,41.5 Z"/></g>
<g><path style="opacity:1" fill="#303133" d="M 118.5,56.5 C 120.288,56.2148 121.955,56.5481 123.5,57.5C 120.972,58.8159 120.972,59.9826 123.5,61C 119.197,62.2358 118.197,61.4025 120.5,58.5C 120.154,57.3044 119.654,57.3044 119,58.5C 118.536,57.9056 118.369,57.2389 118.5,56.5 Z"/></g>
<g><path style="opacity:1" fill="#4a4b4a" d="M 15.5,61.5 C 16.782,62.7082 16.782,64.0416 15.5,65.5C 13.7749,64.9851 12.1083,64.3184 10.5,63.5C 12.2914,62.8302 13.9581,62.1635 15.5,61.5 Z"/></g>
<g><path style="opacity:1" fill="#4f4f4f" d="M 118.5,62.5 C 123.123,61.4082 124.956,63.0748 124,67.5C 122.186,68.7596 120.353,68.7596 118.5,67.5C 120.167,66.8333 121.833,66.1667 123.5,65.5C 121.345,64.9986 119.678,63.9986 118.5,62.5 Z"/></g>
<g><path style="opacity:1" fill="#5a5a5a" d="M 11.5,41.5 C 7.42615,54.5462 6.42615,67.8795 8.5,81.5C 7.37936,79.0458 6.54603,76.3791 6,73.5C 5.50454,75.4727 5.33788,77.4727 5.5,79.5C 3.73446,73.0911 3.0678,66.4244 3.5,59.5C 4.32382,63.3123 4.82382,67.3123 5,71.5C 5.53481,65.4853 6.20147,59.4853 7,53.5C 7.83803,49.1402 9.33803,45.1402 11.5,41.5 Z"/></g>
<g><path style="opacity:1" fill="#6c696c" d="M 115.5,58.5 C 116.648,62.9811 116.815,67.6478 116,72.5C 115.61,75.1042 114.776,77.4375 113.5,79.5C 113.575,76.7938 113.908,74.1272 114.5,71.5C 115.485,67.3656 115.818,63.0323 115.5,58.5 Z"/></g>
<g><path style="opacity:1" fill="#ec9a2a" d="M 81.5,20.5 C 82.5,20.5 83.5,20.5 84.5,20.5C 88.1638,23.3346 92.1638,25.668 96.5,27.5C 101.952,32.6094 106.619,38.276 110.5,44.5C 111.508,48.1944 112.675,51.8611 114,55.5C 114.499,60.8229 114.666,66.1563 114.5,71.5C 113.908,74.1272 113.575,76.7938 113.5,79.5C 108.561,92.6979 99.8946,102.698 87.5,109.5C 61.8063,118.621 41.3063,111.955 26,89.5C 18.8742,75.9907 17.7076,61.9907 22.5,47.5C 27.0598,39.6066 32.7264,32.6066 39.5,26.5C 42.3516,24.9091 45.3516,23.5758 48.5,22.5C 49.5,23.1667 50.5,23.8333 51.5,24.5C 42.5114,26.4988 35.8448,31.4988 31.5,39.5C 35.3322,35.8362 39.3322,32.3362 43.5,29C 45.6498,27.4101 47.9832,26.7434 50.5,27C 53.9477,36.8953 57.9477,46.562 62.5,56C 61.8921,56.8699 61.0588,57.3699 60,57.5C 57.5413,56.0216 55.0413,54.6882 52.5,53.5C 54.2368,55.5497 56.2368,57.383 58.5,59C 61.2287,59.8015 62.8954,58.8015 63.5,56C 63.1253,53.7114 62.4586,51.5447 61.5,49.5C 62.7498,49.5774 63.5831,50.244 64,51.5C 64.2414,54.2889 64.908,56.9556 66,59.5C 66.4169,58.244 67.2502,57.5774 68.5,57.5C 68.5,58.5 68.5,59.5 68.5,60.5C 67.209,60.2627 66.209,60.596 65.5,61.5C 64.391,61.5569 63.391,61.8902 62.5,62.5C 54.3115,58.6141 45.6449,55.9475 36.5,54.5C 34.3098,67.4206 37.6431,78.5873 46.5,88C 50.3088,91.2377 54.6421,93.4044 59.5,94.5C 62.1459,95.1644 64.9792,95.4978 68,95.5C 72.1327,95.7143 75.966,95.0476 79.5,93.5C 89.4877,89.5324 95.1543,82.1991 96.5,71.5C 94.643,75.849 92.4763,80.1823 90,84.5C 86.8883,88.2977 83.0549,90.9643 78.5,92.5C 72.5451,93.3635 66.5451,93.6968 60.5,93.5C 42.9186,87.0278 35.5852,74.3612 38.5,55.5C 46.4217,58.4785 54.4217,61.1452 62.5,63.5C 62.2525,65.8583 62.9192,67.8583 64.5,69.5C 63.6295,72.1123 62.9628,74.779 62.5,77.5C 64.8333,77.5 67.1667,77.5 69.5,77.5C 69.5,76.1667 69.5,74.8333 69.5,73.5C 71.2161,73.3713 72.8828,73.038 74.5,72.5C 71.0303,70.8993 68.697,72.066 67.5,76C 66.552,76.4828 65.552,76.6495 64.5,76.5C 64.0019,72.4647 65.6685,70.1313 69.5,69.5C 70.5,69.1667 71.1667,68.5 71.5,67.5C 77.815,68.5782 83.815,70.5782 89.5,73.5C 88.3339,77.1657 86.6672,80.499 84.5,83.5C 88.9605,80.5879 90.6272,76.5879 89.5,71.5C 83.8099,69.4926 78.1432,67.4926 72.5,65.5C 72.6716,64.5084 72.3382,63.8417 71.5,63.5C 70.6103,61.2181 70.4436,58.8848 71,56.5C 74.3162,47.222 77.6495,37.8886 81,28.5C 81.779,27.2718 82.779,26.2718 84,25.5C 86.1542,26.2741 88.3208,26.9408 90.5,27.5C 87.8082,24.8193 84.4748,23.4859 80.5,23.5C 80.405,25.7857 79.7384,27.7857 78.5,29.5C 78.7989,27.396 78.4656,25.396 77.5,23.5C 76.7189,24.7287 76.2189,26.062 76,27.5C 75.4768,25.7774 74.4768,24.444 73,23.5C 72.5,23.8333 72,24.1667 71.5,24.5C 73.6073,27.2752 73.9406,30.2752 72.5,33.5C 71.914,33.2907 71.414,32.9574 71,32.5C 70.5034,34.8098 70.3367,37.1432 70.5,39.5C 69.1944,36.3132 69.1944,32.9798 70.5,29.5C 71.1924,30.0253 71.6924,30.6919 72,31.5C 72.49,30.2068 72.6567,28.8734 72.5,27.5C 71.5,27.5 70.5,27.5 69.5,27.5C 69.5,25.8333 69.5,24.1667 69.5,22.5C 67.8333,22.5 66.1667,22.5 64.5,22.5C 64.2627,23.791 64.596,24.791 65.5,25.5C 65.5,26.8333 64.8333,27.5 63.5,27.5C 62.2721,25.9902 62.2721,24.4902 63.5,23C 62.552,22.5172 61.552,22.3505 60.5,22.5C 60.1667,26.5 59.8333,26.5 59.5,22.5C 58.1266,22.6567 56.7932,22.49 55.5,22C 57.3553,21.5779 59.1886,21.0779 61,20.5C 68.1,22.0243 75.2667,22.5243 82.5,22C 81.944,21.6174 81.6107,21.1174 81.5,20.5 Z"/></g>
<g><path style="opacity:1" fill="#0e0808" d="M 65.5,61.5 C 67.8583,61.2525 69.8583,61.9192 71.5,63.5C 72.3382,63.8417 72.6716,64.5084 72.5,65.5C 72.1667,66.1667 71.8333,66.8333 71.5,67.5C 71.1667,68.5 70.5,69.1667 69.5,69.5C 67.8333,69.5 66.1667,69.5 64.5,69.5C 62.9192,67.8583 62.2525,65.8583 62.5,63.5C 62.5,63.1667 62.5,62.8333 62.5,62.5C 63.391,61.8902 64.391,61.5569 65.5,61.5 Z"/></g>
<g><path style="opacity:1" fill="#502d14" d="M 56.5,76.5 C 55.7109,76.2172 55.0442,75.7172 54.5,75C 57.0108,72.6745 58.3441,69.8411 58.5,66.5C 53.1667,66.5 47.8333,66.5 42.5,66.5C 43.6025,71.371 45.2692,76.0376 47.5,80.5C 45.8267,79.657 44.66,78.3237 44,76.5C 42.3262,72.9793 41.1596,69.3127 40.5,65.5C 46.8154,64.8905 53.1487,64.5572 59.5,64.5C 59.5191,66.0603 59.8524,67.5603 60.5,69C 59.0216,71.4587 57.6882,73.9587 56.5,76.5 Z"/></g>
<g><path style="opacity:1" fill="#402813" d="M 80.5,51.5 C 79.6267,53.8863 78.1267,55.8863 76,57.5C 75.3162,58.7839 75.4829,59.9505 76.5,61C 83.4921,61.4996 90.4921,61.6663 97.5,61.5C 97.8128,65.0419 97.4794,68.3752 96.5,71.5C 96.5,68.5 96.5,65.5 96.5,62.5C 89.4544,62.4943 82.4544,62.661 75.5,63C 73.9644,61.4006 73.4644,59.5672 74,57.5C 76.0829,55.244 78.2496,53.244 80.5,51.5 Z"/></g>
<g><path style="opacity:1" fill="#553014" d="M 52.5,53.5 C 48.2344,51.0833 44.0677,48.4167 40,45.5C 33.9634,53.1159 31.9634,61.7826 34,71.5C 35.4947,77.1608 37.6613,82.4942 40.5,87.5C 38.5491,86.2842 37.0491,84.6175 36,82.5C 30.8585,72.4664 30.1918,62.1331 34,51.5C 35.2477,48.421 37.0811,45.7543 39.5,43.5C 44.4433,46.1272 48.7767,49.4605 52.5,53.5 Z"/></g>
<g><path style="opacity:1" fill="#4e2f13" d="M 103.5,81.5 C 108.751,66.757 106.751,53.0903 97.5,40.5C 96.4091,39.1124 95.0758,38.6124 93.5,39C 89.2713,43.3978 84.9379,47.5644 80.5,51.5C 84.2651,46.5594 88.2651,41.726 92.5,37C 95.096,36.542 97.2627,37.3754 99,39.5C 108.367,52.7872 109.867,66.7872 103.5,81.5 Z"/></g>
<g><path style="opacity:1" fill="#552f14" d="M 51.5,24.5 C 55.1606,32.8037 58.4939,41.137 61.5,49.5C 62.4586,51.5447 63.1253,53.7114 63.5,56C 62.8954,58.8015 61.2287,59.8015 58.5,59C 56.2368,57.383 54.2368,55.5497 52.5,53.5C 55.0413,54.6882 57.5413,56.0216 60,57.5C 61.0588,57.3699 61.8921,56.8699 62.5,56C 57.9477,46.562 53.9477,36.8953 50.5,27C 47.9832,26.7434 45.6498,27.4101 43.5,29C 39.3322,32.3362 35.3322,35.8362 31.5,39.5C 35.8448,31.4988 42.5114,26.4988 51.5,24.5 Z"/></g>
<g><path style="opacity:1" fill="#432617" d="M 31.5,39.5 C 31.2503,41.674 30.2503,43.3406 28.5,44.5C 28.7497,42.326 29.7497,40.6594 31.5,39.5 Z"/></g>
<g><path style="opacity:1" fill="#45290d" d="M 64.5,29.5 C 65.1667,31.8333 65.8333,34.1667 66.5,36.5C 66.5,38.1667 66.5,39.8333 66.5,41.5C 65.0222,41.762 63.6888,41.4287 62.5,40.5C 64.3122,37.1011 64.9789,33.4344 64.5,29.5 Z"/></g>
<g><path style="opacity:1" fill="#533219" d="M 90.5,27.5 C 98.7391,30.5636 103.906,36.2303 106,44.5C 101.677,38.0128 96.5103,32.3461 90.5,27.5 Z"/></g>
<g><path style="opacity:1" fill="#1b100b" d="M 69.5,27.5 C 70.5,27.5 71.5,27.5 72.5,27.5C 72.6567,28.8734 72.49,30.2068 72,31.5C 71.6924,30.6919 71.1924,30.0253 70.5,29.5C 69.1944,32.9798 69.1944,36.3132 70.5,39.5C 71.0431,39.56 71.3764,39.8933 71.5,40.5C 70.635,41.5827 69.635,41.7494 68.5,41C 68.0296,38.7172 67.3629,37.2172 66.5,36.5C 65.8333,34.1667 65.1667,31.8333 64.5,29.5C 63.8485,30.0906 63.1818,30.7573 62.5,31.5C 62.1667,30.8333 61.8333,30.1667 61.5,29.5C 61.7472,28.2867 62.4138,27.62 63.5,27.5C 64.8333,27.5 65.5,26.8333 65.5,25.5C 65.8212,23.9519 66.8212,23.2852 68.5,23.5C 68.2322,25.099 68.5655,26.4324 69.5,27.5 Z"/></g>
<g><path style="opacity:1" fill="#5e3513" d="M 90.5,27.5 C 88.3208,26.9408 86.1542,26.2741 84,25.5C 82.779,26.2718 81.779,27.2718 81,28.5C 77.6495,37.8886 74.3162,47.222 71,56.5C 70.4436,58.8848 70.6103,61.2181 71.5,63.5C 69.8583,61.9192 67.8583,61.2525 65.5,61.5C 66.209,60.596 67.209,60.2627 68.5,60.5C 68.5,59.5 68.5,58.5 68.5,57.5C 72.2012,48.3942 75.5346,39.0608 78.5,29.5C 79.7384,27.7857 80.405,25.7857 80.5,23.5C 84.4748,23.4859 87.8082,24.8193 90.5,27.5 Z"/></g>
<g><path style="opacity:1" fill="#56270e" d="M 69.5,27.5 C 68.5655,26.4324 68.2322,25.099 68.5,23.5C 66.8212,23.2852 65.8212,23.9519 65.5,25.5C 64.596,24.791 64.2627,23.791 64.5,22.5C 66.1667,22.5 67.8333,22.5 69.5,22.5C 69.5,24.1667 69.5,25.8333 69.5,27.5 Z"/></g>
<g><path style="opacity:1" fill="#4a240e" d="M 64.5,69.5 C 66.1667,69.5 67.8333,69.5 69.5,69.5C 65.6685,70.1313 64.0019,72.4647 64.5,76.5C 65.552,76.6495 66.552,76.4828 67.5,76C 68.697,72.066 71.0303,70.8993 74.5,72.5C 72.8828,73.038 71.2161,73.3713 69.5,73.5C 69.5,74.8333 69.5,76.1667 69.5,77.5C 67.1667,77.5 64.8333,77.5 62.5,77.5C 62.9628,74.779 63.6295,72.1123 64.5,69.5 Z"/></g>
<g><path style="opacity:1" fill="#512912" d="M 72.5,65.5 C 78.1432,67.4926 83.8099,69.4926 89.5,71.5C 90.6272,76.5879 88.9605,80.5879 84.5,83.5C 86.6672,80.499 88.3339,77.1657 89.5,73.5C 83.815,70.5782 77.815,68.5782 71.5,67.5C 71.8333,66.8333 72.1667,66.1667 72.5,65.5 Z"/></g>
<g><path style="opacity:1" fill="#464747" d="M 118.5,69.5 C 120.199,69.3398 121.866,69.5065 123.5,70C 121.009,70.6259 121.009,71.4593 123.5,72.5C 121.009,73.5407 121.009,74.3741 123.5,75C 121.833,75.3333 120.167,75.6667 118.5,76C 124.671,76.8035 125.005,78.4701 119.5,81C 121.595,81.5556 121.762,82.0556 120,82.5C 116.632,81.9021 116.132,80.7354 118.5,79C 117.874,75.6029 117.874,72.4362 118.5,69.5 Z"/></g>
<g><path style="opacity:1" fill="#2e2e2d" d="M 16.5,73.5 C 15.8333,73.8333 15.1667,74.1667 14.5,74.5C 13.352,73.8359 12.0187,73.6692 10.5,74C 12.9574,72.4877 12.9574,71.1544 10.5,70C 12.4727,69.5045 14.4727,69.3379 16.5,69.5C 16.5,70.8333 16.5,72.1667 16.5,73.5 Z"/></g>
<g><path style="opacity:1" fill="#aeaeae" d="M 13.5,70.5 C 15.337,70.6395 15.6704,71.3061 14.5,72.5C 13.7025,72.0431 13.3691,71.3764 13.5,70.5 Z"/></g>
<g><path style="opacity:1" fill="#7f7b7f" d="M 16.5,73.5 C 17.2341,74.7079 17.5674,76.0413 17.5,77.5C 16.391,77.5569 15.391,77.8902 14.5,78.5C 13.6016,77.8423 12.6016,77.1757 11.5,76.5C 12.6016,75.8243 13.6016,75.1577 14.5,74.5C 15.1667,74.1667 15.8333,73.8333 16.5,73.5 Z"/></g>
<g><path style="opacity:1" fill="#502e10" d="M 96.5,71.5 C 95.1543,82.1991 89.4877,89.5324 79.5,93.5C 78.8333,93.5 78.5,93.1667 78.5,92.5C 83.0549,90.9643 86.8883,88.2977 90,84.5C 92.4763,80.1823 94.643,75.849 96.5,71.5 Z"/></g>
<g><path style="opacity:1" fill="#b7b7b6" d="M 8.5,81.5 C 8.65668,82.8734 8.49001,84.2068 8,85.5C 7.43381,83.2774 6.60047,81.2774 5.5,79.5C 5.33788,77.4727 5.50454,75.4727 6,73.5C 6.54603,76.3791 7.37936,79.0458 8.5,81.5 Z"/></g>
<g><path style="opacity:1" fill="#a2a2a2" d="M 100.5,119.5 C 99.7611,119.631 99.0944,119.464 98.5,119C 100.093,118.051 101.426,116.885 102.5,115.5C 104.749,114.92 106.415,113.587 107.5,111.5C 108.833,109.5 110.5,107.833 112.5,106.5C 114.587,105.415 115.92,103.749 116.5,101.5C 119.726,98.0695 122.226,94.0695 124,89.5C 125.68,84.4228 127.18,79.4228 128.5,74.5C 129.327,69.0149 129.827,63.3482 130,57.5C 132.468,79.7676 125.634,98.6009 109.5,114C 106.778,116.358 103.778,118.191 100.5,119.5 Z"/></g>
<g><path style="opacity:1" fill="#513013" d="M 103.5,81.5 C 99.6169,91.8785 92.2836,98.7118 81.5,102C 54.6325,109.067 36.7992,99.5669 28,73.5C 25.1124,56.6723 30.2791,43.0056 43.5,32.5C 48.881,38.5459 53.881,44.8792 58.5,51.5C 57.6446,52.293 56.8113,51.9597 56,50.5C 52.2994,45.0907 48.1328,40.0907 43.5,35.5C 31.8067,44.5759 26.9734,56.5759 29,71.5C 33.5784,91.7449 46.2451,102.078 67,102.5C 83.2576,102.371 95.4243,95.3714 103.5,81.5 Z"/></g>
<g><path style="opacity:1" fill="#4e2f14" d="M 82.5,105.5 C 100.426,97.8758 109.76,84.2092 110.5,64.5C 109.966,58.392 109.132,52.392 108,46.5C 115.561,67.0873 111.395,84.9206 95.5,100C 91.6264,102.937 87.2931,104.771 82.5,105.5 Z"/></g>
<g><path style="opacity:1" fill="#542f13" d="M 62.5,62.5 C 62.5,62.8333 62.5,63.1667 62.5,63.5C 54.4217,61.1452 46.4217,58.4785 38.5,55.5C 35.5852,74.3612 42.9186,87.0278 60.5,93.5C 60.5,94.1667 60.1667,94.5 59.5,94.5C 54.6421,93.4044 50.3088,91.2377 46.5,88C 37.6431,78.5873 34.3098,67.4206 36.5,54.5C 45.6449,55.9475 54.3115,58.6141 62.5,62.5 Z"/></g>
<g><path style="opacity:1" fill="#4d2c12" d="M 74.5,72.5 C 77.3943,73.8823 79.8943,75.8823 82,78.5C 82.4922,79.549 82.3256,80.549 81.5,81.5C 73.3208,87.0178 64.6541,87.8512 55.5,84C 52.2694,81.2727 49.6028,78.106 47.5,74.5C 49.335,72.1274 51.6683,70.9607 54.5,71C 52.8333,72.1667 51.1667,73.3333 49.5,74.5C 56.0301,84.8866 65.0301,87.72 76.5,83C 78.9232,82.2681 80.0899,80.7681 80,78.5C 77.91,76.5837 76.0767,74.5837 74.5,72.5 Z"/></g>
<g><path style="opacity:1" fill="#664117" d="M 56.5,76.5 C 60.7467,79.2544 65.4133,80.0877 70.5,79C 71.6621,78.1729 72.8288,77.3396 74,76.5C 75.726,77.6479 75.5593,78.8145 73.5,80C 68.7892,81.844 64.1226,81.844 59.5,80C 57.9371,79.2411 56.9371,78.0744 56.5,76.5 Z"/></g>
<g><path style="opacity:1" fill="#4d4c4c" d="M 17.5,77.5 C 16.9423,78.7899 15.9423,79.6232 14.5,80C 18.35,80.5619 20.1834,82.7286 20,86.5C 19.3333,85.8333 18.6667,85.1667 18,84.5C 18.0773,85.7376 17.9106,86.7376 17.5,87.5C 16.1166,84.9244 15.2833,85.2577 15,88.5C 13.018,86.1684 13.518,84.335 16.5,83C 11.2132,82.6349 10.5465,81.1349 14.5,78.5C 15.391,77.8902 16.391,77.5569 17.5,77.5 Z"/></g>
<g><path style="opacity:1" fill="#474643" d="M 114.5,83.5 C 119.123,82.4082 120.956,84.0748 120,88.5C 115.325,90.334 113.492,88.6673 114.5,83.5 Z"/></g>
<g><path style="opacity:1" fill="#4a382e" d="M 22.5,47.5 C 17.7076,61.9907 18.8742,75.9907 26,89.5C 41.3063,111.955 61.8063,118.621 87.5,109.5C 69.5461,117.609 52.5461,115.775 36.5,104C 19.0026,88.1788 14.3359,69.3455 22.5,47.5 Z"/></g>
<g><path style="opacity:1" fill="#dcdbda" d="M 116.5,84.5 C 117.995,84.4148 118.995,85.0815 119.5,86.5C 118.167,87.8333 116.833,87.8333 115.5,86.5C 115.863,85.8165 116.196,85.1499 116.5,84.5 Z"/></g>
<g><path style="opacity:1" fill="#4e2917" d="M 84.5,83.5 C 84.5858,84.4959 84.2524,85.3292 83.5,86C 81.7834,87.5588 79.7834,88.3921 77.5,88.5C 79.5496,86.4525 81.883,84.7859 84.5,83.5 Z"/></g>
<g><path style="opacity:1" fill="#5b3415" d="M 47.5,80.5 C 55.7009,89.3377 65.7009,92.0043 77.5,88.5C 68.9982,92.7874 60.6649,92.2874 52.5,87C 50.2101,85.2228 48.5434,83.0562 47.5,80.5 Z"/></g>
<g><path style="opacity:1" fill="#424242" d="M 122.5,40.5 C 125.417,45.5095 127.417,50.8429 128.5,56.5C 128.5,62.5 128.5,68.5 128.5,74.5C 127.18,79.4228 125.68,84.4228 124,89.5C 122.226,94.0695 119.726,98.0695 116.5,101.5C 128.572,82.1633 130.572,61.83 122.5,40.5 Z"/></g>
<g><path style="opacity:1" fill="#4d4d4e" d="M 5.5,79.5 C 6.60047,81.2774 7.43381,83.2774 8,85.5C 8.49001,84.2068 8.65668,82.8734 8.5,81.5C 12.9755,93.7737 19.9755,104.44 29.5,113.5C 20.6592,107.14 14.1592,98.8067 10,88.5C 9.51722,89.448 9.35055,90.448 9.5,91.5C 6.79248,88.0445 5.45914,84.0445 5.5,79.5 Z"/></g>
<g><path style="opacity:1" fill="#505050" d="M 18.5,88.5 C 21.9103,88.3838 23.2436,90.0504 22.5,93.5C 20.6096,93.2965 19.1096,93.9632 18,95.5C 17.3162,94.2161 17.4829,93.0495 18.5,92C 17.5,91.6667 16.5,91.3333 15.5,91C 16.5707,90.1482 17.5707,89.3149 18.5,88.5 Z"/></g>
<g><path style="opacity:1" fill="#68686b" d="M 9.5,91.5 C 11.0075,93.1815 12.0075,95.1815 12.5,97.5C 10.461,96.089 9.46095,94.089 9.5,91.5 Z"/></g>
<g><path style="opacity:1" fill="#555555" d="M 112.5,89.5 C 113.239,89.369 113.906,89.5357 114.5,90C 113.663,91.0113 113.33,92.1779 113.5,93.5C 115.143,93.5198 116.476,92.8532 117.5,91.5C 118.594,92.868 118.26,94.0347 116.5,95C 112.266,95.267 110.933,93.4336 112.5,89.5 Z"/></g>
<g><path style="opacity:1" fill="#573413" d="M 40.5,87.5 C 54.7534,100.001 70.42,101.834 87.5,93C 100.58,81.8533 104.58,68.02 99.5,51.5C 93.3247,53.2493 87.3247,55.5826 81.5,58.5C 81.1667,58.1667 80.8333,57.8333 80.5,57.5C 86.0202,54.5738 91.6869,51.9071 97.5,49.5C 98.4419,49.6082 99.2753,49.9415 100,50.5C 106.615,67.6686 102.782,82.1686 88.5,94C 74.9411,102.086 61.2744,102.419 47.5,95C 44.2608,93.2636 41.9274,90.7636 40.5,87.5 Z"/></g>
<g><path style="opacity:1" fill="#7a4d19" d="M 78.5,92.5 C 78.5,93.1667 78.8333,93.5 79.5,93.5C 75.966,95.0476 72.1327,95.7143 68,95.5C 64.9792,95.4978 62.1459,95.1644 59.5,94.5C 60.1667,94.5 60.5,94.1667 60.5,93.5C 66.5451,93.6968 72.5451,93.3635 78.5,92.5 Z"/></g>
<g><path style="opacity:1" fill="#474547" d="M 108.5,95.5 C 110.148,96.8098 111.814,98.1431 113.5,99.5C 112.271,100.281 110.938,100.781 109.5,101C 110.696,101.654 110.696,102.154 109.5,102.5C 105.787,100.663 105.787,99.1628 109.5,98C 108.748,97.3292 108.414,96.4959 108.5,95.5 Z"/></g>
<g><path style="opacity:1" fill="#414441" d="M 23.5,95.5 C 25.9859,96.2438 27.9859,97.7438 29.5,100C 28.2343,101.983 26.5676,102.983 24.5,103C 25.1667,102.333 25.8333,101.667 26.5,101C 24.6102,99.1269 22.6102,98.2936 20.5,98.5C 21.7701,97.7124 22.7701,96.7124 23.5,95.5 Z"/></g>
<g><path style="opacity:1" fill="#4d2e11" d="M 28.5,44.5 C 19.9105,67.0889 24.9105,85.9222 43.5,101C 55.8766,107.747 68.8766,109.247 82.5,105.5C 62.2772,112.68 45.1105,108.013 31,91.5C 23.8502,79.8239 21.5169,67.1573 24,53.5C 25.0189,50.1284 26.5189,47.1284 28.5,44.5 Z"/></g>
<g><path style="opacity:1" fill="#43382e" d="M 113.5,79.5 C 109.926,94.0214 101.259,104.021 87.5,109.5C 99.8946,102.698 108.561,92.6979 113.5,79.5 Z"/></g>
<g><path style="opacity:1" fill="#373737" d="M 116.5,101.5 C 115.92,103.749 114.587,105.415 112.5,106.5C 113.08,104.251 114.413,102.585 116.5,101.5 Z"/></g>
<g><path style="opacity:1" fill="#494949" d="M 31.5,109.5 C 28.9146,108.341 27.2479,106.841 26.5,105C 27.6853,103.647 29.0186,102.48 30.5,101.5C 31.7112,102.274 31.7112,103.107 30.5,104C 31.624,104.249 32.624,104.749 33.5,105.5C 32.3698,106.622 31.7031,107.956 31.5,109.5 Z"/></g>
<g><path style="opacity:1" fill="#4c4c49" d="M 104.5,108.5 C 103.652,109.625 102.652,109.625 101.5,108.5C 101.489,106.983 100.823,105.816 99.5,105C 99.8333,104.833 100.167,104.667 100.5,104.5C 101.84,105.867 103.173,107.2 104.5,108.5 Z"/></g>
<g><path style="opacity:1" fill="#525151" d="M 104.5,108.5 C 103.545,106.254 102.878,103.921 102.5,101.5C 105.01,101.991 107.344,102.991 109.5,104.5C 108.675,105.386 107.675,105.719 106.5,105.5C 106.715,107.179 106.048,108.179 104.5,108.5 Z"/></g>
<g><path style="opacity:1" fill="#939393" d="M 29.5,113.5 C 30.7158,115.451 32.3825,116.951 34.5,118C 38.9252,120.213 43.2585,122.379 47.5,124.5C 50.8586,126.219 54.5253,127.386 58.5,128C 57.9056,128.464 57.2389,128.631 56.5,128.5C 36.8374,125.158 22.1708,114.825 12.5,97.5C 12.0075,95.1815 11.0075,93.1815 9.5,91.5C 9.35055,90.448 9.51722,89.448 10,88.5C 14.1592,98.8067 20.6592,107.14 29.5,113.5 Z"/></g>
<g><path style="opacity:1" fill="#484747" d="M 31.5,109.5 C 37.4056,105.242 38.7389,106.576 35.5,113.5C 34.6143,112.675 34.281,111.675 34.5,110.5C 33.209,110.737 32.209,110.404 31.5,109.5 Z"/></g>
<g><path style="opacity:1" fill="#4b4b4a" d="M 101.5,108.5 C 102.263,112.138 100.93,113.638 97.5,113C 94.5923,110.201 94.9256,108.035 98.5,106.5C 99.5178,107.193 100.518,107.859 101.5,108.5 Z"/></g>
<g><path style="opacity:1" fill="#8a8b8b" d="M 91.5,111.5 C 90.4265,112.251 90.2599,113.251 91,114.5C 91.9699,114.624 92.8032,114.624 93.5,114.5C 93.6495,115.552 93.4828,116.552 93,117.5C 91.836,117.835 90.5026,117.835 89,117.5C 88.5983,116.128 88.0983,114.795 87.5,113.5C 88.5,112.5 89.5,111.5 90.5,110.5C 91.1067,110.624 91.44,110.957 91.5,111.5 Z"/></g>
<g><path style="opacity:1" fill="#e0e0e0" d="M 97.5,108.5 C 98.9953,108.415 99.9953,109.081 100.5,110.5C 98.6043,111.639 97.6043,110.973 97.5,108.5 Z"/></g>
<g><path style="opacity:1" fill="#3b3b3b" d="M 107.5,111.5 C 106.415,113.587 104.749,114.92 102.5,115.5C 103.585,113.413 105.251,112.08 107.5,111.5 Z"/></g>
<g><path style="opacity:1" fill="#989898" d="M 41.5,112.5 C 41.1961,113.15 40.8627,113.817 40.5,114.5C 40.8457,115.696 41.3457,115.696 42,114.5C 42.4828,115.448 42.6495,116.448 42.5,117.5C 40.1884,116.522 38.5218,114.855 37.5,112.5C 38.6998,111.708 40.0331,111.708 41.5,112.5 Z"/></g>
<g><path style="opacity:1" fill="#313131" d="M 91.5,111.5 C 92.5417,112.791 93.7083,112.791 95,111.5C 97.368,114.598 96.868,115.598 93.5,114.5C 92.8032,114.624 91.9699,114.624 91,114.5C 90.2599,113.251 90.4265,112.251 91.5,111.5 Z"/></g>
<g><path style="opacity:1" fill="#313131" d="M 42.5,117.5 C 42.6495,116.448 42.4828,115.448 42,114.5C 41.3457,115.696 40.8457,115.696 40.5,114.5C 40.8627,113.817 41.1961,113.15 41.5,112.5C 41.56,111.957 41.8933,111.624 42.5,111.5C 43.2508,112.376 43.7508,113.376 44,114.5C 44.9653,112.74 46.132,112.406 47.5,113.5C 46.6667,115.167 45.8333,116.833 45,118.5C 44.6582,116.381 43.8249,116.047 42.5,117.5 Z"/></g>
<g><path style="opacity:1" fill="#686767" d="M 80.5,114.5 C 83.518,114.8 85.518,116.467 86.5,119.5C 84.7027,118.966 83.0361,119.633 81.5,121.5C 79.8946,118.05 78.2279,118.383 76.5,122.5C 75.5258,120.257 75.1924,117.924 75.5,115.5C 77.1439,115.286 78.6439,115.62 80,116.5C 80.4643,115.906 80.631,115.239 80.5,114.5 Z"/></g>
<g><path style="opacity:1" fill="#5e5e5e" d="M 49.5,114.5 C 50.5,114.5 51.5,114.5 52.5,114.5C 53.3857,120.655 51.3857,121.988 46.5,118.5C 47.5244,117.148 48.5244,115.815 49.5,114.5 Z"/></g>
<g><path style="opacity:1" fill="#4f4f4e" d="M 54.5,115.5 C 56.861,115.674 59.1944,116.007 61.5,116.5C 61.7989,118.604 61.4656,120.604 60.5,122.5C 59.7189,121.271 59.2189,119.938 59,118.5C 58.0331,119.678 57.5331,121.011 57.5,122.5C 56.8333,121.5 56.1667,120.5 55.5,119.5C 54.8076,120.025 54.3076,120.692 54,121.5C 53.3224,119.402 53.4891,117.402 54.5,115.5 Z"/></g>
<g><path style="opacity:1" fill="#4b4a4b" d="M 69.5,116.5 C 74.2411,116.161 75.5744,118.161 73.5,122.5C 68.8268,123.128 67.4935,121.128 69.5,116.5 Z"/></g>
<g><path style="opacity:1" fill="#edecec" d="M 70.5,118.5 C 73.9571,118.667 74.2904,119.667 71.5,121.5C 70.6143,120.675 70.281,119.675 70.5,118.5 Z"/></g>
<g><path style="opacity:1" fill="#404040" d="M 63.5,116.5 C 68.6294,117.614 68.6294,118.281 63.5,118.5C 63.5,119.5 63.5,120.5 63.5,121.5C 65.1092,121.094 66.4425,121.094 67.5,121.5C 66.3803,123.596 64.8803,123.93 63,122.5C 62.3224,120.402 62.4891,118.402 63.5,116.5 Z"/></g>
<g><path style="opacity:1" fill="#545454" d="M 102.5,115.5 C 101.426,116.885 100.093,118.051 98.5,119C 99.0944,119.464 99.7611,119.631 100.5,119.5C 100.5,120.167 100.167,120.5 99.5,120.5C 94.4299,120.911 89.5966,122.245 85,124.5C 84.2352,124.43 83.7352,124.097 83.5,123.5C 90.1933,121.605 96.5266,118.938 102.5,115.5 Z"/></g>
<g><path style="opacity:1" fill="#a5a3a6" d="M 47.5,124.5 C 53.609,125.768 59.7757,126.768 66,127.5C 70.1472,126.877 74.3139,126.544 78.5,126.5C 78.5064,127.417 77.5064,127.917 75.5,128C 76.0944,128.464 76.7611,128.631 77.5,128.5C 70.5,129.833 63.5,129.833 56.5,128.5C 57.2389,128.631 57.9056,128.464 58.5,128C 54.5253,127.386 50.8586,126.219 47.5,124.5 Z"/></g>
<g><path style="opacity:1" fill="#88888b" d="M 99.5,120.5 C 92.8479,124.817 85.5145,127.483 77.5,128.5C 76.7611,128.631 76.0944,128.464 75.5,128C 77.5064,127.917 78.5064,127.417 78.5,126.5C 80.246,125.999 81.246,125.332 81.5,124.5C 81.8417,123.662 82.5084,123.328 83.5,123.5C 83.7352,124.097 84.2352,124.43 85,124.5C 89.5966,122.245 94.4299,120.911 99.5,120.5 Z"/></g>
<g><path style="opacity:1" fill="#535352" d="M 29.5,113.5 C 45.2245,124.313 62.5578,127.979 81.5,124.5C 81.246,125.332 80.246,125.999 78.5,126.5C 74.3139,126.544 70.1472,126.877 66,127.5C 59.7757,126.768 53.609,125.768 47.5,124.5C 43.2585,122.379 38.9252,120.213 34.5,118C 32.3825,116.951 30.7158,115.451 29.5,113.5 Z"/></g>
</svg>
