<?xml version="1.0" encoding="UTF-8"?>
<!DOCTYPE svg PUBLIC "-//W3C//DTD SVG 1.1//EN" "http://www.w3.org/Graphics/SVG/1.1/DTD/svg11.dtd">
<svg xmlns="http://www.w3.org/2000/svg" version="1.1" width="210px" height="207px" style="shape-rendering:geometricPrecision; text-rendering:geometricPrecision; image-rendering:optimizeQuality; fill-rule:evenodd; clip-rule:evenodd" xmlns:xlink="http://www.w3.org/1999/xlink">
<g><path style="opacity:1" fill="#fcfcfb" d="M -0.5,-0.5 C 31.8333,-0.5 64.1667,-0.5 96.5,-0.5C 89.956,0.536274 83.2893,1.70294 76.5,3C 75.5842,3.27842 74.9175,3.77842 74.5,4.5C 55.5043,9.30727 39.3377,18.9739 26,33.5C 12.7276,48.3803 4.5609,65.7137 1.5,85.5C 0.833333,88.8333 0.166667,92.1667 -0.5,95.5C -0.5,63.5 -0.5,31.5 -0.5,-0.5 Z"/></g>
<g><path style="opacity:1" fill="#fbfbfb" d="M 108.5,-0.5 C 142.167,-0.5 175.833,-0.5 209.5,-0.5C 209.5,32.5 209.5,65.5 209.5,98.5C 207.848,82.8763 203.181,68.2096 195.5,54.5C 191.356,46.5101 186.189,39.1768 180,32.5C 174.961,27.6325 169.461,23.2992 163.5,19.5C 161.858,18.197 160.191,16.8637 158.5,15.5C 151.174,11.3356 143.507,8.00227 135.5,5.5C 126.564,2.76711 117.564,0.767106 108.5,-0.5 Z"/></g>
<g><path style="opacity:1" fill="#a3a238" d="M 92.5,5.5 C 92.5,5.83333 92.5,6.16667 92.5,6.5C 87.853,7.296 83.1863,7.96267 78.5,8.5C 78.6107,7.88258 78.944,7.38258 79.5,7C 83.8321,6.41674 88.1654,5.91674 92.5,5.5 Z"/></g>
<g><path style="opacity:1" fill="#e5e337" d="M 92.5,6.5 C 93.8333,7.5 93.8333,8.5 92.5,9.5C 90.8333,9.5 89.1667,9.5 87.5,9.5C 87.2627,10.791 87.596,11.791 88.5,12.5C 88.3396,15.8835 88.673,19.2169 89.5,22.5C 89.1667,23.1667 88.8333,23.8333 88.5,24.5C 87.8589,23.0065 86.8589,22.0065 85.5,21.5C 86.5564,14.8744 83.8897,11.5411 77.5,11.5C 77.2627,10.209 77.596,9.20895 78.5,8.5C 83.1863,7.96267 87.853,7.296 92.5,6.5 Z"/></g>
<g><path style="opacity:1" fill="#8b8036" d="M 92.5,9.5 C 90.7809,10.0221 89.4475,11.0221 88.5,12.5C 87.596,11.791 87.2627,10.791 87.5,9.5C 89.1667,9.5 90.8333,9.5 92.5,9.5 Z"/></g>
<g><path style="opacity:1" fill="#3d371c" d="M 158.5,15.5 C 160.191,16.8637 161.858,18.197 163.5,19.5C 163.5,20.1667 163.5,20.8333 163.5,21.5C 161.063,21.114 159.063,19.9473 157.5,18C 155.402,17.3224 153.402,17.4891 151.5,18.5C 153.508,16.9174 155.841,15.9174 158.5,15.5 Z"/></g>
<g><path style="opacity:1" fill="#dfd833" d="M 131.5,29.5 C 129.254,28.5448 126.921,27.8782 124.5,27.5C 124.5,26.1667 124.5,24.8333 124.5,23.5C 127.577,23.3471 130.411,24.0137 133,25.5C 134.662,25.6125 135.829,24.9458 136.5,23.5C 134.462,21.7236 132.296,20.0569 130,18.5C 129.505,16.5273 129.338,14.5273 129.5,12.5C 134.269,9.8546 139.103,9.8546 144,12.5C 144.483,13.448 144.649,14.448 144.5,15.5C 141.426,15.1274 138.426,14.4608 135.5,13.5C 136.664,16.1865 138.497,18.5199 141,20.5C 141.994,27.6707 138.827,30.6707 131.5,29.5 Z"/></g>
<g><path style="opacity:1" fill="#30291f" d="M 129.5,12.5 C 129.338,14.5273 129.505,16.5273 130,18.5C 132.296,20.0569 134.462,21.7236 136.5,23.5C 135.829,24.9458 134.662,25.6125 133,25.5C 130.411,24.0137 127.577,23.3471 124.5,23.5C 124.5,24.8333 124.5,26.1667 124.5,27.5C 122.824,26.8166 122.157,25.4832 122.5,23.5C 121.448,23.6495 120.448,23.4828 119.5,23C 122.98,22.6988 126.313,21.8655 129.5,20.5C 128.224,17.6969 128.224,15.0303 129.5,12.5 Z"/></g>
<g><path style="opacity:1" fill="#c3be4c" d="M 88.5,12.5 C 89.4511,13.9187 89.7845,15.5853 89.5,17.5C 90.2653,20.0961 90.5987,22.7628 90.5,25.5C 87.4535,25.8174 85.7868,24.4841 85.5,21.5C 86.8589,22.0065 87.8589,23.0065 88.5,24.5C 88.8333,23.8333 89.1667,23.1667 89.5,22.5C 88.673,19.2169 88.3396,15.8835 88.5,12.5 Z"/></g>
<g><path style="opacity:1" fill="#202328" d="M 96.5,-0.5 C 100.5,-0.5 104.5,-0.5 108.5,-0.5C 117.564,0.767106 126.564,2.76711 135.5,5.5C 135.5,6.5 135.5,7.5 135.5,8.5C 131.385,8.29488 127.385,7.79488 123.5,7C 122.16,9.33763 120.826,11.671 119.5,14C 120.233,15.7659 120.567,17.5992 120.5,19.5C 121.822,19.67 122.989,19.3366 124,18.5C 124.311,16.444 124.811,14.444 125.5,12.5C 126.958,11.218 128.292,11.218 129.5,12.5C 128.224,15.0303 128.224,17.6969 129.5,20.5C 126.313,21.8655 122.98,22.6988 119.5,23C 120.448,23.4828 121.448,23.6495 122.5,23.5C 122.157,25.4832 122.824,26.8166 124.5,27.5C 126.921,27.8782 129.254,28.5448 131.5,29.5C 130.172,30.5072 129.172,31.8405 128.5,33.5C 127.675,34.3857 126.675,34.719 125.5,34.5C 125.134,33.3054 124.301,32.6387 123,32.5C 120.178,33.5775 117.512,34.9108 115,36.5C 112.621,33.4646 109.621,31.1313 106,29.5C 104.012,31.8156 101.678,33.8156 99,35.5C 96.6366,34.2984 94.8033,32.6317 93.5,30.5C 92.1917,29.7677 90.8584,28.9344 89.5,28C 91.8516,27.4241 92.8516,25.9241 92.5,23.5C 92.5328,20.8984 91.5328,18.8984 89.5,17.5C 89.7845,15.5853 89.4511,13.9187 88.5,12.5C 89.4475,11.0221 90.7809,10.0221 92.5,9.5C 93.8333,8.5 93.8333,7.5 92.5,6.5C 92.5,6.16667 92.5,5.83333 92.5,5.5C 88.6347,4.77573 84.6347,4.10907 80.5,3.5C 78.5658,3.90054 77.0658,4.90054 76,6.5C 75.7216,5.5842 75.2216,4.91753 74.5,4.5C 74.9175,3.77842 75.5842,3.27842 76.5,3C 83.2893,1.70294 89.956,0.536274 96.5,-0.5 Z"/></g>
<g><path style="opacity:1" fill="#edefef" d="M 104.5,5.5 C 107.027,6.51713 109.527,6.51713 112,5.5C 113.25,7.70576 115.084,9.03909 117.5,9.5C 116.58,11.8809 116.58,14.2143 117.5,16.5C 115.069,17.3601 113.736,19.0268 113.5,21.5C 110.455,21.5079 107.455,21.8413 104.5,22.5C 104.833,19.5 103.5,18.1667 100.5,18.5C 100.726,15.7508 100.393,13.0841 99.5,10.5C 100.665,9.41641 101.998,8.58308 103.5,8C 104.252,7.32924 104.586,6.4959 104.5,5.5 Z"/></g>
<g><path style="opacity:1" fill="#d9dcdf" d="M 125.5,34.5 C 126.569,36.9687 127.902,39.3021 129.5,41.5C 137.326,36.0793 141.326,38.0793 141.5,47.5C 145.167,47.5 148.833,47.5 152.5,47.5C 153.207,50.7861 153.54,54.1194 153.5,57.5C 156.833,57.5 160.167,57.5 163.5,57.5C 163.5,61.1667 163.5,64.8333 163.5,68.5C 166.482,68.9629 169.482,69.2962 172.5,69.5C 172.5,70.8333 172.5,72.1667 172.5,73.5C 172.336,76.1873 172.503,78.854 173,81.5C 175.458,82.6403 177.625,84.1403 179.5,86C 177.771,88.6265 176.437,91.4598 175.5,94.5C 177.691,97.1887 180.024,99.6887 182.5,102C 181.188,104.807 179.521,107.307 177.5,109.5C 177.5,108.167 177.5,106.833 177.5,105.5C 175.167,105.5 172.833,105.5 170.5,105.5C 170.811,104.522 171.478,103.855 172.5,103.5C 174.865,104.822 177.198,104.822 179.5,103.5C 180.525,103.103 180.692,102.437 180,101.5C 178.074,99.4611 175.907,97.7945 173.5,96.5C 174.338,93.3136 175.338,90.1469 176.5,87C 174.625,85.1403 172.458,83.6403 170,82.5C 169.55,78.8125 169.717,75.1458 170.5,71.5C 167.545,70.8413 164.545,70.5079 161.5,70.5C 161.82,67.1016 161.487,63.7683 160.5,60.5C 157.579,59.5934 154.579,59.2601 151.5,59.5C 151.5,59.1667 151.5,58.8333 151.5,58.5C 151.5,55.5 151.5,52.5 151.5,49.5C 147.774,49.8226 144.107,49.4892 140.5,48.5C 139.423,46.2706 138.756,43.9372 138.5,41.5C 134.985,41.8789 131.652,42.8789 128.5,44.5C 126.707,41.7489 125.041,38.9156 123.5,36C 120.54,36.5662 117.707,37.7329 115,39.5C 112.032,37.3691 109.199,35.0358 106.5,32.5C 104.5,35.1667 102.167,37.5 99.5,39.5C 94.7553,32.5384 90.7553,32.8718 87.5,40.5C 84.7279,39.4088 81.8946,38.4088 79,37.5C 77.1403,39.375 75.6403,41.5417 74.5,44C 71.1109,43.8127 67.7776,43.9794 64.5,44.5C 63.4229,46.7294 62.7563,49.0628 62.5,51.5C 58.8333,51.5 55.1667,51.5 51.5,51.5C 51.5,54.5 51.5,57.5 51.5,60.5C 48.5,60.5 45.5,60.5 42.5,60.5C 43.2436,64.1185 43.577,67.7852 43.5,71.5C 40.4545,71.3418 37.6212,72.0085 35,73.5C 35.0769,77.2292 34.9102,80.8959 34.5,84.5C 32.322,85.6566 30.322,86.9899 28.5,88.5C 29.8333,91.1667 31.1667,93.8333 32.5,96.5C 30.8333,98.8333 28.8333,100.833 26.5,102.5C 26.8627,103.183 27.1961,103.85 27.5,104.5C 27.5,105.167 27.8333,105.5 28.5,105.5C 28.427,107.027 29.0937,108.027 30.5,108.5C 30.5569,109.609 30.8902,110.609 31.5,111.5C 31.5,111.833 31.5,112.167 31.5,112.5C 30.5041,112.586 29.6708,112.252 29,111.5C 28.0991,108.929 26.7658,106.596 25,104.5C 24.3872,102.505 24.8872,100.838 26.5,99.5C 28.1454,98.5213 29.4787,97.188 30.5,95.5C 28.722,93.0554 27.3887,90.3888 26.5,87.5C 28.0437,84.8918 30.3771,83.5585 33.5,83.5C 32.9619,79.4764 32.2952,75.4764 31.5,71.5C 34.5,70.8333 37.5,70.1667 40.5,69.5C 40.8412,65.8405 40.1745,62.5072 38.5,59.5C 38.5,58.1667 38.5,56.8333 38.5,55.5C 39.404,56.209 39.7373,57.209 39.5,58.5C 42.8499,58.665 46.1832,58.4983 49.5,58C 50.4438,55.2809 50.7771,52.4475 50.5,49.5C 54.1667,49.5 57.8333,49.5 61.5,49.5C 61.4595,46.1194 61.7929,42.7861 62.5,39.5C 66.087,40.7557 69.7537,41.2557 73.5,41C 74.5388,38.0452 76.3721,35.8786 79,34.5C 81.3059,35.4488 83.6393,36.4488 86,37.5C 88.0833,34.6081 90.5833,32.2748 93.5,30.5C 94.8033,32.6317 96.6366,34.2984 99,35.5C 101.678,33.8156 104.012,31.8156 106,29.5C 109.621,31.1313 112.621,33.4646 115,36.5C 117.512,34.9108 120.178,33.5775 123,32.5C 124.301,32.6387 125.134,33.3054 125.5,34.5 Z"/></g>
<g><path style="opacity:1" fill="#deda37" d="M 163.5,21.5 C 163.582,23.2517 162.749,24.2517 161,24.5C 158.502,23.142 156.002,22.8087 153.5,23.5C 153.167,23.8333 152.833,24.1667 152.5,24.5C 154.389,25.604 156.055,26.9373 157.5,28.5C 156.054,32.0121 154.054,32.1787 151.5,29C 149.393,28.1458 148.059,28.8125 147.5,31C 149.175,32.5019 150.841,34.0019 152.5,35.5C 147.696,37.2638 144.03,35.9305 141.5,31.5C 144.6,26.9563 147.933,22.623 151.5,18.5C 153.402,17.4891 155.402,17.3224 157.5,18C 159.063,19.9473 161.063,21.114 163.5,21.5 Z"/></g>
<g><path style="opacity:1" fill="#262625" d="M 92.5,5.5 C 88.1654,5.91674 83.8321,6.41674 79.5,7C 78.944,7.38258 78.6107,7.88258 78.5,8.5C 77.596,9.20895 77.2627,10.209 77.5,11.5C 83.8897,11.5411 86.5564,14.8744 85.5,21.5C 85.7868,24.4841 87.4535,25.8174 90.5,25.5C 90.5987,22.7628 90.2653,20.0961 89.5,17.5C 91.5328,18.8984 92.5328,20.8984 92.5,23.5C 92.8516,25.9241 91.8516,27.4241 89.5,28C 90.8584,28.9344 92.1917,29.7677 93.5,30.5C 90.5833,32.2748 88.0833,34.6081 86,37.5C 83.6393,36.4488 81.3059,35.4488 79,34.5C 76.3721,35.8786 74.5388,38.0452 73.5,41C 69.7537,41.2557 66.087,40.7557 62.5,39.5C 61.7929,42.7861 61.4595,46.1194 61.5,49.5C 57.8333,49.5 54.1667,49.5 50.5,49.5C 50.7771,52.4475 50.4438,55.2809 49.5,58C 46.1832,58.4983 42.8499,58.665 39.5,58.5C 39.7373,57.209 39.404,56.209 38.5,55.5C 38.4894,53.9826 37.8228,52.8159 36.5,52C 30.2127,48.0717 26.5461,49.905 25.5,57.5C 26.8333,57.5 28.1667,57.5 29.5,57.5C 30.5,57.5 31.5,57.5 32.5,57.5C 32.5,58.5 32.5,59.5 32.5,60.5C 32.3893,61.1174 32.056,61.6174 31.5,62C 23.7327,64.2235 20.2327,61.3902 21,53.5C 23.6699,52.7761 25.1699,51.1094 25.5,48.5C 15.1815,49.9733 12.8482,55.14 18.5,64C 23.2661,66.3104 28.2661,66.9771 33.5,66C 35.7899,64.2228 37.4566,62.0562 38.5,59.5C 40.1745,62.5072 40.8412,65.8405 40.5,69.5C 37.5,70.1667 34.5,70.8333 31.5,71.5C 32.2952,75.4764 32.9619,79.4764 33.5,83.5C 30.3771,83.5585 28.0437,84.8918 26.5,87.5C 27.3887,90.3888 28.722,93.0554 30.5,95.5C 29.4787,97.188 28.1454,98.5213 26.5,99.5C 25.1854,97.8653 25.1854,96.1986 26.5,94.5C 25.2695,90.2854 24.1029,89.9521 23,93.5C 22.0192,90.2158 22.8525,87.5491 25.5,85.5C 25.1667,84.8333 24.8333,84.1667 24.5,83.5C 23.8182,84.2427 23.1515,84.9094 22.5,85.5C 22.5,83.5 22.5,81.5 22.5,79.5C 23.5,79.5 24.5,79.5 25.5,79.5C 25.0642,74.7194 22.7309,73.3861 18.5,75.5C 18.1344,74.3054 17.301,73.6387 16,73.5C 13.9011,74.2865 11.7345,74.6199 9.5,74.5C 9.41501,76.9288 8.41501,78.9288 6.5,80.5C 7.17018,82.8631 7.83685,85.1964 8.5,87.5C 6.23405,87.1412 4.40072,87.8078 3,89.5C 2.51722,88.552 2.35055,87.552 2.5,86.5C 3.5,86.5 4.5,86.5 5.5,86.5C 5.89824,80.4024 4.5649,80.0691 1.5,85.5C 4.5609,65.7137 12.7276,48.3803 26,33.5C 39.3377,18.9739 55.5043,9.30727 74.5,4.5C 75.2216,4.91753 75.7216,5.5842 76,6.5C 77.0658,4.90054 78.5658,3.90054 80.5,3.5C 84.6347,4.10907 88.6347,4.77573 92.5,5.5 Z"/></g>
<g><path style="opacity:1" fill="#786f25" d="M 63.5,25.5 C 64.3091,27.2922 64.8091,29.2922 65,31.5C 66.0113,32.3366 67.1779,32.67 68.5,32.5C 67.4324,33.4345 66.099,33.7678 64.5,33.5C 63.4324,32.5655 62.099,32.2322 60.5,32.5C 61.209,31.596 62.209,31.2627 63.5,31.5C 63.5,29.5 63.5,27.5 63.5,25.5 Z"/></g>
<g><path style="opacity:1" fill="#bbb64b" d="M 55.5,30.5 C 56.6736,28.6322 56.0069,27.6322 53.5,27.5C 56.6678,24.501 58.1678,25.1676 58,29.5C 57.3292,30.2524 56.4959,30.5858 55.5,30.5 Z"/></g>
<g><path style="opacity:1" fill="#dbd53b" d="M 64.5,12.5 C 65.8734,12.3433 67.2068,12.51 68.5,13C 73.7141,16.7684 78.7141,20.7684 83.5,25C 82.3688,27.8193 80.7021,28.1526 78.5,26C 72.8913,24.788 69.5579,26.9547 68.5,32.5C 67.1779,32.67 66.0113,32.3366 65,31.5C 64.8091,29.2922 64.3091,27.2922 63.5,25.5C 63.2307,21.0685 63.564,16.7352 64.5,12.5 Z"/></g>
<g><path style="opacity:1" fill="#4c3f15" d="M 64.5,12.5 C 63.564,16.7352 63.2307,21.0685 63.5,25.5C 62.7388,21.8183 62.0721,17.985 61.5,14C 61.8942,11.7197 62.8942,11.2197 64.5,12.5 Z"/></g>
<g><path style="opacity:1" fill="#e1dc35" d="M 53.5,27.5 C 56.0069,27.6322 56.6736,28.6322 55.5,30.5C 54.9094,31.1515 54.2427,31.8182 53.5,32.5C 53.7093,33.086 54.0426,33.586 54.5,34C 56.6951,34.4094 58.6951,33.9094 60.5,32.5C 62.099,32.2322 63.4324,32.5655 64.5,33.5C 62.1124,36.538 59.1124,38.8713 55.5,40.5C 51.8592,37.1951 48.1925,33.8617 44.5,30.5C 42.8287,28.4902 42.162,26.1569 42.5,23.5C 45.0842,23.4312 47.0842,22.2645 48.5,20C 49.7932,19.51 51.1266,19.3433 52.5,19.5C 52.762,20.9778 52.4287,22.3112 51.5,23.5C 50.1667,24.5 48.8333,25.5 47.5,26.5C 48.5,27.5 49.5,28.5 50.5,29.5C 51.5178,28.8075 52.5178,28.1408 53.5,27.5 Z"/></g>
<g><path style="opacity:1" fill="#352918" d="M 67.5,17.5 C 68.8853,18.6138 70.3853,19.6138 72,20.5C 72.1829,23.2823 71.0163,23.9489 68.5,22.5C 67.6906,20.9291 67.3573,19.2624 67.5,17.5 Z"/></g>
<g><path style="opacity:1" fill="#252526" d="M 135.5,5.5 C 143.507,8.00227 151.174,11.3356 158.5,15.5C 155.841,15.9174 153.508,16.9174 151.5,18.5C 147.933,22.623 144.6,26.9563 141.5,31.5C 144.03,35.9305 147.696,37.2638 152.5,35.5C 150.841,34.0019 149.175,32.5019 147.5,31C 148.059,28.8125 149.393,28.1458 151.5,29C 154.054,32.1787 156.054,32.0121 157.5,28.5C 156.055,26.9373 154.389,25.604 152.5,24.5C 152.833,24.1667 153.167,23.8333 153.5,23.5C 156.002,22.8087 158.502,23.142 161,24.5C 162.749,24.2517 163.582,23.2517 163.5,21.5C 163.5,20.8333 163.5,20.1667 163.5,19.5C 169.461,23.2992 174.961,27.6325 180,32.5C 186.189,39.1768 191.356,46.5101 195.5,54.5C 193.132,53.9862 191.132,52.8195 189.5,51C 187.455,50.5099 185.455,50.6765 183.5,51.5C 185.132,50.168 186.799,48.8347 188.5,47.5C 187.652,46.0089 186.319,45.3422 184.5,45.5C 179.145,48.1677 173.811,50.8343 168.5,53.5C 168.167,54.1667 167.833,54.8333 167.5,55.5C 168.841,57.8904 170.175,60.2237 171.5,62.5C 174.629,64.412 177.962,66.0787 181.5,67.5C 177.925,68.1533 174.925,70.1533 172.5,73.5C 172.5,72.1667 172.5,70.8333 172.5,69.5C 169.482,69.2962 166.482,68.9629 163.5,68.5C 163.5,64.8333 163.5,61.1667 163.5,57.5C 160.167,57.5 156.833,57.5 153.5,57.5C 153.54,54.1194 153.207,50.7861 152.5,47.5C 148.833,47.5 145.167,47.5 141.5,47.5C 141.326,38.0793 137.326,36.0793 129.5,41.5C 127.902,39.3021 126.569,36.9687 125.5,34.5C 126.675,34.719 127.675,34.3857 128.5,33.5C 129.172,31.8405 130.172,30.5072 131.5,29.5C 138.827,30.6707 141.994,27.6707 141,20.5C 138.497,18.5199 136.664,16.1865 135.5,13.5C 138.426,14.4608 141.426,15.1274 144.5,15.5C 144.649,14.448 144.483,13.448 144,12.5C 139.103,9.8546 134.269,9.8546 129.5,12.5C 128.292,11.218 126.958,11.218 125.5,12.5C 124.811,14.444 124.311,16.444 124,18.5C 122.989,19.3366 121.822,19.67 120.5,19.5C 120.567,17.5992 120.233,15.7659 119.5,14C 120.826,11.671 122.16,9.33763 123.5,7C 127.385,7.79488 131.385,8.29488 135.5,8.5C 135.5,7.5 135.5,6.5 135.5,5.5 Z"/></g>
<g><path style="opacity:1" fill="#e2de34" d="M 52.5,42.5 C 48.5406,43.1061 44.5406,43.7728 40.5,44.5C 40.6236,45.1067 40.9569,45.44 41.5,45.5C 44.324,45.9893 45.6574,47.656 45.5,50.5C 43.8008,50.6602 42.1341,50.4935 40.5,50C 36.2598,47.0532 31.9264,44.3865 27.5,42C 26.9781,41.4387 26.6448,40.772 26.5,40C 29.6135,32.8502 34.6135,31.0169 41.5,34.5C 42.4656,36.396 42.7989,38.396 42.5,40.5C 46.3293,39.931 49.6627,40.5977 52.5,42.5 Z"/></g>
<g><path style="opacity:1" fill="#61657c" d="M 151.5,58.5 C 150.766,57.1225 150.099,55.6225 149.5,54C 147.091,53.2521 144.925,52.0855 143,50.5C 142.127,50.7355 141.293,51.0688 140.5,51.5C 138.929,49.0293 137.929,46.3626 137.5,43.5C 134.678,43.6781 132.011,44.3448 129.5,45.5C 126.391,44.7225 124.724,42.7225 124.5,39.5C 119.527,40.1637 114.527,40.4971 109.5,40.5C 109.853,38.3652 109.02,37.0319 107,36.5C 105.022,38.7613 102.522,40.0946 99.5,40.5C 96.6982,40.1784 94.1982,39.1784 92,37.5C 90.8767,39.0997 89.3767,40.0997 87.5,40.5C 90.7553,32.8718 94.7553,32.5384 99.5,39.5C 102.167,37.5 104.5,35.1667 106.5,32.5C 109.199,35.0358 112.032,37.3691 115,39.5C 117.707,37.7329 120.54,36.5662 123.5,36C 125.041,38.9156 126.707,41.7489 128.5,44.5C 131.652,42.8789 134.985,41.8789 138.5,41.5C 138.756,43.9372 139.423,46.2706 140.5,48.5C 144.107,49.4892 147.774,49.8226 151.5,49.5C 151.5,52.5 151.5,55.5 151.5,58.5 Z"/></g>
<g><path style="opacity:1" fill="#322c1d" d="M 34.5,36.5 C 35.8333,36.5 37.1667,36.5 38.5,36.5C 38.3973,41.9228 36.3973,42.7562 32.5,39C 33.3805,38.2917 34.0472,37.4584 34.5,36.5 Z"/></g>
<g><path style="opacity:1" fill="#6f6fa2" d="M 151.5,58.5 C 151.5,58.8333 151.5,59.1667 151.5,59.5C 153.631,60.3138 155.964,60.8138 158.5,61C 158.043,61.414 157.709,61.914 157.5,62.5C 159.13,65.2761 159.797,68.2761 159.5,71.5C 162.545,71.5079 165.545,71.8413 168.5,72.5C 168.058,76.1545 167.724,79.8212 167.5,83.5C 167.19,84.7383 166.69,84.7383 166,83.5C 165.131,88.5081 164.464,88.1748 164,82.5C 163.667,82.8333 163.333,83.1667 163,83.5C 162.392,81.9336 161.558,80.6002 160.5,79.5C 160.167,79.5 159.833,79.5 159.5,79.5C 159.256,75.9333 157.59,73.2667 154.5,71.5C 154.314,67.3741 152.314,64.3741 148.5,62.5C 140.535,54.3454 130.869,49.0121 119.5,46.5C 108.025,44.1009 96.358,43.9343 84.5,46C 83.0445,47.6257 81.3779,48.7924 79.5,49.5C 75.1572,49.8895 71.4905,51.7228 68.5,55C 67.1667,55.3333 65.8333,55.6667 64.5,56C 62.6397,59.3603 59.973,61.8603 56.5,63.5C 54.1453,67.5506 51.812,71.5506 49.5,75.5C 48.3263,76.5137 47.6596,77.847 47.5,79.5C 46.5714,80.9361 45.4048,82.2695 44,83.5C 42.6439,82.6198 41.1439,82.2865 39.5,82.5C 39.7148,80.8212 39.0481,79.8212 37.5,79.5C 36.2651,77.983 36.2651,76.3163 37.5,74.5C 39.8162,73.0682 42.3162,72.0682 45,71.5C 45.0435,68.5248 44.8769,65.5248 44.5,62.5C 47.4284,62.1484 50.2617,61.4817 53,60.5C 53.4974,57.854 53.6641,55.1873 53.5,52.5C 58.497,53.6662 63.497,53.6662 68.5,52.5C 67.675,51.6143 66.675,51.281 65.5,51.5C 65.5,50.1667 65.5,48.8333 65.5,47.5C 69.1788,47.2756 72.8455,46.9422 76.5,46.5C 76.472,44.4176 77.1387,42.5843 78.5,41C 81.4208,40.8502 84.2541,41.3502 87,42.5C 87.4643,41.9056 87.631,41.2389 87.5,40.5C 89.3767,40.0997 90.8767,39.0997 92,37.5C 94.1982,39.1784 96.6982,40.1784 99.5,40.5C 102.522,40.0946 105.022,38.7613 107,36.5C 109.02,37.0319 109.853,38.3652 109.5,40.5C 114.527,40.4971 119.527,40.1637 124.5,39.5C 124.724,42.7225 126.391,44.7225 129.5,45.5C 132.011,44.3448 134.678,43.6781 137.5,43.5C 137.929,46.3626 138.929,49.0293 140.5,51.5C 141.293,51.0688 142.127,50.7355 143,50.5C 144.925,52.0855 147.091,53.2521 149.5,54C 150.099,55.6225 150.766,57.1225 151.5,58.5 Z"/></g>
<g><path style="opacity:1" fill="#7b7916" d="M 52.5,42.5 C 49.1091,44.1254 45.4425,45.1254 41.5,45.5C 40.9569,45.44 40.6236,45.1067 40.5,44.5C 44.5406,43.7728 48.5406,43.1061 52.5,42.5 Z"/></g>
<g><path style="opacity:1" fill="#5d6781" d="M 87.5,40.5 C 87.631,41.2389 87.4643,41.9056 87,42.5C 84.2541,41.3502 81.4208,40.8502 78.5,41C 77.1387,42.5843 76.472,44.4176 76.5,46.5C 72.8455,46.9422 69.1788,47.2756 65.5,47.5C 65.5,48.8333 65.5,50.1667 65.5,51.5C 66.675,51.281 67.675,51.6143 68.5,52.5C 63.497,53.6662 58.497,53.6662 53.5,52.5C 53.6641,55.1873 53.4974,57.854 53,60.5C 50.2617,61.4817 47.4284,62.1484 44.5,62.5C 44.8769,65.5248 45.0435,68.5248 45,71.5C 42.3162,72.0682 39.8162,73.0682 37.5,74.5C 36.2651,76.3163 36.2651,77.983 37.5,79.5C 37.7989,81.604 37.4656,83.604 36.5,85.5C 34.1184,86.3507 32.1184,87.684 30.5,89.5C 31.4411,91.7721 32.7745,93.7721 34.5,95.5C 37.6804,91.5208 41.6804,90.5208 46.5,92.5C 46.5,92.8333 46.5,93.1667 46.5,93.5C 44.1305,93.1489 41.7972,92.9822 39.5,93C 36.2711,96.3986 32.9378,99.5653 29.5,102.5C 28.8333,103.167 28.1667,103.833 27.5,104.5C 27.1961,103.85 26.8627,103.183 26.5,102.5C 28.8333,100.833 30.8333,98.8333 32.5,96.5C 31.1667,93.8333 29.8333,91.1667 28.5,88.5C 30.322,86.9899 32.322,85.6566 34.5,84.5C 34.9102,80.8959 35.0769,77.2292 35,73.5C 37.6212,72.0085 40.4545,71.3418 43.5,71.5C 43.577,67.7852 43.2436,64.1185 42.5,60.5C 45.5,60.5 48.5,60.5 51.5,60.5C 51.5,57.5 51.5,54.5 51.5,51.5C 55.1667,51.5 58.8333,51.5 62.5,51.5C 62.7563,49.0628 63.4229,46.7294 64.5,44.5C 67.7776,43.9794 71.1109,43.8127 74.5,44C 75.6403,41.5417 77.1403,39.375 79,37.5C 81.8946,38.4088 84.7279,39.4088 87.5,40.5 Z"/></g>
<g><path style="opacity:1" fill="#ba3c65" d="M 119.5,46.5 C 108.162,46.3335 96.8284,46.5001 85.5,47C 84.0217,49.0386 82.0217,49.8719 79.5,49.5C 81.3779,48.7924 83.0445,47.6257 84.5,46C 96.358,43.9343 108.025,44.1009 119.5,46.5 Z"/></g>
<g><path style="opacity:1" fill="#ddda34" d="M 169.5,32.5 C 172.167,32.5 174.833,32.5 177.5,32.5C 177.657,33.8734 177.49,35.2068 177,36.5C 173.668,41.0089 170.501,45.6756 167.5,50.5C 166.311,51.4287 164.978,51.762 163.5,51.5C 165.516,46.4774 163.85,43.1441 158.5,41.5C 154.843,43.4377 152.843,42.4377 152.5,38.5C 158.666,37.6683 164.333,35.6683 169.5,32.5 Z"/></g>
<g><path style="opacity:1" fill="#513b21" d="M 167.5,36.5 C 168.978,36.238 170.311,36.5713 171.5,37.5C 170.167,39.1667 168.833,40.8333 167.5,42.5C 166.167,41.8333 165.167,40.8333 164.5,39.5C 165.993,38.8589 166.993,37.8589 167.5,36.5 Z"/></g>
<g><path style="opacity:1" fill="#d7d537" d="M 183.5,51.5 C 179.575,52.2579 176.242,54.0912 173.5,57C 174.856,58.5671 175.523,60.4004 175.5,62.5C 174.167,62.5 172.833,62.5 171.5,62.5C 170.175,60.2237 168.841,57.8904 167.5,55.5C 167.833,54.8333 168.167,54.1667 168.5,53.5C 173.811,50.8343 179.145,48.1677 184.5,45.5C 186.319,45.3422 187.652,46.0089 188.5,47.5C 186.799,48.8347 185.132,50.168 183.5,51.5 Z"/></g>
<g><path style="opacity:1" fill="#cf3750" d="M 119.5,46.5 C 130.869,49.0121 140.535,54.3454 148.5,62.5C 150.183,65.824 152.183,68.824 154.5,71.5C 157.59,73.2667 159.256,75.9333 159.5,79.5C 159.5,82.5 159.5,85.5 159.5,88.5C 158.5,88.5 157.5,88.5 156.5,88.5C 152.479,70.6237 141.812,58.457 124.5,52C 122.866,51.5065 121.199,51.3398 119.5,51.5C 114.532,49.2412 109.199,48.2412 103.5,48.5C 94.9726,48.3038 86.9726,49.9705 79.5,53.5C 68.5405,57.2844 60.5405,64.2844 55.5,74.5C 54.0652,75.7898 53.0652,77.4565 52.5,79.5C 51.4241,83.775 50.7574,88.1083 50.5,92.5C 49.1999,90.777 48.5332,88.6103 48.5,86C 48.7067,82.4774 49.04,78.9774 49.5,75.5C 51.812,71.5506 54.1453,67.5506 56.5,63.5C 59.973,61.8603 62.6397,59.3603 64.5,56C 65.8333,55.6667 67.1667,55.3333 68.5,55C 71.4905,51.7228 75.1572,49.8895 79.5,49.5C 82.0217,49.8719 84.0217,49.0386 85.5,47C 96.8284,46.5001 108.162,46.3335 119.5,46.5 Z"/></g>
<g><path style="opacity:1" fill="#efbe6a" d="M 119.5,51.5 C 113.675,51.1144 107.842,50.7811 102,50.5C 94.3081,50.8093 86.8081,51.8093 79.5,53.5C 86.9726,49.9705 94.9726,48.3038 103.5,48.5C 109.199,48.2412 114.532,49.2412 119.5,51.5 Z"/></g>
<g><path style="opacity:1" fill="#e2de36" d="M 32.5,60.5 C 34.2132,59.3646 34.8799,57.698 34.5,55.5C 32.2188,55.0773 30.5521,55.744 29.5,57.5C 28.1667,57.5 26.8333,57.5 25.5,57.5C 26.5461,49.905 30.2127,48.0717 36.5,52C 37.8228,52.8159 38.4894,53.9826 38.5,55.5C 38.5,56.8333 38.5,58.1667 38.5,59.5C 37.4566,62.0562 35.7899,64.2228 33.5,66C 28.2661,66.9771 23.2661,66.3104 18.5,64C 12.8482,55.14 15.1815,49.9733 25.5,48.5C 25.1699,51.1094 23.6699,52.7761 21,53.5C 20.2327,61.3902 23.7327,64.2235 31.5,62C 32.056,61.6174 32.3893,61.1174 32.5,60.5 Z"/></g>
<g><path style="opacity:1" fill="#3b351b" d="M 32.5,60.5 C 32.5,59.5 32.5,58.5 32.5,57.5C 31.5,57.5 30.5,57.5 29.5,57.5C 30.5521,55.744 32.2188,55.0773 34.5,55.5C 34.8799,57.698 34.2132,59.3646 32.5,60.5 Z"/></g>
<g><path style="opacity:1" fill="#b8436c" d="M 148.5,62.5 C 152.314,64.3741 154.314,67.3741 154.5,71.5C 152.183,68.824 150.183,65.824 148.5,62.5 Z"/></g>
<g><path style="opacity:1" fill="#5b6984" d="M 151.5,59.5 C 154.579,59.2601 157.579,59.5934 160.5,60.5C 161.487,63.7683 161.82,67.1016 161.5,70.5C 164.545,70.5079 167.545,70.8413 170.5,71.5C 169.717,75.1458 169.55,78.8125 170,82.5C 172.458,83.6403 174.625,85.1403 176.5,87C 175.338,90.1469 174.338,93.3136 173.5,96.5C 171.611,95.396 169.945,94.0627 168.5,92.5C 172.06,93.1086 174.06,91.6086 174.5,88C 172.812,85.4933 170.479,83.9933 167.5,83.5C 167.724,79.8212 168.058,76.1545 168.5,72.5C 165.545,71.8413 162.545,71.5079 159.5,71.5C 159.797,68.2761 159.13,65.2761 157.5,62.5C 157.709,61.914 158.043,61.414 158.5,61C 155.964,60.8138 153.631,60.3138 151.5,59.5 Z"/></g>
<g><path style="opacity:1" fill="#3b3616" d="M 22.5,85.5 C 21.7281,86.6935 20.7281,87.6935 19.5,88.5C 21.1392,84.7473 21.8059,80.7473 21.5,76.5C 20.5,76.5 19.5,76.5 18.5,76.5C 18.5,76.1667 18.5,75.8333 18.5,75.5C 22.7309,73.3861 25.0642,74.7194 25.5,79.5C 24.5,79.5 23.5,79.5 22.5,79.5C 22.5,81.5 22.5,83.5 22.5,85.5 Z"/></g>
<g><path style="opacity:1" fill="#edc010" d="M 18.5,76.5 C 19.3909,77.2613 20.0576,78.2613 20.5,79.5C 19.2909,82.4648 18.2909,85.4648 17.5,88.5C 15.0504,88.702 12.717,88.3686 10.5,87.5C 9.10321,86.1806 8.43655,84.5139 8.5,82.5C 9.18223,80.1591 9.84889,77.8257 10.5,75.5C 13.2372,75.4013 15.9039,75.7347 18.5,76.5 Z"/></g>
<g><path style="opacity:1" fill="#bca034" d="M 18.5,75.5 C 18.5,75.8333 18.5,76.1667 18.5,76.5C 15.9039,75.7347 13.2372,75.4013 10.5,75.5C 9.84889,77.8257 9.18223,80.1591 8.5,82.5C 8.43655,84.5139 9.10321,86.1806 10.5,87.5C 9.83333,87.5 9.16667,87.5 8.5,87.5C 7.83685,85.1964 7.17018,82.8631 6.5,80.5C 8.41501,78.9288 9.41501,76.9288 9.5,74.5C 11.7345,74.6199 13.9011,74.2865 16,73.5C 17.301,73.6387 18.1344,74.3054 18.5,75.5 Z"/></g>
<g><path style="opacity:1" fill="#bea82d" d="M 18.5,76.5 C 19.5,76.5 20.5,76.5 21.5,76.5C 21.8059,80.7473 21.1392,84.7473 19.5,88.5C 18.2067,89.1582 16.7067,89.4915 15,89.5C 13.0145,89.4313 11.5145,88.7647 10.5,87.5C 12.717,88.3686 15.0504,88.702 17.5,88.5C 18.2909,85.4648 19.2909,82.4648 20.5,79.5C 20.0576,78.2613 19.3909,77.2613 18.5,76.5 Z"/></g>
<g><path style="opacity:1" fill="#e5e16f" d="M 119.5,51.5 C 121.199,51.3398 122.866,51.5065 124.5,52C 141.812,58.457 152.479,70.6237 156.5,88.5C 153.865,89.7294 151.199,89.7294 148.5,88.5C 147.531,85.2314 146.198,82.2314 144.5,79.5C 144.092,75.4272 142.092,72.4272 138.5,70.5C 135.94,67.5421 132.94,65.0421 129.5,63C 124.757,61.2546 120.091,59.4213 115.5,57.5C 115.389,56.8826 115.056,56.3826 114.5,56C 111,55.8333 107.5,55.6667 104,55.5C 100.098,55.5123 96.5982,56.179 93.5,57.5C 88.4763,58.5373 83.8096,60.2039 79.5,62.5C 78.391,62.5569 77.391,62.8902 76.5,63.5C 75.6963,61.8113 74.6963,60.1446 73.5,58.5C 71.3218,60.8584 69.6551,63.5251 68.5,66.5C 67.073,69.8767 65.4064,73.21 63.5,76.5C 61.7641,80.0428 60.4308,83.7094 59.5,87.5C 57.6541,89.4546 55.3208,90.4546 52.5,90.5C 52.9451,84.9879 53.9451,79.6546 55.5,74.5C 60.5405,64.2844 68.5405,57.2844 79.5,53.5C 86.8081,51.8093 94.3081,50.8093 102,50.5C 107.842,50.7811 113.675,51.1144 119.5,51.5 Z"/></g>
<g><path style="opacity:1" fill="#5b5468" d="M 100.5,75.5 C 98.8998,76.6444 97.2331,77.8111 95.5,79C 97.6806,81.078 99.6806,80.9114 101.5,78.5C 102.192,79.0253 102.692,79.6919 103,80.5C 106.055,80.1389 109.222,80.1389 112.5,80.5C 113.794,81.2899 114.961,82.2899 116,83.5C 116.399,83.2716 116.565,82.9382 116.5,82.5C 117.833,83.1667 118.833,84.1667 119.5,85.5C 116.465,84.5883 113.465,84.5883 110.5,85.5C 106.731,85.3326 103.564,83.9993 101,81.5C 99.2703,82.6493 97.6037,82.6493 96,81.5C 92.7098,84.5484 89.2098,87.2151 85.5,89.5C 87.8208,86.2041 90.1542,82.8708 92.5,79.5C 94.6761,77.4848 97.1761,75.8181 100,74.5C 100.399,74.7284 100.565,75.0618 100.5,75.5 Z"/></g>
<g><path style="opacity:1" fill="#287139" d="M 76.5,63.5 C 76.8297,69.8682 76.4963,76.2015 75.5,82.5C 72.724,84.6248 69.724,84.9581 66.5,83.5C 66.5,82.1667 66.5,80.8333 66.5,79.5C 68.924,79.8076 71.2573,79.4742 73.5,78.5C 71.4211,74.5911 69.7545,70.5911 68.5,66.5C 69.6551,63.5251 71.3218,60.8584 73.5,58.5C 74.6963,60.1446 75.6963,61.8113 76.5,63.5 Z"/></g>
<g><path style="opacity:1" fill="#5e7a9b" d="M 138.5,70.5 C 142.092,72.4272 144.092,75.4272 144.5,79.5C 144.682,81.5914 144.348,83.5914 143.5,85.5C 147.102,87.322 147.102,88.322 143.5,88.5C 140.355,83.5024 137.688,83.5024 135.5,88.5C 133.708,88.634 132.042,88.3007 130.5,87.5C 132.765,85.358 135.432,83.6913 138.5,82.5C 139.086,82.7093 139.586,83.0426 140,83.5C 140.49,82.2068 140.657,80.8734 140.5,79.5C 139.817,77.8235 138.483,77.1568 136.5,77.5C 136.065,75.2967 136.065,73.2967 136.5,71.5C 137.925,73.0311 138.591,72.6977 138.5,70.5 Z"/></g>
<g><path style="opacity:1" fill="#5792b6" d="M 140.5,79.5 C 140.657,80.8734 140.49,82.2068 140,83.5C 139.586,83.0426 139.086,82.7093 138.5,82.5C 135.432,83.6913 132.765,85.358 130.5,87.5C 129.85,87.8039 129.183,88.1373 128.5,88.5C 125.573,87.199 122.573,86.199 119.5,85.5C 118.833,84.1667 117.833,83.1667 116.5,82.5C 114.848,78.6563 112.515,75.1563 109.5,72C 109.833,71.8333 110.167,71.6667 110.5,71.5C 113.288,72.7922 115.622,74.6255 117.5,77C 121.067,78.0754 124.067,77.242 126.5,74.5C 128.875,77.7367 131.875,78.7367 135.5,77.5C 135.238,78.9778 135.571,80.3112 136.5,81.5C 137.524,80.1468 138.857,79.4802 140.5,79.5 Z"/></g>
<g><path style="opacity:1" fill="#e8ebeb" d="M 112.5,80.5 C 109.222,80.1389 106.055,80.1389 103,80.5C 102.692,79.6919 102.192,79.0253 101.5,78.5C 99.6806,80.9114 97.6806,81.078 95.5,79C 97.2331,77.8111 98.8998,76.6444 100.5,75.5C 106.881,71.0175 110.881,72.6842 112.5,80.5 Z"/></g>
<g><path style="opacity:1" fill="#326b4f" d="M 68.5,66.5 C 69.7545,70.5911 71.4211,74.5911 73.5,78.5C 71.2573,79.4742 68.924,79.8076 66.5,79.5C 66.8795,76.4331 65.8795,75.4331 63.5,76.5C 65.4064,73.21 67.073,69.8767 68.5,66.5 Z"/></g>
<g><path style="opacity:1" fill="#588dae" d="M 79.5,63.5 C 81.7171,65.0799 84.3837,66.0799 87.5,66.5C 85.4168,68.6044 83.0835,68.9377 80.5,67.5C 78.5837,72.431 80.2503,74.7643 85.5,74.5C 85.281,73.325 85.6143,72.325 86.5,71.5C 88.1789,73.1045 90.1789,73.7711 92.5,73.5C 92.1742,75.6607 91.1742,77.4941 89.5,79C 90.448,79.4828 91.448,79.6495 92.5,79.5C 90.1542,82.8708 87.8208,86.2041 85.5,89.5C 84.8333,89.5 84.1667,89.5 83.5,89.5C 83.0818,86.9104 82.0818,84.5771 80.5,82.5C 79.4534,77.0066 78.4534,71.5066 77.5,66C 77.6387,64.699 78.3054,63.8656 79.5,63.5 Z"/></g>
<g><path style="opacity:1" fill="#6084b2" d="M 136.5,71.5 C 136.065,73.2967 136.065,75.2967 136.5,77.5C 138.483,77.1568 139.817,77.8235 140.5,79.5C 138.857,79.4802 137.524,80.1468 136.5,81.5C 135.571,80.3112 135.238,78.9778 135.5,77.5C 131.875,78.7367 128.875,77.7367 126.5,74.5C 124.067,77.242 121.067,78.0754 117.5,77C 115.622,74.6255 113.288,72.7922 110.5,71.5C 110.167,71.6667 109.833,71.8333 109.5,72C 112.515,75.1563 114.848,78.6563 116.5,82.5C 116.565,82.9382 116.399,83.2716 116,83.5C 114.961,82.2899 113.794,81.2899 112.5,80.5C 110.881,72.6842 106.881,71.0175 100.5,75.5C 100.565,75.0618 100.399,74.7284 100,74.5C 97.1761,75.8181 94.6761,77.4848 92.5,79.5C 91.448,79.6495 90.448,79.4828 89.5,79C 91.1742,77.4941 92.1742,75.6607 92.5,73.5C 90.1789,73.7711 88.1789,73.1045 86.5,71.5C 85.6143,72.325 85.281,73.325 85.5,74.5C 80.2503,74.7643 78.5837,72.431 80.5,67.5C 83.0835,68.9377 85.4168,68.6044 87.5,66.5C 84.3837,66.0799 81.7171,65.0799 79.5,63.5C 81.7345,62.5531 84.0678,61.8864 86.5,61.5C 88.0441,61.7896 89.3774,62.4563 90.5,63.5C 91.3857,62.675 91.719,61.675 91.5,60.5C 101.854,60.362 112.188,60.6954 122.5,61.5C 122.702,65.8987 124.868,68.8987 129,70.5C 130,69.8333 131,69.1667 132,68.5C 133.386,69.7286 134.886,70.7286 136.5,71.5 Z"/></g>
<g><path style="opacity:1" fill="#5d689c" d="M 93.5,57.5 C 100.833,57.5 108.167,57.5 115.5,57.5C 120.091,59.4213 124.757,61.2546 129.5,63C 132.94,65.0421 135.94,67.5421 138.5,70.5C 138.591,72.6977 137.925,73.0311 136.5,71.5C 134.886,70.7286 133.386,69.7286 132,68.5C 131,69.1667 130,69.8333 129,70.5C 124.868,68.8987 122.702,65.8987 122.5,61.5C 112.188,60.6954 101.854,60.362 91.5,60.5C 91.719,61.675 91.3857,62.675 90.5,63.5C 89.3774,62.4563 88.0441,61.7896 86.5,61.5C 84.0678,61.8864 81.7345,62.5531 79.5,63.5C 79.5,63.1667 79.5,62.8333 79.5,62.5C 83.8096,60.2039 88.4763,58.5373 93.5,57.5 Z"/></g>
<g><path style="opacity:1" fill="#9ca673" d="M 115.5,57.5 C 108.167,57.5 100.833,57.5 93.5,57.5C 96.5982,56.179 100.098,55.5123 104,55.5C 107.5,55.6667 111,55.8333 114.5,56C 115.056,56.3826 115.389,56.8826 115.5,57.5 Z"/></g>
<g><path style="opacity:1" fill="#516580" d="M 66.5,79.5 C 65.5386,81.2646 65.2053,83.2646 65.5,85.5C 62.858,85.4877 61.5246,86.821 61.5,89.5C 60.8333,89.5 60.1667,89.5 59.5,89.5C 59.5,88.8333 59.5,88.1667 59.5,87.5C 60.4308,83.7094 61.7641,80.0428 63.5,76.5C 65.8795,75.4331 66.8795,76.4331 66.5,79.5 Z"/></g>
<g><path style="opacity:1" fill="#e4cc7d" d="M 55.5,74.5 C 53.9451,79.6546 52.9451,84.9879 52.5,90.5C 55.3208,90.4546 57.6541,89.4546 59.5,87.5C 59.5,88.1667 59.5,88.8333 59.5,89.5C 57.081,91.8624 54.081,92.8624 50.5,92.5C 50.7574,88.1083 51.4241,83.775 52.5,79.5C 53.0652,77.4565 54.0652,75.7898 55.5,74.5 Z"/></g>
<g><path style="opacity:1" fill="#8a6d97" d="M 159.5,79.5 C 159.833,79.5 160.167,79.5 160.5,79.5C 158.999,86.5215 161.666,90.8548 168.5,92.5C 169.945,94.0627 171.611,95.396 173.5,96.5C 175.907,97.7945 178.074,99.4611 180,101.5C 180.692,102.437 180.525,103.103 179.5,103.5C 174.817,100.588 169.651,98.5879 164,97.5C 159.876,98.5715 155.71,98.7382 151.5,98C 144.954,94.9782 138.287,94.8116 131.5,97.5C 127.403,96.8092 123.403,95.8092 119.5,94.5C 116.975,92.8229 114.309,91.3229 111.5,90C 107.925,89.2315 104.592,89.7315 101.5,91.5C 99.4727,91.3379 97.4727,91.5045 95.5,92C 92.1967,95.4844 88.1967,97.6511 83.5,98.5C 83.5,95.5 83.5,92.5 83.5,89.5C 84.1667,89.5 84.8333,89.5 85.5,89.5C 89.2098,87.2151 92.7098,84.5484 96,81.5C 97.6037,82.6493 99.2703,82.6493 101,81.5C 103.564,83.9993 106.731,85.3326 110.5,85.5C 113.465,84.5883 116.465,84.5883 119.5,85.5C 120.936,86.4286 122.269,87.5952 123.5,89C 128.923,89.6273 134.089,90.7939 139,92.5C 140.473,90.9929 142.307,90.3262 144.5,90.5C 148.156,91.2858 151.823,91.4525 155.5,91C 156.252,90.3292 156.586,89.4959 156.5,88.5C 157.5,88.5 158.5,88.5 159.5,88.5C 159.5,85.5 159.5,82.5 159.5,79.5 Z"/></g>
<g><path style="opacity:1" fill="#e4e5e6" d="M 143.5,88.5 C 140.554,89.2893 137.888,89.2893 135.5,88.5C 137.688,83.5024 140.355,83.5024 143.5,88.5 Z"/></g>
<g><path style="opacity:1" fill="#5c90b6" d="M 160.5,79.5 C 161.558,80.6002 162.392,81.9336 163,83.5C 163.333,83.1667 163.667,82.8333 164,82.5C 164.464,88.1748 165.131,88.5081 166,83.5C 166.69,84.7383 167.19,84.7383 167.5,83.5C 170.479,83.9933 172.812,85.4933 174.5,88C 174.06,91.6086 172.06,93.1086 168.5,92.5C 161.666,90.8548 158.999,86.5215 160.5,79.5 Z"/></g>
<g><path style="opacity:1" fill="#529ebe" d="M 37.5,79.5 C 39.0481,79.8212 39.7148,80.8212 39.5,82.5C 41.1439,82.2865 42.6439,82.6198 44,83.5C 45.4048,82.2695 46.5714,80.9361 47.5,79.5C 46.7051,83.7853 46.3718,88.1186 46.5,92.5C 41.6804,90.5208 37.6804,91.5208 34.5,95.5C 32.7745,93.7721 31.4411,91.7721 30.5,89.5C 32.1184,87.684 34.1184,86.3507 36.5,85.5C 37.4656,83.604 37.7989,81.604 37.5,79.5 Z"/></g>
<g><path style="opacity:1" fill="#615969" d="M 144.5,79.5 C 146.198,82.2314 147.531,85.2314 148.5,88.5C 151.199,89.7294 153.865,89.7294 156.5,88.5C 156.586,89.4959 156.252,90.3292 155.5,91C 151.823,91.4525 148.156,91.2858 144.5,90.5C 142.307,90.3262 140.473,90.9929 139,92.5C 134.089,90.7939 128.923,89.6273 123.5,89C 122.269,87.5952 120.936,86.4286 119.5,85.5C 122.573,86.199 125.573,87.199 128.5,88.5C 129.183,88.1373 129.85,87.8039 130.5,87.5C 132.042,88.3007 133.708,88.634 135.5,88.5C 137.888,89.2893 140.554,89.2893 143.5,88.5C 147.102,88.322 147.102,87.322 143.5,85.5C 144.348,83.5914 144.682,81.5914 144.5,79.5 Z"/></g>
<g><path style="opacity:1" fill="#202327" d="M 195.5,54.5 C 203.181,68.2096 207.848,82.8763 209.5,98.5C 209.5,102.5 209.5,106.5 209.5,110.5C 200.962,167.037 168.295,199.037 111.5,206.5C 107.5,206.5 103.5,206.5 99.5,206.5C 98.791,205.596 97.791,205.263 96.5,205.5C 97.881,203.726 97.5477,202.226 95.5,201C 96.7375,200.768 97.7375,200.268 98.5,199.5C 99.0209,195.519 99.3542,191.519 99.5,187.5C 98.5,187.5 97.5,187.5 96.5,187.5C 96.3146,196.294 95.3146,195.961 93.5,186.5C 92.5,186.5 91.5,186.5 90.5,186.5C 90.5,187.5 90.5,188.5 90.5,189.5C 89.5655,188.432 89.2322,187.099 89.5,185.5C 88.209,185.263 87.209,185.596 86.5,186.5C 85.609,187.11 84.609,187.443 83.5,187.5C 82.596,186.791 82.2627,185.791 82.5,184.5C 85.0545,183.612 87.7212,183.279 90.5,183.5C 99.1667,183.5 107.833,183.5 116.5,183.5C 116.5,184.5 116.5,185.5 116.5,186.5C 117.5,186.5 118.5,186.5 119.5,186.5C 119.5,185.5 119.5,184.5 119.5,183.5C 122.206,183.425 124.873,183.092 127.5,182.5C 128.363,179.626 129.697,176.959 131.5,174.5C 131.333,173.833 131.167,173.167 131,172.5C 127.887,171.29 125.387,169.29 123.5,166.5C 125.365,165.334 127.032,165.667 128.5,167.5C 129.541,165.415 131.041,163.748 133,162.5C 133.483,161.552 133.649,160.552 133.5,159.5C 132.448,159.649 131.448,159.483 130.5,159C 131.905,157.731 133.571,157.231 135.5,157.5C 135.5,156.5 135.5,155.5 135.5,154.5C 134.5,154.5 133.5,154.5 132.5,154.5C 132.94,148.599 134.273,148.266 136.5,153.5C 136.805,157.974 137.305,162.641 138,167.5C 139.337,163.974 139.837,160.308 139.5,156.5C 143.917,157.146 146.917,155.146 148.5,150.5C 149.117,150.389 149.617,150.056 150,149.5C 150.779,142.068 150.279,134.735 148.5,127.5C 151.948,127.892 155.114,127.225 158,125.5C 160.421,126.492 161.088,125.492 160,122.5C 159.667,122.833 159.333,123.167 159,123.5C 158.228,122.151 157.061,121.318 155.5,121C 157.272,119.513 159.272,119.18 161.5,120C 160.833,120.333 160.167,120.667 159.5,121C 161.41,121.408 162.41,122.575 162.5,124.5C 160.12,128.47 159.12,132.803 159.5,137.5C 161.179,137.285 162.179,137.952 162.5,139.5C 161.438,140.575 161.438,141.575 162.5,142.5C 164.662,140.98 166.995,139.98 169.5,139.5C 169.5,138.167 169.5,136.833 169.5,135.5C 167.571,135.769 165.905,135.269 164.5,134C 166.683,131.65 169.016,129.483 171.5,127.5C 168.854,125.868 167.521,123.535 167.5,120.5C 169.5,119.5 171.5,118.5 173.5,117.5C 175.035,116.156 176.368,114.489 177.5,112.5C 177.376,111.893 177.043,111.56 176.5,111.5C 176.833,110.833 177.167,110.167 177.5,109.5C 179.521,107.307 181.188,104.807 182.5,102C 180.024,99.6887 177.691,97.1887 175.5,94.5C 176.437,91.4598 177.771,88.6265 179.5,86C 177.625,84.1403 175.458,82.6403 173,81.5C 172.503,78.854 172.336,76.1873 172.5,73.5C 174.925,70.1533 177.925,68.1533 181.5,67.5C 177.962,66.0787 174.629,64.412 171.5,62.5C 172.833,62.5 174.167,62.5 175.5,62.5C 175.523,60.4004 174.856,58.5671 173.5,57C 176.242,54.0912 179.575,52.2579 183.5,51.5C 185.455,50.6765 187.455,50.5099 189.5,51C 191.132,52.8195 193.132,53.9862 195.5,54.5 Z"/></g>
<g><path style="opacity:1" fill="#828689" d="M 197.5,83.5 C 198.097,83.7352 198.43,84.2352 198.5,85C 196.811,86.3582 195.478,88.0249 194.5,90C 191.829,89.1941 189.162,89.3607 186.5,90.5C 186.264,88.0268 184.931,86.3601 182.5,85.5C 183.516,82.8663 183.516,80.1996 182.5,77.5C 185.5,77.8333 186.833,76.5 186.5,73.5C 188.881,74.4196 191.214,74.4196 193.5,73.5C 194.36,75.9307 196.027,77.264 198.5,77.5C 198.167,79.5 197.833,81.5 197.5,83.5 Z"/></g>
<g><path style="opacity:1" fill="#1e2326" d="M 197.5,83.5 C 196.323,85.0315 194.989,86.5315 193.5,88C 191.802,87.5031 190.135,87.6698 188.5,88.5C 187.5,86.8333 186.167,85.5 184.5,84.5C 185.833,82.8333 185.833,81.1667 184.5,79.5C 186.167,78.5 187.5,77.1667 188.5,75.5C 189.833,76.8333 191.167,76.8333 192.5,75.5C 195.059,77.7015 196.725,80.3682 197.5,83.5 Z"/></g>
<g><path style="opacity:1" fill="#95496f" d="M 49.5,75.5 C 49.04,78.9774 48.7067,82.4774 48.5,86C 48.5332,88.6103 49.1999,90.777 50.5,92.5C 51.8526,93.8671 51.5193,94.8671 49.5,95.5C 48.2613,95.0576 47.2613,94.3909 46.5,93.5C 46.5,93.1667 46.5,92.8333 46.5,92.5C 46.3718,88.1186 46.7051,83.7853 47.5,79.5C 47.6596,77.847 48.3263,76.5137 49.5,75.5 Z"/></g>
<g><path style="opacity:1" fill="#907399" d="M 59.5,89.5 C 60.1667,89.5 60.8333,89.5 61.5,89.5C 62.8333,89.5 63.5,90.1667 63.5,91.5C 60.5201,92.8293 59.1868,95.1626 59.5,98.5C 57.017,99.7696 54.3504,100.436 51.5,100.5C 47.5138,99.6672 43.5138,99.5006 39.5,100C 36.9454,101.444 34.2787,102.611 31.5,103.5C 30.5836,103.457 29.9169,103.124 29.5,102.5C 32.9378,99.5653 36.2711,96.3986 39.5,93C 41.7972,92.9822 44.1305,93.1489 46.5,93.5C 47.2613,94.3909 48.2613,95.0576 49.5,95.5C 51.5193,94.8671 51.8526,93.8671 50.5,92.5C 54.081,92.8624 57.081,91.8624 59.5,89.5 Z"/></g>
<g><path style="opacity:1" fill="#e0cad1" d="M 119.5,94.5 C 119.804,95.1499 120.137,95.8165 120.5,96.5C 117.232,97.487 113.898,97.8204 110.5,97.5C 110.167,97.5 109.833,97.5 109.5,97.5C 104.901,97.2 100.401,97.5333 96,98.5C 95.5172,97.552 95.3505,96.552 95.5,95.5C 96.5,95.5 97.5,95.5 98.5,95.5C 98.5,94.5 98.5,93.5 98.5,92.5C 99.791,92.7373 100.791,92.404 101.5,91.5C 104.592,89.7315 107.925,89.2315 111.5,90C 114.309,91.3229 116.975,92.8229 119.5,94.5 Z"/></g>
<g><path style="opacity:1" fill="#ceafc0" d="M 101.5,91.5 C 100.791,92.404 99.791,92.7373 98.5,92.5C 98.5,93.5 98.5,94.5 98.5,95.5C 97.5,95.5 96.5,95.5 95.5,95.5C 95.3505,96.552 95.5172,97.552 96,98.5C 100.401,97.5333 104.901,97.2 109.5,97.5C 109.649,98.552 109.483,99.552 109,100.5C 108.259,99.3595 107.425,99.3595 106.5,100.5C 105.833,99.8333 105.167,99.1667 104.5,98.5C 103.142,102.917 100.142,104.584 95.5,103.5C 91.5,103.5 87.5,103.5 83.5,103.5C 83.5,101.833 83.5,100.167 83.5,98.5C 88.1967,97.6511 92.1967,95.4844 95.5,92C 97.4727,91.5045 99.4727,91.3379 101.5,91.5 Z"/></g>
<g><path style="opacity:1" fill="#296f3f" d="M 109.5,105.5 C 108.5,106.833 107.5,108.167 106.5,109.5C 99.6652,111.258 92.6652,111.925 85.5,111.5C 85.2089,110.351 84.3756,109.684 83,109.5C 70.2257,109.639 57.3924,109.639 44.5,109.5C 42.1667,109.5 39.8333,109.5 37.5,109.5C 35.0504,109.702 32.717,109.369 30.5,108.5C 29.0937,108.027 28.427,107.027 28.5,105.5C 39.8842,106.144 50.8842,105.477 61.5,103.5C 61.1667,100.5 62.5,99.1667 65.5,99.5C 65.3067,96.6915 64.64,94.0248 63.5,91.5C 64.7911,90.4583 64.7911,89.2917 63.5,88C 67.0607,86.2535 70.7274,86.0868 74.5,87.5C 76.6597,87.234 78.3264,86.234 79.5,84.5C 82.6767,88.9463 82.01,92.613 77.5,95.5C 78.2791,97.773 79.6125,99.6063 81.5,101C 82.1476,102.44 82.4809,103.94 82.5,105.5C 91.5,105.5 100.5,105.5 109.5,105.5 Z"/></g>
<g><path style="opacity:1" fill="#ccacbc" d="M 119.5,94.5 C 123.403,95.8092 127.403,96.8092 131.5,97.5C 138.287,94.8116 144.954,94.9782 151.5,98C 155.71,98.7382 159.876,98.5715 164,97.5C 169.651,98.5879 174.817,100.588 179.5,103.5C 177.198,104.822 174.865,104.822 172.5,103.5C 171.478,103.855 170.811,104.522 170.5,105.5C 166.577,105.24 162.91,104.24 159.5,102.5C 158.784,103.311 157.95,103.978 157,104.5C 154.23,103.652 151.397,103.319 148.5,103.5C 147.713,101.896 146.38,101.229 144.5,101.5C 144.915,99.0523 143.915,97.7189 141.5,97.5C 137.957,98.7655 134.957,100.766 132.5,103.5C 129.272,103.701 126.105,103.367 123,102.5C 121.923,103.429 120.756,104.096 119.5,104.5C 118.833,104.5 118.167,104.5 117.5,104.5C 117.539,103.417 117.873,102.417 118.5,101.5C 116.326,100.107 114.493,100.44 113,102.5C 111.906,100.922 111.072,99.2554 110.5,97.5C 113.898,97.8204 117.232,97.487 120.5,96.5C 120.137,95.8165 119.804,95.1499 119.5,94.5 Z"/></g>
<g><path style="opacity:1" fill="#4b6b58" d="M 63.5,91.5 C 64.64,94.0248 65.3067,96.6915 65.5,99.5C 62.5,99.1667 61.1667,100.5 61.5,103.5C 60.5,103.5 59.5,103.5 58.5,103.5C 58.5614,101.408 59.5614,99.9078 61.5,99C 60.9056,98.5357 60.2389,98.369 59.5,98.5C 59.1868,95.1626 60.5201,92.8293 63.5,91.5 Z"/></g>
<g><path style="opacity:1" fill="#907881" d="M 109.5,97.5 C 109.833,97.5 110.167,97.5 110.5,97.5C 111.072,99.2554 111.906,100.922 113,102.5C 114.493,100.44 116.326,100.107 118.5,101.5C 117.873,102.417 117.539,103.417 117.5,104.5C 116.842,103.602 116.176,102.602 115.5,101.5C 113.87,103.264 111.87,104.264 109.5,104.5C 104.637,104.819 99.97,104.486 95.5,103.5C 100.142,104.584 103.142,102.917 104.5,98.5C 105.167,99.1667 105.833,99.8333 106.5,100.5C 107.425,99.3595 108.259,99.3595 109,100.5C 109.483,99.552 109.649,98.552 109.5,97.5 Z"/></g>
<g><path style="opacity:1" fill="#bd9fae" d="M 59.5,98.5 C 60.2389,98.369 60.9056,98.5357 61.5,99C 59.5614,99.9078 58.5614,101.408 58.5,103.5C 59.5,103.5 60.5,103.5 61.5,103.5C 50.8842,105.477 39.8842,106.144 28.5,105.5C 27.8333,105.5 27.5,105.167 27.5,104.5C 28.1667,103.833 28.8333,103.167 29.5,102.5C 29.9169,103.124 30.5836,103.457 31.5,103.5C 34.2787,102.611 36.9454,101.444 39.5,100C 43.5138,99.5006 47.5138,99.6672 51.5,100.5C 54.3504,100.436 57.017,99.7696 59.5,98.5 Z"/></g>
<g><path style="opacity:1" fill="#3d7157" d="M 79.5,62.5 C 79.5,62.8333 79.5,63.1667 79.5,63.5C 78.3054,63.8656 77.6387,64.699 77.5,66C 78.4534,71.5066 79.4534,77.0066 80.5,82.5C 82.0818,84.5771 83.0818,86.9104 83.5,89.5C 83.5,92.5 83.5,95.5 83.5,98.5C 83.5,100.167 83.5,101.833 83.5,103.5C 87.5,103.5 91.5,103.5 95.5,103.5C 99.97,104.486 104.637,104.819 109.5,104.5C 109.5,104.833 109.5,105.167 109.5,105.5C 100.5,105.5 91.5,105.5 82.5,105.5C 82.4809,103.94 82.1476,102.44 81.5,101C 79.6125,99.6063 78.2791,97.773 77.5,95.5C 82.01,92.613 82.6767,88.9463 79.5,84.5C 78.3264,86.234 76.6597,87.234 74.5,87.5C 70.7274,86.0868 67.0607,86.2535 63.5,88C 64.7911,89.2917 64.7911,90.4583 63.5,91.5C 63.5,90.1667 62.8333,89.5 61.5,89.5C 61.5246,86.821 62.858,85.4877 65.5,85.5C 65.2053,83.2646 65.5386,81.2646 66.5,79.5C 66.5,80.8333 66.5,82.1667 66.5,83.5C 69.724,84.9581 72.724,84.6248 75.5,82.5C 76.4963,76.2015 76.8297,69.8682 76.5,63.5C 77.391,62.8902 78.391,62.5569 79.5,62.5 Z"/></g>
<g><path style="opacity:1" fill="#607d6f" d="M 132.5,103.5 C 132.672,104.492 132.338,105.158 131.5,105.5C 127.5,105.5 123.5,105.5 119.5,105.5C 119.5,105.167 119.5,104.833 119.5,104.5C 120.756,104.096 121.923,103.429 123,102.5C 126.105,103.367 129.272,103.701 132.5,103.5 Z"/></g>
<g><path style="opacity:1" fill="#b1764c" d="M 148.5,103.5 C 148.5,104.5 148.5,105.5 148.5,106.5C 143.491,107.725 138.491,107.725 133.5,106.5C 133.5,105.5 133.5,104.5 133.5,103.5C 135.826,102.849 138.159,102.182 140.5,101.5C 143.233,101.968 145.9,102.635 148.5,103.5 Z"/></g>
<g><path style="opacity:1" fill="#645844" d="M 117.5,104.5 C 118.167,104.5 118.833,104.5 119.5,104.5C 119.5,104.833 119.5,105.167 119.5,105.5C 117.692,106.918 117.025,108.918 117.5,111.5C 116.167,111.5 114.833,111.5 113.5,111.5C 113.688,109.897 113.188,108.563 112,107.5C 110.599,109.192 108.766,109.859 106.5,109.5C 107.5,108.167 108.5,106.833 109.5,105.5C 109.5,105.167 109.5,104.833 109.5,104.5C 111.87,104.264 113.87,103.264 115.5,101.5C 116.176,102.602 116.842,103.602 117.5,104.5 Z"/></g>
<g><path style="opacity:1" fill="#377550" d="M 170.5,105.5 C 172.833,105.5 175.167,105.5 177.5,105.5C 177.5,106.833 177.5,108.167 177.5,109.5C 177.167,110.167 176.833,110.833 176.5,111.5C 175.833,111.5 175.167,111.5 174.5,111.5C 172.167,111.5 169.833,111.5 167.5,111.5C 169.717,109.92 172.384,108.92 175.5,108.5C 170.669,107.892 166.003,106.892 161.5,105.5C 158.733,105.786 156.066,106.453 153.5,107.5C 156.768,108.487 160.102,108.82 163.5,108.5C 163.285,110.179 163.952,111.179 165.5,111.5C 162.696,112.112 159.696,112.112 156.5,111.5C 155.167,111.5 153.833,111.5 152.5,111.5C 150.946,110.086 149.612,108.419 148.5,106.5C 148.5,105.5 148.5,104.5 148.5,103.5C 151.397,103.319 154.23,103.652 157,104.5C 157.95,103.978 158.784,103.311 159.5,102.5C 162.91,104.24 166.577,105.24 170.5,105.5 Z"/></g>
<g><path style="opacity:1" fill="#187d3e" d="M 167.5,111.5 C 166.833,111.5 166.167,111.5 165.5,111.5C 163.952,111.179 163.285,110.179 163.5,108.5C 160.102,108.82 156.768,108.487 153.5,107.5C 156.066,106.453 158.733,105.786 161.5,105.5C 166.003,106.892 170.669,107.892 175.5,108.5C 172.384,108.92 169.717,109.92 167.5,111.5 Z"/></g>
<g><path style="opacity:1" fill="#868e59" d="M 37.5,109.5 C 39.8333,109.5 42.1667,109.5 44.5,109.5C 48.1667,110.167 51.8333,110.833 55.5,111.5C 51.8333,111.5 48.1667,111.5 44.5,111.5C 42.1667,111.5 39.8333,111.5 37.5,111.5C 37.5,110.833 37.5,110.167 37.5,109.5 Z"/></g>
<g><path style="opacity:1" fill="#4a6644" d="M 44.5,109.5 C 57.3924,109.639 70.2257,109.639 83,109.5C 84.3756,109.684 85.2089,110.351 85.5,111.5C 78.1667,111.5 70.8333,111.5 63.5,111.5C 60.8333,111.5 58.1667,111.5 55.5,111.5C 51.8333,110.833 48.1667,110.167 44.5,109.5 Z"/></g>
<g><path style="opacity:1" fill="#316e41" d="M 119.5,105.5 C 123.5,105.5 127.5,105.5 131.5,105.5C 132.055,109.012 131.388,112.012 129.5,114.5C 129.196,113.85 128.863,113.183 128.5,112.5C 124.893,111.511 121.226,111.177 117.5,111.5C 117.025,108.918 117.692,106.918 119.5,105.5 Z"/></g>
<g><path style="opacity:1" fill="#61656a" d="M 30.5,108.5 C 32.717,109.369 35.0504,109.702 37.5,109.5C 37.5,110.167 37.5,110.833 37.5,111.5C 35.5,111.5 33.5,111.5 31.5,111.5C 30.8902,110.609 30.5569,109.609 30.5,108.5 Z"/></g>
<g><path style="opacity:1" fill="#a77555" d="M 31.5,111.5 C 33.5,111.5 35.5,111.5 37.5,111.5C 39.8333,111.5 42.1667,111.5 44.5,111.5C 44.7911,112.649 45.6244,113.316 47,113.5C 50.0265,113.912 52.8599,114.579 55.5,115.5C 53.4727,115.338 51.4727,115.505 49.5,116C 51.7133,117.616 54.0466,118.783 56.5,119.5C 55.6618,119.842 55.3284,120.508 55.5,121.5C 50.0253,119.801 44.692,117.801 39.5,115.5C 37.279,115.439 36.9456,116.105 38.5,117.5C 37.8333,117.5 37.5,117.833 37.5,118.5C 35.9362,116.016 33.9362,114.016 31.5,112.5C 31.5,112.167 31.5,111.833 31.5,111.5 Z"/></g>
<g><path style="opacity:1" fill="#86926b" d="M 156.5,111.5 C 159.696,112.112 162.696,112.112 165.5,111.5C 166.167,111.5 166.833,111.5 167.5,111.5C 169.833,111.5 172.167,111.5 174.5,111.5C 172.485,112.924 170.152,113.59 167.5,113.5C 163.351,114.08 159.684,113.414 156.5,111.5 Z"/></g>
<g><path style="opacity:1" fill="#947141" d="M 117.5,111.5 C 121.226,111.177 124.893,111.511 128.5,112.5C 128.863,113.183 129.196,113.85 129.5,114.5C 129.5,114.833 129.5,115.167 129.5,115.5C 124.721,113.576 119.721,113.076 114.5,114C 112.561,114.908 111.561,116.408 111.5,118.5C 105.942,117.477 100.609,117.477 95.5,118.5C 96.4511,117.081 96.7845,115.415 96.5,113.5C 88.16,113.666 79.8267,113.5 71.5,113C 68.6353,112.817 65.9686,112.317 63.5,111.5C 70.8333,111.5 78.1667,111.5 85.5,111.5C 92.6652,111.925 99.6652,111.258 106.5,109.5C 108.766,109.859 110.599,109.192 112,107.5C 113.188,108.563 113.688,109.897 113.5,111.5C 114.833,111.5 116.167,111.5 117.5,111.5 Z"/></g>
<g><path style="opacity:1" fill="#6f4b36" d="M 148.5,103.5 C 145.9,102.635 143.233,101.968 140.5,101.5C 138.159,102.182 135.826,102.849 133.5,103.5C 133.5,104.5 133.5,105.5 133.5,106.5C 138.491,107.725 143.491,107.725 148.5,106.5C 149.612,108.419 150.946,110.086 152.5,111.5C 152.5,112.833 152.5,114.167 152.5,115.5C 145.441,118.505 138.108,119.172 130.5,117.5C 130.137,116.817 129.804,116.15 129.5,115.5C 129.5,115.167 129.5,114.833 129.5,114.5C 131.388,112.012 132.055,109.012 131.5,105.5C 132.338,105.158 132.672,104.492 132.5,103.5C 134.957,100.766 137.957,98.7655 141.5,97.5C 143.915,97.7189 144.915,99.0523 144.5,101.5C 146.38,101.229 147.713,101.896 148.5,103.5 Z"/></g>
<g><path style="opacity:1" fill="#b28856" d="M 152.5,111.5 C 153.833,111.5 155.167,111.5 156.5,111.5C 159.684,113.414 163.351,114.08 167.5,113.5C 166.7,115.741 165.034,116.741 162.5,116.5C 162.03,115.307 161.03,114.64 159.5,114.5C 157.182,114.997 154.848,115.33 152.5,115.5C 152.5,114.167 152.5,112.833 152.5,111.5 Z"/></g>
<g><path style="opacity:1" fill="#d68242" d="M 44.5,111.5 C 48.1667,111.5 51.8333,111.5 55.5,111.5C 58.1667,111.5 60.8333,111.5 63.5,111.5C 65.9686,112.317 68.6353,112.817 71.5,113C 79.8267,113.5 88.16,113.666 96.5,113.5C 96.7845,115.415 96.4511,117.081 95.5,118.5C 89.5,118.5 83.5,118.5 77.5,118.5C 69.9413,118.149 62.608,117.149 55.5,115.5C 52.8599,114.579 50.0265,113.912 47,113.5C 45.6244,113.316 44.7911,112.649 44.5,111.5 Z"/></g>
<g><path style="opacity:1" fill="#de8b4a" d="M 129.5,115.5 C 129.804,116.15 130.137,116.817 130.5,117.5C 138.108,119.172 145.441,118.505 152.5,115.5C 154.848,115.33 157.182,114.997 159.5,114.5C 161.03,114.64 162.03,115.307 162.5,116.5C 160.412,117.939 158.079,118.606 155.5,118.5C 150.546,120.006 145.379,120.673 140,120.5C 133.048,120.513 126.215,119.846 119.5,118.5C 116.833,118.5 114.167,118.5 111.5,118.5C 111.561,116.408 112.561,114.908 114.5,114C 119.721,113.076 124.721,113.576 129.5,115.5 Z"/></g>
<g><path style="opacity:1" fill="#a8a85f" d="M 173.5,117.5 C 171.5,118.5 169.5,119.5 167.5,120.5C 169.055,118.06 171.055,116.06 173.5,114.5C 174.562,115.425 174.562,116.425 173.5,117.5 Z"/></g>
<g><path style="opacity:1" fill="#7c6460" d="M 111.5,118.5 C 114.167,118.5 116.833,118.5 119.5,118.5C 119.5,119.167 119.5,119.833 119.5,120.5C 113.477,120.498 107.477,120.165 101.5,119.5C 101.5,120.833 101.5,122.167 101.5,123.5C 100.292,124.234 98.9587,124.567 97.5,124.5C 97.1667,124.5 96.8333,124.5 96.5,124.5C 96.4128,123.502 96.0795,122.335 95.5,121C 89.266,120.822 83.266,119.988 77.5,118.5C 83.5,118.5 89.5,118.5 95.5,118.5C 100.609,117.477 105.942,117.477 111.5,118.5 Z"/></g>
<g><path style="opacity:1" fill="#736f96" d="M 55.5,115.5 C 62.608,117.149 69.9413,118.149 77.5,118.5C 83.266,119.988 89.266,120.822 95.5,121C 96.0795,122.335 96.4128,123.502 96.5,124.5C 96.5,124.833 96.5,125.167 96.5,125.5C 90.6073,126.715 84.9406,125.882 79.5,123C 71.9104,121.287 64.2438,120.12 56.5,119.5C 54.0466,118.783 51.7133,117.616 49.5,116C 51.4727,115.505 53.4727,115.338 55.5,115.5 Z"/></g>
<g><path style="opacity:1" fill="#dfa576" d="M 119.5,118.5 C 126.215,119.846 133.048,120.513 140,120.5C 145.379,120.673 150.546,120.006 155.5,118.5C 152.947,120.584 149.947,121.917 146.5,122.5C 142.833,122.5 139.167,122.5 135.5,122.5C 130.256,121.185 124.923,120.518 119.5,120.5C 119.5,119.833 119.5,119.167 119.5,118.5 Z"/></g>
<g><path style="opacity:1" fill="#fbfbfb" d="M -0.5,107.5 C 4.69684,150.533 27.0302,181.033 66.5,199C 76.3349,202.127 86.3349,204.293 96.5,205.5C 97.791,205.263 98.791,205.596 99.5,206.5C 66.1667,206.5 32.8333,206.5 -0.5,206.5C -0.5,173.5 -0.5,140.5 -0.5,107.5 Z"/></g>
<g><path style="opacity:1" fill="#c6c7cb" d="M 195.5,115.5 C 196.165,117.369 196.831,119.369 197.5,121.5C 199.619,114.835 200.952,115.169 201.5,122.5C 202.795,120.672 203.795,118.672 204.5,116.5C 205.321,119.446 205.321,122.446 204.5,125.5C 200.821,125.276 197.154,124.942 193.5,124.5C 193.405,121.303 194.072,118.303 195.5,115.5 Z"/></g>
<g><path style="opacity:1" fill="#fafbfb" d="M 209.5,110.5 C 209.5,142.5 209.5,174.5 209.5,206.5C 176.833,206.5 144.167,206.5 111.5,206.5C 168.295,199.037 200.962,167.037 209.5,110.5 Z"/></g>
<g><path style="opacity:1" fill="#c9d3bd" d="M 101.5,123.5 C 104.385,123.194 107.052,123.527 109.5,124.5C 109.719,125.675 109.386,126.675 108.5,127.5C 105.23,125.84 101.897,125.506 98.5,126.5C 97.7025,126.043 97.3691,125.376 97.5,124.5C 98.9587,124.567 100.292,124.234 101.5,123.5 Z"/></g>
<g><path style="opacity:1" fill="#6e6f96" d="M 119.5,120.5 C 124.923,120.518 130.256,121.185 135.5,122.5C 137.607,123.468 139.941,123.802 142.5,123.5C 142.5,124.833 142.5,126.167 142.5,127.5C 141.348,126.375 140.348,126.375 139.5,127.5C 136.572,127.565 133.905,128.232 131.5,129.5C 131.167,129.5 130.833,129.5 130.5,129.5C 124.676,125.668 118.343,124.335 111.5,125.5C 110.833,125.167 110.167,124.833 109.5,124.5C 107.052,123.527 104.385,123.194 101.5,123.5C 101.5,122.167 101.5,120.833 101.5,119.5C 107.477,120.165 113.477,120.498 119.5,120.5 Z"/></g>
<g><path style="opacity:1" fill="#dcd4ce" d="M 135.5,122.5 C 139.167,122.5 142.833,122.5 146.5,122.5C 146.5,124.5 146.5,126.5 146.5,128.5C 145.041,128.567 143.708,128.234 142.5,127.5C 142.5,126.167 142.5,124.833 142.5,123.5C 139.941,123.802 137.607,123.468 135.5,122.5 Z"/></g>
<g><path style="opacity:1" fill="#efefeb" d="M 56.5,119.5 C 64.2438,120.12 71.9104,121.287 79.5,123C 84.9406,125.882 90.6073,126.715 96.5,125.5C 96.2003,128.244 97.367,129.911 100,130.5C 104.521,131.485 109.354,131.485 114.5,130.5C 114.574,126.839 113.574,126.172 111.5,128.5C 110.438,127.575 110.438,126.575 111.5,125.5C 118.343,124.335 124.676,125.668 130.5,129.5C 128.172,130.718 125.672,131.718 123,132.5C 122.667,137.833 122.333,143.167 122,148.5C 121.292,149.381 120.458,150.047 119.5,150.5C 119.158,149.662 118.492,149.328 117.5,149.5C 118.72,147.716 118.72,146.05 117.5,144.5C 117.389,143.883 117.056,143.383 116.5,143C 113.854,142.503 111.187,142.336 108.5,142.5C 108.694,139.67 109.361,137.004 110.5,134.5C 106.833,134.5 103.167,134.5 99.5,134.5C 100.008,137.176 100.175,139.843 100,142.5C 97.595,142.964 95.095,143.131 92.5,143C 91.7476,143.671 91.4142,144.504 91.5,145.5C 91.1667,145.5 90.8333,145.5 90.5,145.5C 88.3792,145.675 86.3792,145.341 84.5,144.5C 83.564,140.265 83.2307,135.931 83.5,131.5C 78.8057,130.88 74.3057,129.547 70,127.5C 68.9889,128.056 68.1556,128.722 67.5,129.5C 66.5,129.5 65.5,129.5 64.5,129.5C 63.8365,127.958 63.1698,126.291 62.5,124.5C 60.0554,123.688 57.7221,122.688 55.5,121.5C 55.3284,120.508 55.6618,119.842 56.5,119.5 Z"/></g>
<g><path style="opacity:1" fill="#42795a" d="M 96.5,124.5 C 96.8333,124.5 97.1667,124.5 97.5,124.5C 97.3691,125.376 97.7025,126.043 98.5,126.5C 101.897,125.506 105.23,125.84 108.5,127.5C 109.386,126.675 109.719,125.675 109.5,124.5C 110.167,124.833 110.833,125.167 111.5,125.5C 110.438,126.575 110.438,127.575 111.5,128.5C 113.574,126.172 114.574,126.839 114.5,130.5C 109.354,131.485 104.521,131.485 100,130.5C 97.367,129.911 96.2003,128.244 96.5,125.5C 96.5,125.167 96.5,124.833 96.5,124.5 Z"/></g>
<g><path style="opacity:1" fill="#c1c04b" d="M 167.5,120.5 C 167.521,123.535 168.854,125.868 171.5,127.5C 169.016,129.483 166.683,131.65 164.5,134C 165.905,135.269 167.571,135.769 169.5,135.5C 169.5,136.833 169.5,138.167 169.5,139.5C 166.995,139.98 164.662,140.98 162.5,142.5C 161.438,141.575 161.438,140.575 162.5,139.5C 163.289,139.217 163.956,138.717 164.5,138C 163.313,136.981 162.313,135.814 161.5,134.5C 163.5,132.167 165.5,129.833 167.5,127.5C 162.198,125.093 162.198,122.76 167.5,120.5 Z"/></g>
<g><path style="opacity:1" fill="#dadbde" d="M 192.5,125.5 C 195.736,126.707 198.903,127.373 202,127.5C 202.77,137.08 199.103,139.08 191,133.5C 190.572,130.678 191.072,128.012 192.5,125.5 Z"/></g>
<g><path style="opacity:1" fill="#2e2f33" d="M 197.5,129.5 C 198.5,129.5 199.5,129.5 200.5,129.5C 200.778,131.346 200.111,132.68 198.5,133.5C 197.571,132.311 197.238,130.978 197.5,129.5 Z"/></g>
<g><path style="opacity:1" fill="#404145" d="M 193.5,127.5 C 194.649,127.791 195.316,128.624 195.5,130C 195.167,130.833 194.833,131.667 194.5,132.5C 193.548,130.955 193.215,129.288 193.5,127.5 Z"/></g>
<g><path style="opacity:1" fill="#7c5d4c" d="M 117.5,144.5 C 117.631,145.376 117.298,146.043 116.5,146.5C 113.933,146.222 111.267,146.056 108.5,146C 109.258,144.636 108.758,143.469 107,142.5C 106.506,140.866 106.34,139.199 106.5,137.5C 105.5,137.5 104.5,137.5 103.5,137.5C 103.116,140.769 101.782,143.603 99.5,146C 97.9651,146.496 96.4651,146.33 95,145.5C 94.0497,146.022 93.2164,146.689 92.5,147.5C 91.7025,147.043 91.3691,146.376 91.5,145.5C 91.4142,144.504 91.7476,143.671 92.5,143C 95.095,143.131 97.595,142.964 100,142.5C 100.175,139.843 100.008,137.176 99.5,134.5C 103.167,134.5 106.833,134.5 110.5,134.5C 109.361,137.004 108.694,139.67 108.5,142.5C 111.187,142.336 113.854,142.503 116.5,143C 117.056,143.383 117.389,143.883 117.5,144.5 Z"/></g>
<g><path style="opacity:1" fill="#dbdfe2" d="M 189.5,135.5 C 192.921,136.378 195.921,138.044 198.5,140.5C 197.635,141.583 196.635,141.749 195.5,141C 192.957,139.618 190.957,137.785 189.5,135.5 Z"/></g>
<g><path style="opacity:1" fill="#261f2f" d="M 139.5,127.5 C 137.936,131.315 136.936,135.315 136.5,139.5C 136.687,144.774 137.187,144.774 138,139.5C 138.667,141.833 138.667,144.167 138,146.5C 137.586,146.957 137.086,147.291 136.5,147.5C 135.217,142.479 135.217,137.479 136.5,132.5C 135.625,130.227 133.958,129.227 131.5,129.5C 133.905,128.232 136.572,127.565 139.5,127.5 Z"/></g>
<g><path style="opacity:1" fill="#242523" d="M 174.5,111.5 C 175.167,111.5 175.833,111.5 176.5,111.5C 177.043,111.56 177.376,111.893 177.5,112.5C 176.368,114.489 175.035,116.156 173.5,117.5C 174.562,116.425 174.562,115.425 173.5,114.5C 171.055,116.06 169.055,118.06 167.5,120.5C 162.198,122.76 162.198,125.093 167.5,127.5C 165.5,129.833 163.5,132.167 161.5,134.5C 162.313,135.814 163.313,136.981 164.5,138C 163.956,138.717 163.289,139.217 162.5,139.5C 162.179,137.952 161.179,137.285 159.5,137.5C 159.12,132.803 160.12,128.47 162.5,124.5C 162.41,122.575 161.41,121.408 159.5,121C 160.167,120.667 160.833,120.333 161.5,120C 159.272,119.18 157.272,119.513 155.5,121C 157.061,121.318 158.228,122.151 159,123.5C 159.333,123.167 159.667,122.833 160,122.5C 161.088,125.492 160.421,126.492 158,125.5C 155.114,127.225 151.948,127.892 148.5,127.5C 150.279,134.735 150.779,142.068 150,149.5C 149.617,150.056 149.117,150.389 148.5,150.5C 148.5,149.5 148.5,148.5 148.5,147.5C 148.5,144.167 148.5,140.833 148.5,137.5C 149.314,133.491 147.814,130.824 144,129.5C 142.395,130.101 141.062,131.101 140,132.5C 139.503,135.146 139.336,137.813 139.5,140.5C 139.5,143.167 139.5,145.833 139.5,148.5C 139.5,150.5 139.5,152.5 139.5,154.5C 139.5,155.167 139.5,155.833 139.5,156.5C 139.837,160.308 139.337,163.974 138,167.5C 137.305,162.641 136.805,157.974 136.5,153.5C 134.273,148.266 132.94,148.599 132.5,154.5C 133.5,154.5 134.5,154.5 135.5,154.5C 135.5,155.5 135.5,156.5 135.5,157.5C 133.571,157.231 131.905,157.731 130.5,159C 131.448,159.483 132.448,159.649 133.5,159.5C 133.649,160.552 133.483,161.552 133,162.5C 131.041,163.748 129.541,165.415 128.5,167.5C 127.032,165.667 125.365,165.334 123.5,166.5C 125.387,169.29 127.887,171.29 131,172.5C 131.167,173.167 131.333,173.833 131.5,174.5C 129.697,176.959 128.363,179.626 127.5,182.5C 124.873,183.092 122.206,183.425 119.5,183.5C 119.5,184.5 119.5,185.5 119.5,186.5C 118.5,186.5 117.5,186.5 116.5,186.5C 116.5,185.5 116.5,184.5 116.5,183.5C 107.833,183.5 99.1667,183.5 90.5,183.5C 87.0584,182.252 83.3917,181.419 79.5,181C 81.4727,180.505 83.4727,180.338 85.5,180.5C 92.314,181.197 99.1473,181.863 106,182.5C 109.5,182.167 113,181.833 116.5,181.5C 119.217,181.026 121.55,180.026 123.5,178.5C 130.772,176.634 131.105,173.968 124.5,170.5C 121.167,167.833 118.167,164.833 115.5,161.5C 115.201,159.396 115.534,157.396 116.5,155.5C 117.952,154.06 118.952,152.394 119.5,150.5C 120.458,150.047 121.292,149.381 122,148.5C 122.333,143.167 122.667,137.833 123,132.5C 125.672,131.718 128.172,130.718 130.5,129.5C 130.833,129.5 131.167,129.5 131.5,129.5C 133.958,129.227 135.625,130.227 136.5,132.5C 135.217,137.479 135.217,142.479 136.5,147.5C 137.086,147.291 137.586,146.957 138,146.5C 138.667,144.167 138.667,141.833 138,139.5C 137.187,144.774 136.687,144.774 136.5,139.5C 136.936,135.315 137.936,131.315 139.5,127.5C 140.348,126.375 141.348,126.375 142.5,127.5C 143.708,128.234 145.041,128.567 146.5,128.5C 146.5,126.5 146.5,124.5 146.5,122.5C 149.947,121.917 152.947,120.584 155.5,118.5C 158.079,118.606 160.412,117.939 162.5,116.5C 165.034,116.741 166.7,115.741 167.5,113.5C 170.152,113.59 172.485,112.924 174.5,111.5 Z"/></g>
<g><path style="opacity:1" fill="#cf8641" d="M 148.5,137.5 C 148.5,140.833 148.5,144.167 148.5,147.5C 147.833,147.5 147.167,147.5 146.5,147.5C 144.283,148.369 141.95,148.702 139.5,148.5C 139.5,145.833 139.5,143.167 139.5,140.5C 141.27,139.144 142.603,137.311 143.5,135C 145.061,134.812 145.728,135.645 145.5,137.5C 146.5,137.5 147.5,137.5 148.5,137.5 Z"/></g>
<g><path style="opacity:1" fill="#d8b34d" d="M 148.5,137.5 C 147.5,137.5 146.5,137.5 145.5,137.5C 145.728,135.645 145.061,134.812 143.5,135C 142.603,137.311 141.27,139.144 139.5,140.5C 139.336,137.813 139.503,135.146 140,132.5C 141.062,131.101 142.395,130.101 144,129.5C 147.814,130.824 149.314,133.491 148.5,137.5 Z"/></g>
<g><path style="opacity:1" fill="#e0d666" d="M 84.5,144.5 C 86.3792,145.341 88.3792,145.675 90.5,145.5C 90.8333,149.167 92.8333,151.167 96.5,151.5C 96.5,152.5 96.5,153.5 96.5,154.5C 95.027,153.26 93.3604,152.26 91.5,151.5C 90.5713,152.689 90.238,154.022 90.5,155.5C 86.8067,152.795 84.8067,149.128 84.5,144.5 Z"/></g>
<g><path style="opacity:1" fill="#222528" d="M 8.5,87.5 C 9.16667,87.5 9.83333,87.5 10.5,87.5C 11.5145,88.7647 13.0145,89.4313 15,89.5C 16.7067,89.4915 18.2067,89.1582 19.5,88.5C 20.7281,87.6935 21.7281,86.6935 22.5,85.5C 23.1515,84.9094 23.8182,84.2427 24.5,83.5C 24.8333,84.1667 25.1667,84.8333 25.5,85.5C 22.8525,87.5491 22.0192,90.2158 23,93.5C 24.1029,89.9521 25.2695,90.2854 26.5,94.5C 25.1854,96.1986 25.1854,97.8653 26.5,99.5C 24.8872,100.838 24.3872,102.505 25,104.5C 26.7658,106.596 28.0991,108.929 29,111.5C 29.6708,112.252 30.5041,112.586 31.5,112.5C 33.9362,114.016 35.9362,116.016 37.5,118.5C 37.5,118.833 37.5,119.167 37.5,119.5C 36.5037,122.482 36.337,125.482 37,128.5C 35.0528,129.11 33.2194,129.943 31.5,131C 32.3081,131.308 32.9747,131.808 33.5,132.5C 31.7018,135.289 31.2018,138.289 32,141.5C 32.7096,142.973 33.8762,143.64 35.5,143.5C 35.5,140.833 35.5,138.167 35.5,135.5C 37.6636,135.721 39.3303,136.721 40.5,138.5C 40.4142,139.496 40.7476,140.329 41.5,141C 43.8437,142.028 46.1771,142.694 48.5,143C 47.3128,141.981 46.3128,140.814 45.5,139.5C 46.5,138.167 47.5,136.833 48.5,135.5C 46.6419,133.476 44.9752,131.309 43.5,129C 44.9247,127.638 45.758,126.138 46,124.5C 43.6303,121.961 41.1303,119.628 38.5,117.5C 36.9456,116.105 37.279,115.439 39.5,115.5C 44.692,117.801 50.0253,119.801 55.5,121.5C 57.7221,122.688 60.0554,123.688 62.5,124.5C 63.1698,126.291 63.8365,127.958 64.5,129.5C 64.2624,131.404 63.2624,132.738 61.5,133.5C 60.1667,139.5 60.1667,145.5 61.5,151.5C 62.7129,154.719 64.7129,157.385 67.5,159.5C 69.9009,156.231 70.9009,152.565 70.5,148.5C 70.5,146.833 70.5,145.167 70.5,143.5C 70.6646,140.482 70.498,137.482 70,134.5C 68.6283,133.09 67.795,131.423 67.5,129.5C 68.1556,128.722 68.9889,128.056 70,127.5C 74.3057,129.547 78.8057,130.88 83.5,131.5C 83.2307,135.931 83.564,140.265 84.5,144.5C 84.8067,149.128 86.8067,152.795 90.5,155.5C 91.1098,156.391 91.4431,157.391 91.5,158.5C 91.5,160.167 91.5,161.833 91.5,163.5C 89.1838,164.806 86.8505,166.139 84.5,167.5C 81.9745,168.681 79.4745,170.014 77,171.5C 75.9231,174.262 76.7564,175.928 79.5,176.5C 81.2299,178.121 83.2299,179.455 85.5,180.5C 83.4727,180.338 81.4727,180.505 79.5,181C 83.3917,181.419 87.0584,182.252 90.5,183.5C 87.7212,183.279 85.0545,183.612 82.5,184.5C 81.1779,184.33 80.0113,184.663 79,185.5C 77.1667,188.5 75.3333,191.5 73.5,194.5C 73.8333,194.833 74.1667,195.167 74.5,195.5C 76.5098,193.829 78.8431,193.162 81.5,193.5C 81.238,194.978 81.5713,196.311 82.5,197.5C 83.487,194.232 83.8204,190.898 83.5,187.5C 84.609,187.443 85.609,187.11 86.5,186.5C 87.209,185.596 88.209,185.263 89.5,185.5C 89.2322,187.099 89.5655,188.432 90.5,189.5C 90.7261,192.249 90.3928,194.916 89.5,197.5C 89.8333,197.833 90.1667,198.167 90.5,198.5C 91.3142,196.234 91.8142,193.9 92,191.5C 93.9927,193.818 95.1594,196.484 95.5,199.5C 96.5,199.5 97.5,199.5 98.5,199.5C 97.7375,200.268 96.7375,200.768 95.5,201C 97.5477,202.226 97.881,203.726 96.5,205.5C 86.3349,204.293 76.3349,202.127 66.5,199C 27.0302,181.033 4.69684,150.533 -0.5,107.5C -0.5,103.5 -0.5,99.5 -0.5,95.5C 0.166667,92.1667 0.833333,88.8333 1.5,85.5C 4.5649,80.0691 5.89824,80.4024 5.5,86.5C 4.5,86.5 3.5,86.5 2.5,86.5C 2.35055,87.552 2.51722,88.552 3,89.5C 4.40072,87.8078 6.23405,87.1412 8.5,87.5 Z"/></g>
<g><path style="opacity:1" fill="#bd7643" d="M 61.5,133.5 C 61.335,136.85 61.5017,140.183 62,143.5C 63.6023,141.693 64.9356,139.693 66,137.5C 66.4955,139.473 66.6621,141.473 66.5,143.5C 67.8333,143.5 69.1667,143.5 70.5,143.5C 70.5,145.167 70.5,146.833 70.5,148.5C 69.7784,148.082 69.2784,147.416 69,146.5C 68.6667,148.167 68.3333,149.833 68,151.5C 67.7811,150.062 67.2811,148.729 66.5,147.5C 64.946,149.093 63.2793,150.426 61.5,151.5C 60.1667,145.5 60.1667,139.5 61.5,133.5 Z"/></g>
<g><path style="opacity:1" fill="#ced2d4" d="M 24.5,142.5 C 26.7359,144.094 28.4026,146.261 29.5,149C 29.1667,149.5 28.8333,150 28.5,150.5C 27.561,148.947 26.3943,147.613 25,146.5C 24.5,146.833 24,147.167 23.5,147.5C 26.2277,153.627 25.561,153.961 21.5,148.5C 21.0691,151.285 21.0691,153.952 21.5,156.5C 19.5562,154.72 18.2229,152.553 17.5,150C 19.3483,146.987 21.6817,144.487 24.5,142.5 Z"/></g>
<g><path style="opacity:1" fill="#20241e" d="M 37.5,119.5 C 43.3753,122.167 43.7086,125.167 38.5,128.5C 39.9301,130.386 41.5968,132.053 43.5,133.5C 44.3857,134.325 44.719,135.325 44.5,136.5C 42.6203,136.229 41.287,136.896 40.5,138.5C 39.3303,136.721 37.6636,135.721 35.5,135.5C 35.5,138.167 35.5,140.833 35.5,143.5C 33.8762,143.64 32.7096,142.973 32,141.5C 31.2018,138.289 31.7018,135.289 33.5,132.5C 32.9747,131.808 32.3081,131.308 31.5,131C 33.2194,129.943 35.0528,129.11 37,128.5C 36.337,125.482 36.5037,122.482 37.5,119.5 Z"/></g>
<g><path style="opacity:1" fill="#d9dcdf" d="M 17.5,131.5 C 18.675,131.281 19.675,131.614 20.5,132.5C 22.2723,134.941 23.6056,137.608 24.5,140.5C 24.1667,140.833 23.8333,141.167 23.5,141.5C 22.8333,140.833 22.1667,140.167 21.5,139.5C 12.0387,144.641 11.5387,143.974 20,137.5C 20.6123,135.763 19.9457,134.763 18,134.5C 15.8449,135.244 13.8449,136.244 12,137.5C 11.5,137.167 11,136.833 10.5,136.5C 12.6866,134.578 15.0199,132.912 17.5,131.5 Z"/></g>
<g><path style="opacity:1" fill="#cfa94c" d="M 64.5,129.5 C 65.5,129.5 66.5,129.5 67.5,129.5C 67.795,131.423 68.6283,133.09 70,134.5C 70.498,137.482 70.6646,140.482 70.5,143.5C 69.1667,143.5 67.8333,143.5 66.5,143.5C 66.6621,141.473 66.4955,139.473 66,137.5C 64.9356,139.693 63.6023,141.693 62,143.5C 61.5017,140.183 61.335,136.85 61.5,133.5C 63.2624,132.738 64.2624,131.404 64.5,129.5 Z"/></g>
<g><path style="opacity:1" fill="#c2c04a" d="M 38.5,117.5 C 41.1303,119.628 43.6303,121.961 46,124.5C 45.758,126.138 44.9247,127.638 43.5,129C 44.9752,131.309 46.6419,133.476 48.5,135.5C 47.5,136.833 46.5,138.167 45.5,139.5C 46.3128,140.814 47.3128,141.981 48.5,143C 46.1771,142.694 43.8437,142.028 41.5,141C 40.7476,140.329 40.4142,139.496 40.5,138.5C 41.287,136.896 42.6203,136.229 44.5,136.5C 44.719,135.325 44.3857,134.325 43.5,133.5C 41.5968,132.053 39.9301,130.386 38.5,128.5C 43.7086,125.167 43.3753,122.167 37.5,119.5C 37.5,119.167 37.5,118.833 37.5,118.5C 37.5,117.833 37.8333,117.5 38.5,117.5 Z"/></g>
<g><path style="opacity:1" fill="#d4d5d8" d="M 12.5,105.5 C 14.3547,105.272 15.1881,105.939 15,107.5C 7.61073,110.039 7.7774,111.372 15.5,111.5C 15.6495,112.552 15.4828,113.552 15,114.5C 7.56873,117.627 8.06873,119.294 16.5,119.5C 17.2458,120.736 17.5792,122.07 17.5,123.5C 16.1667,123.5 14.8333,123.5 13.5,123.5C 13.2388,127.044 14.9055,128.878 18.5,129C 15.2221,130.809 11.8888,132.309 8.5,133.5C 10.4116,131.178 11.745,128.512 12.5,125.5C 10.8561,125.286 9.35613,125.62 8,126.5C 7.31621,125.216 7.48288,124.049 8.5,123C 10.2464,122.529 11.913,121.862 13.5,121C 10.854,120.503 8.1873,120.336 5.5,120.5C 5.70771,116.856 7.70771,114.689 11.5,114C 9.5,113.667 7.5,113.333 5.5,113C 4.48288,111.951 4.31621,110.784 5,109.5C 7.51382,107.996 10.0138,106.662 12.5,105.5 Z"/></g>
<g><path style="opacity:1" fill="#d45b2a" d="M 146.5,147.5 C 146.854,150.421 145.854,152.754 143.5,154.5C 142.3,155.292 140.967,155.292 139.5,154.5C 139.5,152.5 139.5,150.5 139.5,148.5C 141.95,148.702 144.283,148.369 146.5,147.5 Z"/></g>
<g><path style="opacity:1" fill="#c5552c" d="M 70.5,148.5 C 70.9009,152.565 69.9009,156.231 67.5,159.5C 64.7129,157.385 62.7129,154.719 61.5,151.5C 63.2793,150.426 64.946,149.093 66.5,147.5C 67.2811,148.729 67.7811,150.062 68,151.5C 68.3333,149.833 68.6667,148.167 69,146.5C 69.2784,147.416 69.7784,148.082 70.5,148.5 Z"/></g>
<g><path style="opacity:1" fill="#ad4e38" d="M 146.5,147.5 C 147.167,147.5 147.833,147.5 148.5,147.5C 148.5,148.5 148.5,149.5 148.5,150.5C 146.917,155.146 143.917,157.146 139.5,156.5C 139.5,155.833 139.5,155.167 139.5,154.5C 140.967,155.292 142.3,155.292 143.5,154.5C 145.854,152.754 146.854,150.421 146.5,147.5 Z"/></g>
<g><path style="opacity:1" fill="#cbced1" d="M 186.5,139.5 C 190.241,138.599 192.241,139.932 192.5,143.5C 194.167,143.5 195.833,143.5 197.5,143.5C 197.5,144.5 197.5,145.5 197.5,146.5C 195.076,146.192 192.743,146.526 190.5,147.5C 194.236,153.507 193.236,154.007 187.5,149C 184.866,148.075 183.699,148.909 184,151.5C 185.667,153.167 187.333,154.833 189,156.5C 189.688,157.332 189.521,157.998 188.5,158.5C 185.427,155.628 182.094,153.962 178.5,153.5C 182.103,149.342 184.77,144.676 186.5,139.5 Z"/></g>
<g><path style="opacity:1" fill="#282c2e" d="M 188.5,141.5 C 191.041,142.623 191.041,143.956 188.5,145.5C 187.374,144.192 187.374,142.858 188.5,141.5 Z"/></g>
<g><path style="opacity:1" fill="#916146" d="M 117.5,144.5 C 118.72,146.05 118.72,147.716 117.5,149.5C 116.279,150.028 115.113,150.695 114,151.5C 113.163,155.514 112.329,159.514 111.5,163.5C 109.967,168.523 106.633,170.356 101.5,169C 100.067,166.827 98.7339,164.66 97.5,162.5C 97.7373,161.209 97.404,160.209 96.5,159.5C 96.5,157.833 96.5,156.167 96.5,154.5C 96.5,153.5 96.5,152.5 96.5,151.5C 92.8333,151.167 90.8333,149.167 90.5,145.5C 90.8333,145.5 91.1667,145.5 91.5,145.5C 91.3691,146.376 91.7025,147.043 92.5,147.5C 93.2164,146.689 94.0497,146.022 95,145.5C 96.4651,146.33 97.9651,146.496 99.5,146C 101.782,143.603 103.116,140.769 103.5,137.5C 104.5,137.5 105.5,137.5 106.5,137.5C 106.34,139.199 106.506,140.866 107,142.5C 108.758,143.469 109.258,144.636 108.5,146C 111.267,146.056 113.933,146.222 116.5,146.5C 117.298,146.043 117.631,145.376 117.5,144.5 Z"/></g>
<g><path style="opacity:1" fill="#b16a3d" d="M 103.5,149.5 C 103.5,150.833 103.5,152.167 103.5,153.5C 108.797,155.09 109.797,158.09 106.5,162.5C 105.717,160.924 104.55,159.591 103,158.5C 102.163,152.163 101.497,152.497 101,159.5C 100.501,155.514 100.334,151.514 100.5,147.5C 102.179,147.285 103.179,147.952 103.5,149.5 Z"/></g>
<g><path style="opacity:1" fill="#edd71a" d="M 96.5,154.5 C 96.5,156.167 96.5,157.833 96.5,159.5C 94.7839,159.371 93.1172,159.038 91.5,158.5C 91.4431,157.391 91.1098,156.391 90.5,155.5C 90.238,154.022 90.5713,152.689 91.5,151.5C 93.3604,152.26 95.027,153.26 96.5,154.5 Z"/></g>
<g><path style="opacity:1" fill="#ce9d6e" d="M 106.5,162.5 C 109.797,158.09 108.797,155.09 103.5,153.5C 103.5,152.167 103.5,150.833 103.5,149.5C 105.456,147.852 107.789,147.185 110.5,147.5C 112.687,153.566 111.687,158.9 107.5,163.5C 106.893,163.376 106.56,163.043 106.5,162.5 Z"/></g>
<g><path style="opacity:1" fill="#e1ce32" d="M 117.5,149.5 C 118.492,149.328 119.158,149.662 119.5,150.5C 118.952,152.394 117.952,154.06 116.5,155.5C 115.534,157.396 115.201,159.396 115.5,161.5C 114.817,163.176 113.483,163.843 111.5,163.5C 112.329,159.514 113.163,155.514 114,151.5C 115.113,150.695 116.279,150.028 117.5,149.5 Z"/></g>
<g><path style="opacity:1" fill="#dcac2f" d="M 91.5,158.5 C 93.1172,159.038 94.7839,159.371 96.5,159.5C 97.404,160.209 97.7373,161.209 97.5,162.5C 97.2172,163.289 96.7172,163.956 96,164.5C 94.6439,163.62 93.1439,163.286 91.5,163.5C 91.5,161.833 91.5,160.167 91.5,158.5 Z"/></g>
<g><path style="opacity:1" fill="#d6d9dc" d="M 34.5,156.5 C 36.2517,156.418 37.2517,157.251 37.5,159C 34.5492,164.885 35.5492,165.718 40.5,161.5C 41.7199,161.887 42.3865,162.72 42.5,164C 40.3392,166.992 38.0059,169.826 35.5,172.5C 35.1667,172.167 34.8333,171.833 34.5,171.5C 35.4803,170.019 36.647,168.685 38,167.5C 38.6667,166.833 38.6667,166.167 38,165.5C 31.9951,171.309 30.3284,170.309 33,162.5C 32.044,163.579 31.2106,164.745 30.5,166C 29.5165,166.591 28.8499,166.257 28.5,165C 30.7048,162.298 32.7048,159.464 34.5,156.5 Z"/></g>
<g><path style="opacity:1" fill="#d6dadc" d="M 171.5,160.5 C 172.376,160.369 173.043,160.702 173.5,161.5C 169.285,167.188 169.952,168.188 175.5,164.5C 175.833,164.833 176.167,165.167 176.5,165.5C 175.653,166.845 174.487,167.845 173,168.5C 172.251,169.635 172.417,170.635 173.5,171.5C 175.332,170.752 176.999,169.752 178.5,168.5C 178.833,168.833 179.167,169.167 179.5,169.5C 177.909,171.633 175.909,173.299 173.5,174.5C 170.892,172.126 168.892,169.293 167.5,166C 168.65,164.019 169.984,162.186 171.5,160.5 Z"/></g>
<g><path style="opacity:1" fill="#d1d5d8" d="M 164.5,167.5 C 167.346,169.475 169.513,172.141 171,175.5C 171.749,176.635 171.583,177.635 170.5,178.5C 169.167,177.167 167.833,175.833 166.5,174.5C 165.914,174.709 165.414,175.043 165,175.5C 164.922,177.657 164.755,179.657 164.5,181.5C 161.419,178.698 160.086,175.365 160.5,171.5C 161.85,172.95 163.516,173.617 165.5,173.5C 165.167,171.5 164.833,169.5 164.5,167.5 Z"/></g>
<g><path style="opacity:1" fill="#8b4c2f" d="M 84.5,167.5 C 83.5,168.833 82.5,170.167 81.5,171.5C 79.8235,172.183 79.1568,173.517 79.5,175.5C 79.5,175.833 79.5,176.167 79.5,176.5C 76.7564,175.928 75.9231,174.262 77,171.5C 79.4745,170.014 81.9745,168.681 84.5,167.5 Z"/></g>
<g><path style="opacity:1" fill="#d97432" d="M 115.5,161.5 C 118.167,164.833 121.167,167.833 124.5,170.5C 117.626,171.718 110.626,172.385 103.5,172.5C 96.9956,172.459 90.6622,171.792 84.5,170.5C 83.5832,171.127 82.5832,171.461 81.5,171.5C 82.5,170.167 83.5,168.833 84.5,167.5C 86.8505,166.139 89.1838,164.806 91.5,163.5C 93.1439,163.286 94.6439,163.62 96,164.5C 96.7172,163.956 97.2172,163.289 97.5,162.5C 98.7339,164.66 100.067,166.827 101.5,169C 106.633,170.356 109.967,168.523 111.5,163.5C 113.483,163.843 114.817,163.176 115.5,161.5 Z"/></g>
<g><path style="opacity:1" fill="#d75227" d="M 124.5,170.5 C 131.105,173.968 130.772,176.634 123.5,178.5C 108.912,176.784 94.2448,175.784 79.5,175.5C 79.1568,173.517 79.8235,172.183 81.5,171.5C 82.5832,171.461 83.5832,171.127 84.5,170.5C 90.6622,171.792 96.9956,172.459 103.5,172.5C 110.626,172.385 117.626,171.718 124.5,170.5 Z"/></g>
<g><path style="opacity:1" fill="#cdd0d3" d="M 49.5,175.5 C 45.939,180.752 42.439,180.752 39,175.5C 38.3982,169.774 40.8982,166.941 46.5,167C 47.4162,167.374 48.2496,167.874 49,168.5C 49.4966,170.81 49.6633,173.143 49.5,175.5 Z"/></g>
<g><path style="opacity:1" fill="#2a2e31" d="M 43.5,168.5 C 47.8104,169.902 48.4771,172.402 45.5,176C 44.2068,176.49 42.8734,176.657 41.5,176.5C 41.1072,173.487 41.7739,170.82 43.5,168.5 Z"/></g>
<g><path style="opacity:1" fill="#c63530" d="M 79.5,175.5 C 94.2448,175.784 108.912,176.784 123.5,178.5C 121.55,180.026 119.217,181.026 116.5,181.5C 113,181.833 109.5,182.167 106,182.5C 99.1473,181.863 92.314,181.197 85.5,180.5C 83.2299,179.455 81.2299,178.121 79.5,176.5C 79.5,176.167 79.5,175.833 79.5,175.5 Z"/></g>
<g><path style="opacity:1" fill="#d4d8da" d="M 59.5,175.5 C 58.1667,178.833 56.8333,182.167 55.5,185.5C 49.0392,185.014 47.0392,181.681 49.5,175.5C 50.4793,174.235 51.4793,172.901 52.5,171.5C 52.8333,172 53.1667,172.5 53.5,173C 51.767,175.958 50.767,179.125 50.5,182.5C 51.9778,182.762 53.3112,182.429 54.5,181.5C 55.5,179.5 56.5,177.5 57.5,175.5C 58.2565,174.227 58.9232,174.227 59.5,175.5 Z"/></g>
<g><path style="opacity:1" fill="#d2d4d7" d="M 152.5,174.5 C 154.604,174.201 156.604,174.534 158.5,175.5C 156.955,176.452 155.288,176.785 153.5,176.5C 153.292,178.92 153.626,181.253 154.5,183.5C 155.689,184.429 157.022,184.762 158.5,184.5C 158.5,183.167 158.5,181.833 158.5,180.5C 159.5,180.5 160.5,180.5 161.5,180.5C 160.877,185.288 158.21,187.121 153.5,186C 150.119,182.351 149.786,178.517 152.5,174.5 Z"/></g>
<g><path style="opacity:1" fill="#4f5155" d="M 59.5,175.5 C 60.7095,175.932 61.7095,176.599 62.5,177.5C 58.9762,180.216 57.4762,183.883 58,188.5C 58.3826,187.944 58.8826,187.611 59.5,187.5C 59.1788,189.048 58.1788,189.715 56.5,189.5C 56.7678,187.901 56.4345,186.568 55.5,185.5C 56.8333,182.167 58.1667,178.833 59.5,175.5 Z"/></g>
<g><path style="opacity:1" fill="#d1d3d6" d="M 62.5,177.5 C 63.3171,179.969 63.8171,182.635 64,185.5C 64.8759,183.275 66.0426,181.275 67.5,179.5C 70.9097,180.911 74.243,182.411 77.5,184C 76.2068,184.49 74.8734,184.657 73.5,184.5C 73.1014,187.696 72.1014,190.696 70.5,193.5C 70.3886,190.112 70.3886,186.778 70.5,183.5C 69.3914,182.41 68.3914,182.41 67.5,183.5C 66.4229,185.729 65.7563,188.063 65.5,190.5C 64.1667,190.5 62.8333,190.5 61.5,190.5C 61.6641,187.813 61.4974,185.146 61,182.5C 59.9914,184.025 59.4914,185.692 59.5,187.5C 58.8826,187.611 58.3826,187.944 58,188.5C 57.4762,183.883 58.9762,180.216 62.5,177.5 Z"/></g>
<g><path style="opacity:1" fill="#dedfe3" d="M 143.5,179.5 C 144.552,179.351 145.552,179.517 146.5,180C 148.694,182.695 150.694,185.528 152.5,188.5C 150.657,188.755 148.657,188.922 146.5,189C 145.929,190.205 145.262,191.372 144.5,192.5C 143.508,188.217 143.174,183.884 143.5,179.5 Z"/></g>
<g><path style="opacity:1" fill="#323337" d="M 145.5,183.5 C 147.332,184.14 147.665,185.14 146.5,186.5C 145.614,185.675 145.281,184.675 145.5,183.5 Z"/></g>
<g><path style="opacity:1" fill="#d0d4d6" d="M 135.5,182.5 C 137.199,182.34 138.866,182.506 140.5,183C 141.059,183.725 141.392,184.558 141.5,185.5C 140.559,188.108 138.892,190.108 136.5,191.5C 137.246,192.736 137.579,194.07 137.5,195.5C 135.94,195.519 134.44,195.852 133,196.5C 131.079,194.997 128.912,194.331 126.5,194.5C 126.5,195.833 126.5,197.167 126.5,198.5C 125.5,198.5 124.5,198.5 123.5,198.5C 124.646,194.246 125.313,189.913 125.5,185.5C 126.978,185.238 128.311,185.571 129.5,186.5C 133.566,196.658 134.899,196.658 133.5,186.5C 133.803,184.886 134.47,183.552 135.5,182.5 Z"/></g>
<g><path style="opacity:1" fill="#515255" d="M 135.5,184.5 C 136.833,184.5 138.167,184.5 139.5,184.5C 139.833,187.5 138.5,188.833 135.5,188.5C 135.5,187.167 135.5,185.833 135.5,184.5 Z"/></g>
<g><path style="opacity:1" fill="#c4cccc" d="M 86.5,186.5 C 87.7251,187.152 88.3917,188.319 88.5,190C 88.2781,192.944 87.6115,195.777 86.5,198.5C 85.3875,194.507 85.3875,190.507 86.5,186.5 Z"/></g>
<g><path style="opacity:1" fill="#d0d2d4" d="M 82.5,184.5 C 82.2627,185.791 82.596,186.791 83.5,187.5C 83.8204,190.898 83.487,194.232 82.5,197.5C 81.5713,196.311 81.238,194.978 81.5,193.5C 78.8431,193.162 76.5098,193.829 74.5,195.5C 74.1667,195.167 73.8333,194.833 73.5,194.5C 75.3333,191.5 77.1667,188.5 79,185.5C 80.0113,184.663 81.1779,184.33 82.5,184.5 Z"/></g>
<g><path style="opacity:1" fill="#cbcccf" d="M 98.5,199.5 C 97.5,199.5 96.5,199.5 95.5,199.5C 95.1594,196.484 93.9927,193.818 92,191.5C 91.8142,193.9 91.3142,196.234 90.5,198.5C 90.1667,198.167 89.8333,197.833 89.5,197.5C 90.3928,194.916 90.7261,192.249 90.5,189.5C 90.5,188.5 90.5,187.5 90.5,186.5C 91.5,186.5 92.5,186.5 93.5,186.5C 95.3146,195.961 96.3146,196.294 96.5,187.5C 97.5,187.5 98.5,187.5 99.5,187.5C 99.3542,191.519 99.0209,195.519 98.5,199.5 Z"/></g>
<g><path style="opacity:1" fill="#2476ab" d="M 105.5,187.5 C 116.216,186.508 118.883,190.508 113.5,199.5C 103.498,200.799 100.831,196.799 105.5,187.5 Z"/></g>
</svg>
